<svg width="296" height="243" viewBox="0 0 296 243" fill="none" xmlns="http://www.w3.org/2000/svg">
<path d="M147.395 34.249C143.582 43.3778 137.656 65.0361 144.466 78.6389C136.828 84.9756 122.432 105.394 125.958 136.375C127.295 148.126 122.574 159.574 115.122 169.836C102.926 186.63 83.414 200.245 71.1654 206.804C55.0436 218.309 30.881 240.388 63.2049 236.667C95.5288 232.945 124.673 217.47 135.204 210.197C147.889 198.752 172.109 169.575 171.276 141.577C171.167 140.525 171.096 139.447 171.065 138.342C168.136 109.387 157.636 84.8475 152.753 76.197C153.456 65.5668 156.163 44.4734 161.363 45.1424L147.395 34.249Z" fill="#EACE4F"/>
<path d="M152.753 76.197C157.636 84.8475 168.136 109.387 171.065 138.342C171.174 139.418 171.244 140.497 171.276 141.577C174.563 173.432 212.489 181.693 231.644 181.779C246.62 179.117 279.085 170.951 289.143 159.582C301.715 145.37 253.458 153.087 244.482 155.732C239.856 157.095 227.449 154.374 215.922 147.446C215.9 147.433 215.878 147.42 215.857 147.407C205.041 140.889 195.014 130.666 192.937 116.638C188.643 87.6349 171.74 80.3578 169.095 71.3815C166.979 64.2005 173.693 50.7649 177.314 44.9447C174.164 45.2893 166.563 45.8114 161.363 45.1424C156.163 44.4734 153.456 65.5668 152.753 76.197Z" fill="#DFB90D"/>
<path d="M235.483 115.857C217.381 123.957 201.123 122.064 192.937 116.638C195.014 130.666 205.041 140.889 215.857 147.407L215.922 147.446C218.98 149.18 234.997 144.198 253.622 129.024C272.382 113.74 271.509 99.7384 235.483 115.857Z" fill="#DFB90D"/>
<path d="M125.958 136.375C114.813 143.828 88.9154 158.547 74.4852 157.796C41.0263 161.402 40.2543 173.441 63.4333 180.565C82.9633 186.567 106.908 177.974 115.122 169.836C122.574 159.574 127.295 148.126 125.958 136.375Z" fill="#EACE4F"/>
<path d="M161.363 45.1424C166.563 45.8114 174.164 45.2893 177.314 44.9447C182.981 35.8377 149.536 17.2418 147.395 34.249L161.363 45.1424Z" fill="#604216"/>
<path d="M147.395 34.249C143.582 43.3778 137.656 65.0361 144.466 78.6389C136.828 84.9756 122.432 105.394 125.958 136.375M147.395 34.249C149.536 17.2418 182.981 35.8377 177.314 44.9447M147.395 34.249L161.363 45.1424M125.958 136.375C114.813 143.828 88.9154 158.547 74.4852 157.796C41.0263 161.402 40.2543 173.441 63.4333 180.565C82.9633 186.567 106.908 177.974 115.122 169.836M125.958 136.375C127.295 148.126 122.574 159.574 115.122 169.836M171.065 138.342C168.136 109.387 157.636 84.8475 152.753 76.197C153.456 65.5668 156.163 44.4734 161.363 45.1424M171.065 138.342C171.096 139.447 171.167 140.525 171.276 141.577M171.065 138.342C171.174 139.418 171.244 140.497 171.276 141.577M161.363 45.1424C166.563 45.8114 174.164 45.2893 177.314 44.9447M177.314 44.9447C173.693 50.7649 166.979 64.2005 169.095 71.3815C171.74 80.3578 188.643 87.6349 192.937 116.638M192.937 116.638C201.123 122.064 217.381 123.957 235.483 115.857C271.509 99.7384 272.382 113.74 253.622 129.024C234.997 144.198 218.98 149.18 215.922 147.446M192.937 116.638C195.014 130.666 205.041 140.889 215.857 147.407M215.857 147.407C215.878 147.42 215.9 147.433 215.922 147.446M215.857 147.407C215.879 147.42 215.9 147.433 215.922 147.446M215.857 147.407L215.922 147.446M115.122 169.836C102.926 186.63 83.414 200.245 71.1654 206.804C55.0436 218.309 30.881 240.388 63.2049 236.667C95.5288 232.945 124.673 217.47 135.204 210.197C147.889 198.752 172.109 169.575 171.276 141.577M171.276 141.577C174.563 173.432 212.489 181.693 231.644 181.779C246.62 179.117 279.085 170.951 289.143 159.582C301.715 145.37 253.458 153.087 244.482 155.732C239.856 157.095 227.449 154.374 215.922 147.446" stroke="#9E723F" stroke-width="7.19858" stroke-linecap="round"/>
<path d="M121.388 144.107C120.472 156.683 111.639 172.996 92.2761 175.199" stroke="#DFB90D" stroke-width="3.35933" stroke-linecap="round"/>
<path d="M176.187 135.714C174.104 166.847 225.619 198.195 285.303 157.093" stroke="#EACE4F" stroke-width="4.79905" stroke-linecap="round"/>
<path d="M52.6603 232.645C107.381 233.28 168.757 193.681 165.138 134.71" stroke="#DFB90D" stroke-width="4.79905" stroke-linecap="round"/>
<path d="M147.824 109.055C149.136 113.504 146.592 118.174 142.142 119.485C137.693 120.796 140.468 109.554 139.157 105.105C137.846 100.656 140.39 95.9863 144.839 94.6753C149.288 93.3642 146.513 104.606 147.824 109.055Z" fill="#F3DD7B"/>
</svg>
