<svg width="262" height="217" viewBox="0 0 262 217" fill="none" xmlns="http://www.w3.org/2000/svg">
<path d="M226.595 129.819L18.848 211.725C17.5785 212.226 14.4173 207.928 13.8095 199.622C13.2017 191.315 21.8707 177.619 28.9195 171.144C34.5586 165.965 35.6625 161.864 35.5096 160.462C35.9488 157.517 37.0668 138.367 37.5636 140.135C38.0604 141.902 38.4418 143.715 41.1229 148.317C43.2678 151.998 41.1906 162.187 39.8839 166.822C38.8456 169.656 37.3046 175.23 39.4474 174.847C41.5902 174.464 43.1647 170.802 43.6841 169.019C44.2697 165.092 46.7204 150.845 47.1245 145.951C47.5286 141.056 59.8642 120.255 68.5513 115.906C75.501 112.427 81.5654 94.684 83.7289 86.2473C86.5802 99.9057 81.1906 113.464 79.5199 114.469C78.1833 115.273 73.5365 123.026 71.3801 126.802C65.7397 141.314 67.8098 147.342 69.5499 148.543C70.9372 144.485 78.192 138.668 84.2627 132.925C89.3663 129.296 93.8948 119.812 96.2999 113.397C98.6732 124.287 89.6869 140.257 84.8971 146.88C82.3985 159.992 91.4026 144.777 92.9283 142.559C94.4541 140.341 102.152 125.872 108.152 116.231C112.953 108.518 119.108 106.868 121.586 107.008C115.669 112.297 113.123 116.889 112.59 118.523C111.253 129.675 122.027 118.614 123.157 117.591C124.288 116.568 132.833 97.1456 123.342 95.2284C113.852 93.3112 115.934 85.9076 115.109 84.1539C114.449 82.751 118.08 66.6601 119.978 58.79C120.112 61.7785 120.4 68.9252 120.484 73.6039C120.59 79.4523 124.227 80.5591 127.719 80.4528C131.211 80.3464 134.515 78.5815 142.601 83.3623C149.07 87.1869 144.423 101.007 143.38 108.001C142.337 114.995 136.127 120.654 130.946 130.919C124.47 143.751 133.938 133.435 135.482 131.094C137.027 128.753 141.386 121.375 147.758 109.971C152.855 100.847 163.027 94.7499 167.475 92.842C163.208 95.818 160.169 102.498 159.184 105.466C156.84 123.367 167.668 114.132 176.424 106.406C183.429 100.226 183.397 89.7601 182.505 85.2997C180.057 79.3738 175.27 66.0705 175.702 60.2646C176.241 53.0072 183.224 36.0489 190.813 29.5921C196.884 24.4267 206.044 19.9685 209.865 18.385C185.998 37.8424 195.787 47.9572 203.055 49.4802C210.323 51.0033 210.512 50.4669 212.281 56.8143C213.696 61.8922 208.763 74.3311 206.12 79.9159C212.86 77.2584 217.023 69.6886 218.262 66.2358C220.097 61.124 220.685 54.8482 220.751 49.5481C229.717 52.9424 224.428 67.3853 220.662 74.1824C239.051 64.5071 241.049 37.2725 240.891 27.4025C240.766 19.5636 247.647 8.53759 251.179 3.89921C251.204 3.86467 251.229 3.8312 251.255 3.79883C251.23 3.83195 251.204 3.86541 251.179 3.89921C248.778 7.16677 248.009 20.0409 247.925 26.1309C252.197 53.9414 233.348 85.7356 229.693 91.9003L229.626 92.0138C226.839 96.7158 226.444 119.176 226.595 129.819Z" fill="#F71B1B" stroke="#F71B1B" stroke-width="1.24061" stroke-linecap="round"/>
<path d="M27.9545 208.132L215.85 134.052C214.999 125.187 215.526 104.176 224.435 91.055C235.571 74.6535 243.879 58.4435 244.266 42.0068C241.507 50.7938 236.229 74.9022 225.716 82.4657C215.202 90.0292 215.39 82.2637 216.798 77.4354C217.873 75.087 220.174 70.0993 220.782 68.9356C221.542 67.4811 213.757 75.9784 210.198 84.5416C206.64 93.1048 204.353 98.9726 202.275 99.7916C200.198 100.611 196.747 103.357 197.256 94.8411C199.267 90.5836 203.233 80.8435 203.008 75.9432C202.726 69.8177 203.805 64.773 194.763 63.4873C187.53 62.4587 189.416 52.9687 191.263 48.3523C189.579 50.9025 186.191 56.8654 186.111 60.3154C186.011 64.628 188.612 72.339 189.23 73.6375C190.571 76.4578 194.549 83.8591 193.313 89.2356C192.076 94.6121 187.236 107.546 177.766 116.268C168.297 124.991 158.151 123.001 154.261 120.916C153.209 120.445 152.575 116.199 158.457 102.978C154.957 106.783 147.786 115.824 147.107 121.542C146.258 128.691 143.891 136.554 137.03 142.492C131.542 147.243 124.429 149.539 121.558 150.094C120.143 149.381 116.255 146.025 123.698 138.656C126.571 135.175 132.78 126.414 134.636 119.214C136.956 110.216 140.647 100.76 138.447 93.659C136.688 87.9778 132.762 86.623 131.019 86.6557C133.057 89.7402 135.222 94.8939 134.466 99.964C133.093 109.167 126.869 117.395 122 125.436C118.183 130.636 112.672 140.916 108.442 138.981C107.423 138.042 105.375 137.231 106.753 132.255C105.406 136.133 102.3 139.49 100.835 143.366C99.0408 148.115 93.6184 158.106 86.2859 160.073C82.6555 161.351 76.4895 161.372 80.8687 151.238C81.1554 149.315 83.4857 142.722 90.5133 131.729C85.5992 136.515 80.092 142.767 77.367 147.768C76.0495 153.446 72.5159 164.417 68.9218 162.877C64.4291 160.953 62.7755 154.56 62.6432 152.533C62.511 150.507 64.1919 134.137 65.7359 131.796C67.28 129.455 70.1373 124.864 72.084 119.824C71.3464 120.884 68.0835 124.796 60.9322 131.958C58.3867 142.47 51.5522 155.52 50.3993 163.251C49.8202 169.561 47.8743 183.094 44.7237 186.738C40.7855 191.294 39.1006 195.307 32.9514 191.379C30.034 186.178 37.4783 174.72 38.3961 167.983C35.9766 171.824 30.7913 177.911 28.4463 180.798C24.676 185.442 22.916 188.984 23.0482 198.056C23.1063 202.036 24.1689 209.625 27.9545 208.132Z" fill="#EACE4F"/>
<path d="M106.753 132.255C105.375 137.231 107.423 138.042 108.442 138.981C112.672 140.916 118.183 130.636 122 125.436C126.869 117.395 133.093 109.167 134.466 99.964C135.222 94.8939 133.057 89.7402 131.019 86.6557C132.762 86.623 136.688 87.9778 138.447 93.659C140.647 100.76 136.956 110.216 134.636 119.214C132.78 126.414 126.571 135.175 123.698 138.656C116.255 146.025 120.143 149.381 121.558 150.094C124.429 149.539 131.542 147.243 137.03 142.492C143.891 136.554 146.258 128.691 147.107 121.542C147.786 115.824 154.957 106.783 158.457 102.978C152.575 116.199 153.209 120.445 154.261 120.916C158.151 123.001 168.297 124.991 177.766 116.268C187.236 107.546 192.076 94.6121 193.313 89.2356C194.549 83.8591 190.571 76.4578 189.23 73.6375C188.612 72.339 186.011 64.628 186.111 60.3154C186.191 56.8654 189.579 50.9025 191.263 48.3523C189.416 52.9687 187.53 62.4587 194.763 63.4873C203.805 64.773 202.726 69.8177 203.008 75.9432C203.233 80.8435 199.267 90.5836 197.256 94.8411C196.747 103.357 200.198 100.611 202.275 99.7916C204.353 98.9726 206.64 93.1048 210.198 84.5416C213.757 75.9784 221.542 67.4811 220.782 68.9356C220.174 70.0993 217.873 75.087 216.798 77.4354C215.39 82.2637 215.202 90.0292 225.716 82.4657C236.229 74.9022 241.507 50.7938 244.266 42.0068C243.879 58.4435 235.571 74.6535 224.435 91.055C215.526 104.176 214.999 125.187 215.85 134.052L27.9545 208.132C24.1689 209.625 23.1063 202.036 23.0482 198.056C22.916 188.984 24.676 185.442 28.4463 180.798C30.7913 177.911 35.9766 171.824 38.3961 167.983C37.4783 174.72 30.034 186.178 32.9514 191.379C39.1006 195.307 40.7855 191.294 44.7237 186.738C47.8743 183.094 49.8202 169.561 50.3993 163.251C51.5522 155.52 58.3867 142.47 60.9322 131.958C68.0835 124.796 71.3464 120.884 72.084 119.824C70.1373 124.864 67.28 129.455 65.7359 131.796C64.1919 134.137 62.511 150.507 62.6432 152.533C62.7755 154.56 64.4291 160.953 68.9218 162.877C72.5159 164.417 76.0495 153.446 77.367 147.768C80.092 142.767 85.5992 136.515 90.5133 131.729C83.4857 142.722 81.1554 149.315 80.8687 151.238C76.4895 161.372 82.6555 161.351 86.2859 160.073C93.6184 158.106 99.0408 148.115 100.835 143.366C102.3 139.49 105.406 136.133 106.753 132.255ZM106.753 132.255C106.868 131.924 107.452 129.366 107.531 129.061C107.421 129.387 106.839 131.944 106.753 132.255Z" stroke="#EACE4F" stroke-width="1.24061" stroke-linecap="round"/>
<path d="M34.3432 193.857C33.8584 192.32 32.4967 191.508 30.2578 191.421C29.5788 191.385 28.5752 191.576 27.2469 191.995L26.5068 192.229C26.393 192.264 26.2257 192.296 26.005 192.324C25.7843 192.352 25.636 192.378 25.5601 192.402C25.3134 192.48 24.9099 192.722 24.3495 193.128L24.3369 195.072C24.1267 196.39 23.9039 198.098 23.6684 200.196C23.6433 200.58 23.5935 201.712 23.5189 203.592L25.9578 202.792C28.4386 201.926 30.4442 200.876 31.9745 199.642C34.206 197.853 34.9955 195.925 34.3432 193.857ZM16.0896 182.12C16.1537 181.662 16.3169 180.525 16.5792 178.711C14.6586 179.567 12.8488 180.378 11.1499 181.143L10.9616 171.814C14.8127 170.266 19.4294 168.465 24.8115 166.413C28.0155 165.194 33.2343 163.319 40.468 160.787L40.4617 169.896L37.16 170.937C31.0309 172.87 26.275 174.526 22.8923 175.906L25.0087 176.365C24.9215 177.081 24.7863 178.24 24.603 179.842C24.5358 180.489 24.4682 181.167 24.4 181.877C24.379 182.009 24.3373 182.836 24.2748 184.358C25.8258 183.785 27.3149 183.347 28.742 183.043C30.2939 182.804 32.1063 182.795 34.1794 183.018C38.6849 183.412 41.572 185.62 42.8408 189.643C43.0263 190.231 43.1713 190.989 43.2758 191.916C44.1012 198.832 41.3217 204.142 34.9373 207.846C34.6647 207.973 32.3291 209.002 27.9306 210.932L21.4182 213.799C19.0412 214.862 16.8159 215.877 14.7425 216.844C14.4549 211.301 14.3726 205.517 14.4956 199.491C14.5509 195.697 14.9586 190.739 15.7188 184.615C15.8119 183.918 15.9355 183.087 16.0896 182.12ZM57.0952 200.607L47.1426 206.656C46.9347 201.631 46.8641 196.479 46.9309 191.201C47.0023 187.194 47.41 182.235 48.1541 176.326C48.4606 173.726 49.002 170.415 49.7784 166.394C50.1247 164.052 50.6505 161.32 51.3556 158.198L61.0992 154.562L59.0913 164.865C58.4669 168.442 57.9301 172.825 57.4809 178.016L57.3996 178.949C61.8411 168.556 66.4829 159.394 71.3249 151.462L81.1134 147.968C79.6024 151.115 78.1996 154.572 76.9051 158.339C76.8666 159.937 76.8116 162.937 76.7401 167.341C76.5664 169.9 76.5162 174.735 76.5896 181.847C76.6089 183.76 76.6759 187.578 76.7907 193.3L66.829 199.321C66.7792 198.898 66.786 198.093 66.8494 196.905C66.9067 195.697 66.953 193.231 66.9883 189.507C67.4448 180.767 67.7593 175.348 67.9319 173.249C67.5112 173.966 66.7712 175.555 65.7118 178.017C61.9919 186.597 59.3142 193.387 57.6787 198.389C57.3538 199.409 57.1593 200.148 57.0952 200.607ZM104.533 171.719C104.049 170.182 102.687 169.37 100.448 169.284C99.769 169.247 98.7653 169.439 97.437 169.858L96.697 170.091C96.5832 170.127 96.4159 170.159 96.1952 170.187C95.9745 170.215 95.8262 170.241 95.7503 170.264C95.5036 170.342 95.1001 170.584 94.5397 170.991L94.527 172.935C94.3169 174.253 94.0941 175.961 93.8586 178.059C93.8335 178.442 93.7837 179.574 93.7091 181.454L96.148 180.654C98.6288 179.788 100.634 178.738 102.165 177.505C104.396 175.716 105.186 173.787 104.533 171.719ZM86.2798 159.983C86.3439 159.524 86.5071 158.388 86.7694 156.574C84.8488 157.43 83.039 158.24 81.3401 159.006L81.1518 149.677C85.0029 148.128 89.6195 146.328 95.0017 144.276C98.2056 143.057 103.424 141.181 110.658 138.649L110.652 147.758L107.35 148.799C101.221 150.732 96.4652 152.389 93.0825 153.769L95.1988 154.228C95.1117 154.944 94.9765 156.103 94.7932 157.704C94.726 158.351 94.6584 159.03 94.5902 159.74C94.5692 159.872 94.5274 160.699 94.465 162.22C96.016 161.648 97.5051 161.209 98.9322 160.905C100.484 160.666 102.297 160.658 104.37 160.88C108.875 161.274 111.762 163.483 113.031 167.506C113.216 168.094 113.361 168.851 113.466 169.778C114.291 176.695 111.512 182.005 105.128 185.708C104.855 185.836 102.519 186.865 98.1208 188.794L91.6084 191.662C89.2313 192.725 87.0061 193.739 84.9327 194.706C84.6451 189.164 84.5628 183.379 84.6858 177.353C84.7411 173.559 85.1488 168.601 85.9089 162.478C86.0021 161.781 86.1257 160.949 86.2798 159.983ZM127.285 178.469L117.333 184.519C117.125 179.494 117.054 174.342 117.121 169.063C117.192 165.056 117.6 160.098 118.344 154.188C118.651 151.588 119.192 148.277 119.969 144.256C120.315 141.915 120.841 139.183 121.546 136.06L131.289 132.424L129.282 142.727C128.657 146.304 128.12 150.688 127.671 155.878L127.59 156.811C132.031 146.419 136.673 137.256 141.515 129.324L151.304 125.83C149.793 128.977 148.39 132.434 147.095 136.201C147.057 137.799 147.002 140.8 146.93 145.204C146.757 147.762 146.706 152.597 146.78 159.709C146.799 161.623 146.866 165.44 146.981 171.162L137.019 177.183C136.969 176.761 136.976 175.955 137.04 174.767C137.097 173.56 137.143 171.094 137.179 167.369C137.635 158.629 137.95 153.21 138.122 151.111C137.701 151.828 136.961 153.418 135.902 155.88C132.182 164.459 129.504 171.25 127.869 176.251C127.544 177.272 127.349 178.011 127.285 178.469ZM153.351 156.377C153.362 156.413 154.709 156.007 157.392 155.161C159.337 154.469 160.923 153.635 162.148 152.658C163.886 151.245 164.5 149.733 163.993 148.124C163.609 146.907 162.534 146.273 160.767 146.221C160.24 146.17 159.449 146.312 158.393 146.645L156.952 147.217L156.211 141.315L157.92 140.747C159.906 140.061 161.506 139.242 162.72 138.289C164.445 136.899 165.051 135.391 164.537 133.763C164.159 132.564 163.093 131.927 161.338 131.851C160.817 131.819 160.038 131.967 159 132.294L158.41 132.48C157.491 132.809 156.324 133.443 154.909 134.381L149.721 128.406C151.255 127.785 152.72 127.254 154.115 126.814C154.741 126.616 155.459 126.429 156.269 126.253C158.555 125.708 159.859 125.415 160.18 125.373C161.405 125.203 162.829 125.196 164.451 125.353C167.975 125.677 170.237 127.422 171.235 130.588C171.376 131.036 171.491 131.619 171.581 132.338C171.972 135.636 170.879 138.813 168.303 141.867C169.698 143.237 170.498 144.243 170.701 144.887C170.853 145.37 170.977 145.98 171.071 146.717C171.673 152.053 169.467 156.191 164.455 159.128C164.246 159.214 162.412 160.009 158.953 161.513L153.862 163.797C152.775 164.277 151.723 164.747 150.707 165.205L150.858 156.986L153.351 156.377ZM187.551 123.584C185.832 124.992 185.226 126.5 185.734 128.11C186.112 129.308 187.178 129.946 188.933 130.022C189.478 130.066 190.269 129.925 191.306 129.597L191.87 129.42C192.789 129.091 193.965 128.454 195.398 127.511L193.561 127.205C193.793 126.07 193.975 124.714 194.107 123.139C194.115 123.038 194.159 122.149 194.24 120.472L192.325 121.135C190.356 121.814 188.765 122.631 187.551 123.584ZM180.514 141.114C181.681 139.329 182.953 137.719 184.329 136.282C181.634 135.657 179.864 134.003 179.018 131.32C178.877 130.873 178.768 130.278 178.691 129.535C178.216 125.535 180.28 121.915 184.882 118.674C187.348 116.952 190.241 115.558 193.563 114.49L202.015 111.736C201.396 114.822 200.718 119.313 199.982 125.209C200.798 124.618 201.404 124.2 201.799 123.958L205.848 131.088C203.576 132.178 201.479 133.105 199.556 133.869L199.53 136.03L199.532 138.095C199.558 139.797 199.71 143.053 199.988 147.863L192.126 152.584C191.981 148.697 191.937 144.659 191.993 140.472L192.059 136.381C187.723 140.777 184.618 144.962 182.744 148.935C181.633 151.272 180.852 153.504 180.402 155.633L179.542 155.992C177.923 156.719 176.024 157.495 173.846 158.32C174.47 152.754 176.693 147.019 180.514 141.114ZM232.843 102.013C231.992 106.234 231.247 111.199 230.608 116.907C230.391 118.962 230.317 122.78 230.387 128.363C230.392 129.876 230.441 132.869 230.535 137.343L222.716 142.11C222.671 138.349 222.705 134.562 222.821 130.75C222.85 130.406 222.903 129.327 222.98 127.513L214.635 131.266L214.638 133.331C214.681 135.028 214.833 138.284 215.093 143.099L207.285 147.803C207.122 143.921 207.06 139.89 207.098 135.708C207.15 132.506 207.466 128.611 208.044 124.023C208.511 120.513 209.377 115.717 210.645 109.634L211.424 109.299C213.061 108.567 214.969 107.788 217.148 106.963C216.488 110.298 215.743 115.263 214.913 121.857C214.904 122.017 214.857 122.71 214.772 123.937L222.186 120.507L223.509 121.801C223.984 117.01 224.91 111.31 226.287 104.7L227.2 104.324C228.802 103.602 230.683 102.832 232.843 102.013ZM239.49 135.257L249.409 130.689C249.429 132.54 249.574 135.613 249.844 139.909L249.549 140.065C246.699 141.61 243.468 143.537 239.856 145.844C239.627 142.141 239.504 138.611 239.49 135.257ZM247.888 94.1162C248.546 98.1857 248.988 105.442 249.215 115.885L249.201 125.466L239.46 129.508L239.286 110.004C239.036 106.432 238.85 102.537 238.73 98.3189C240.988 97.2103 244.041 95.8094 247.888 94.1162Z" fill="white"/>
</svg>
