<svg width="332" height="302" viewBox="0 0 332 302" fill="none" xmlns="http://www.w3.org/2000/svg">
<path d="M107.896 142.012L43.6275 94.7355L126.074 106.385L131.423 43.9319L163.866 98.1461L209.535 60.6116L204.543 118.901L281.506 120.509L217.246 152.904L287.585 209.071L199.068 188.531L194.536 252.849L164.668 197.052L118.643 238.75L123.991 176.297L53.5816 172.238L107.896 142.012Z" fill="#F71B1B"/>
<path d="M83.8799 155.043C81.3896 160.184 79.6385 163.889 78.6264 166.158L78.1458 166.127C73.5233 166.212 68.1759 166.529 62.1036 167.078C63.4257 164.072 64.91 160.86 66.5564 157.442C65.3613 157.484 64.1107 157.533 62.8046 157.591L61.6352 143.4C65.4035 143.668 69.6831 143.793 74.4741 143.774C82.0883 141.625 86.1879 138.892 86.7727 135.575L86.865 135.052C87.1605 133.376 84.4769 129.303 78.8144 122.833C76.37 118.119 75.4156 114.243 75.9512 111.205C77.0961 104.712 80.8536 100.551 87.2234 98.7222C89.6075 98.0627 92.6138 97.5489 96.2424 97.1808C97.5706 94.1393 98.9173 90.9931 100.282 87.7421C103.872 87.7991 108.655 88.0305 114.631 88.4363C114.366 89.9375 113.134 93.248 110.936 98.3678L114.788 110.818C112.018 110.401 109.589 110.189 107.503 110.181C99.5453 109.786 94.3098 110.591 91.7966 112.595C90.9506 113.31 90.4476 114.121 90.2875 115.029C90.0167 116.565 90.6382 118.655 92.152 121.297C98.8151 131.075 101.922 137.239 101.473 139.787L101.288 140.835C99.4755 147.03 94.1461 151.634 85.2998 154.646C84.844 154.781 84.3706 154.914 83.8799 155.043ZM140.147 121.337C140.231 121.064 140.288 120.84 140.319 120.665C140.454 119.897 140.332 119.264 139.952 118.765L140.645 118.509C140.284 117.293 139.457 116.572 138.165 116.344C136.839 116.11 135.662 116.352 134.635 117.071C133.656 117.727 132.944 118.699 132.501 119.989C132.411 120.297 132.347 120.555 132.31 120.765C132.132 121.777 132.275 122.702 132.739 123.54C133.232 124.419 133.967 124.945 134.944 125.117C136.131 125.326 137.21 125.031 138.179 124.23C139.06 123.521 139.716 122.557 140.147 121.337ZM142.541 152.158C142.625 151.885 142.683 151.661 142.714 151.487C142.855 150.684 142.736 150.033 142.356 149.534L143.04 149.33C142.678 148.115 141.852 147.393 140.56 147.165C139.233 146.931 138.06 147.156 137.039 147.84C136.06 148.496 135.345 149.486 134.896 150.81C134.805 151.118 134.742 151.377 134.705 151.586C134.526 152.599 134.672 153.506 135.143 154.309C135.601 155.182 136.336 155.708 137.348 155.886C138.535 156.095 139.613 155.8 140.583 154.999C141.429 154.284 142.081 153.337 142.541 152.158ZM126.669 135.915C124.552 134.858 122.92 133.292 121.774 131.218C120.106 128.224 119.641 124.633 120.38 120.443C120.54 119.535 120.744 118.582 120.993 117.581C122.339 113.211 124.974 109.698 128.898 107.043C132.968 104.376 137.237 103.437 141.706 104.225C148.444 105.413 152.806 108.54 154.793 113.606L152.633 114.521C152.722 115.041 152.799 115.522 152.865 115.966C156.086 113.618 159.651 111.061 163.558 108.295L165.314 108.442C168.524 108.612 172.21 108.938 176.373 109.42C174.258 111.207 171.459 113.503 167.977 116.309L144.729 135.158C151.128 136.43 155.281 139.52 157.187 144.428L155.028 145.343C155.349 147.199 155.395 148.773 155.167 150.065C155.007 150.973 154.643 152.222 154.074 153.814C152.29 158.827 149.65 162.573 146.153 165.052C142.35 167.837 137.953 168.79 132.961 167.909C128.876 167.189 125.948 165.215 124.178 161.987C122.779 159.509 122.226 156.621 122.519 153.325L113.279 160.713L96.7196 161.843C106.939 152.27 116.922 143.627 126.669 135.915ZM209.379 182.518C201.304 188.509 191.959 190.569 181.346 188.698C172.758 187.184 166.578 183.034 162.807 176.25C159.34 169.987 158.379 162.474 159.924 153.711C160.256 151.826 160.715 149.837 161.3 147.745C164.067 138.585 169.594 131.227 177.881 125.669C186.397 120.043 195.315 118.052 204.636 119.695C212.84 121.142 218.794 124.837 222.497 130.782C224.122 133.408 225.841 136.933 227.652 141.356C228.292 145.284 228.353 148.715 227.836 151.647C226.592 158.699 223.282 163.893 217.907 167.229C214.371 169.521 209.6 170.138 203.596 169.079L202.863 168.95C201.571 168.722 199.804 168.537 197.561 168.393C194.846 168.274 192.826 168.098 191.499 167.864C184.273 166.59 181.176 163.02 182.21 157.155C182.407 156.038 182.885 154.556 183.642 152.71C185.016 149.209 187.02 146.412 189.657 144.321C192.704 141.943 195.991 141.065 199.517 141.686C201.429 142.276 202.599 142.68 203.028 142.9C205.54 144.17 206.454 146.743 205.771 150.619C205.432 152.539 204.53 155.205 203.064 158.619C207.568 159.413 210.106 158.186 210.679 154.94C210.808 154.206 211.127 153.111 211.636 151.653C212.186 150.166 212.532 149.021 212.674 148.218C212.901 146.926 212.693 145.864 212.048 145.03C210.474 139.461 206.685 136.147 200.68 135.088C194.606 134.017 189.199 135.08 184.46 138.276C179.961 141.334 176.713 145.873 174.715 151.892C174.253 153.286 173.936 154.472 173.764 155.45C172.951 160.058 173.597 164.258 175.7 168.048C177.947 172.044 181.34 174.442 185.879 175.242C188.671 175.735 190.745 175.92 192.098 175.799C193.917 175.688 195.816 174.925 197.793 173.51L209.379 182.518ZM234.09 183.851L253.524 184.794C252.033 187.735 249.734 192.711 246.626 199.723L246.032 199.726C240.255 199.823 233.563 200.209 225.957 200.884C228.642 194.842 231.353 189.164 234.09 183.851ZM281.214 125.747C278.905 132.719 273.633 144.55 265.398 161.24L257.493 176.369L238.774 174.742L254.547 143.776C257.091 137.926 260.003 131.618 263.283 124.853C267.764 124.959 273.741 125.257 281.214 125.747Z" fill="white"/>
</svg>
