<svg width="729" height="692" viewBox="0 0 729 692" fill="none" xmlns="http://www.w3.org/2000/svg">
<path d="M430.337 604.489L424.992 416.656L611.334 478.526L473.239 351.121L661.238 252.758L452.233 268.323L525.641 96.2843L378.413 233.06L299.124 87.2994L295.657 257.076L124.999 212.556L243.374 328.936L62.4379 416.231L261.335 399.735L187.736 582.135L342.236 440.673L430.337 604.489Z" fill="#F71B1B"/>
<path d="M387.891 479.624L384.229 393.133L465.571 423.131L404.707 363.366L485.623 319.633L394.996 325.088L425.636 246.51L362.695 308.256L327.231 240.524L326.939 318.633L252.53 296.748L304.753 351.278L226.825 389.975L313.057 384.008L282.408 467.353L348.473 403.51L387.891 479.624Z" fill="#EACE4F"/>
</svg>
