<svg width="1152" height="54" viewBox="0 0 1152 54" fill="none" xmlns="http://www.w3.org/2000/svg">
<path d="M47.5107 2.44689C44.9573 7.07062 42.2544 12.603 39.4019 19.044C38.3898 21.3674 36.8945 25.8071 34.9162 32.3631C34.3641 34.1344 33.3175 37.6539 31.7762 42.9218L20.8725 45.6132C22.2067 41.1965 23.6444 36.7798 25.1857 32.3631C25.3467 31.9721 25.8068 30.7299 26.5659 28.6365L15.4206 29.9477L14.6615 32.3631C14.0864 34.3644 13.0628 38.229 11.5905 43.9569L0.721325 46.5794C1.96352 41.9786 3.37824 37.2399 4.96549 32.3631C6.20769 28.6365 8.01348 24.1968 10.3828 19.044C12.2231 15.1104 15.0066 9.81955 18.7332 3.17151L19.7683 3.06799C21.9537 2.81495 24.4726 2.60792 27.325 2.44689C25.3237 6.10447 22.6208 11.6368 19.2162 19.044C19.1472 19.228 18.8367 20.0217 18.2846 21.4249L28.2222 20.1482L29.2918 22.1495C31.6152 16.7206 34.8012 10.3946 38.8498 3.17151L40.0575 3.06799C42.1969 2.81495 44.6813 2.60792 47.5107 2.44689ZM62.072 11.6253C61.0598 13.0056 59.001 16.3296 55.8955 21.5974L53.3076 25.9796L59.1045 25.8761L60.4502 26.9113C61.5544 24.4959 62.1065 20.0562 62.1065 13.5921C62.1065 12.626 62.095 11.9704 62.072 11.6253ZM59.07 32.3286L50.3747 32.7772C48.6034 35.6296 46.9701 39.3447 45.4749 43.9224L34.6057 46.5794C34.9047 45.3832 36.3079 42.2432 38.8153 37.1594L41.4032 31.8455C43.8876 26.8307 47.7752 20.6543 53.0661 13.3161C55.9645 9.26747 58.8285 5.6789 61.6579 2.55041C63.3142 2.5044 65.7871 2.38938 69.0766 2.20535L69.3181 5.89744C69.4792 8.65787 69.5597 11.3263 69.5597 13.9027C69.5597 18.9405 69.1916 23.6332 68.4555 27.9809C68.2255 28.694 67.6619 31.811 66.7647 37.3319C66.3967 39.6093 66.0286 41.461 65.6606 42.8873L54.7569 45.5787C55.516 43.0943 56.9537 38.6776 59.07 32.3286ZM85.8118 38.2635C86.8699 35.112 87.8246 32.4781 88.6757 30.3618C90.401 25.9451 92.3563 21.5054 94.5416 17.0427C94.8867 16.2836 95.5423 14.8919 96.5084 12.8675L99.3034 6.9671C100.016 5.33385 100.626 4.13766 101.132 3.37854L102.961 3.20601C103.214 3.20601 103.49 3.20601 103.789 3.20601C104.64 3.20601 105.687 3.1255 106.929 2.96447L109.655 2.55041C109.425 2.96447 108.758 4.4367 107.654 6.9671L103.202 17.2152C103.11 17.5603 102.811 18.3194 102.305 19.4926C102.075 20.1827 101.512 21.8159 100.615 24.3924L97.9577 31.9145C97.3136 33.7548 96.635 35.8712 95.9218 38.2635C98.4292 38.2635 99.867 38.206 100.235 38.091L101.27 40.3339C102.121 37.7115 103.018 35.0775 103.962 32.4321C104.077 32.0411 104.514 30.8104 105.273 28.74L107.999 22.2185C110.345 16.8127 113.543 10.4867 117.591 3.24052L118.764 3.137C120.927 2.90696 123.423 2.69993 126.252 2.5159C123.653 7.18564 120.95 12.741 118.143 19.182C117.131 21.4594 115.624 25.8761 113.623 32.4321C113.301 33.4673 112.795 35.1581 112.105 37.5044L109.759 45.7857L103.582 46.0273L99.6829 46.1653C96.3704 46.2573 85.3747 46.4183 66.6957 46.6484C68.168 42.0706 69.6977 37.3319 71.285 32.4321C72.5272 28.7285 74.3329 24.3118 76.7023 19.182C78.5196 15.2254 81.303 9.91157 85.0526 3.24052L86.0878 3.137C88.2731 2.90696 90.792 2.69993 93.6445 2.5159C91.6432 6.17348 88.9402 11.7289 85.5357 19.182C85.4667 19.3431 85.1561 20.1137 84.6041 21.4939L81.7401 30.0167L80.981 32.4321C80.6129 33.6513 80.0953 35.5721 79.4282 38.1945C81.7516 38.2175 83.8794 38.2405 85.8118 38.2635ZM143.712 11.6253C142.7 13.0056 140.641 16.3296 137.535 21.5974L134.948 25.9796L140.744 25.8761L142.09 26.9113C143.194 24.4959 143.746 20.0562 143.746 13.5921C143.746 12.626 143.735 11.9704 143.712 11.6253ZM140.71 32.3286L132.015 32.7772C130.243 35.6296 128.61 39.3447 127.115 43.9224L116.246 46.5794C116.545 45.3832 117.948 42.2432 120.455 37.1594L123.043 31.8455C125.528 26.8307 129.415 20.6543 134.706 13.3161C137.604 9.26747 140.468 5.6789 143.298 2.55041C144.954 2.5044 147.427 2.38938 150.716 2.20535L150.958 5.89744C151.119 8.65787 151.2 11.3263 151.2 13.9027C151.2 18.9405 150.832 23.6332 150.095 27.9809C149.865 28.694 149.302 31.811 148.405 37.3319C148.037 39.6093 147.669 41.461 147.3 42.8873L136.397 45.5787C137.156 43.0943 138.594 38.6776 140.71 32.3286ZM201.957 42.8873L191.053 45.5787C191.329 44.3135 191.467 43.0368 191.467 41.7486C191.467 39.3562 191.007 37.0904 190.087 34.951C189.006 32.3286 187.511 30.6493 185.602 29.9132L184.842 32.3286C184.267 34.3299 183.232 38.1945 181.737 43.9224L170.833 46.5794C172.075 41.9786 173.513 37.2284 175.146 32.3286C176.389 28.625 178.194 24.1853 180.564 19.0095C182.358 15.0989 185.13 9.80805 188.88 3.137L189.949 3.03348C192.135 2.78044 194.642 2.57341 197.471 2.41239C195.493 6.06996 192.802 11.6023 189.397 19.0095C189.328 19.2165 189.006 20.0102 188.431 21.3904C193.791 19.136 198.921 15.3749 203.82 10.1071C205.983 7.78373 207.719 5.46037 209.031 3.137L210.204 3.03348C212.366 2.78044 214.851 2.57341 217.657 2.41239C214.92 8.69238 210.215 14.5698 203.544 20.0447C200.163 22.8741 196.574 24.9789 192.779 26.3592C195.24 27.6014 197.414 29.5912 199.3 32.3286C201.278 35.2271 202.268 37.999 202.268 40.6444C202.268 41.3345 202.164 42.0821 201.957 42.8873ZM241.121 14.3858C241.121 12.8445 240.097 11.7059 238.05 10.9697C237.452 10.7397 236.486 10.6247 235.151 10.6247H234.427C233.231 10.6707 231.62 10.9812 229.596 11.5563L231.666 12.5915C230.953 13.8107 230.24 15.3174 229.527 17.1117C229.458 17.2267 229.067 18.2619 228.354 20.2172L230.838 20.1137C233.392 20.0447 235.542 19.6766 237.291 19.0095C239.844 18.0203 241.121 16.4791 241.121 14.3858ZM225.973 27.4288L224.972 30.3963C224.305 32.5586 223.109 37.0559 221.384 43.8879L221.073 43.9224C217.991 44.4975 214.471 45.3257 210.514 46.4068C211.849 41.254 213.459 35.9172 215.345 30.3963C216.495 26.9228 218.301 22.4946 220.763 17.1117C221.246 16.0305 221.959 14.5698 222.902 12.7295C222.074 13.0056 221.372 13.2126 220.797 13.3506L218.727 3.51656C223.65 2.78044 227.894 2.41239 231.459 2.41239C232.287 2.41239 233.208 2.45839 234.22 2.55041C237.072 2.75744 238.705 2.89546 239.119 2.96447C240.615 3.21751 242.282 3.73509 244.123 4.51722C248.148 6.19648 250.161 9.07194 250.161 13.1436C250.161 13.7187 250.069 14.4433 249.885 15.3174C248.965 20.1712 245.215 23.6562 238.636 25.7726C235.14 26.8767 230.919 27.4288 225.973 27.4288ZM268.553 26.2556C266.298 29.7062 263.802 35.5951 261.065 43.9224L260.72 44.026C258.143 44.486 254.635 45.3372 250.196 46.5794C250.449 45.5212 252.024 41.8406 254.923 35.5376L259.547 26.2556C258.903 24.2543 258.27 21.4019 257.649 17.6983C256.775 12.7755 256.246 9.87706 256.062 9.00293C255.533 6.67956 254.957 4.89678 254.336 3.65458H263.239C263.584 4.82777 263.975 6.84058 264.412 9.69303L265.723 18.699C266.39 17.6408 268.288 14.5928 271.417 9.55501C273.257 6.58754 274.775 4.57473 275.971 3.51656L285.529 2.20535C283.459 4.16066 279.583 9.43999 273.901 18.0434C271.555 21.5629 269.772 24.3003 268.553 26.2556ZM317.619 2.41239L314.997 10.7627H311.546C308.188 10.7627 305.278 10.7972 302.817 10.8662L305.301 12.2464C303.461 15.766 301.206 21.8505 298.538 30.4998C297.572 33.7893 296.375 38.2635 294.949 43.9224L294.639 44.026C292.085 44.486 288.566 45.3372 284.08 46.5794C285.46 41.2425 287.071 35.8827 288.911 30.4998C290.038 27.1413 291.855 22.7016 294.363 17.1807C294.961 15.8235 295.927 13.8222 297.261 11.1768C293.627 11.5218 289.497 11.9934 284.874 12.5915L287.393 3.96513C291.579 3.66608 296.329 3.35553 301.643 3.03348C304.933 2.84945 310.258 2.64242 317.619 2.41239ZM336.528 11.6253C335.516 13.0056 333.457 16.3296 330.352 21.5974L327.764 25.9796L333.561 25.8761L334.907 26.9113C336.011 24.4959 336.563 20.0562 336.563 13.5921C336.563 12.626 336.551 11.9704 336.528 11.6253ZM333.526 32.3286L324.831 32.7772C323.06 35.6296 321.426 39.3447 319.931 43.9224L309.062 46.5794C309.361 45.3832 310.764 42.2432 313.272 37.1594L315.86 31.8455C318.344 26.8307 322.232 20.6543 327.522 13.3161C330.421 9.26747 333.285 5.6789 336.114 2.55041C337.771 2.5044 340.243 2.38938 343.533 2.20535L343.774 5.89744C343.935 8.65787 344.016 11.3263 344.016 13.9027C344.016 18.9405 343.648 23.6332 342.912 27.9809C342.682 28.694 342.118 31.811 341.221 37.3319C340.853 39.6093 340.485 41.461 340.117 42.8873L329.213 45.5787C329.972 43.0943 331.41 38.6776 333.526 32.3286ZM369.999 10.9697C367.468 11.9819 366.203 13.5231 366.203 15.5935C366.203 17.1347 367.215 18.2734 369.239 19.0095C369.861 19.2625 370.838 19.3891 372.172 19.3891H372.897C374.093 19.3431 375.704 19.0325 377.728 18.4574L375.692 17.4223C376.382 16.1801 377.095 14.6618 377.831 12.8675C377.877 12.7525 378.257 11.7289 378.97 9.79655L376.486 9.86556C373.932 9.93457 371.77 10.3026 369.999 10.9697ZM355.299 28.8781C357.324 27.2218 359.405 25.8071 361.545 24.6339C358.623 22.9086 357.163 20.3207 357.163 16.8702C357.163 16.2951 357.255 15.559 357.439 14.6618C358.359 9.80805 362.108 6.3345 368.687 4.24117C372.207 3.137 376.106 2.57341 380.385 2.55041L391.288 2.44689C389.425 5.82842 386.975 10.8317 383.939 17.4568C385.112 17.0657 385.975 16.8012 386.527 16.6631L388.632 26.4972C385.572 26.9343 382.777 27.2448 380.247 27.4288L379.419 29.9477L378.659 32.3631C378.061 34.3644 377.038 38.229 375.588 43.9569L364.65 46.5794C365.915 41.9786 367.353 37.2399 368.963 32.3631L370.551 27.6014C363.857 31.1439 358.681 34.8935 355.023 38.8501C352.861 41.1735 351.124 43.4969 349.813 45.8202L348.674 45.9238C346.512 46.1768 344.004 46.3838 341.152 46.5449C343.935 40.2649 348.651 34.3759 355.299 28.8781ZM439.148 42.8873L428.244 45.5787C428.52 44.3135 428.658 43.0368 428.658 41.7486C428.658 39.3562 428.198 37.0904 427.278 34.951C426.196 32.3286 424.701 30.6493 422.792 29.9132L422.033 32.3286C421.458 34.3299 420.423 38.1945 418.927 43.9224L408.024 46.5794C409.266 41.9786 410.704 37.2284 412.337 32.3286C413.579 28.625 415.385 24.1853 417.754 19.0095C419.548 15.0989 422.32 9.80805 426.07 3.137L427.14 3.03348C429.325 2.78044 431.832 2.57341 434.662 2.41239C432.683 6.06996 429.992 11.6023 426.588 19.0095C426.519 19.2165 426.196 20.0102 425.621 21.3904C430.981 19.136 436.111 15.3749 441.011 10.1071C443.173 7.78373 444.91 5.46037 446.221 3.137L447.394 3.03348C449.557 2.78044 452.041 2.57341 454.847 2.41239C452.11 8.69238 447.406 14.5698 440.735 20.0447C437.353 22.8741 433.765 24.9789 429.969 26.3592C432.43 27.6014 434.604 29.5912 436.491 32.3286C438.469 35.2271 439.458 37.999 439.458 40.6444C439.458 41.3345 439.355 42.0821 439.148 42.8873ZM492.493 11.3493L490.043 12.9711C490.848 15.2714 491.251 17.2497 491.251 18.906C491.251 20.1022 491.067 21.7699 490.699 23.9093C489.548 30.6033 487.064 35.9172 483.245 39.8508C479.036 44.2215 473.676 46.4068 467.166 46.4068C461.852 46.4068 457.7 44.5665 454.709 40.886C451.972 37.4814 450.603 33.0647 450.603 27.6359C450.603 26.4627 450.672 25.2205 450.81 23.9093C451.454 18.0664 453.985 13.0401 458.402 8.8304C462.933 4.55172 468.109 2.41239 473.929 2.41239C482.67 2.41239 488.858 5.39136 492.493 11.3493ZM481.072 24.9444C481.21 24.1163 481.279 23.4607 481.279 22.9776C481.279 20.7463 480.612 19.044 479.277 17.8708L481.072 16.8702C479.507 13.6727 476.862 12.0739 473.135 12.0739C469.363 12.0739 466.223 13.2931 463.715 15.7315C461.323 18.0549 459.839 21.1258 459.264 24.9444C459.126 25.8416 459.057 26.5892 459.057 27.1873C459.057 30.0858 459.908 32.5471 461.611 34.5715C463.382 36.7338 465.682 37.815 468.512 37.815C471.893 37.815 474.734 36.4808 477.034 33.8123C479.059 31.443 480.405 28.487 481.072 24.9444ZM548.633 0.928651L544.424 19.3546C544.309 19.7916 543.803 21.908 542.905 25.7036L541.008 34.0884C540.225 37.4009 539.547 40.6789 538.972 43.9224L525.791 47.511C526.757 44.0375 528.206 39.2872 530.138 33.2603C530.736 31.443 531.714 28.257 533.071 23.7022C533.692 21.5859 534.636 18.791 535.901 15.3174C533.462 16.1916 529.759 20.8498 524.79 29.2921C522.904 32.4436 521.086 36.9753 519.338 42.8873L508.434 45.5787C508.526 45.1416 508.572 44.509 508.572 43.6809C508.572 39.5632 508.055 34.0999 507.02 27.2908C506.652 24.6224 506.307 23.2882 505.985 23.2882L502.223 32.3286C500.521 36.4233 499.486 40.2879 499.118 43.9224L488.214 46.5794C489.479 41.8866 490.917 37.1364 492.527 32.3286C493.747 28.671 495.552 24.2313 497.945 19.0095C499.003 16.7091 500.452 13.8452 502.292 10.4176C502.408 10.0496 502.465 9.76205 502.465 9.55501C502.465 8.93391 502.223 7.93326 501.74 6.55304C501.096 4.80476 500.74 3.7926 500.671 3.51656L511.229 1.13568C512.518 5.36835 513.633 9.26747 514.576 12.833C515.934 17.9628 516.681 22.345 516.819 25.9796C520.523 18.2504 525.032 12.373 530.345 8.34732C532.347 6.59905 534.383 5.17282 536.453 4.06865C538.063 3.21751 539.777 2.59641 541.594 2.20535C543.964 1.63026 545.401 1.29671 545.907 1.20469C546.897 1.06667 547.805 0.974658 548.633 0.928651ZM567.508 11.6253C566.496 13.0056 564.437 16.3296 561.331 21.5974L558.743 25.9796L564.54 25.8761L565.886 26.9113C566.99 24.4959 567.542 20.0562 567.542 13.5921C567.542 12.626 567.531 11.9704 567.508 11.6253ZM564.506 32.3286L555.81 32.7772C554.039 35.6296 552.406 39.3447 550.911 43.9224L540.041 46.5794C540.341 45.3832 541.744 42.2432 544.251 37.1594L546.839 31.8455C549.323 26.8307 553.211 20.6543 558.502 13.3161C561.4 9.26747 564.264 5.6789 567.094 2.55041C568.75 2.5044 571.223 2.38938 574.512 2.20535L574.754 5.89744C574.915 8.65787 574.995 11.3263 574.995 13.9027C574.995 18.9405 574.627 23.6332 573.891 27.9809C573.661 28.694 573.098 31.811 572.201 37.3319C571.832 39.6093 571.464 41.461 571.096 42.8873L560.193 45.5787C560.952 43.0943 562.389 38.6776 564.506 32.3286ZM617.541 2.44689C614.987 7.07062 612.284 12.603 609.432 19.044C608.42 21.3674 606.925 25.8071 604.946 32.3631C604.394 34.1344 603.347 37.6539 601.806 42.9218L590.902 45.6132C592.237 41.1965 593.674 36.7798 595.216 32.3631C595.377 31.9721 595.837 30.7299 596.596 28.6365L585.451 29.9477L584.691 32.3631C584.116 34.3644 583.093 38.229 581.621 43.9569L570.751 46.5794C571.993 41.9786 573.408 37.2399 574.995 32.3631C576.238 28.6365 578.043 24.1968 580.413 19.044C582.253 15.1104 585.037 9.81955 588.763 3.17151L589.798 3.06799C591.984 2.81495 594.503 2.60792 597.355 2.44689C595.354 6.10447 592.651 11.6368 589.246 19.044C589.177 19.228 588.867 20.0217 588.315 21.4249L598.252 20.1482L599.322 22.1495C601.645 16.7206 604.831 10.3946 608.88 3.17151L610.088 3.06799C612.227 2.81495 614.711 2.60792 617.541 2.44689ZM626.754 37.5734C628.502 37.5044 629.802 37.4469 630.653 37.4009L632.102 39.5402L632.965 37.3319L635.518 31.0174C635.587 30.6723 635.852 29.9132 636.312 28.74C636.496 28.0499 637.105 26.4167 638.14 23.8403C639.889 17.9513 641.441 13.7647 642.799 11.2803L638.347 11.4183C634.69 11.5333 631.803 11.6253 629.687 11.6944L632.102 13.0746C631.366 14.6158 630.653 16.2606 629.963 18.0088C628.743 21.0683 627.455 24.7029 626.098 28.9126C624.971 32.3171 623.637 35.2846 622.095 37.815C623.614 37.723 625.166 37.6424 626.754 37.5734ZM641.28 3.06799C642.891 2.97597 648.066 2.76894 656.808 2.44689C654.83 6.03546 652.15 11.5333 648.768 18.9405C648.676 19.1245 648.354 19.9181 647.802 21.3214L644.938 29.8097L644.213 32.2251C643.891 33.3063 643.443 34.9165 642.868 37.0559C644.409 37.0098 646.042 36.9753 647.767 36.9523L647.181 38.4016L646.56 39.9543C645.571 42.5767 644.489 45.7167 643.316 49.3743L632.378 51.9967C633.045 49.8804 633.712 47.7985 634.379 45.7512C632.148 45.7512 630.112 45.7742 628.272 45.8202L621.026 46.1653C619.07 46.3033 617.173 46.4413 615.332 46.5794L614.711 48.6842L614.056 51.3411L603.186 53.998C604.199 50.2714 605.843 45.1416 608.121 38.6086C608.236 38.6086 608.374 38.5971 608.535 38.5741C610.352 38.3901 611.847 37.4469 613.02 35.7446C613.803 34.7555 614.55 33.6628 615.263 32.4666C616.483 29.4301 617.679 26.3822 618.852 23.3227C620.623 19.182 622.371 15.4094 624.097 12.0049L619.715 12.5915L622.095 4.44821C625.109 4.19517 627.248 3.99964 628.513 3.86161C633.091 3.53956 637.209 3.28652 640.866 3.10249L641.28 3.06799ZM674.268 11.6253C673.255 13.0056 671.197 16.3296 668.091 21.5974L665.503 25.9796L671.3 25.8761L672.646 26.9113C673.75 24.4959 674.302 20.0562 674.302 13.5921C674.302 12.626 674.291 11.9704 674.268 11.6253ZM671.266 32.3286L662.57 32.7772C660.799 35.6296 659.166 39.3447 657.67 43.9224L646.801 46.5794C647.1 45.3832 648.504 42.2432 651.011 37.1594L653.599 31.8455C656.083 26.8307 659.971 20.6543 665.262 13.3161C668.16 9.26747 671.024 5.6789 673.854 2.55041C675.51 2.5044 677.983 2.38938 681.272 2.20535L681.514 5.89744C681.675 8.65787 681.755 11.3263 681.755 13.9027C681.755 18.9405 681.387 23.6332 680.651 27.9809C680.421 28.694 679.857 31.811 678.96 37.3319C678.592 39.6093 678.224 41.461 677.856 42.8873L666.952 45.5787C667.712 43.0943 669.149 38.6776 671.266 32.3286ZM712.293 43.7499L701.389 46.4413C702.654 41.7486 704.092 36.9983 705.702 32.1906C706.921 28.533 708.727 24.0933 711.119 18.8715C712.178 16.5711 713.627 13.6957 715.467 10.2451C716.479 8.1978 717.756 5.83993 719.297 3.17151L729.304 2.65392L724.439 11.5563C722.851 14.6388 721.092 18.5034 719.159 23.1502L718.849 23.9783C725.934 15.72 732.846 8.65787 739.586 2.79195L749.593 2.41239C747.293 4.87377 744.992 7.63421 742.692 10.6937C742.209 12.1429 741.3 14.8804 739.966 18.906C739.046 21.2064 737.597 25.6346 735.618 32.1906C735.066 33.9389 734.031 37.4584 732.513 42.7493L721.609 45.4062C721.701 44.9921 721.943 44.2445 722.334 43.1633C722.725 42.0821 723.484 39.8393 724.611 36.4348C727.556 28.5675 729.407 23.6792 730.166 21.7699C729.568 22.322 728.441 23.5642 726.785 25.4965C720.873 32.3056 716.433 37.769 713.466 41.8866C712.891 42.7147 712.5 43.3358 712.293 43.7499ZM783.512 2.44689C780.958 7.07062 778.256 12.603 775.403 19.044C774.391 21.3674 772.896 25.8071 770.917 32.3631C770.365 34.1344 769.319 37.6539 767.777 42.9218L756.874 45.6132C758.208 41.1965 759.646 36.7798 761.187 32.3631C761.348 31.9721 761.808 30.7299 762.567 28.6365L751.422 29.9477L750.663 32.3631C750.088 34.3644 749.064 38.229 747.592 43.9569L736.722 46.5794C737.965 41.9786 739.379 37.2399 740.967 32.3631C742.209 28.6365 744.015 24.1968 746.384 19.044C748.224 15.1104 751.008 9.81955 754.734 3.17151L755.769 3.06799C757.955 2.81495 760.474 2.60792 763.326 2.44689C761.325 6.10447 758.622 11.6368 755.217 19.044C755.148 19.228 754.838 20.0217 754.286 21.4249L764.223 20.1482L765.293 22.1495C767.616 16.7206 770.802 10.3946 774.851 3.17151L776.059 3.06799C778.198 2.81495 780.682 2.60792 783.512 2.44689ZM808.839 39.6783C804.859 44.164 799.741 46.4068 793.484 46.4068C788.423 46.4068 784.49 44.5665 781.683 40.886C779.084 37.4814 777.784 33.0647 777.784 27.6359C777.784 26.4627 777.853 25.2205 777.991 23.9093C778.612 18.0664 781.016 13.0401 785.203 8.8304C789.458 4.55172 794.335 2.41239 799.833 2.41239C808.137 2.41239 814.015 5.39136 817.465 11.3493L806.631 16.8702C805.135 13.6727 802.651 12.0739 799.177 12.0739C795.589 12.0739 792.598 13.2931 790.206 15.7315C787.952 18.0549 786.548 21.1258 785.996 24.9444C785.858 25.8416 785.789 26.5892 785.789 27.1873C785.789 30.0858 786.594 32.5471 788.205 34.5715C789.907 36.7338 792.081 37.815 794.726 37.815C797.625 37.815 800.166 36.6418 802.352 34.2954L808.839 39.6783ZM853.903 2.41239L851.281 10.7627H847.83C844.472 10.7627 841.562 10.7972 839.1 10.8662L841.585 12.2464C839.744 15.766 837.49 21.8505 834.821 30.4998C833.855 33.7893 832.659 38.2635 831.233 43.9224L830.922 44.026C828.369 44.486 824.849 45.3372 820.364 46.5794C821.744 41.2425 823.354 35.8827 825.194 30.4998C826.322 27.1413 828.139 22.7016 830.646 17.1807C831.244 15.8235 832.211 13.8222 833.545 11.1768C829.91 11.5218 825.781 11.9934 821.157 12.5915L823.676 3.96513C827.863 3.66608 832.613 3.35553 837.927 3.03348C841.216 2.84945 846.542 2.64242 853.903 2.41239ZM880.231 14.3858C880.231 12.8445 879.207 11.7059 877.16 10.9697C876.562 10.7397 875.595 10.6247 874.261 10.6247H873.537C872.34 10.6707 870.73 10.9812 868.706 11.5563L870.776 12.5915C870.063 13.8107 869.35 15.3174 868.637 17.1117C868.568 17.2267 868.177 18.2619 867.464 20.2172L869.948 20.1137C872.501 20.0447 874.652 19.6766 876.401 19.0095C878.954 18.0203 880.231 16.4791 880.231 14.3858ZM865.083 27.4288L864.082 30.3963C863.415 32.5586 862.219 37.0559 860.494 43.8879L860.183 43.9224C857.101 44.4975 853.581 45.3257 849.624 46.4068C850.959 41.254 852.569 35.9172 854.455 30.3963C855.605 26.9228 857.411 22.4946 859.872 17.1117C860.356 16.0305 861.069 14.5698 862.012 12.7295C861.184 13.0056 860.482 13.2126 859.907 13.3506L857.837 3.51656C862.759 2.78044 867.004 2.41239 870.569 2.41239C871.397 2.41239 872.317 2.45839 873.33 2.55041C876.182 2.75744 877.815 2.89546 878.229 2.96447C879.725 3.21751 881.392 3.73509 883.233 4.51722C887.258 6.19648 889.271 9.07194 889.271 13.1436C889.271 13.7187 889.179 14.4433 888.995 15.3174C888.075 20.1712 884.325 23.6562 877.746 25.7726C874.25 26.8767 870.029 27.4288 865.083 27.4288ZM907.662 26.2556C905.408 29.7062 902.912 35.5951 900.175 43.9224L899.83 44.026C897.253 44.486 893.745 45.3372 889.306 46.5794C889.559 45.5212 891.134 41.8406 894.033 35.5376L898.657 26.2556C898.012 24.2543 897.38 21.4019 896.759 17.6983C895.885 12.7755 895.356 9.87706 895.171 9.00293C894.642 6.67956 894.067 4.89678 893.446 3.65458H902.349C902.694 4.82777 903.085 6.84058 903.522 9.69303L904.833 18.699C905.5 17.6408 907.398 14.5928 910.526 9.55501C912.367 6.58754 913.885 4.57473 915.081 3.51656L924.639 2.20535C922.569 4.16066 918.693 9.43999 913.011 18.0434C910.664 21.5629 908.882 24.3003 907.662 26.2556ZM945.687 42.8873L934.784 45.5787C935.06 44.3135 935.198 43.0368 935.198 41.7486C935.198 39.3562 934.738 37.0904 933.818 34.951C932.736 32.3286 931.241 30.6493 929.332 29.9132L928.573 32.3286C927.998 34.3299 926.963 38.1945 925.467 43.9224L914.564 46.5794C915.806 41.9786 917.244 37.2284 918.877 32.3286C920.119 28.625 921.925 24.1853 924.294 19.0095C926.088 15.0989 928.86 9.80805 932.61 3.137L933.68 3.03348C935.865 2.78044 938.372 2.57341 941.202 2.41239C939.223 6.06996 936.532 11.6023 933.128 19.0095C933.058 19.2165 932.736 20.0102 932.161 21.3904C937.521 19.136 942.651 15.3749 947.551 10.1071C949.713 7.78373 951.45 5.46037 952.761 3.137L953.934 3.03348C956.097 2.78044 958.581 2.57341 961.387 2.41239C958.65 8.69238 953.946 14.5698 947.275 20.0447C943.893 22.8741 940.305 24.9789 936.509 26.3592C938.97 27.6014 941.144 29.5912 943.031 32.3286C945.009 35.2271 945.998 37.999 945.998 40.6444C945.998 41.3345 945.895 42.0821 945.687 42.8873ZM993.512 2.41239L990.89 10.7627H987.439C984.081 10.7627 981.171 10.7972 978.709 10.8662L981.194 12.2464C979.353 15.766 977.099 21.8505 974.43 30.4998C973.464 33.7893 972.268 38.2635 970.842 43.9224L970.531 44.026C967.978 44.486 964.458 45.3372 959.973 46.5794C961.353 41.2425 962.963 35.8827 964.803 30.4998C965.931 27.1413 967.748 22.7016 970.255 17.1807C970.853 15.8235 971.82 13.8222 973.154 11.1768C969.519 11.5218 965.39 11.9934 960.766 12.5915L963.285 3.96513C967.472 3.66608 972.222 3.35553 977.536 3.03348C980.826 2.84945 986.151 2.64242 993.512 2.41239ZM1034.02 11.3493L1031.57 12.9711C1032.38 15.2714 1032.78 17.2497 1032.78 18.906C1032.78 20.1022 1032.6 21.7699 1032.23 23.9093C1031.08 30.6033 1028.59 35.9172 1024.77 39.8508C1020.56 44.2215 1015.2 46.4068 1008.69 46.4068C1003.38 46.4068 999.228 44.5665 996.238 40.886C993.501 37.4814 992.132 33.0647 992.132 27.6359C992.132 26.4627 992.201 25.2205 992.339 23.9093C992.983 18.0664 995.513 13.0401 999.93 8.8304C1004.46 4.55172 1009.64 2.41239 1015.46 2.41239C1024.2 2.41239 1030.39 5.39136 1034.02 11.3493ZM1022.6 24.9444C1022.74 24.1163 1022.81 23.4607 1022.81 22.9776C1022.81 20.7463 1022.14 19.044 1020.81 17.8708L1022.6 16.8702C1021.04 13.6727 1018.39 12.0739 1014.66 12.0739C1010.89 12.0739 1007.75 13.2931 1005.24 15.7315C1002.85 18.0549 1001.37 21.1258 1000.79 24.9444C1000.65 25.8416 1000.59 26.5892 1000.59 27.1873C1000.59 30.0858 1001.44 32.5471 1003.14 34.5715C1004.91 36.7338 1007.21 37.815 1010.04 37.815C1013.42 37.815 1016.26 36.4808 1018.56 33.8123C1020.59 31.443 1021.93 28.487 1022.6 24.9444ZM1063.25 14.3858C1063.25 12.8445 1062.22 11.7059 1060.18 10.9697C1059.58 10.7397 1058.61 10.6247 1057.28 10.6247H1056.55C1055.36 10.6707 1053.75 10.9812 1051.72 11.5563L1053.79 12.5915C1053.08 13.8107 1052.37 15.3174 1051.65 17.1117C1051.58 17.2267 1051.19 18.2619 1050.48 20.2172L1052.96 20.1137C1055.52 20.0447 1057.67 19.6766 1059.42 19.0095C1061.97 18.0203 1063.25 16.4791 1063.25 14.3858ZM1048.1 27.4288L1047.1 30.3963C1046.43 32.5586 1045.24 37.0559 1043.51 43.8879L1043.2 43.9224C1040.12 44.4975 1036.6 45.3257 1032.64 46.4068C1033.98 41.254 1035.59 35.9172 1037.47 30.3963C1038.62 26.9228 1040.43 22.4946 1042.89 17.1117C1043.37 16.0305 1044.09 14.5698 1045.03 12.7295C1044.2 13.0056 1043.5 13.2126 1042.92 13.3506L1040.85 3.51656C1045.78 2.78044 1050.02 2.41239 1053.59 2.41239C1054.41 2.41239 1055.33 2.45839 1056.35 2.55041C1059.2 2.75744 1060.83 2.89546 1061.25 2.96447C1062.74 3.21751 1064.41 3.73509 1066.25 4.51722C1070.28 6.19648 1072.29 9.07194 1072.29 13.1436C1072.29 13.7187 1072.2 14.4433 1072.01 15.3174C1071.09 20.1712 1067.34 23.6562 1060.76 25.7726C1057.27 26.8767 1053.05 27.4288 1048.1 27.4288ZM1114.21 11.3493L1111.76 12.9711C1112.57 15.2714 1112.97 17.2497 1112.97 18.906C1112.97 20.1022 1112.79 21.7699 1112.42 23.9093C1111.27 30.6033 1108.78 35.9172 1104.96 39.8508C1100.75 44.2215 1095.4 46.4068 1088.89 46.4068C1083.57 46.4068 1079.42 44.5665 1076.43 40.886C1073.69 37.4814 1072.32 33.0647 1072.32 27.6359C1072.32 26.4627 1072.39 25.2205 1072.53 23.9093C1073.17 18.0664 1075.7 13.0401 1080.12 8.8304C1084.65 4.55172 1089.83 2.41239 1095.65 2.41239C1104.39 2.41239 1110.58 5.39136 1114.21 11.3493ZM1102.79 24.9444C1102.93 24.1163 1103 23.4607 1103 22.9776C1103 20.7463 1102.33 19.044 1101 17.8708L1102.79 16.8702C1101.23 13.6727 1098.58 12.0739 1094.85 12.0739C1091.08 12.0739 1087.94 13.2931 1085.43 15.7315C1083.04 18.0549 1081.56 21.1258 1080.98 24.9444C1080.85 25.8416 1080.78 26.5892 1080.78 27.1873C1080.78 30.0858 1081.63 32.5471 1083.33 34.5715C1085.1 36.7338 1087.4 37.815 1090.23 37.815C1093.61 37.815 1096.45 36.4808 1098.75 33.8123C1100.78 31.443 1102.12 28.487 1102.79 24.9444ZM1142.02 14.3858C1142.02 12.8445 1141 11.7059 1138.95 10.9697C1138.33 10.7397 1137.35 10.6247 1136.02 10.6247H1135.33C1134.13 10.6707 1132.51 10.9812 1130.46 11.5563L1132.53 12.5915C1131.84 13.8107 1131.13 15.3174 1130.4 17.1117C1130.33 17.2267 1129.93 18.2619 1129.22 20.2172L1131.74 20.1137C1134.29 20.0447 1136.43 19.6766 1138.16 19.0095C1140.74 18.0203 1142.02 16.4791 1142.02 14.3858ZM1136.02 30.9829C1136.02 29.4186 1135.01 28.28 1132.98 27.5669C1132.38 27.3138 1131.42 27.1873 1130.08 27.1873H1129.29C1129.18 27.1873 1129.01 27.1758 1128.81 27.1528C1128.62 27.1068 1128.5 27.0838 1128.43 27.0838C1128.15 27.0838 1127.7 27.1988 1127.08 27.4288L1126.53 29.2231C1125.93 30.3503 1125.22 31.8455 1124.39 33.7088C1124.25 34.0539 1123.89 35.089 1123.29 36.8143L1125.74 36.7798C1128.27 36.6878 1130.42 36.2967 1132.19 35.6066C1134.74 34.5945 1136.02 33.0532 1136.02 30.9829ZM1143.4 25.255C1144.51 27.3713 1145.06 28.8436 1145.06 29.6717C1145.06 30.2928 1144.98 31.0519 1144.82 31.949C1143.55 38.4131 1139.46 42.4387 1132.53 44.026C1132.26 44.049 1129.82 44.302 1125.22 44.7851L1118.39 45.5787C1115.9 45.8547 1113.57 46.1308 1111.38 46.4068C1112.72 41.254 1114.33 35.9172 1116.21 30.3963C1117.36 26.9228 1119.17 22.4946 1121.63 17.1117C1122.11 16.0305 1122.83 14.5698 1123.77 12.7295C1122.96 13.0056 1122.26 13.2126 1121.67 13.3506L1119.59 3.51656C1124.52 2.78044 1128.76 2.41239 1132.33 2.41239C1133.18 2.41239 1134.11 2.45839 1135.12 2.55041C1137.95 2.75744 1139.57 2.89546 1139.99 2.96447C1141.48 3.21751 1143.15 3.73509 1144.99 4.51722C1149.02 6.19648 1151.03 9.07194 1151.03 13.1436C1151.03 13.7187 1150.95 14.4433 1150.79 15.3174C1150.01 19.3201 1147.54 22.6326 1143.4 25.255Z" fill="white"/>
</svg>
