<svg width="271" height="239" viewBox="0 0 271 239" fill="none" xmlns="http://www.w3.org/2000/svg">
<path d="M239.983 143.267L9.41818 234.17C8.00923 234.725 4.50087 229.956 3.82627 220.737C3.15166 211.518 12.7729 196.317 20.5959 189.132C26.8543 183.383 28.0795 178.832 27.9098 177.276C28.3973 174.008 29.638 152.754 30.1894 154.716C30.7408 156.677 31.1641 158.689 34.1397 163.797C36.5202 167.883 34.2148 179.191 32.7646 184.334C31.6122 187.48 29.902 193.666 32.2801 193.241C34.6582 192.816 36.4057 188.752 36.9821 186.773C37.6321 182.415 40.352 166.603 40.8004 161.171C41.2489 155.739 54.9395 132.653 64.5807 127.827C72.2937 123.965 79.0242 104.273 81.4254 94.9098C84.5898 110.068 78.6082 125.116 76.754 126.231C75.2707 127.124 70.1134 135.728 67.7202 139.919C61.4603 156.025 63.7577 162.715 65.6889 164.047C67.2286 159.544 75.2803 153.088 82.0177 146.715C87.6819 142.687 92.7079 132.161 95.3771 125.041C98.0111 137.128 88.0378 154.852 82.7219 162.202C79.9488 176.754 89.9418 159.869 91.6352 157.407C93.3285 154.945 101.872 138.887 108.531 128.187C113.859 119.626 120.69 117.796 123.44 117.951C116.874 123.821 114.049 128.917 113.456 130.731C111.972 143.108 123.93 130.831 125.185 129.696C126.439 128.56 135.923 107.005 125.39 104.877C114.857 102.75 117.167 94.5327 116.252 92.5865C115.52 91.0295 119.549 73.1712 121.656 64.4367C121.804 67.7534 122.124 75.6851 122.218 80.8777C122.335 87.3684 126.371 88.5969 130.247 88.4788C134.122 88.3608 137.79 86.402 146.764 91.7079C153.943 95.9526 148.786 111.29 147.629 119.052C146.471 126.815 139.579 133.095 133.829 144.488C126.641 158.73 137.15 147.281 138.863 144.682C140.577 142.084 145.415 133.896 152.487 121.239C158.144 111.113 169.433 104.346 174.37 102.229C169.634 105.532 166.262 112.945 165.168 116.239C162.566 136.106 174.584 125.857 184.302 117.283C192.076 110.424 192.04 98.8084 191.05 93.8581C188.334 87.2813 183.021 72.5169 183.5 66.0732C184.098 58.0187 191.848 39.1978 200.271 32.0318C207.009 26.299 217.175 21.3511 221.416 19.5938C194.927 41.1883 205.791 52.4141 213.858 54.1044C221.924 55.7947 222.133 55.1994 224.097 62.244C225.668 67.8796 220.193 81.6848 217.259 87.8829C224.74 84.9336 229.36 76.5323 230.735 72.7003C232.771 67.027 233.424 60.062 233.498 54.1797C243.449 57.9468 237.578 73.976 233.399 81.5197C253.807 70.7817 256.025 40.5557 255.85 29.6017C255.711 20.9018 263.348 8.66472 267.267 3.51688C267.295 3.47854 267.324 3.44139 267.352 3.40546C267.324 3.44223 267.296 3.47936 267.267 3.51688C264.603 7.14335 263.749 21.4315 263.656 28.1904C268.397 59.0556 247.478 94.342 243.422 101.184L243.347 101.31C240.254 106.528 239.815 131.456 239.983 143.267Z" fill="#F71B1B" stroke="#F71B1B" stroke-width="1.37687" stroke-linecap="round"/>
<path d="M19.5216 230.175L228.054 147.959C227.111 138.12 227.695 114.801 237.583 100.239C249.942 82.0356 259.162 64.0452 259.592 45.8031C256.53 55.5552 250.673 82.3116 239.004 90.7059C227.336 99.1002 227.545 90.4816 229.107 85.1231C230.3 82.5167 232.853 76.9811 233.528 75.6897C234.372 74.0754 225.732 83.506 221.782 93.0097C217.833 102.513 215.295 109.026 212.989 109.935C210.684 110.844 206.853 113.892 207.419 104.441C209.651 99.7154 214.052 88.9055 213.802 83.4669C213.49 76.6686 214.686 71.0699 204.652 69.6429C196.624 68.5013 198.717 57.969 200.767 52.8456C198.898 55.6759 195.139 62.2937 195.05 66.1227C194.939 70.9089 197.826 79.4669 198.511 80.908C200 84.0381 204.414 92.2524 203.042 98.2194C201.67 104.186 196.298 118.541 185.788 128.221C175.278 137.902 164.018 135.694 159.702 133.379C158.534 132.857 157.83 128.144 164.359 113.471C160.474 117.694 152.515 127.728 151.761 134.075C150.819 142.008 148.192 150.735 140.578 157.325C134.487 162.598 126.592 165.146 123.406 165.762C121.836 164.971 117.521 161.246 125.781 153.068C128.97 149.205 135.861 139.481 137.921 131.491C140.495 121.504 144.592 111.01 142.151 103.129C140.198 96.8234 135.841 95.3198 133.906 95.3561C136.169 98.7793 138.571 104.499 137.731 110.126C136.208 120.34 129.3 129.472 123.897 138.395C119.661 144.167 113.544 155.576 108.849 153.428C107.719 152.386 105.445 151.486 106.975 145.964C105.48 150.268 102.033 153.994 100.408 158.295C98.4159 163.566 92.3979 174.655 84.26 176.838C80.2309 178.255 73.3876 178.279 78.2478 167.031C78.566 164.898 81.1523 157.581 88.9517 145.38C83.4978 150.692 77.3857 157.63 74.3615 163.18C72.8992 169.482 68.9775 181.658 64.9886 179.949C60.0025 177.814 58.1672 170.719 58.0205 168.469C57.8737 166.22 59.7392 148.053 61.4529 145.455C63.1665 142.857 66.3377 137.761 68.4982 132.167C67.6796 133.344 64.0583 137.686 56.1215 145.634C53.2965 157.301 45.7112 171.784 44.4317 180.364C43.789 187.368 41.6294 202.387 38.1328 206.431C33.762 211.487 31.8921 215.941 25.0675 211.582C21.8296 205.809 30.0915 193.093 31.1102 185.616C28.4249 189.879 22.67 196.634 20.0675 199.839C15.8831 204.992 13.9298 208.924 14.0765 218.992C14.141 223.41 15.3202 231.832 19.5216 230.175Z" fill="#EACE4F"/>
<path d="M106.975 145.964C105.445 151.486 107.719 152.386 108.849 153.428C113.544 155.576 119.661 144.167 123.897 138.395C129.3 129.472 136.208 120.34 137.731 110.126C138.571 104.499 136.169 98.7794 133.906 95.3561C135.841 95.3198 140.198 96.8234 142.151 103.129C144.592 111.01 140.495 121.504 137.921 131.491C135.861 139.481 128.97 149.205 125.781 153.068C117.521 161.246 121.836 164.971 123.406 165.762C126.592 165.146 134.487 162.598 140.578 157.325C148.192 150.735 150.819 142.008 151.761 134.075C152.515 127.728 160.474 117.694 164.359 113.471C157.83 128.144 158.534 132.857 159.702 133.379C164.018 135.694 175.278 137.902 185.788 128.221C196.298 118.541 201.67 104.186 203.042 98.2194C204.414 92.2524 200 84.0381 198.511 80.908C197.826 79.4669 194.939 70.9089 195.05 66.1227C195.139 62.2937 198.898 55.6759 200.767 52.8456C198.717 57.969 196.624 68.5013 204.652 69.6429C214.686 71.0699 213.49 76.6686 213.802 83.4669C214.052 88.9055 209.651 99.7154 207.419 104.441C206.853 113.892 210.684 110.844 212.989 109.935C215.295 109.026 217.833 102.513 221.782 93.0097C225.732 83.506 234.372 74.0754 233.528 75.6897C232.853 76.9811 230.3 82.5167 229.107 85.1231C227.545 90.4816 227.336 99.1002 239.004 90.7059C250.673 82.3116 256.53 55.5552 259.592 45.8031C259.162 64.0452 249.942 82.0356 237.583 100.239C227.695 114.801 227.111 138.12 228.054 147.959L19.5216 230.175C15.3202 231.832 14.141 223.41 14.0765 218.992C13.9298 208.924 15.8831 204.992 20.0675 199.839C22.67 196.634 28.4249 189.879 31.1102 185.616C30.0915 193.093 21.8296 205.809 25.0675 211.582C31.8921 215.941 33.762 211.487 38.1328 206.431C41.6294 202.387 43.789 187.368 44.4317 180.364C45.7112 171.784 53.2965 157.301 56.1215 145.634C64.0583 137.686 67.6796 133.344 68.4982 132.167C66.3377 137.761 63.1665 142.857 61.4529 145.455C59.7392 148.053 57.8737 166.22 58.0205 168.469C58.1672 170.719 60.0025 177.814 64.9886 179.949C68.9775 181.658 72.8992 169.482 74.3615 163.18C77.3857 157.63 83.4978 150.692 88.9517 145.38C81.1523 157.581 78.566 164.898 78.2478 167.031C73.3876 178.279 80.2309 178.255 84.26 176.838C92.3979 174.655 98.4159 163.566 100.408 158.295C102.033 153.994 105.48 150.268 106.975 145.964ZM106.975 145.964C107.103 145.596 107.75 142.757 107.839 142.419C107.717 142.781 107.07 145.619 106.975 145.964Z" stroke="#EACE4F" stroke-width="1.37687" stroke-linecap="round"/>
<path d="M54.7215 150.866L53.538 152.468C54.5784 153.746 55.2877 154.905 55.6662 155.945C55.9391 156.694 56.2049 157.782 56.4636 159.208C57.2784 163.704 56.9322 167.643 55.425 171.026C53.776 174.735 50.896 177.337 46.7851 178.833C43.4238 180.057 40.3775 179.851 37.6464 178.216C35.1219 176.697 33.2348 174.221 31.985 170.787C31.7165 170.05 31.4728 169.249 31.2538 168.383C30.3512 164.549 30.8063 160.796 32.6191 157.124C34.4868 153.377 37.2524 150.837 40.916 149.503C46.4537 147.488 51.0556 147.942 54.7215 150.866ZM50.614 162.097C50.5215 161.542 50.418 161.107 50.3036 160.793C49.7931 159.39 48.9782 158.468 47.859 158.026L48.7524 156.982C47.0425 155.332 45.0147 154.933 42.6691 155.787C40.2871 156.654 38.5776 158.146 37.5405 160.262C36.5737 162.271 36.349 164.55 36.8664 167.101C36.9842 167.688 37.1135 168.174 37.2544 168.561C37.9145 170.375 39.012 171.735 40.5469 172.642C42.1687 173.599 43.8682 173.754 45.6456 173.107C47.7857 172.328 49.2754 170.834 50.1146 168.625C50.8627 166.655 51.0291 164.479 50.614 162.097ZM76.5328 158.086C75.2992 161.205 73.038 163.363 69.7492 164.56C67.0892 165.528 64.6695 165.313 62.4903 163.915C60.4727 162.623 58.9446 160.55 57.906 157.697C57.6816 157.08 57.4802 156.414 57.3019 155.699C56.5106 152.509 56.8125 149.407 58.2077 146.393C59.626 143.33 61.7801 141.273 64.6698 140.221C69.0347 138.632 72.6939 139.074 75.6473 141.545L71.0086 146.52C69.611 145.125 67.9993 144.76 66.1736 145.425C64.2874 146.111 62.9488 147.324 62.1578 149.063C61.4173 150.716 61.2673 152.598 61.7076 154.711C61.8067 155.209 61.9135 155.615 62.0279 155.93C62.5824 157.453 63.4765 158.593 64.7101 159.349C66.0185 160.16 67.368 160.312 68.7584 159.806C70.2819 159.252 71.3935 158.149 72.0933 156.497L76.5328 158.086ZM93.0899 129.877L93.309 134.768L91.4953 135.428C89.73 136.07 88.2071 136.645 86.9266 137.152L88.4964 137.402C88.2025 139.604 88.1816 143.234 88.4337 148.291C88.5552 150.204 88.7824 152.785 89.1153 156.032L88.9719 156.146C87.7178 156.876 86.0307 157.997 83.9106 159.508C83.6151 156.439 83.4361 153.314 83.3736 150.132C83.3235 148.151 83.4294 145.47 83.6911 142.089C83.7458 141.261 83.8708 140.024 84.066 138.378C82.2216 139.255 80.1415 140.293 77.8256 141.492L77.4993 136.476C79.6426 135.518 82.08 134.446 84.8114 133.26C86.5053 132.534 89.2647 131.406 93.0899 129.877ZM116.092 126.824L115.114 128.146C115.978 129.201 116.568 130.163 116.885 131.034C117.114 131.663 117.336 132.575 117.552 133.769C118.228 137.508 117.938 140.776 116.684 143.574C115.307 146.677 112.908 148.851 109.486 150.097C106.693 151.113 104.159 150.94 101.883 149.578C99.7928 148.312 98.2284 146.252 97.1899 143.399C96.9654 142.782 96.7641 142.116 96.5858 141.4C95.8065 138.206 96.1749 135.08 97.6911 132.022C99.2545 128.907 101.566 126.792 104.625 125.679C109.219 124.006 113.042 124.388 116.092 126.824ZM112.69 136.155C112.604 135.694 112.515 135.336 112.422 135.082C111.995 133.909 111.319 133.142 110.393 132.781L111.145 131.911C109.711 130.53 108.015 130.196 106.056 130.909C104.073 131.63 102.656 132.872 101.804 134.633C100.991 136.312 100.799 138.21 101.227 140.327C101.326 140.825 101.433 141.231 101.548 141.546C102.102 143.069 103.02 144.2 104.302 144.938C105.647 145.736 107.063 145.864 108.55 145.323C110.327 144.676 111.565 143.431 112.264 141.589C112.875 139.956 113.017 138.145 112.69 136.155ZM132.035 122.829C131.74 122.019 130.984 121.617 129.767 121.621C129.408 121.615 128.879 121.739 128.177 121.994L127.796 122.133C127.177 122.386 126.39 122.857 125.436 123.547L126.722 123.695C126.58 124.472 126.494 125.401 126.462 126.48C126.448 126.554 126.44 127.173 126.44 128.337L127.726 127.807C129.055 127.282 130.115 126.677 130.906 125.992C132.059 124.984 132.435 123.93 132.035 122.829ZM126.568 132.583L126.61 134.334C126.673 135.598 126.904 138.191 127.304 142.112L127.148 142.189C125.638 143.081 123.946 144.19 122.073 145.515C121.789 142.552 121.614 139.438 121.549 136.176C121.489 134.13 121.591 131.457 121.855 128.157C121.902 127.496 121.998 126.592 122.142 125.444C121.759 125.748 121.43 125.991 121.154 126.173L118.184 121.4C120.631 120.072 122.792 119.066 124.666 118.384C125.101 118.226 125.593 118.074 126.143 117.929C127.682 117.492 128.567 117.252 128.798 117.209C129.632 117.056 130.608 117.009 131.724 117.068C134.162 117.18 135.77 118.307 136.549 120.447C136.659 120.749 136.749 121.148 136.819 121.642C137.264 124.37 135.96 126.919 132.907 129.29C131.28 130.539 129.167 131.637 126.568 132.583ZM158.241 111.483L157.264 112.804C158.127 113.86 158.717 114.822 159.034 115.693C159.263 116.322 159.485 117.233 159.701 118.428C160.377 122.167 160.088 125.435 158.833 128.233C157.457 131.336 155.058 133.51 151.636 134.755C148.843 135.772 146.308 135.599 144.032 134.237C141.942 132.971 140.378 130.911 139.339 128.058C139.115 127.441 138.913 126.775 138.735 126.059C137.956 122.865 138.324 119.739 139.841 116.681C141.404 113.565 143.715 111.451 146.774 110.337C151.369 108.665 155.191 109.047 158.241 111.483ZM154.839 120.814C154.753 120.352 154.664 119.995 154.572 119.741C154.145 118.568 153.468 117.801 152.543 117.439L153.294 116.57C151.86 115.189 150.164 114.855 148.205 115.567C146.222 116.289 144.805 117.531 143.954 119.292C143.141 120.971 142.948 122.869 143.377 124.986C143.476 125.484 143.583 125.89 143.697 126.205C144.251 127.728 145.17 128.859 146.452 129.597C147.796 130.395 149.212 130.523 150.7 129.982C152.477 129.335 153.715 128.09 154.414 126.248C155.024 124.615 155.166 122.804 154.839 120.814ZM173.435 111.581C173.441 111.223 173.466 110.858 173.509 110.486C173.716 108.083 174.161 104.772 174.843 100.552L175.404 100.287C176.492 99.7401 177.77 99.1516 179.239 98.5213C178.886 100.827 178.524 104.252 178.152 108.796C178.155 108.918 178.144 109.395 178.118 110.226C180.491 108.02 182.462 105.064 184.03 101.358C184.722 99.7229 185.19 98.1694 185.435 96.6974L186.05 96.4119C187.126 95.8696 188.392 95.2855 189.849 94.6596C189.599 98.4885 188.245 102.48 185.786 106.634C184.55 108.768 183.066 110.561 181.335 112.012C182.867 112.194 184.39 112.824 185.905 113.902C187.499 115.047 188.55 116.315 189.056 117.706C189.188 118.068 189.276 118.481 189.321 118.944L184.105 122.445C184.008 121.727 183.837 121.029 183.59 120.352C183.132 119.095 182.463 117.99 181.582 117.037C180.512 115.865 179.399 115.271 178.243 115.254L178.324 116.662C178.392 117.828 178.582 120.06 178.891 123.356L173.687 126.832C173.459 124.176 173.3 121.407 173.209 118.523C173.205 117.909 173.197 117.268 173.187 116.601C170.85 118.793 168.901 121.735 167.341 125.424C166.653 127.071 166.187 128.631 165.943 130.103L165.328 130.388C164.235 130.923 162.967 131.501 161.522 132.122C161.764 128.31 163.116 124.312 165.578 120.13C166.807 118.012 168.293 116.226 170.036 114.77C168.504 114.587 166.975 113.96 165.448 112.886C163.841 111.746 162.787 110.486 162.286 109.108C162.149 108.733 162.068 108.304 162.043 107.82L167.272 104.356C167.353 105.066 167.516 105.759 167.763 106.436C168.22 107.694 168.89 108.799 169.77 109.752C170.803 110.896 172.024 111.506 173.435 111.581ZM207.683 88.1888C207.226 91.1076 206.864 94.5326 206.596 98.4637C206.509 99.8786 206.572 102.498 206.787 106.323C206.835 107.359 206.959 109.409 207.156 112.473L201.94 115.974C201.796 113.397 201.707 110.8 201.672 108.184C201.682 107.948 201.686 107.207 201.685 105.961L196.078 108.783L196.141 110.198C196.221 111.359 196.422 113.587 196.744 116.879L191.533 120.337C191.306 117.681 191.143 114.919 191.044 112.052C190.984 109.856 191.084 107.177 191.344 104.015C191.558 101.596 192.009 98.2823 192.696 94.075L193.22 93.8226C194.321 93.2715 195.605 92.6808 197.074 92.0505C196.721 94.3558 196.359 97.7808 195.987 102.325C195.986 102.435 195.974 102.912 195.952 103.755L200.931 101.183L201.877 102.03C202.059 98.7322 202.524 94.7977 203.27 90.2265L203.885 89.9411C204.961 89.3988 206.227 88.8147 207.683 88.1888ZM228.394 85.95L227.416 87.2711C228.279 88.3262 228.87 89.289 229.186 90.1595C229.415 90.7883 229.638 91.7001 229.853 92.895C230.529 96.6335 230.24 99.9018 228.986 102.7C227.609 105.803 225.21 107.977 221.788 109.222C218.995 110.239 216.461 110.066 214.185 108.703C212.095 107.437 210.53 105.378 209.492 102.524C209.267 101.908 209.066 101.242 208.888 100.526C208.108 97.3316 208.477 94.2056 209.993 91.148C211.556 88.0321 213.867 85.9174 216.926 84.804C221.521 83.1317 225.343 83.5137 228.394 85.95ZM224.991 95.2808C224.905 94.8191 224.816 94.4613 224.724 94.2074C224.297 93.0346 223.621 92.2674 222.695 91.906L223.447 91.0368C222.013 89.6554 220.316 89.3212 218.358 90.0341C216.375 90.7558 214.958 91.9974 214.106 93.7587C213.293 95.4376 213.101 97.3356 213.529 99.4527C213.628 99.9507 213.735 100.357 213.849 100.671C214.404 102.195 215.322 103.326 216.604 104.064C217.949 104.862 219.365 104.99 220.852 104.449C222.629 103.802 223.867 102.557 224.566 100.714C225.177 99.0816 225.318 97.2704 224.991 95.2808ZM236.068 102.915L242.348 99.685C242.413 100.88 242.593 102.861 242.889 105.629L242.703 105.738C240.904 106.817 238.871 108.153 236.603 109.745C236.35 107.359 236.172 105.082 236.068 102.915ZM240.336 76.0989C240.875 78.7096 241.365 83.3853 241.806 90.1261L242.067 96.3162L235.887 99.2021L235.225 86.6059C234.963 84.3051 234.734 81.7938 234.537 79.072C235.965 78.2922 237.898 77.3011 240.336 76.0989Z" fill="white"/>
<path d="M57.2472 197.43C57.256 197.454 58.1672 197.136 59.9809 196.476C61.2933 195.943 62.3551 195.324 63.1661 194.618C64.3146 193.598 64.6908 192.543 64.2947 191.455C63.9955 190.633 63.2396 190.23 62.0271 190.247C61.6643 190.229 61.1262 190.349 60.4129 190.609L59.4417 191.044L58.7579 187.021L59.912 186.58C61.253 186.051 62.3252 185.442 63.1286 184.752C64.2694 183.748 64.6395 182.696 64.2391 181.596C63.9442 180.786 63.1944 180.381 61.9895 180.381C61.6312 180.375 61.1013 180.499 60.4001 180.755L60.001 180.9C59.3811 181.153 58.6002 181.622 57.6583 182.307L53.9239 178.367C54.9571 177.895 55.9453 177.488 56.8884 177.144C57.3115 176.99 57.7979 176.841 58.3476 176.695C59.8985 176.254 60.7834 176.014 61.0022 175.976C61.8365 175.823 62.8121 175.776 63.929 175.835C66.3541 175.952 67.9561 177.08 68.7351 179.22C68.8451 179.522 68.9414 179.919 69.024 180.409C69.3907 182.658 68.7367 184.868 67.062 187.038C68.0594 187.935 68.6373 188.601 68.7957 189.036C68.9145 189.363 69.0174 189.777 69.1044 190.28C69.676 193.919 68.2879 196.821 64.9401 198.984C64.7994 199.049 63.5661 199.648 61.2403 200.783L57.8193 202.5C57.0883 202.862 56.3816 203.215 55.699 203.559L55.5572 197.922L57.2472 197.43ZM78.3835 174.805C78.1155 175.724 77.6693 177.865 77.0448 181.228L76.5229 184.026L79.55 182.863L80.4554 183.149C80.5737 181.669 80.0145 179.229 78.7779 175.832C78.593 175.324 78.4616 174.982 78.3835 174.805ZM80.7663 186.261L76.2817 188.16C75.8964 189.998 75.7486 192.264 75.8385 194.956L70.6337 198.432C70.5621 197.746 70.6989 195.827 71.0443 192.675L71.388 189.387C71.7344 186.276 72.5962 182.286 73.9733 177.416C74.7222 174.734 75.541 172.3 76.4297 170.114C77.2915 169.773 78.5693 169.239 80.2631 168.513L81.0964 170.408C81.7091 171.828 82.2619 173.215 82.7548 174.569C83.7186 177.217 84.4229 179.754 84.8677 182.18C84.8832 182.599 85.1833 184.345 85.7679 187.419C86.0102 188.686 86.171 189.73 86.2503 190.55L81.0341 194.051C80.9578 192.6 80.8685 190.003 80.7663 186.261ZM110.778 164.657C110.483 163.847 109.727 163.445 108.51 163.449C108.152 163.443 107.622 163.567 106.92 163.822L106.54 163.961C105.92 164.214 105.133 164.685 104.179 165.375L105.465 165.523C105.323 166.3 105.237 167.229 105.205 168.308C105.191 168.382 105.183 169.001 105.183 170.165L106.469 169.635C107.798 169.11 108.858 168.506 109.649 167.82C110.802 166.812 111.178 165.758 110.778 164.657ZM105.311 174.411L105.353 176.162C105.416 177.426 105.647 180.019 106.047 183.94L105.891 184.018C104.381 184.91 102.689 186.018 100.816 187.343C100.532 184.38 100.357 181.267 100.292 178.004C100.233 175.958 100.335 173.285 100.598 169.985C100.646 169.324 100.741 168.42 100.885 167.272C100.502 167.576 100.173 167.819 99.8971 168.001L96.9275 163.229C99.3742 161.9 101.535 160.894 103.409 160.212C103.844 160.054 104.336 159.902 104.886 159.757C106.425 159.32 107.31 159.08 107.541 159.037C108.375 158.884 109.351 158.837 110.468 158.896C112.905 159.009 114.513 160.135 115.292 162.275C115.402 162.577 115.492 162.976 115.562 163.47C116.007 166.198 114.703 168.747 111.65 171.118C110.024 172.367 107.91 173.465 105.311 174.411ZM127.467 165.648C126.942 167.893 126.757 171.466 126.911 176.367L126.75 176.487C125.483 177.222 123.802 178.34 121.706 179.843C121.637 179.238 121.761 177.002 122.079 173.135L122.733 167.371C122.012 166.443 121.134 165.064 120.099 163.237C118.697 160.816 117.865 159.394 117.601 158.97C116.878 157.85 116.235 157.023 115.671 156.489L120.35 154.786C120.756 155.336 121.347 156.319 122.122 157.735L124.534 162.218C124.682 161.534 125.097 159.569 125.777 156.322C126.177 154.411 126.59 153.062 127.016 152.277L131.789 149.759C131.075 151.183 130.048 154.7 128.707 160.309C128.147 162.608 127.734 164.387 127.467 165.648ZM134.067 170.127C135.265 169.581 135.993 168.57 136.25 167.094C136.415 166.308 136.471 165.5 136.416 164.671C136.441 163.799 136.463 162.45 136.482 160.621C136.633 158.102 136.842 155.78 137.11 153.656L134.882 154.816L134.612 150.067C136.124 149.366 137.199 148.859 137.837 148.544C140.182 147.499 142.304 146.576 144.203 145.775L144.432 145.671C145.249 145.319 147.863 144.244 152.275 142.447L152.293 142.44C151.929 144.75 151.567 148.175 151.206 152.715C151.205 152.825 151.194 153.302 151.172 154.145L151.297 159.173L151.379 160.581C151.435 161.751 151.63 163.981 151.964 167.269L146.735 170.733C146.508 168.077 146.351 165.314 146.264 162.442C146.216 160.241 146.322 157.56 146.582 154.399C146.685 153.101 146.863 151.523 147.118 149.664L144.47 150.628C142.581 151.384 141.076 151.987 139.952 152.437L141.504 152.693C141.412 153.644 141.352 154.645 141.323 155.696C141.268 157.538 141.286 159.694 141.378 162.167C141.399 163.391 141.387 164.053 141.341 164.152L141.394 164.523C141.431 167.522 140.964 169.944 139.993 171.79C138.959 173.276 137.569 174.329 135.823 174.951L134.067 170.127ZM169.426 136.184L169.627 141.081L167.886 141.715C164.633 142.899 162.114 143.898 160.329 144.712L161.477 144.931C161.451 145.31 161.397 146.309 161.315 147.927C161.278 148.351 161.246 148.849 161.221 149.419L167.646 146.814L167.719 151.244L161.378 153.799C161.408 155.349 161.53 157.283 161.744 159.601C163.462 158.867 166.035 157.773 169.463 156.319L169.603 161.218C168.708 161.544 167.922 161.83 167.245 162.077L166.375 162.393C164.15 163.203 161.013 164.742 156.964 167.01L156.944 166.956C156.896 166.823 156.794 165.716 156.64 163.636C156.467 161.207 156.378 159.213 156.372 157.654C156.354 155.045 156.448 152.369 156.654 149.623C156.731 148.596 156.844 147.514 156.992 146.378C155.985 146.882 155.029 147.36 154.125 147.812L153.817 142.789C155.852 141.871 158.289 140.799 161.129 139.573C162.823 138.847 165.589 137.718 169.426 136.184ZM196.383 125.489L197.696 135.979C197.719 136.231 197.858 137.44 198.112 139.607L198.719 144.377C198.941 146.268 199.212 148.121 199.53 149.936L193.288 154.344C193.132 152.333 192.985 149.559 192.847 146.021C192.814 144.952 192.718 143.09 192.56 140.436C192.482 139.205 192.443 137.556 192.443 135.488C191.329 136.414 190.274 139.571 189.277 144.959C188.888 146.976 188.8 149.706 189.012 153.148L183.796 156.648C183.761 156.401 183.664 156.06 183.505 155.624C182.718 153.46 181.4 150.687 179.554 147.307C178.85 145.974 178.413 145.339 178.244 145.401L177.997 150.872C177.885 153.35 178.08 155.579 178.582 157.56L173.359 161.043C173.127 158.334 172.974 155.562 172.9 152.727C172.841 150.571 172.941 147.892 173.2 144.69C173.316 143.278 173.53 141.496 173.841 139.342C173.831 139.127 173.806 138.965 173.767 138.856C173.648 138.529 173.33 138.049 172.812 137.416C172.139 136.621 171.757 136.157 171.668 136.025L176.763 132.754C178.25 134.732 179.582 136.568 180.76 138.262C182.455 140.698 183.686 142.859 184.454 144.743C184.922 139.972 186.167 136.02 188.19 132.887C188.908 131.585 189.705 130.446 190.582 129.47C191.265 128.714 192.047 128.06 192.928 127.507C194.063 126.751 194.755 126.301 195.003 126.156C195.497 125.894 195.957 125.672 196.383 125.489Z" fill="black"/>
<path d="M77.8996 206.318L76.7162 207.92C77.7565 209.198 78.4659 210.357 78.8443 211.397C79.1172 212.146 79.383 213.234 79.6417 214.66C80.4566 219.156 80.1103 223.095 78.6031 226.478C76.9541 230.187 74.0742 232.789 69.9632 234.285C66.6019 235.509 63.5557 235.303 60.8245 233.668C58.3001 232.149 56.4129 229.673 55.1631 226.239C54.8946 225.502 54.6509 224.701 54.4319 223.835C53.5293 220.001 53.9844 216.248 55.7972 212.576C57.6649 208.829 60.4306 206.289 64.0942 204.955C69.6319 202.94 74.2337 203.394 77.8996 206.318ZM73.7921 217.549C73.6996 216.994 73.5961 216.559 73.4817 216.245C72.9712 214.842 72.1564 213.92 71.0371 213.478L71.9306 212.434C70.2207 210.784 68.1929 210.385 65.8472 211.239C63.4653 212.106 61.7557 213.598 60.7186 215.714C59.7518 217.723 59.5271 220.002 60.0446 222.553C60.1624 223.14 60.2917 223.626 60.4325 224.013C61.0926 225.827 62.1901 227.187 63.725 228.094C65.3468 229.051 67.0464 229.206 68.8237 228.559C70.9639 227.78 72.4535 226.286 73.2927 224.077C74.0408 222.107 74.2072 219.931 73.7921 217.549ZM96.1624 213.72C95.8059 212.741 94.9032 212.254 93.4544 212.261C93.0146 212.257 92.3716 212.409 91.5252 212.717L91.0537 212.889C90.9811 212.915 90.8739 212.94 90.7321 212.965C90.5903 212.989 90.4952 213.01 90.4469 213.027C90.2897 213.085 90.0358 213.252 89.6852 213.531L89.7318 214.787C89.6331 215.645 89.5372 216.754 89.4442 218.116C89.4387 218.365 89.4384 219.098 89.4432 220.314L90.9963 219.729C92.5747 219.099 93.8409 218.365 94.7949 217.525C96.1862 216.306 96.6421 215.038 96.1624 213.72ZM84.0388 206.651C84.0673 206.353 84.1407 205.614 84.2591 204.435C83.0424 205.042 81.896 205.617 80.8199 206.159L80.4356 200.137C82.8801 199.028 85.8121 197.735 89.2316 196.258C91.2673 195.38 94.5862 194.021 99.1885 192.182L99.4408 198.067L97.337 198.833C93.4316 200.254 90.4055 201.458 88.2589 202.445L89.6391 202.682C89.603 203.147 89.5483 203.9 89.4749 204.94C89.4498 205.36 89.4251 205.8 89.4011 206.26C89.3912 206.346 89.3875 206.882 89.39 207.867C90.376 207.453 91.3257 207.128 92.2391 206.891C93.2351 206.693 94.4058 206.637 95.7514 206.722C98.6734 206.85 100.601 208.195 101.534 210.759C101.67 211.133 101.785 211.619 101.879 212.214C102.607 216.66 100.961 220.169 96.94 222.741C96.7675 222.831 95.2875 223.562 92.5 224.932L88.3733 226.968C86.8675 227.722 85.4584 228.44 84.146 229.123C83.8042 225.55 83.5882 221.816 83.498 217.919C83.4269 215.466 83.5507 212.251 83.8694 208.274C83.91 207.821 83.9664 207.28 84.0388 206.651ZM120.698 184.353L120.951 190.238L118.847 191.004C114.942 192.425 111.916 193.629 109.769 194.616L111.149 194.853C111.113 195.318 111.046 196.527 110.949 198.479C110.914 198.985 110.883 199.578 110.857 200.258L118.568 197.123L118.641 202.458L111.032 205.535C111.074 207.382 111.219 209.698 111.466 212.484C113.526 211.597 116.612 210.296 120.725 208.58L120.91 214.448C119.818 214.832 118.872 215.169 118.074 215.46L117.004 215.849C114.344 216.817 110.587 218.664 105.732 221.39L105.712 221.335C105.65 221.166 105.526 219.828 105.34 217.322C105.135 214.425 105.024 212.035 105.01 210.151C104.993 207.021 105.105 203.81 105.345 200.519C105.441 199.279 105.583 197.975 105.769 196.606C104.54 197.217 103.394 197.792 102.33 198.33L101.946 192.308C104.39 191.199 107.322 189.906 110.742 188.429C112.777 187.551 116.096 186.192 120.698 184.353ZM126.284 206.865C126.288 206.877 127.384 206.484 129.573 205.688C131.151 205.059 132.417 204.324 133.371 203.484C134.763 202.265 135.219 200.997 134.739 199.679C134.382 198.7 133.48 198.214 132.031 198.221C131.591 198.216 130.948 198.368 130.102 198.676L128.956 199.196L128.097 194.353L129.505 193.82C131.112 193.194 132.392 192.461 133.346 191.621C134.726 190.407 135.176 189.141 134.696 187.823C134.344 186.856 133.435 186.372 131.97 186.371C131.542 186.363 130.905 186.512 130.059 186.82L129.587 186.992C128.851 187.301 127.905 187.864 126.751 188.681L122.263 183.968C123.529 183.384 124.719 182.89 125.831 182.485C126.351 182.296 126.948 182.112 127.623 181.935C129.461 181.417 130.522 181.134 130.806 181.085C131.802 180.887 132.972 180.831 134.318 180.916C137.24 181.044 139.167 182.389 140.1 184.953C140.237 185.327 140.352 185.813 140.445 186.408C140.881 189.111 140.095 191.767 138.086 194.374C139.272 195.448 139.961 196.252 140.155 196.784C140.296 197.171 140.413 197.662 140.507 198.258C141.2 202.647 139.537 206.128 135.517 208.7C135.344 208.791 133.864 209.521 131.077 210.892L126.95 212.928C126.071 213.371 125.221 213.803 124.403 214.224L124.272 207.432L126.284 206.865ZM157.065 191.553C156.709 190.574 155.806 190.088 154.357 190.095C153.917 190.09 153.274 190.242 152.428 190.55L151.956 190.722C151.884 190.748 151.777 190.774 151.635 190.798C151.493 190.822 151.398 190.843 151.35 190.861C151.192 190.918 150.938 191.086 150.588 191.364L150.634 192.62C150.536 193.478 150.44 194.588 150.347 195.95C150.341 196.198 150.341 196.931 150.346 198.148L151.899 197.562C153.477 196.933 154.744 196.198 155.698 195.358C157.089 194.139 157.545 192.871 157.065 191.553ZM144.603 187.956C144.669 187.233 144.725 186.617 144.772 186.107C144.813 185.654 144.869 185.113 144.941 184.484C145.042 183.106 145.456 180.162 146.184 175.652L146.847 175.329C148.168 174.67 149.703 173.96 151.453 173.2C151.049 175.853 150.691 179.044 150.378 182.773C150.352 183.193 150.328 183.633 150.304 184.094C150.294 184.179 150.29 184.715 150.293 185.7C151.279 185.286 152.228 184.961 153.142 184.724C154.138 184.526 155.308 184.47 156.654 184.555C159.576 184.683 161.503 186.028 162.436 188.592C162.573 188.967 162.688 189.452 162.782 190.048C163.509 194.493 161.863 198.002 157.843 200.574C157.67 200.665 156.19 201.395 153.403 202.766L149.276 204.802C147.77 205.555 146.361 206.273 145.049 206.956C144.707 203.384 144.491 199.649 144.401 195.752C144.393 195.467 144.389 195.174 144.389 194.873C143.938 195.215 143.549 195.5 143.222 195.729L139.582 190.358C141.421 189.428 143.095 188.628 144.603 187.956ZM175.468 170.56C174.089 171.774 173.639 173.04 174.118 174.358C174.47 175.325 175.379 175.809 176.845 175.81C177.272 175.818 177.909 175.669 178.756 175.361L179.227 175.189C179.964 174.88 180.909 174.317 182.063 173.5L180.513 173.304C180.671 172.384 180.779 171.27 180.837 169.961C180.842 169.864 180.846 169.123 180.849 167.739L179.309 168.361C177.702 168.987 176.422 169.72 175.468 170.56ZM170.294 185.239C171.181 183.725 172.167 182.353 173.253 181.122C171.019 180.703 169.506 179.405 168.714 177.229C168.578 176.854 168.463 176.368 168.369 175.773C167.844 172.486 169.412 169.423 173.076 166.583C175.037 165.089 177.37 163.843 180.074 162.845L186.94 160.264C186.546 162.831 186.147 166.55 185.743 171.421C186.397 170.923 186.881 170.561 187.197 170.337L190.778 176.058C188.949 177.052 187.257 177.894 185.7 178.584L185.749 180.353L185.838 182.067C185.921 183.46 186.155 186.134 186.54 190.089L180.28 194.277C180.01 191.089 179.819 187.763 179.708 184.298L179.61 180.924C176.216 184.692 173.818 188.242 172.415 191.573C171.586 193.546 171.02 195.415 170.718 197.182L170.001 197.525C168.692 198.18 167.169 198.885 165.431 199.641C165.729 195.041 167.35 190.24 170.294 185.239ZM211.986 151.147C211.436 154.675 211.005 158.796 210.694 163.51C210.586 165.206 210.655 168.351 210.903 172.944C210.969 174.179 211.12 176.644 211.355 180.337L205.089 184.508C204.923 181.419 204.824 178.306 204.791 175.168C204.783 174.884 204.783 174 204.792 172.518L198.045 175.878L198.135 177.591C198.218 178.985 198.451 181.659 198.836 185.613L192.576 189.801C192.306 186.614 192.116 183.287 192.005 179.822C191.937 177.19 192.061 173.975 192.376 170.177C192.618 167.268 193.149 163.289 193.967 158.24L194.63 157.917C195.951 157.258 197.487 156.548 199.236 155.788C198.807 158.56 198.377 162.68 197.944 168.151C197.935 168.277 197.916 168.845 197.887 169.856L203.89 166.767L204.998 167.781C205.24 163.818 205.807 159.093 206.699 153.606L207.416 153.263C208.725 152.608 210.249 151.903 211.986 151.147ZM223.294 153.604C222.982 154.704 222.448 157.281 221.692 161.335L221.063 164.686L224.718 163.273L225.79 163.623C225.937 161.844 225.269 158.917 223.786 154.843C223.561 154.226 223.398 153.813 223.294 153.604ZM226.185 167.361L220.771 169.64C220.302 171.85 220.122 174.572 220.231 177.805L213.971 181.994C213.892 181.174 214.065 178.865 214.49 175.068L214.919 171.112C215.326 167.377 216.355 162.586 218.007 156.741C218.9 153.513 219.882 150.588 220.954 147.966C221.993 147.546 223.526 146.906 225.554 146.045L226.562 148.307C227.309 150.021 227.978 151.687 228.567 153.308C229.725 156.488 230.567 159.536 231.095 162.452C231.109 162.981 231.464 165.084 232.158 168.761C232.452 170.283 232.65 171.54 232.75 172.53L226.483 176.7C226.399 174.965 226.3 171.851 226.185 167.361Z" fill="white"/>
</svg>
