<svg width="438" height="354" viewBox="0 0 438 354" fill="none" xmlns="http://www.w3.org/2000/svg">
<path d="M35.6203 116.898C13.5916 207.927 92.4106 239.124 195.982 264.187C278.566 284.173 371.518 267.832 387.44 202.037C402.14 141.294 351.88 70.3061 248.93 45.3924C129.511 13.5649 54.9772 36.9093 35.6203 116.898Z" fill="#FDF9F2"/>
<path d="M253.667 282.739C258.964 277.445 264.995 271.601 266.691 268.574L204.447 263.952L198.262 274.297C196.052 277.455 191.354 283.83 189.924 285.394C188.494 286.958 187.188 287.697 176.116 296.822C165.607 305.484 180.222 306.474 184.334 306.323C187.406 306.21 198.282 304.818 203.437 303.434C209.666 302.14 223.185 300.234 229.031 298.168C240.531 294.105 246.385 290.017 253.667 282.739Z" fill="#FDF9F2"/>
<path d="M117.858 154.578C113.841 160.143 110.996 164.162 109.326 166.637L108.763 166.504C103.273 165.675 96.8757 164.975 89.5722 164.402C91.763 161.121 94.1887 157.629 96.8491 153.928C95.4255 153.737 93.9346 153.544 92.3762 153.349L93.9445 136.371C98.3502 137.445 103.391 138.452 109.067 139.392C118.53 138.386 123.952 135.986 125.334 132.19L125.553 131.591C126.251 129.673 123.921 124.328 118.563 115.557C116.65 109.503 116.327 104.738 117.593 101.262C120.3 93.8311 125.614 89.6766 133.536 88.7991C136.496 88.5 140.162 88.4978 144.535 88.7926C146.741 85.471 148.99 82.0294 151.282 78.4681C155.521 79.2566 161.135 80.4906 168.126 82.1701C167.5 83.8881 165.353 87.5465 161.684 93.1454L163.655 108.609C160.461 107.561 157.63 106.823 155.162 106.394C145.823 104.329 139.457 104.226 136.064 106.086C134.914 106.76 134.149 107.616 133.771 108.655C133.131 110.413 133.432 113.003 134.674 116.425C140.528 129.3 142.924 137.197 141.862 140.113L141.425 141.312C137.99 148.258 130.723 152.619 119.622 154.395C119.054 154.463 118.466 154.524 117.858 154.578ZM191.49 126.115C191.646 125.81 191.761 125.557 191.833 125.357C192.154 124.478 192.141 123.706 191.795 123.041L192.668 122.879C192.493 121.372 191.665 120.354 190.183 119.826C188.661 119.283 187.217 119.333 185.852 119.975C184.556 120.551 183.511 121.556 182.718 122.988C182.547 123.333 182.418 123.626 182.331 123.866C181.909 125.024 181.885 126.145 182.26 127.226C182.661 128.362 183.422 129.13 184.544 129.53C185.906 130.015 187.244 129.883 188.558 129.133C189.748 128.473 190.725 127.468 191.49 126.115ZM187.911 162.961C188.068 162.656 188.183 162.403 188.255 162.203C188.59 161.285 188.584 160.493 188.238 159.827L189.09 159.725C188.915 158.218 188.086 157.2 186.605 156.672C185.083 156.13 183.646 156.159 182.296 156.761C181 157.337 179.948 158.362 179.14 159.834C178.969 160.18 178.84 160.472 178.752 160.712C178.33 161.871 178.314 162.971 178.704 164.013C179.065 165.134 179.826 165.902 180.988 166.316C182.349 166.802 183.687 166.669 185.001 165.919C186.152 165.245 187.122 164.26 187.911 162.961ZM172.499 140.607C170.213 138.934 168.606 136.759 167.681 134.082C166.329 130.214 166.526 125.883 168.273 121.089C168.651 120.05 169.091 118.966 169.593 117.836C172.097 112.95 175.948 109.335 181.146 106.99C186.52 104.662 191.77 104.412 196.896 106.239C204.626 108.995 209.14 113.561 210.438 119.937L207.691 120.583C207.688 121.213 207.679 121.797 207.665 122.334C211.967 120.211 216.72 117.91 221.922 115.431L223.97 115.958C227.735 116.803 232.031 117.929 236.859 119.334C233.984 121.017 230.192 123.164 225.485 125.775L194.039 143.342C201.351 146.129 205.624 150.609 206.86 156.783L204.113 157.429C204.107 159.684 203.834 161.55 203.296 163.028C202.917 164.067 202.226 165.468 201.221 167.232C198.066 172.788 194.161 176.677 189.505 178.9C184.423 181.422 179.018 181.662 173.291 179.62C168.605 177.95 165.549 175.032 164.125 170.868C162.984 167.663 162.93 164.145 163.963 160.315L151.486 167.175L131.645 165.181C145.736 155.939 159.354 147.748 172.499 140.607ZM260.728 212.211C249.92 217.657 238.428 218.21 226.252 213.87C216.399 210.358 209.946 204.22 206.892 195.458C204.09 187.372 204.516 178.315 208.168 168.286C208.954 166.129 209.911 163.874 211.039 161.523C216.221 151.272 224.296 143.701 235.264 138.808C246.517 133.881 257.49 133.324 268.184 137.136C277.596 140.491 283.876 146.048 287.024 153.806C288.401 157.231 289.702 161.735 290.927 167.317C290.866 172.081 290.225 176.14 289.002 179.496C286.063 187.567 281.064 193.03 274.005 195.886C269.342 197.88 263.565 197.649 256.676 195.193L255.835 194.893C254.353 194.365 252.3 193.791 249.675 193.171C246.485 192.486 244.129 191.872 242.607 191.329C234.316 188.374 231.393 183.54 233.838 176.828C234.304 175.549 235.177 173.897 236.458 171.871C238.813 168.015 241.768 165.119 245.325 163.182C249.428 160.988 253.501 160.612 257.547 162.054C259.688 163.133 260.99 163.845 261.452 164.191C264.161 166.195 264.708 169.414 263.093 173.849C262.293 176.047 260.67 179.012 258.224 182.744C263.391 184.586 266.651 183.649 268.004 179.933C268.31 179.094 268.916 177.866 269.822 176.248C270.783 174.604 271.43 173.323 271.765 172.404C272.303 170.926 272.278 169.63 271.688 168.517C270.983 161.63 267.186 156.958 260.297 154.503C253.328 152.018 246.706 152.185 240.43 155.004C234.467 157.709 229.677 162.411 226.059 169.112C225.223 170.664 224.6 172 224.193 173.118C222.272 178.392 222.162 183.477 223.864 188.372C225.693 193.538 229.211 197.049 234.418 198.905C237.622 200.047 240.038 200.683 241.665 200.811C243.842 201.046 246.249 200.527 248.884 199.254L260.728 212.211ZM289.707 218.749L312.519 223.767C310.143 226.937 306.385 232.346 301.246 239.994L300.542 239.878C293.682 238.832 285.68 237.943 276.534 237.211C280.97 230.622 285.361 224.468 289.707 218.749ZM357.59 159.663C353.405 167.425 344.701 180.325 331.479 198.362L318.972 214.624L297.148 208.943L322.266 175.577C326.494 169.185 331.255 162.328 336.546 155.005C341.83 156.031 348.844 157.583 357.59 159.663Z" fill="black"/>
<path d="M261.511 271.968C307.608 271.754 395.866 254.991 391.416 184.14" stroke="#E1DED9" stroke-width="6.21695" stroke-linecap="round"/>
</svg>
