<svg width="519" height="459" viewBox="0 0 519 459" fill="none" xmlns="http://www.w3.org/2000/svg">
<path d="M474.568 161.418C501.956 286.814 403.47 324.853 274.078 353.114C170.905 375.648 54.8324 348.051 35.0366 257.416C16.7609 173.74 79.6317 79.8055 208.249 51.7142C357.443 15.1357 450.502 51.2304 474.568 161.418Z" fill="#FDF9F2"/>
<path d="M201.998 375.1C195.389 367.578 187.865 359.264 185.75 355.039L263.498 352.293L271.208 366.754C273.964 371.186 279.823 380.149 281.607 382.363C283.391 384.578 285.022 385.661 298.837 398.738C311.951 411.15 293.696 411.665 288.561 411.225C284.724 410.895 271.142 408.374 264.705 406.193C256.927 404.072 240.044 400.7 232.746 397.549C218.388 391.35 211.083 385.441 201.998 375.1Z" fill="#FDF9F2"/>
<path d="M310.979 344.882C378.407 331.821 502.816 280.468 475.986 167.526" stroke="#E1DED9" stroke-width="9.50988" stroke-linecap="round"/>
<path d="M134.294 190.706L128.298 194.651C128.206 193.829 128.029 193.03 127.767 192.252C127.279 190.809 126.542 189.54 125.554 188.445C124.371 187.093 123.132 186.398 121.836 186.36L121.872 187.979C121.935 189.309 122.1 191.861 122.37 195.635L116.367 199.56C116.175 196.519 116.071 193.347 116.053 190.043C116.045 187.544 116.224 184.481 116.592 180.854C116.873 178.112 117.459 174.33 118.351 169.507L118.972 169.217C120.232 168.599 121.694 167.94 123.36 167.241C122.917 169.869 122.429 173.779 121.894 178.973C121.894 179.113 121.863 179.66 121.799 180.616C124.556 178.114 126.869 174.753 128.737 170.532C129.562 168.669 130.131 166.898 130.445 165.217L131.128 164.905C132.374 164.292 133.823 163.638 135.474 162.943C135.11 167.315 133.484 171.863 130.595 176.586C129.142 179.013 127.417 181.047 125.42 182.688C127.15 182.913 128.86 183.651 130.549 184.901C132.327 186.229 133.485 187.691 134.023 189.287C134.164 189.703 134.254 190.176 134.294 190.706ZM146.98 165.086C146.653 166.134 146.095 168.578 145.303 172.418L144.643 175.613L148.101 174.316L149.119 174.654C149.29 172.962 148.717 170.166 147.401 166.266C147.204 165.683 147.064 165.29 146.98 165.086ZM149.394 178.217L144.267 180.338C143.785 182.437 143.561 185.026 143.596 188.106L137.614 192.023C137.549 191.238 137.752 189.044 138.222 185.443L138.693 181.686C139.163 178.132 140.238 173.577 141.919 168.024C142.834 164.964 143.822 162.189 144.883 159.699C145.868 159.319 147.329 158.723 149.265 157.912L150.162 160.088C150.821 161.719 151.412 163.312 151.937 164.866C152.963 167.906 153.698 170.816 154.141 173.595C154.148 174.075 154.445 176.075 155.031 179.597C155.274 181.05 155.43 182.245 155.499 183.184L149.503 187.129C149.453 185.469 149.417 182.498 149.394 178.217ZM174.799 176.338L168.804 180.283C168.712 179.461 168.535 178.661 168.272 177.884C167.785 176.441 167.048 175.171 166.06 174.077C164.877 172.725 163.638 172.03 162.342 171.992L162.378 173.611C162.44 174.941 162.606 177.493 162.875 181.267L156.872 185.191C156.681 182.151 156.577 178.979 156.559 175.675C156.55 173.176 156.73 170.113 157.098 166.486C157.378 163.744 157.965 159.962 158.857 155.139L159.477 154.848C160.737 154.231 162.2 153.572 163.865 152.872C163.423 155.5 162.934 159.411 162.399 164.605C162.4 164.745 162.368 165.292 162.304 166.247C165.062 163.746 167.375 160.385 169.243 156.163C170.067 154.301 170.636 152.53 170.95 150.849L171.633 150.537C172.879 149.924 174.328 149.27 175.98 148.575C175.616 152.947 173.989 157.495 171.101 162.218C169.647 164.645 167.922 166.679 165.925 168.32C167.656 168.545 169.365 169.283 171.055 170.533C172.832 171.861 173.99 173.323 174.529 174.919C174.67 175.335 174.76 175.808 174.799 176.338ZM205.051 150.688C205.068 150.278 205.105 149.861 205.162 149.436C205.457 146.69 206.043 142.908 206.921 138.089L207.562 137.792C208.809 137.179 210.271 136.52 211.95 135.816C211.494 138.449 210.998 142.362 210.464 147.556C210.464 147.695 210.44 148.24 210.389 149.191C213.133 146.694 215.439 143.335 217.307 139.114C218.131 137.252 218.701 135.48 219.014 133.799L219.718 133.48C220.951 132.872 222.399 132.218 224.065 131.518C223.687 135.895 222.054 140.445 219.165 145.169C217.712 147.596 215.986 149.63 213.99 151.27C215.72 151.496 217.43 152.234 219.119 153.484C220.897 154.811 222.055 156.273 222.593 157.869C222.734 158.286 222.824 158.759 222.864 159.289L216.868 163.234C216.776 162.412 216.599 161.612 216.336 160.835C215.849 159.391 215.119 158.12 214.145 157.02C212.962 155.668 211.716 154.975 210.406 154.943L210.463 156.554C210.512 157.889 210.67 160.444 210.939 164.218L204.957 168.135C204.766 165.094 204.655 161.925 204.623 158.626C204.633 157.923 204.641 157.19 204.646 156.426C201.944 158.908 199.663 162.25 197.804 166.453C196.984 168.329 196.417 170.107 196.104 171.788L195.4 172.108C194.149 172.707 192.698 173.354 191.046 174.048C191.415 169.69 193.046 165.133 195.939 160.377C197.383 157.969 199.111 155.942 201.122 154.296C199.391 154.071 197.675 153.336 195.971 152.09C194.18 150.768 193.017 149.315 192.483 147.733C192.338 147.303 192.257 146.811 192.24 146.257L198.25 142.354C198.324 143.167 198.492 143.962 198.754 144.739C199.241 146.183 199.972 147.454 200.946 148.554C202.087 149.874 203.455 150.586 205.051 150.688ZM241.915 125.186L242.021 130.79L240.033 131.495C236.32 132.813 233.442 133.927 231.399 134.838L232.694 135.101C232.655 135.535 232.569 136.676 232.436 138.526C232.383 139.011 232.335 139.58 232.292 140.232L239.635 137.324L239.607 142.393L232.361 145.243C232.356 147.017 232.446 149.23 232.631 151.884C234.595 151.063 237.537 149.841 241.457 148.217L241.494 153.822C240.472 154.185 239.575 154.503 238.801 154.777L237.807 155.13C235.267 156.031 231.676 157.756 227.032 160.304L227.011 160.242C226.96 160.089 226.872 158.822 226.749 156.442C226.614 153.661 226.563 151.379 226.595 149.596C226.639 146.612 226.812 143.552 227.113 140.414C227.227 139.239 227.382 138.003 227.578 136.706C226.424 137.271 225.329 137.807 224.294 138.314L224.07 132.565C226.398 131.538 229.185 130.339 232.433 128.97C234.37 128.158 237.531 126.897 241.915 125.186ZM275.567 113.25L275.693 118.846L273.622 119.581C271.607 120.296 269.867 120.936 268.404 121.502L270.176 121.805C269.788 124.321 269.674 128.472 269.834 134.258C269.924 136.449 270.118 139.403 270.414 143.121L270.249 143.249C268.81 144.071 266.871 145.333 264.432 147.038C264.173 143.524 264.048 139.947 264.057 136.308C264.049 134.042 264.236 130.976 264.616 127.111C264.699 126.165 264.871 124.752 265.133 122.872C263.022 123.854 260.64 125.017 257.987 126.362L257.742 120.621C260.194 119.55 262.982 118.351 266.105 117.025C268.042 116.214 271.196 114.955 275.567 113.25ZM288.791 114.783C288.464 115.831 287.906 118.275 287.115 122.114L286.454 125.309L289.912 124.013L290.93 124.351C291.101 122.658 290.528 119.862 289.212 115.962C289.015 115.379 288.875 114.986 288.791 114.783ZM291.205 127.913L286.078 130.035C285.596 132.133 285.372 134.722 285.407 137.803L279.425 141.72C279.361 140.934 279.563 138.741 280.033 135.14L280.504 131.383C280.974 127.828 282.049 123.274 283.73 117.72C284.645 114.66 285.633 111.886 286.694 109.396C287.679 109.015 289.14 108.419 291.076 107.608L291.973 109.784C292.632 111.416 293.224 113.008 293.748 114.563C294.774 117.602 295.509 120.512 295.952 123.292C295.96 123.771 296.256 125.772 296.842 129.294C297.085 130.746 297.241 131.942 297.31 132.881L291.315 136.826C291.264 135.165 291.228 132.194 291.205 127.913ZM316.611 126.035L310.615 129.98C310.523 129.158 310.346 128.358 310.083 127.581C309.596 126.137 308.859 124.868 307.871 123.773C306.688 122.421 305.449 121.726 304.153 121.689L304.189 123.307C304.252 124.637 304.417 127.189 304.686 130.964L298.683 134.888C298.492 131.848 298.388 128.676 298.37 125.372C298.361 122.873 298.541 119.809 298.909 116.182C299.19 113.441 299.776 109.658 300.668 104.835L301.289 104.545C302.549 103.927 304.011 103.268 305.677 102.569C305.234 105.197 304.745 109.108 304.211 114.302C304.211 114.441 304.18 114.989 304.115 115.944C306.873 113.443 309.186 110.081 311.054 105.86C311.878 103.998 312.448 102.226 312.761 100.545L313.444 100.233C314.691 99.6201 316.139 98.9663 317.791 98.2717C317.427 102.644 315.801 107.191 312.912 111.915C311.458 114.342 309.733 116.376 307.737 118.016C309.467 118.242 311.177 118.98 312.866 120.23C314.644 121.557 315.802 123.019 316.34 124.615C316.481 125.032 316.571 125.505 316.611 126.035ZM324.311 120.133C324.356 116.372 324.515 113.774 324.788 112.341C330.174 109.747 333.577 107.669 334.998 106.108C336.287 104.936 336.688 103.628 336.201 102.185C335.826 101.074 334.809 100.511 333.149 100.493C332.665 100.479 331.939 100.643 330.973 100.985C328.668 101.85 326.405 103.391 324.186 105.608L320.271 99.0238C323.636 97.224 325.643 96.209 326.292 95.9788C330.374 94.5619 333.592 93.9956 335.945 94.2799C339.345 94.7366 341.542 96.4362 342.535 99.3786C343.373 103.604 341.591 107.507 337.189 111.089C334.929 112.776 332.985 113.909 331.356 114.487L331.383 116.902L324.311 120.133ZM324.424 124.382L331.618 120.758C331.662 122.125 331.817 124.394 332.083 127.563L331.869 127.686C329.805 128.899 327.469 130.404 324.859 132.2C324.633 129.467 324.488 126.862 324.424 124.382ZM146.253 222.154L146.189 221.967C145.604 220.232 144.622 218.925 143.243 218.047C141.79 217.086 140.27 216.887 138.682 217.45C136.943 218.067 135.663 219.314 134.843 221.19L129.813 219.338C131.292 215.798 133.916 213.359 137.685 212.022C140.709 210.95 143.451 211.22 145.913 212.834C148.152 214.34 149.825 216.73 150.93 220.006C151.169 220.714 151.387 221.475 151.585 222.291C152.389 225.953 151.963 229.5 150.307 232.931C148.624 236.419 146.126 238.75 142.813 239.926C137.829 241.693 133.695 241.147 130.411 238.287L135.789 232.65C137.333 234.247 139.154 234.673 141.253 233.929C143.406 233.165 144.955 231.799 145.899 229.833C146.305 228.974 146.572 228.048 146.7 227.054L139.081 230.037L139.255 224.916L146.253 222.154ZM169.825 200.622L169.951 206.218L167.88 206.953C165.865 207.668 164.125 208.308 162.662 208.874L164.434 209.178C164.047 211.693 163.933 215.844 164.093 221.631C164.183 223.821 164.376 226.775 164.672 230.493L164.507 230.622C163.068 231.443 161.129 232.706 158.69 234.41C158.432 230.896 158.307 227.32 158.315 223.68C158.307 221.414 158.494 218.348 158.875 214.483C158.957 213.537 159.129 212.124 159.392 210.244C157.281 211.226 154.898 212.389 152.245 213.735L152 207.994C154.452 206.922 157.24 205.723 160.363 204.398C162.3 203.586 165.454 202.328 169.825 200.622ZM195.956 197.39L194.816 198.89C195.768 200.107 196.412 201.215 196.75 202.214C196.993 202.936 197.222 203.981 197.437 205.35C198.11 209.634 197.701 213.369 196.21 216.555C194.574 220.088 191.802 222.548 187.895 223.934C184.706 225.065 181.839 224.839 179.295 223.255C176.959 221.783 175.238 219.41 174.133 216.134C173.894 215.427 173.682 214.662 173.498 213.842C172.695 210.179 173.19 206.608 174.983 203.128C176.832 199.582 179.503 197.189 182.995 195.95C188.241 194.089 192.562 194.569 195.956 197.39ZM191.87 208.024C191.784 207.495 191.692 207.085 191.594 206.793C191.14 205.447 190.393 204.562 189.353 204.138L190.226 203.153C188.636 201.556 186.723 201.155 184.486 201.948C182.222 202.751 180.586 204.155 179.578 206.16C178.615 208.072 178.35 210.24 178.783 212.667C178.882 213.237 178.993 213.703 179.115 214.064C179.705 215.813 180.717 217.117 182.151 217.976C183.654 218.903 185.255 219.066 186.953 218.464C188.983 217.744 190.416 216.334 191.253 214.234C191.986 212.374 192.191 210.304 191.87 208.024ZM226.767 188.512C226.454 187.582 225.607 187.113 224.229 187.105C223.809 187.098 223.199 187.237 222.398 187.521L221.984 187.668C221.276 187.95 220.366 188.483 219.254 189.266L220.707 189.45C220.541 190.332 220.42 191.393 220.344 192.632C220.326 192.716 220.302 193.424 220.272 194.756L221.763 194.157C223.281 193.572 224.49 192.894 225.39 192.125C226.734 190.979 227.194 189.775 226.767 188.512ZM226.544 199.804C226.225 198.86 225.386 198.389 224.026 198.39C223.615 198.364 223.01 198.494 222.209 198.778L221.733 198.947C221.664 198.971 221.565 198.998 221.436 199.029C221.316 199.04 221.235 199.053 221.194 199.068C221.028 199.127 220.783 199.291 220.457 199.562L220.491 200.763C220.361 201.57 220.238 202.624 220.12 203.924C220.108 204.162 220.098 204.865 220.09 206.033L221.553 205.491C223.053 204.897 224.264 204.203 225.187 203.409C226.513 202.255 226.965 201.053 226.544 199.804ZM229.809 194.776C230.903 195.818 231.534 196.589 231.703 197.089C231.829 197.463 231.935 197.938 232.021 198.514C232.578 202.683 230.941 205.984 227.108 208.416C226.947 208.488 225.536 209.16 222.873 210.431L218.934 212.364C217.499 213.06 216.154 213.723 214.899 214.355C214.65 210.962 214.53 207.399 214.538 203.667C214.521 201.326 214.703 198.27 215.084 194.498C215.154 193.743 215.284 192.71 215.475 191.399C215.048 191.737 214.67 192.011 214.339 192.222L211.094 186.729C213.898 185.237 216.37 184.111 218.51 183.352C219.021 183.171 219.59 183 220.216 182.84C221.956 182.363 222.957 182.101 223.22 182.055C224.169 181.889 225.275 181.846 226.539 181.926C229.297 182.082 231.09 183.389 231.919 185.845C232.037 186.192 232.136 186.647 232.217 187.208C232.563 189.79 231.76 192.313 229.809 194.776ZM261.665 178.138L262.001 171.095C262.084 169.372 262.15 168.354 262.199 168.041L260.689 168.857C259.981 169.232 259.364 169.513 258.84 169.699C258.674 169.758 258.502 169.819 258.322 169.883L257.273 170.348C257.166 170.899 257.071 171.741 256.989 172.873L256.666 176.998C256.562 178.386 256.484 179.346 256.432 179.878C256.144 183.01 255.971 186.071 255.914 189.06C255.886 190.81 255.951 193.087 256.109 195.891C256.218 198.276 256.299 199.545 256.35 199.698L256.372 199.76C257.832 198.636 259.732 197.535 262.073 196.456L261.97 191.341C261.933 190.499 261.891 189.387 261.842 188.006L261.746 182.981C261.7 181.242 261.662 180.144 261.632 179.688C261.683 178.878 261.694 178.361 261.665 178.138ZM248.619 191.974C248.301 191.03 247.461 190.558 246.101 190.559C245.677 190.539 245.057 190.673 244.243 190.962L243.808 191.116C243.739 191.141 243.64 191.168 243.511 191.198C243.377 191.214 243.283 191.232 243.228 191.252C243.076 191.306 242.844 191.466 242.532 191.732L242.524 192.947C242.423 193.744 242.306 194.796 242.175 196.101C242.176 196.334 242.166 197.037 242.144 198.21L243.628 197.66C245.128 197.066 246.333 196.375 247.241 195.586C248.581 194.427 249.041 193.223 248.619 191.974ZM236.94 188.424C237.006 187.748 237.072 187.165 237.138 186.675C237.191 186.237 237.251 185.726 237.317 185.143C237.462 183.833 237.922 181.028 238.697 176.728L239.29 176.424C240.569 175.815 242.04 175.161 243.706 174.461C243.272 176.978 242.864 180.005 242.481 183.544C242.461 183.94 242.433 184.362 242.398 184.809C242.38 184.893 242.367 185.403 242.358 186.339C243.283 185.964 244.18 185.669 245.05 185.454C246.004 185.255 247.117 185.21 248.39 185.318C251.139 185.446 252.927 186.739 253.757 189.196C253.878 189.556 253.968 190.03 254.027 190.615C254.616 194.835 253.002 198.158 249.184 200.585C249.009 200.663 247.59 201.337 244.927 202.608L241.009 204.534C239.574 205.229 238.229 205.893 236.974 206.525C236.726 203.132 236.598 199.571 236.592 195.844C236.595 195.578 236.603 195.304 236.616 195.019C236.165 195.334 235.793 195.606 235.5 195.835L232.139 190.686C233.914 189.808 235.514 189.054 236.94 188.424ZM306.426 151.164L307.652 163.178C307.672 163.466 307.799 164.851 308.033 167.332L308.602 172.795C308.807 174.96 309.067 177.082 309.382 179.161L302.203 184.133C302.075 181.831 301.978 178.657 301.91 174.609C301.899 173.385 301.837 171.255 301.724 168.218C301.666 166.808 301.663 164.921 301.715 162.556C300.429 163.603 299.155 167.202 297.892 173.353C297.402 175.656 297.234 178.777 297.389 182.717L291.393 186.662C291.359 186.378 291.258 185.987 291.089 185.487C290.251 183.003 288.828 179.817 286.82 175.929C286.055 174.397 285.577 173.666 285.383 173.734L284.967 179.989C284.779 182.822 284.945 185.374 285.464 187.646L279.461 191.57C279.265 188.469 279.161 185.297 279.148 182.054C279.135 179.587 279.315 176.524 279.687 172.864C279.854 171.251 280.14 169.214 280.547 166.755C280.541 166.508 280.517 166.322 280.475 166.197C280.348 165.823 279.999 165.27 279.428 164.541C278.686 163.623 278.266 163.088 278.168 162.936L284.02 159.252C285.655 161.531 287.119 163.646 288.411 165.597C290.27 168.403 291.611 170.888 292.434 173.051C293.083 167.6 294.592 163.094 296.961 159.533C297.806 158.053 298.738 156.759 299.755 155.652C300.548 154.795 301.45 154.056 302.461 153.433C303.766 152.582 304.561 152.074 304.846 151.911C305.412 151.617 305.938 151.368 306.426 151.164ZM327.147 144.817L327.252 150.42L325.264 151.126C321.551 152.443 318.673 153.557 316.63 154.468L317.925 154.731C317.886 155.165 317.8 156.307 317.667 158.157C317.614 158.641 317.566 159.21 317.524 159.862L324.867 156.955L324.838 162.023L317.592 164.873C317.587 166.647 317.677 168.86 317.862 171.514C319.826 170.693 322.768 169.471 326.688 167.848L326.725 173.453C325.703 173.815 324.806 174.133 324.033 174.408L323.039 174.76C320.498 175.661 316.907 177.386 312.264 179.934L312.242 179.872C312.191 179.719 312.104 178.453 311.98 176.072C311.846 173.291 311.794 171.009 311.826 169.226C311.87 166.242 312.043 163.182 312.345 160.044C312.458 158.87 312.613 157.634 312.809 156.336C311.655 156.901 310.56 157.437 309.526 157.944L309.301 152.196C311.629 151.168 314.417 149.969 317.664 148.6C319.601 147.788 322.762 146.527 327.147 144.817ZM349.249 136.999C348.659 140.333 348.163 144.246 347.763 148.74C347.628 150.357 347.635 153.354 347.783 157.731C347.812 158.917 347.901 161.263 348.048 164.77L342.053 168.715C341.954 165.766 341.917 162.795 341.943 159.802C341.96 159.532 341.983 158.685 342.012 157.26L335.591 160.424L335.627 162.043C335.689 163.373 335.862 165.922 336.145 169.692L330.156 173.588C329.964 170.547 329.848 167.387 329.808 164.107C329.795 161.594 329.974 158.531 330.347 154.917C330.65 152.152 331.243 148.367 332.126 143.563L332.726 143.28C333.986 142.662 335.456 142.001 337.135 141.297C336.679 143.93 336.183 147.843 335.648 153.037C335.644 153.163 335.62 153.708 335.574 154.672L341.278 151.786L342.327 152.766C342.616 148.996 343.24 144.5 344.199 139.28L344.903 138.961C346.135 138.353 347.584 137.699 349.249 136.999ZM361.381 138.454C360.068 139.604 359.623 140.803 360.044 142.052C360.358 142.982 361.197 143.453 362.562 143.467C362.986 143.487 363.599 143.355 364.4 143.071L364.835 142.917C365.543 142.635 366.446 142.104 367.544 141.326L366.111 141.135C366.273 140.239 366.391 139.171 366.468 137.932C366.472 137.853 366.491 137.154 366.526 135.836L365.049 136.407C363.531 136.992 362.308 137.675 361.381 138.454ZM356.206 152.388C357.083 150.958 358.044 149.661 359.089 148.498C356.985 148.079 355.581 146.829 354.879 144.747C354.761 144.4 354.667 143.936 354.595 143.356C354.158 140.231 355.701 137.337 359.224 134.674C361.111 133.258 363.336 132.088 365.899 131.163L372.422 128.78C371.992 131.217 371.541 134.757 371.068 139.4C371.692 138.915 372.156 138.572 372.459 138.371L375.725 143.856C373.978 144.771 372.364 145.553 370.883 146.203L370.899 147.899L370.935 149.518C370.983 150.853 371.156 153.403 371.453 157.167L365.422 161.078C365.244 158.033 365.142 154.868 365.116 151.582L365.099 148.371C361.803 151.934 359.46 155.298 358.07 158.464C357.246 160.326 356.677 162.098 356.363 163.779L355.701 164.083C354.454 164.696 352.992 165.355 351.313 166.06C351.704 161.678 353.335 157.121 356.206 152.388ZM167.28 251.411C166.675 254.75 166.18 258.663 165.793 263.152C165.659 264.769 165.659 267.768 165.793 272.15C165.836 273.331 165.931 275.675 166.079 279.182L160.062 283.134C159.978 280.18 159.955 277.205 159.994 274.207C159.998 273.941 160.014 273.096 160.043 271.672L160.337 267.185C160.528 264.817 160.843 262.18 161.284 259.273C157.538 260.493 154.712 261.534 152.808 262.396L154.131 262.673C154.091 263.013 154.019 263.855 153.916 265.197C153.74 266.829 153.636 268.124 153.605 269.084L153.601 274.843L153.678 276.447C153.713 277.787 153.872 280.341 154.155 284.111L148.166 288.007C147.974 284.967 147.858 281.806 147.818 278.526C147.804 276.013 147.984 272.95 148.357 269.337C148.519 267.849 148.777 266.048 149.13 263.934C147.636 264.635 146.394 265.215 145.405 265.675L145.174 259.975C147.534 258.998 150.352 257.867 153.628 256.58C155.583 255.825 160.134 254.102 167.28 251.411ZM192.514 248.475L191.374 249.975C192.326 251.191 192.97 252.299 193.307 253.298C193.551 254.02 193.78 255.066 193.995 256.435C194.668 260.718 194.259 264.453 192.768 267.64C191.132 271.173 188.36 273.633 184.453 275.018C181.264 276.15 178.397 275.923 175.853 274.339C173.517 272.868 171.796 270.494 170.691 267.219C170.452 266.511 170.24 265.747 170.056 264.926C169.253 261.264 169.748 257.693 171.541 254.212C173.39 250.666 176.06 248.274 179.553 247.035C184.799 245.174 189.12 245.654 192.514 248.475ZM188.428 259.109C188.342 258.58 188.25 258.169 188.152 257.878C187.697 256.532 186.95 255.647 185.911 255.223L186.784 254.237C185.194 252.641 183.281 252.239 181.044 253.033C178.78 253.836 177.144 255.24 176.136 257.245C175.173 259.156 174.908 261.325 175.34 263.751C175.44 264.322 175.551 264.788 175.673 265.149C176.263 266.897 177.275 268.201 178.709 269.06C180.212 269.988 181.813 270.15 183.511 269.548C185.54 268.828 186.974 267.418 187.811 265.319C188.543 263.458 188.749 261.388 188.428 259.109ZM207.732 260.793C208.767 260.379 209.536 260.068 210.037 259.859L211.342 260.841L211.41 259.325L211.657 254.972C211.628 254.749 211.632 254.234 211.67 253.429C211.639 252.973 211.673 251.858 211.769 250.083C211.619 246.158 211.699 243.301 212.007 241.513L209.364 242.544C207.192 243.392 205.479 244.062 204.222 244.555L205.953 244.873C205.825 245.96 205.732 247.104 205.674 248.306C205.565 250.411 205.532 252.878 205.575 255.707C205.592 258.001 205.395 260.076 204.986 261.931C205.878 261.552 206.794 261.173 207.732 260.793ZM209.424 236.882C210.372 236.483 213.436 235.257 218.616 233.201C218.16 235.788 217.671 239.675 217.15 244.864C217.132 244.995 217.1 245.542 217.055 246.507L217.064 252.238L217.121 253.849C217.148 254.57 217.207 255.637 217.297 257.05C218.213 256.695 219.186 256.326 220.217 255.945L220.16 256.944L220.103 258.013C220.044 259.806 220.034 261.931 220.075 264.387L214.045 268.298C214.014 266.879 213.99 265.481 213.974 264.104C212.635 264.579 211.418 265.026 210.323 265.446L206.044 267.196C204.899 267.696 203.788 268.183 202.711 268.658L202.767 270.06L202.915 271.803L196.933 275.72C196.781 273.256 196.724 269.811 196.76 265.384C196.829 265.36 196.91 265.324 197.002 265.275C198.055 264.777 198.76 263.89 199.118 262.613C199.386 261.85 199.612 261.032 199.796 260.158C199.91 258.066 200.007 255.973 200.088 253.877C200.308 251.002 200.589 248.353 200.931 245.932L198.42 247.219L198.191 241.799C199.948 241.004 201.192 240.431 201.923 240.078C204.605 238.91 207.025 237.88 209.182 236.991L209.424 236.882ZM235.978 235.108C235.664 234.179 234.818 233.709 233.439 233.701C233.034 233.69 232.43 233.826 231.63 234.11L231.195 234.264C230.486 234.547 229.583 235.077 228.485 235.855L229.939 236.039C229.759 236.926 229.638 237.987 229.575 239.221C229.557 239.305 229.533 240.013 229.503 241.345L230.973 240.753C232.492 240.168 233.708 239.488 234.621 238.714C235.952 237.573 236.404 236.371 235.978 235.108ZM229.543 246.203L229.547 248.206C229.587 249.653 229.785 252.621 230.14 257.11L229.961 257.197C228.228 258.2 226.285 259.449 224.13 260.944C223.882 257.551 223.761 253.988 223.769 250.256C223.752 247.915 223.934 244.859 224.315 241.087C224.385 240.332 224.515 239.299 224.707 237.988C224.266 238.331 223.887 238.605 223.57 238.81L220.325 233.318C223.129 231.826 225.602 230.7 227.742 229.941C228.239 229.765 228.8 229.597 229.426 229.437C231.18 228.954 232.189 228.69 232.451 228.643C233.4 228.478 234.506 228.435 235.77 228.515C238.528 228.671 240.322 229.978 241.151 232.434C241.268 232.781 241.36 233.238 241.428 233.805C241.864 236.929 240.323 239.83 236.806 242.508C234.932 243.918 232.511 245.15 229.543 246.203ZM260.254 218.408L260.36 224.012L258.372 224.717C254.658 226.035 251.78 227.149 249.738 228.06L251.032 228.323C250.993 228.757 250.907 229.898 250.774 231.748C250.721 232.233 250.673 232.802 250.631 233.454L257.974 230.546L257.945 235.615L250.699 238.465C250.695 240.238 250.785 242.452 250.969 245.106C252.934 244.285 255.876 243.063 259.795 241.439L259.832 247.044C258.81 247.407 257.913 247.725 257.14 247.999L256.146 248.352C253.606 249.253 250.014 250.978 245.371 253.526L245.35 253.464C245.298 253.311 245.211 252.044 245.087 249.664C244.953 246.883 244.901 244.601 244.934 242.818C244.978 239.834 245.15 236.774 245.452 233.636C245.565 232.461 245.72 231.225 245.916 229.928C244.762 230.493 243.668 231.029 242.633 231.536L242.409 225.787C244.736 224.76 247.524 223.561 250.772 222.191C252.708 221.38 255.869 220.119 260.254 218.408ZM265.064 239.874C265.073 239.901 266.113 239.548 268.184 238.813C269.684 238.219 270.902 237.523 271.838 236.725C273.165 235.57 273.617 234.369 273.195 233.119C272.877 232.176 272.031 231.707 270.657 231.712C270.246 231.687 269.634 231.819 268.819 232.108L267.708 232.595L267.034 227.985L268.352 227.494C269.884 226.904 271.114 226.219 272.041 225.44C273.358 224.304 273.804 223.105 273.377 221.842C273.064 220.912 272.224 220.441 270.859 220.427C270.454 220.416 269.85 220.552 269.05 220.836L268.594 220.998C267.886 221.28 266.989 221.808 265.905 222.581L261.773 218.032C262.955 217.504 264.085 217.049 265.162 216.667C265.645 216.496 266.2 216.33 266.826 216.17C268.594 215.683 269.602 215.419 269.851 215.377C270.8 215.211 271.906 215.169 273.17 215.249C275.914 215.41 277.7 216.719 278.529 219.175C278.646 219.522 278.746 219.977 278.827 220.538C279.187 223.115 278.391 225.635 276.44 228.099C277.547 229.136 278.185 229.904 278.354 230.404C278.48 230.778 278.587 231.254 278.673 231.829C279.23 235.999 277.585 239.302 273.739 241.738C273.578 241.811 272.166 242.483 269.503 243.754L265.585 245.679C264.749 246.085 263.939 246.481 263.157 246.867L263.137 240.417L265.064 239.874ZM289.568 214.234C289.242 215.282 288.683 217.726 287.892 221.565L287.231 224.76L290.689 223.464L291.708 223.802C291.879 222.11 291.306 219.313 289.99 215.413C289.793 214.83 289.653 214.437 289.568 214.234ZM291.983 227.364L286.855 229.486C286.373 231.584 286.15 234.173 286.184 237.254L280.202 241.171C280.138 240.385 280.341 238.192 280.811 234.591L281.282 230.834C281.751 227.279 282.827 222.725 284.508 217.171C285.423 214.111 286.411 211.337 287.472 208.847C288.457 208.466 289.917 207.87 291.854 207.059L292.751 209.235C293.41 210.867 294.001 212.459 294.526 214.014C295.552 217.053 296.286 219.963 296.73 222.743C296.737 223.222 297.034 225.223 297.619 228.745C297.862 230.197 298.019 231.393 298.088 232.332L292.092 236.277C292.042 234.616 292.005 231.646 291.983 227.364ZM298.546 228.743C299.917 228.132 300.766 226.984 301.094 225.298C301.301 224.401 301.384 223.478 301.342 222.529C301.392 221.532 301.45 219.989 301.518 217.898C301.751 215.018 302.046 212.364 302.402 209.938L299.85 211.239L299.662 205.805C301.392 205.02 302.622 204.452 303.353 204.099C306.035 202.93 308.461 201.899 310.633 201.004L310.895 200.888C311.829 200.494 314.817 199.294 319.86 197.288L319.88 197.281C319.41 199.919 318.915 203.832 318.394 209.021C318.39 209.147 318.365 209.692 318.319 210.656L318.336 216.408L318.393 218.019C318.428 219.359 318.593 221.911 318.89 225.676L312.88 229.579C312.689 226.539 312.58 223.376 312.553 220.091C312.554 217.573 312.74 214.507 313.113 210.894C313.262 209.412 313.503 207.609 313.838 205.485L310.815 206.558C308.657 207.401 306.936 208.073 305.652 208.575L307.404 208.886C307.276 209.973 307.183 211.117 307.124 212.319C307.016 214.424 306.983 216.892 307.025 219.72C307.019 221.121 306.988 221.878 306.934 221.991L306.984 222.416C306.952 225.846 306.363 228.612 305.217 230.712C304.008 232.4 302.408 233.589 300.415 234.28L298.546 228.743ZM329.658 221.716L323.662 225.661C323.466 222.561 323.361 219.388 323.348 216.145C323.335 213.679 323.515 210.615 323.888 206.956C324.054 205.342 324.338 203.299 324.74 200.825C324.931 199.375 325.217 197.68 325.598 195.742L331.498 193.299L330.391 199.706C330.066 201.904 329.797 204.611 329.584 207.826L329.566 208.391C332.137 201.9 334.847 196.168 337.698 191.194L343.626 188.834C342.746 190.809 341.928 192.964 341.17 195.3C341.176 196.277 341.188 198.122 341.207 200.835C341.123 202.419 341.155 205.399 341.303 209.776C341.327 210.949 341.423 213.292 341.589 216.808L335.586 220.732C335.557 220.463 335.55 219.96 335.564 219.225C335.579 218.489 335.578 216.974 335.561 214.68C335.726 209.307 335.842 205.963 335.909 204.65C335.662 205.11 335.239 206.099 334.638 207.618C332.477 212.985 330.925 217.226 329.982 220.342C329.806 220.964 329.698 221.422 329.658 221.716ZM349.389 215.253L356.583 211.629C356.627 212.997 356.53 216.971 356.293 223.551L356.16 224.53C355.386 226.359 353.552 228.253 350.658 230.212C349.876 222.719 349.453 217.733 349.389 215.253ZM171.813 315.752C171.163 318.314 170.864 322.398 170.917 328.005L170.731 328.141C169.278 328.967 167.346 330.227 164.935 331.922C164.871 331.23 165.067 328.674 165.523 324.254L166.408 317.669C165.614 316.599 164.654 315.012 163.527 312.91C162 310.126 161.092 308.49 160.803 308.001C160.013 306.712 159.305 305.759 158.679 305.142L164.022 303.247C164.468 303.881 165.112 305.012 165.955 306.64L168.576 311.795C168.761 311.014 169.279 308.771 170.131 305.066C170.631 302.883 171.132 301.346 171.635 300.453L177.104 297.627C176.26 299.247 175.009 303.258 173.351 309.658C172.659 312.281 172.147 314.312 171.813 315.752ZM192.796 300.289C192.483 299.359 191.636 298.89 190.258 298.882C189.838 298.875 189.228 299.014 188.427 299.298L188.013 299.445C187.305 299.728 186.395 300.26 185.283 301.043L186.736 301.227C186.57 302.109 186.449 303.17 186.373 304.41C186.355 304.494 186.331 305.201 186.301 306.533L187.792 305.934C189.31 305.349 190.519 304.672 191.419 303.902C192.763 302.757 193.223 301.552 192.796 300.289ZM192.573 311.581C192.254 310.638 191.415 310.166 190.055 310.167C189.644 310.141 189.039 310.271 188.238 310.555L187.762 310.724C187.693 310.748 187.594 310.776 187.465 310.806C187.345 310.817 187.264 310.83 187.223 310.845C187.057 310.904 186.812 311.069 186.486 311.34L186.52 312.54C186.39 313.347 186.267 314.401 186.149 315.702C186.137 315.939 186.127 316.642 186.119 317.81L187.582 317.268C189.082 316.674 190.293 315.98 191.216 315.187C192.542 314.032 192.994 312.831 192.573 311.581ZM195.838 306.553C196.932 307.595 197.563 308.366 197.731 308.866C197.858 309.24 197.964 309.716 198.05 310.291C198.607 314.461 196.97 317.761 193.137 320.193C192.976 320.266 191.564 320.937 188.902 322.208L184.963 324.141C183.528 324.837 182.183 325.501 180.928 326.132C180.679 322.739 180.559 319.177 180.567 315.444C180.55 313.103 180.732 310.047 181.113 306.275C181.183 305.52 181.313 304.487 181.504 303.176C181.077 303.514 180.698 303.788 180.368 303.999L177.123 298.506C179.927 297.014 182.399 295.888 184.539 295.129C185.05 294.948 185.618 294.778 186.245 294.618C187.985 294.14 188.986 293.878 189.249 293.832C190.198 293.666 191.304 293.623 192.568 293.703C195.326 293.86 197.119 295.166 197.948 297.623C198.065 297.97 198.165 298.424 198.246 298.986C198.592 301.567 197.789 304.09 195.838 306.553ZM208.967 292.688C208.64 293.737 208.082 296.181 207.291 300.02L206.63 303.215L210.088 301.918L211.106 302.257C211.277 300.564 210.704 297.768 209.388 293.868C209.191 293.285 209.051 292.892 208.967 292.688ZM211.381 305.819L206.254 307.941C205.772 310.039 205.548 312.628 205.583 315.708L199.601 319.625C199.536 318.84 199.739 316.647 200.209 313.045L200.68 309.288C201.15 305.734 202.225 301.18 203.906 295.626C204.821 292.566 205.809 289.791 206.87 287.301C207.855 286.921 209.316 286.325 211.252 285.514L212.149 287.69C212.808 289.321 213.4 290.914 213.924 292.469C214.95 295.508 215.685 298.418 216.128 301.198C216.135 301.677 216.432 303.678 217.018 307.2C217.261 308.652 217.417 309.848 217.486 310.786L211.49 314.732C211.44 313.071 211.404 310.1 211.381 305.819ZM231.461 290.91C231.478 290.5 231.515 290.083 231.572 289.658C231.867 286.912 232.453 283.13 233.331 278.311L233.972 278.014C235.219 277.401 236.681 276.742 238.36 276.038C237.904 278.671 237.408 282.584 236.874 287.778C236.874 287.918 236.85 288.463 236.799 289.413C239.543 286.916 241.849 283.558 243.717 279.336C244.541 277.474 245.111 275.702 245.424 274.022L246.128 273.702C247.361 273.094 248.809 272.44 250.475 271.741C250.097 276.117 248.464 280.667 245.575 285.391C244.122 287.818 242.396 289.852 240.4 291.493C242.13 291.718 243.84 292.456 245.529 293.706C247.307 295.033 248.465 296.495 249.003 298.091C249.144 298.508 249.234 298.981 249.274 299.511L243.278 303.456C243.186 302.634 243.009 301.834 242.746 301.057C242.259 299.613 241.529 298.342 240.555 297.242C239.372 295.89 238.126 295.198 236.816 295.165L236.873 296.776C236.922 298.111 237.08 300.666 237.349 304.44L231.367 308.357C231.176 305.317 231.065 302.147 231.033 298.848C231.043 298.145 231.051 297.412 231.056 296.648C228.354 299.13 226.073 302.472 224.214 306.675C223.394 308.551 222.827 310.329 222.514 312.01L221.81 312.33C220.559 312.929 219.108 313.576 217.456 314.27C217.825 309.913 219.456 305.356 222.349 300.599C223.793 298.191 225.521 296.164 227.532 294.519C225.801 294.293 224.085 293.558 222.381 292.313C220.59 290.99 219.427 289.537 218.893 287.955C218.748 287.525 218.667 287.033 218.65 286.479L224.66 282.576C224.734 283.389 224.902 284.184 225.164 284.962C225.651 286.405 226.382 287.677 227.356 288.776C228.497 290.097 229.865 290.808 231.461 290.91ZM261.11 274.192C260.784 275.24 260.225 277.684 259.434 281.524L258.773 284.718L262.231 283.422L263.25 283.76C263.421 282.068 262.848 279.271 261.532 275.371C261.335 274.788 261.195 274.395 261.11 274.192ZM263.525 287.322L258.397 289.444C257.915 291.542 257.692 294.131 257.726 297.212L251.744 301.129C251.68 300.343 251.883 298.15 252.353 294.549L252.824 290.792C253.293 287.237 254.369 282.683 256.05 277.129C256.965 274.07 257.953 271.295 259.014 268.805C259.999 268.424 261.459 267.829 263.396 267.017L264.293 269.193C264.952 270.825 265.543 272.418 266.068 273.972C267.094 277.012 267.828 279.921 268.272 282.701C268.279 283.18 268.576 285.181 269.161 288.703C269.404 290.155 269.561 291.351 269.63 292.29L263.634 296.235C263.584 294.575 263.547 291.604 263.525 287.322ZM286.756 258.871L286.862 264.475L284.874 265.18C281.16 266.497 278.282 267.611 276.24 268.522L277.534 268.786C277.495 269.219 277.409 270.361 277.276 272.211C277.223 272.696 277.176 273.264 277.133 273.917L284.476 271.009L284.447 276.078L277.201 278.928C277.197 280.701 277.287 282.915 277.471 285.569C279.436 284.748 282.378 283.525 286.297 281.902L286.334 287.507C285.312 287.869 284.415 288.188 283.642 288.462L282.648 288.815C280.108 289.716 276.516 291.44 271.873 293.989L271.852 293.926C271.8 293.774 271.713 292.507 271.59 290.126C271.455 287.346 271.404 285.064 271.436 283.281C271.48 280.297 271.652 277.236 271.954 274.099C272.068 272.924 272.222 271.688 272.418 270.391C271.264 270.955 270.17 271.491 269.135 271.998L268.911 266.25C271.238 265.222 274.026 264.024 277.274 262.654C279.21 261.843 282.371 260.582 286.756 258.871ZM317.558 246.942L318.783 258.956C318.803 259.244 318.931 260.629 319.165 263.11L319.734 268.573C319.939 270.738 320.199 272.86 320.514 274.94L313.334 279.911C313.207 277.609 313.109 274.435 313.042 270.387C313.031 269.163 312.969 267.033 312.856 263.996C312.797 262.587 312.794 260.7 312.846 258.334C311.561 259.381 310.287 262.98 309.024 269.131C308.534 271.434 308.366 274.556 308.52 278.495L302.525 282.44C302.491 282.157 302.39 281.765 302.221 281.265C301.383 278.781 299.959 275.595 297.952 271.707C297.187 270.175 296.709 269.444 296.515 269.512L296.099 275.768C295.911 278.601 296.077 281.153 296.596 283.424L290.593 287.348C290.397 284.247 290.293 281.075 290.28 277.832C290.267 275.365 290.446 272.302 290.819 268.642C290.986 267.029 291.272 264.993 291.679 262.533C291.673 262.286 291.649 262.101 291.607 261.976C291.48 261.601 291.131 261.049 290.56 260.319C289.818 259.401 289.398 258.866 289.3 258.714L295.152 255.03C296.787 257.31 298.251 259.425 299.543 261.375C301.402 264.181 302.743 266.666 303.566 268.83C304.215 263.378 305.724 258.872 308.093 255.312C308.938 253.831 309.869 252.537 310.887 251.43C311.68 250.574 312.582 249.834 313.593 249.211C314.898 248.36 315.693 247.853 315.978 247.689C316.544 247.395 317.07 247.146 317.558 246.942ZM349.791 246.605L350.127 239.562C350.21 237.839 350.276 236.821 350.325 236.508L348.815 237.324C348.106 237.699 347.49 237.98 346.966 238.166C346.8 238.225 346.627 238.286 346.448 238.35L345.399 238.815C345.291 239.366 345.197 240.208 345.115 241.34L344.791 245.464C344.688 246.853 344.61 247.813 344.558 248.345C344.27 251.477 344.097 254.538 344.039 257.527C344.012 259.277 344.077 261.554 344.235 264.358C344.344 266.743 344.425 268.012 344.476 268.165L344.497 268.227C345.957 267.103 347.858 266.002 350.199 264.923L350.096 259.807C350.059 258.966 350.016 257.854 349.967 256.473L349.872 251.448C349.825 249.709 349.787 248.611 349.757 248.155C349.808 247.345 349.819 246.828 349.791 246.605ZM336.745 260.441C336.426 259.497 335.587 259.025 334.227 259.026C333.803 259.005 333.183 259.14 332.369 259.429L331.934 259.583C331.865 259.607 331.766 259.635 331.637 259.665C331.503 259.681 331.409 259.699 331.354 259.719C331.202 259.773 330.97 259.933 330.658 260.199L330.65 261.414C330.548 262.211 330.432 263.263 330.3 264.568C330.302 264.801 330.292 265.504 330.27 266.677L331.754 266.127C333.254 265.533 334.458 264.842 335.367 264.053C336.707 262.894 337.166 261.69 336.745 260.441ZM325.066 256.891C325.131 256.215 325.197 255.632 325.264 255.142C325.317 254.703 325.377 254.193 325.443 253.61C325.588 252.3 326.048 249.494 326.823 245.195L327.416 244.891C328.694 244.282 330.166 243.628 331.831 242.928C331.398 245.444 330.989 248.472 330.607 252.011C330.586 252.407 330.558 252.829 330.524 253.276C330.506 253.36 330.493 253.87 330.484 254.806C331.408 254.431 332.306 254.136 333.176 253.92C334.129 253.722 335.243 253.677 336.516 253.785C339.264 253.913 341.053 255.206 341.882 257.662C342.004 258.023 342.094 258.496 342.153 259.082C342.742 263.302 341.128 266.625 337.309 269.052C337.134 269.13 335.716 269.804 333.053 271.075L329.135 273.001C327.7 273.696 326.355 274.36 325.1 274.991C324.851 271.598 324.724 268.038 324.718 264.31C324.721 264.045 324.729 263.77 324.741 263.486C324.291 263.801 323.919 264.073 323.625 264.302L320.264 259.153C322.039 258.275 323.64 257.521 325.066 256.891ZM360.053 260.798L354.057 264.743C353.861 261.642 353.756 258.47 353.744 255.227C353.731 252.76 353.91 249.697 354.283 246.037C354.449 244.424 354.734 242.381 355.135 239.907C355.326 238.456 355.612 236.762 355.994 234.824L361.894 232.381L360.787 238.788C360.462 240.986 360.193 243.692 359.979 246.907L359.961 247.473C362.532 240.982 365.242 235.249 368.093 230.275L374.021 227.916C373.142 229.891 372.323 232.046 371.566 234.382C371.571 235.359 371.583 237.204 371.602 239.917C371.518 241.501 371.55 244.481 371.698 248.858C371.723 250.03 371.818 252.374 371.984 255.889L365.981 259.814C365.952 259.544 365.945 259.042 365.96 258.306C365.974 257.571 365.973 256.056 365.956 253.762C366.121 248.388 366.237 245.045 366.304 243.731C366.058 244.192 365.634 245.181 365.034 246.699C362.872 252.066 361.32 256.308 360.378 259.424C360.201 260.046 360.093 260.504 360.053 260.798ZM360.391 228.065C363.36 225.505 366.046 223.433 368.449 221.85L368.886 222.115C368.97 224.012 369.008 225.545 369.001 226.713C366.407 228.006 363.66 229.509 360.76 231.221L360.215 231.461C360.237 230.335 360.295 229.203 360.391 228.065ZM379.784 254.335L386.978 250.711C387.022 252.078 387.177 254.347 387.443 257.516L387.229 257.638C385.165 258.852 382.829 260.357 380.22 262.153C379.993 259.42 379.848 256.814 379.784 254.335ZM385.285 223.711C385.831 226.703 386.27 232.056 386.602 239.771L386.743 246.854L379.672 250.086L379.235 235.671C378.995 233.036 378.798 230.161 378.643 227.046C380.28 226.17 382.494 225.058 385.285 223.711Z" fill="black"/>
</svg>
