<svg width="519" height="459" viewBox="0 0 519 459" fill="none" xmlns="http://www.w3.org/2000/svg">
<path d="M474.568 161.418C501.956 286.814 403.47 324.853 274.078 353.114C170.905 375.648 54.8324 348.051 35.0366 257.416C16.7609 173.74 79.6317 79.8055 208.249 51.7142C357.443 15.1357 450.502 51.2304 474.568 161.418Z" fill="#FDF9F2"/>
<path d="M201.998 375.1C195.389 367.578 187.865 359.264 185.75 355.039L263.498 352.293L271.208 366.754C273.964 371.186 279.823 380.149 281.607 382.363C283.391 384.578 285.022 385.661 298.837 398.738C311.951 411.15 293.696 411.665 288.561 411.225C284.724 410.895 271.142 408.374 264.705 406.193C256.927 404.072 240.044 400.7 232.746 397.549C218.388 391.35 211.083 385.441 201.998 375.1Z" fill="#FDF9F2"/>
<path d="M310.979 344.882C378.407 331.821 502.816 280.468 475.986 167.526" stroke="#E1DED9" stroke-width="9.50988" stroke-linecap="round"/>
<path d="M155.872 237.555L146.39 240.919C144.757 241.55 143.589 242.118 142.888 242.625C137.903 245.786 134.42 249.676 132.441 254.298C131.278 257.082 130.922 259.142 131.372 260.478C131.792 261.721 132.752 262.515 134.253 262.859C135.603 263.515 138.853 263.342 144.003 262.34C150.185 259.837 153.68 256.741 154.486 253.052C155.787 250.219 156.249 245.053 155.872 237.555ZM154.556 222.939C154.237 220.629 153.895 218.172 153.53 215.569L170.928 207.85C171.358 210.946 171.725 213.935 172.031 216.818L176.841 215.112L176.348 230.292L173.325 231.364C173.957 243.876 173.172 252.947 170.968 258.576C166.285 269.776 157.653 277.634 145.072 282.148L144.316 282.416C138.453 284.496 132.919 285.35 127.716 284.979C120.524 284.488 116.003 281.502 114.153 276.022C112.428 270.91 113.197 264.527 116.461 256.872C118.061 252.953 120.874 248.294 124.9 242.895C122.535 241.208 120.878 238.959 119.93 236.15C118.485 231.867 119.227 226.164 122.157 219.04C126.37 208.728 133.117 200.224 142.398 193.529C145.4 191.329 148.855 189.33 152.761 187.532C153.281 187.399 154.228 187.167 155.603 186.834L157.689 186.403C159.293 185.989 160.975 185.959 162.737 186.314C165.338 186.423 167.665 186.86 169.719 187.627L159.298 204.164C157.336 203.519 154.703 203.241 151.399 203.33C145.141 205.911 140.697 210.297 138.069 216.49C136.905 219.12 136.579 221.195 137.092 222.714C137.838 224.925 140.222 225.987 144.245 225.901C145.515 225.863 146.684 225.68 147.753 225.352L154.556 222.939ZM214.727 254.191C215.121 262.044 215.457 267.675 215.735 271.082L215.14 271.371C209.665 274.602 203.475 278.602 196.571 283.372C196.18 278.87 195.848 274.011 195.575 268.797C194.173 269.655 192.709 270.561 191.184 271.515L180.474 255.281C185.158 253.052 190.36 250.305 196.079 247.038C203.779 239.305 206.891 233.251 205.414 228.876L205.181 228.186C204.435 225.975 198.552 222.906 187.532 218.977C181.514 214.975 177.829 210.971 176.477 206.965C173.586 198.399 175.351 190.863 181.772 184.357C184.191 181.952 187.451 179.3 191.551 176.402C191.144 171.854 190.691 167.168 190.191 162.343C194.523 159.982 200.397 157.022 207.813 153.463C208.481 155.443 209.18 160.249 209.909 167.879L222.687 180.208C219.099 181.584 216.055 182.974 213.553 184.376C203.773 189.289 198.038 193.799 196.346 197.906C195.803 199.336 195.734 200.65 196.138 201.847C196.821 203.873 198.936 205.959 202.481 208.105C216.869 215.325 224.63 220.616 225.765 223.978L226.231 225.36C228.128 234.02 224.773 243.151 216.165 252.753C215.709 253.224 215.229 253.704 214.727 254.191ZM243.351 247.364L267.221 235.339C267.367 239.876 267.881 247.402 268.763 257.918L268.054 258.324C261.207 262.352 253.454 267.345 244.797 273.303C244.045 264.237 243.563 255.59 243.351 247.364ZM261.605 145.752C263.417 155.68 264.873 173.443 265.972 199.041L266.441 222.543L242.978 233.264L241.531 185.435C240.735 176.694 240.08 167.155 239.566 156.818C244.997 153.912 252.343 150.223 261.605 145.752ZM294.507 166.644L301.308 163.999C301.4 158.346 301.762 151.669 302.395 143.967L317.186 137.87L316.536 158.056L324.207 155.026L323.981 168.719L316.104 171.822L315.826 179.888L325.214 176.248L324.965 189.872L315.371 193.585L314.725 214.697L298.846 223.269C298.841 222.343 298.957 219.724 299.194 215.411L300.097 199.622L293.365 202.242L292.738 222.497L276.859 231.069C276.854 230.142 276.97 227.523 277.207 223.211L278.068 208.209L271.679 210.708L272.523 196.795L278.843 194.321C278.938 192.019 279.031 189.33 279.122 186.256L270.695 189.554L271.516 175.573L279.347 172.562C279.393 166.771 279.746 159.839 280.407 151.767L295.198 145.669L294.507 166.644ZM301.151 177.668L294.075 180.41L293.796 188.475L300.872 185.733C300.967 183.431 301.06 180.742 301.151 177.668ZM357.085 141.197C357.006 140.813 356.928 140.505 356.85 140.275C356.508 139.262 355.946 138.584 355.164 138.243L355.826 137.467C354.595 136.253 353.133 135.947 351.438 136.548C349.697 137.166 348.449 138.253 347.692 139.811C346.95 141.26 346.737 142.908 347.053 144.756C347.147 145.186 347.241 145.54 347.334 145.816C347.785 147.152 348.563 148.165 349.668 148.856C350.834 149.576 352.059 149.709 353.341 149.254C354.899 148.702 355.994 147.617 356.628 146C357.217 144.554 357.369 142.953 357.085 141.197ZM380.173 176.554C380.095 176.169 380.017 175.862 379.939 175.631C379.581 174.572 379.012 173.872 378.23 173.53L378.914 172.823C377.684 171.61 376.221 171.304 374.527 171.905C372.786 172.522 371.53 173.587 370.757 175.098C370.016 176.547 369.81 178.219 370.142 180.112C370.236 180.543 370.329 180.896 370.423 181.173C370.873 182.508 371.643 183.498 372.733 184.143C373.854 184.88 375.078 185.013 376.407 184.542C377.964 183.989 379.06 182.904 379.694 181.287C380.237 179.857 380.397 178.279 380.173 176.554ZM350.526 167.811C347.299 167.976 344.319 167.202 341.587 165.49C337.627 163.027 334.715 159.033 332.85 153.507C332.445 152.309 332.064 151.027 331.705 149.659C330.448 143.504 331.296 137.505 334.248 131.663C337.368 125.709 341.859 121.692 347.723 119.612C356.563 116.476 363.834 117.275 369.535 122.008L367.552 124.567C367.998 125.131 368.407 125.656 368.776 126.144C371.09 121.146 373.677 115.665 376.537 109.701L378.734 108.689C382.686 106.72 387.31 104.616 392.606 102.376C391.249 105.952 389.407 110.601 387.082 116.325L371.636 154.676C380.126 151.871 387.122 152.767 392.623 157.364L390.64 159.924C392.242 161.934 393.33 163.791 393.905 165.495C394.31 166.692 394.694 168.438 395.058 170.732C396.213 177.954 395.512 184.236 392.955 189.578C390.233 195.493 385.596 199.613 379.046 201.937C373.687 203.838 368.889 203.451 364.652 200.777C361.353 198.751 358.797 195.661 356.985 191.508L350.778 206.627L331.707 219.193C337.652 200.79 343.925 183.662 350.526 167.811Z" fill="black"/>
</svg>
