<svg width="438" height="354" viewBox="0 0 438 354" fill="none" xmlns="http://www.w3.org/2000/svg">
<path d="M35.6203 116.898C13.5916 207.927 92.4106 239.124 195.982 264.187C278.566 284.173 371.518 267.832 387.44 202.037C402.14 141.294 351.88 70.3061 248.93 45.3924C129.511 13.5649 54.9772 36.9093 35.6203 116.898Z" fill="#FDF9F2"/>
<path d="M253.667 282.739C258.964 277.445 264.995 271.601 266.691 268.574L204.447 263.952L198.262 274.297C196.052 277.455 191.354 283.83 189.924 285.394C188.494 286.958 187.188 287.697 176.116 296.822C165.607 305.484 180.222 306.474 184.334 306.323C187.406 306.21 198.282 304.818 203.437 303.434C209.666 302.14 223.185 300.234 229.031 298.168C240.531 294.105 246.385 290.017 253.667 282.739Z" fill="#FDF9F2"/>
<path d="M120.465 83.7126C118.36 85.2951 115.58 88.285 112.123 92.6822L111.894 92.6704C110.248 92.3948 107.958 92.1539 105.025 91.9479C105.407 91.3689 107.154 89.5036 110.266 86.352L115.063 81.7869C115.113 80.4518 115.355 78.6098 115.789 76.261C116.338 73.1286 116.652 71.2813 116.732 70.7189C116.921 69.2156 116.965 68.0259 116.863 67.1499L122.203 69.0534C122.154 69.8291 121.95 71.1171 121.591 72.9173L120.414 78.5862C121.045 78.0957 122.848 76.6777 125.822 74.3324C127.573 72.9503 128.922 72.0706 129.87 71.6933L135.889 72.9524C134.221 73.6797 130.745 76.0097 125.462 79.9425C123.288 81.5466 121.622 82.8033 120.465 83.7126ZM146.439 84.9475C146.775 84.0253 146.409 83.1251 145.341 82.2469C145.019 81.9765 144.458 81.6986 143.657 81.4133L143.243 81.2658C142.516 81.0375 141.476 80.8766 140.122 80.7829L141.138 81.845C140.459 82.4269 139.703 83.176 138.87 84.0921C138.804 84.1462 138.343 84.682 137.49 85.6994L139.023 86.1761C140.57 86.6807 141.933 86.918 143.113 86.8877C144.874 86.8467 145.983 86.2 146.439 84.9475ZM139.221 93.5944C139.562 92.6584 139.203 91.7607 138.144 90.9012C137.84 90.6219 137.288 90.3396 136.488 90.0543L136.012 89.8846C135.943 89.86 135.849 89.8187 135.73 89.7607C135.629 89.6938 135.558 89.653 135.517 89.6382C135.352 89.5792 135.057 89.5521 134.635 89.557L133.913 90.5125C133.308 91.059 132.555 91.8012 131.652 92.739C131.494 92.916 131.047 93.4566 130.313 94.361L131.79 94.8642C133.327 95.3502 134.703 95.5761 135.916 95.5419C137.668 95.4823 138.769 94.8331 139.221 93.5944ZM144.898 91.746C145.099 93.2484 145.11 94.2473 144.929 94.7428C144.794 95.1145 144.58 95.5514 144.288 96.0538C142.12 99.6509 138.787 101.184 134.288 100.653C134.117 100.608 132.599 100.238 129.735 99.5434L125.464 98.5574C123.913 98.1914 122.453 97.8573 121.082 97.5552C123.005 94.7574 125.134 91.9084 127.468 89.0084C128.915 87.176 130.964 84.9126 133.613 82.2182C134.138 81.6745 134.885 80.953 135.851 80.0536C135.308 80.0466 134.842 80.0204 134.453 79.9751L135.355 73.6484C138.468 74.2606 141.094 74.9478 143.233 75.7102C143.743 75.8922 144.292 76.1189 144.879 76.3904C146.531 77.1193 147.474 77.5486 147.707 77.6784C148.549 78.1495 149.436 78.8158 150.37 79.6773C152.418 81.5428 152.999 83.6937 152.112 86.1299C151.986 86.474 151.78 86.8903 151.493 87.3789C150.152 89.6066 147.953 91.0623 144.898 91.746ZM163.764 89.2572C162.856 89.8666 160.897 91.4153 157.886 93.9032L155.378 95.9718L158.878 97.1494L159.46 98.0565C160.648 96.8474 161.947 94.309 163.356 90.4414C163.566 89.8633 163.702 89.4686 163.764 89.2572ZM157.451 101.003L152.138 99.4119C150.454 100.74 148.664 102.614 146.77 105.033L139.671 104.299C140.111 103.647 141.637 102.068 144.249 99.5623L146.96 96.9362C149.543 94.4669 153.221 91.6026 157.993 88.3432C160.614 86.5405 163.114 85.0057 165.493 83.7388C166.497 84.0654 168.005 84.5253 170.018 85.1186L169.358 87.3793C168.853 89.0654 168.32 90.6793 167.759 92.2208C166.661 95.2351 165.417 97.9642 164.028 100.408C163.735 100.786 162.718 102.53 160.976 105.642C160.259 106.926 159.635 107.955 159.103 108.73L151.976 108.009C152.973 106.684 154.798 104.349 157.451 101.003ZM182.378 102.097C182.646 101.789 182.935 101.487 183.245 101.193C185.187 99.2422 188.003 96.6692 191.692 93.4745L192.377 93.6487C193.729 93.9596 195.278 94.3719 197.024 94.8854C195.026 96.646 192.199 99.3782 188.543 103.082C188.457 103.191 188.097 103.6 187.465 104.308C191.158 104.1 195.048 102.944 199.135 100.84C200.938 99.9118 202.486 98.893 203.779 97.7832L204.526 97.9795C205.864 98.2855 207.399 98.6929 209.132 99.2015C206.107 102.369 201.998 104.877 196.803 106.727C194.158 107.696 191.547 108.189 188.97 108.203C190.175 109.472 191.046 111.128 191.58 113.169C192.135 115.326 192.125 117.196 191.548 118.779C191.398 119.192 191.173 119.617 190.873 120.055L183.746 119.334C184.188 118.636 184.549 117.901 184.829 117.13C185.351 115.699 185.575 114.247 185.504 112.776C185.427 110.975 184.889 109.648 183.89 108.795L182.929 110.085C182.134 111.155 180.664 113.243 178.519 116.351L171.42 115.616C173.168 113.129 175.059 110.592 177.093 108.004C177.539 107.464 178.002 106.898 178.482 106.307C174.831 106.53 170.972 107.689 166.904 109.784C165.095 110.726 163.545 111.751 162.252 112.861L161.505 112.665C160.158 112.34 158.625 111.926 156.906 111.422C159.912 108.264 164.024 105.748 169.242 103.876C171.869 102.915 174.477 102.43 177.069 102.421C175.863 101.151 174.986 99.4934 174.437 97.4473C173.868 95.2851 173.87 93.4195 174.441 91.8504C174.597 91.4237 174.84 90.9897 175.173 90.5483L182.284 91.3107C181.834 91.99 181.469 92.715 181.188 93.4858C180.667 94.9172 180.442 96.3689 180.514 97.8407C180.578 99.5899 181.2 101.009 182.378 102.097ZM215.879 107.835C214.971 108.444 213.011 109.993 210.001 112.481L207.493 114.549L210.993 115.727L211.575 116.634C212.763 115.425 214.062 112.887 215.471 109.019C215.681 108.441 215.817 108.046 215.879 107.835ZM209.566 119.58L204.253 117.99C202.569 119.318 200.779 121.191 198.885 123.61L191.786 122.876C192.226 122.224 193.752 120.646 196.364 118.14L199.075 115.514C201.658 113.045 205.336 110.18 210.108 106.921C212.729 105.118 215.229 103.583 217.608 102.316C218.612 102.643 220.12 103.103 222.133 103.696L221.473 105.957C220.968 107.643 220.435 109.257 219.874 110.798C218.776 113.813 217.532 116.542 216.143 118.986C215.85 119.363 214.832 121.108 213.091 124.219C212.374 125.503 211.75 126.533 211.218 127.307L204.091 126.586C205.088 125.262 206.913 122.927 209.566 119.58ZM245.393 112.128L241.979 116.556L239.992 115.848C236.281 114.524 233.346 113.572 231.189 112.989L232.032 114.013C231.731 114.325 230.952 115.16 229.694 116.515C229.35 116.859 228.959 117.272 228.518 117.752L236.046 120.133L232.862 124.059L225.445 121.695C224.336 123.073 223.025 124.852 221.513 127.035C223.554 127.638 226.605 128.547 230.668 129.762L227.2 134.147C226.179 133.783 225.282 133.464 224.51 133.188L223.516 132.834C220.977 131.929 217.107 131 211.904 130.047L211.926 129.986C211.981 129.834 212.704 128.793 214.093 126.862C215.723 124.613 217.106 122.805 218.243 121.437C220.139 119.143 222.183 116.87 224.375 114.619C225.196 113.777 226.088 112.912 227.049 112.027C225.799 111.737 224.613 111.461 223.492 111.202L226.903 106.586C229.355 107.258 232.272 108.088 235.654 109.076C237.667 109.669 240.913 110.686 245.393 112.128ZM276.803 122.321L270.262 132.446C270.098 132.683 269.333 133.841 267.968 135.92L265.002 140.532C263.811 142.346 262.69 144.163 261.638 145.98L252.95 145.309C254.286 143.437 256.191 140.905 258.663 137.712C259.418 136.753 260.699 135.055 262.505 132.62C263.339 131.487 264.514 130.016 266.03 128.208C264.377 128.21 261.14 130.205 256.32 134.194C254.502 135.676 252.424 137.999 250.087 141.163L242.96 140.442C243.111 140.2 243.276 139.831 243.457 139.336C244.354 136.872 245.234 133.493 246.097 129.197C246.458 127.522 246.542 126.65 246.349 126.581L242.122 131.186C240.209 133.272 238.746 135.363 237.733 137.459L230.614 136.717C232.395 134.18 234.293 131.645 236.307 129.113C237.835 127.185 239.886 124.915 242.459 122.302C243.595 121.152 245.088 119.748 246.939 118.091C247.088 117.895 247.185 117.735 247.23 117.611C247.366 117.24 247.439 116.589 247.45 115.66C247.445 114.476 247.451 113.795 247.47 113.615L254.322 114.448C254.173 117.256 253.992 119.827 253.781 122.162C253.477 125.522 252.97 128.304 252.261 130.508C256.167 126.675 260.152 124.123 264.217 122.85C265.798 122.232 267.33 121.814 268.813 121.596C269.964 121.431 271.127 121.426 272.303 121.58C273.849 121.743 274.784 121.851 275.108 121.904C275.731 122.033 276.296 122.172 276.803 122.321ZM302.096 142.441L306.751 137.172C307.89 135.884 308.577 135.133 308.81 134.921L307.126 134.601C306.341 134.445 305.686 134.274 305.162 134.087C304.996 134.028 304.824 133.966 304.645 133.902L303.538 133.601C303.111 133.962 302.512 134.557 301.742 135.387L298.917 138.392C297.97 139.408 297.311 140.106 296.938 140.486C294.76 142.742 292.717 145.015 290.807 147.304C289.694 148.649 288.324 150.462 286.698 152.744C285.295 154.67 284.566 155.709 284.51 155.86L284.488 155.922C286.325 155.97 288.492 156.315 290.986 156.955L294.097 152.909C294.594 152.231 295.254 151.339 296.077 150.233L299.137 146.262C300.187 144.879 300.842 144 301.103 143.627C301.648 143.028 301.979 142.633 302.096 142.441ZM283.313 144.959C283.654 144.023 283.295 143.126 282.236 142.266C281.919 141.982 281.353 141.695 280.539 141.405L280.104 141.25C280.035 141.225 279.941 141.184 279.822 141.126C279.708 141.054 279.623 141.008 279.568 140.989C279.416 140.934 279.136 140.912 278.727 140.922L277.963 141.863C277.387 142.419 276.64 143.164 275.723 144.097C275.579 144.279 275.133 144.819 274.384 145.719L275.882 146.229C277.42 146.715 278.788 146.939 279.987 146.9C281.753 146.845 282.862 146.198 283.313 144.959ZM276.439 134.812C276.912 134.327 277.327 133.915 277.685 133.576C277.999 133.268 278.364 132.908 278.779 132.497C279.71 131.569 281.817 129.676 285.103 126.82L285.754 126.958C287.129 127.293 288.682 127.715 290.414 128.223C288.507 129.907 286.301 132.005 283.795 134.518C283.532 134.813 283.248 135.123 282.942 135.45C282.875 135.504 282.547 135.892 281.956 136.615C282.909 136.908 283.792 137.246 284.603 137.628C285.469 138.077 286.363 138.746 287.287 139.635C289.345 141.473 289.931 143.61 289.044 146.046C288.913 146.404 288.688 146.829 288.369 147.322C286.195 150.979 282.865 152.544 278.38 152.018C278.196 151.968 276.671 151.596 273.806 150.901L269.556 149.922C268.005 149.556 266.545 149.222 265.174 148.92C267.097 146.122 269.219 143.271 271.54 140.366C271.708 140.162 271.885 139.953 272.072 139.739C271.525 139.7 271.066 139.676 270.695 139.668L271.292 133.536C273.221 133.975 274.937 134.4 276.439 134.812ZM301.227 159.976L294.101 159.255C295.882 156.718 297.78 154.183 299.794 151.651C301.322 149.723 303.373 147.453 305.946 144.84C307.082 143.69 308.578 142.279 310.433 140.608C311.487 139.599 312.766 138.462 314.272 137.195L320.387 139.024L315.529 143.311C313.905 144.816 312.007 146.752 309.836 149.119L309.469 149.548C315.518 146.122 321.204 143.374 326.525 141.306L332.61 143.218C330.694 144.199 328.712 145.359 326.666 146.698C326.06 147.461 324.918 148.905 323.241 151.028C322.188 152.208 320.353 154.548 317.738 158.047C317.026 158.975 315.638 160.86 313.574 163.701L306.455 162.959C306.6 162.731 306.908 162.336 307.378 161.772C307.848 161.209 308.792 160.029 310.21 158.233C313.691 154.156 315.867 151.627 316.739 150.647C316.26 150.849 315.313 151.351 313.898 152.153C308.868 154.963 305.015 157.283 302.337 159.112C301.812 159.485 301.442 159.773 301.227 159.976ZM321.91 134.715C325.818 134.6 329.201 134.686 332.058 134.974L332.233 135.456C331.115 136.986 330.188 138.203 329.454 139.107C326.629 138.474 323.554 137.906 320.229 137.405L319.655 137.247C320.375 136.384 321.126 135.54 321.91 134.715ZM320.613 167.423L328.472 169.152C327.653 170.244 325.099 173.276 320.81 178.247L320.095 178.925C318.352 179.859 315.743 180.173 312.269 179.868C316.335 173.541 319.116 169.393 320.613 167.423ZM111.727 122.469C112.062 121.547 111.697 120.647 110.629 119.769C110.307 119.498 109.745 119.22 108.945 118.935L108.531 118.787C107.803 118.559 106.763 118.398 105.41 118.305L106.426 119.367C105.746 119.949 104.99 120.698 104.158 121.614C104.091 121.668 103.631 122.204 102.777 123.221L104.311 123.698C105.857 124.202 107.221 124.44 108.401 124.409C110.162 124.368 111.27 123.722 111.727 122.469ZM104.508 131.116C104.849 130.18 104.49 129.282 103.431 128.423C103.128 128.144 102.576 127.861 101.775 127.576L101.299 127.406C101.23 127.382 101.136 127.34 101.017 127.282C100.917 127.215 100.846 127.175 100.805 127.16C100.639 127.101 100.345 127.074 99.9222 127.079L99.2 128.034C98.5956 128.581 97.842 129.323 96.9392 130.261C96.7812 130.438 96.3349 130.978 95.6001 131.883L97.0771 132.386C98.6149 132.872 99.9903 133.098 101.203 133.064C102.955 133.004 104.057 132.355 104.508 131.116ZM110.186 129.268C110.387 130.77 110.397 131.769 110.217 132.264C110.081 132.636 109.867 133.073 109.575 133.575C107.408 137.173 104.074 138.706 99.5752 138.175C99.4046 138.13 97.8869 137.76 95.022 137.065L90.7511 136.079C89.2007 135.713 87.7401 135.379 86.3691 135.077C88.2924 132.279 90.4213 129.43 92.7559 126.53C94.2028 124.698 96.251 122.434 98.9005 119.74C99.4259 119.196 100.172 118.475 101.139 117.575C100.596 117.568 100.13 117.542 99.7409 117.497L100.642 111.17C103.755 111.782 106.381 112.469 108.52 113.232C109.031 113.414 109.579 113.641 110.166 113.912C111.818 114.641 112.761 115.07 112.994 115.2C113.836 115.671 114.724 116.338 115.657 117.199C117.706 119.064 118.286 121.215 117.399 123.652C117.274 123.996 117.068 124.412 116.78 124.901C115.439 127.128 113.241 128.584 110.186 129.268ZM145.354 136.463L150.009 131.194C151.149 129.905 151.835 129.155 152.068 128.942L150.384 128.622C149.599 128.466 148.945 128.295 148.42 128.108C148.255 128.049 148.082 127.988 147.903 127.924L146.796 127.623C146.369 127.984 145.77 128.579 145 129.408L142.175 132.414C141.229 133.429 140.569 134.127 140.197 134.507C138.019 136.763 135.975 139.036 134.065 141.326C132.952 142.671 131.582 144.484 129.956 146.766C128.553 148.691 127.824 149.73 127.769 149.881L127.746 149.943C129.584 149.992 131.75 150.336 134.245 150.977L137.355 146.931C137.852 146.252 138.512 145.36 139.336 144.254L142.396 140.283C143.445 138.9 144.1 138.022 144.361 137.648C144.906 137.049 145.237 136.654 145.354 136.463ZM126.571 138.981C126.912 138.045 126.553 137.147 125.494 136.288C125.177 136.003 124.611 135.716 123.797 135.426L123.362 135.271C123.293 135.247 123.199 135.205 123.08 135.147C122.966 135.075 122.881 135.03 122.826 135.01C122.674 134.956 122.394 134.934 121.985 134.943L121.222 135.884C120.645 136.441 119.898 137.185 118.981 138.118C118.837 138.3 118.391 138.841 117.642 139.74L119.14 140.251C120.678 140.737 122.046 140.96 123.245 140.921C125.011 140.866 126.12 140.22 126.571 138.981ZM119.698 128.833C120.17 128.348 120.585 127.936 120.943 127.597C121.258 127.29 121.622 126.93 122.037 126.518C122.968 125.59 125.076 123.698 128.361 120.841L129.012 120.98C130.387 121.314 131.94 121.736 133.673 122.245C131.765 123.929 129.559 126.027 127.054 128.539C126.79 128.834 126.506 129.145 126.2 129.471C126.133 129.525 125.805 129.914 125.214 130.636C126.168 130.929 127.05 131.267 127.862 131.65C128.727 132.098 129.622 132.767 130.545 133.656C132.604 135.494 133.189 137.631 132.302 140.067C132.172 140.425 131.947 140.85 131.627 141.343C129.453 145 126.123 146.566 121.638 146.04C121.454 145.99 119.929 145.617 117.064 144.923L112.814 143.944C111.264 143.578 109.803 143.244 108.432 142.942C110.355 140.144 112.477 137.293 114.798 134.388C114.966 134.183 115.144 133.974 115.33 133.761C114.784 133.721 114.325 133.698 113.953 133.69L114.55 127.558C116.479 127.997 118.195 128.422 119.698 128.833ZM197.012 143.774L190.472 153.899C190.308 154.136 189.543 155.294 188.177 157.373L185.212 161.984C184.021 163.799 182.899 165.615 181.847 167.433L173.159 166.762C174.496 164.89 176.4 162.358 178.873 159.165C179.628 158.205 180.908 156.508 182.715 154.073C183.549 152.939 184.724 151.469 186.239 149.661C184.586 149.663 181.35 151.658 176.529 155.647C174.711 157.129 172.634 159.452 170.297 162.615L163.17 161.894C163.32 161.653 163.486 161.284 163.666 160.788C164.563 158.325 165.444 154.945 166.307 150.65C166.667 148.974 166.751 148.102 166.558 148.033L162.332 152.638C160.419 154.724 158.955 156.815 157.943 158.911L150.823 158.17C152.605 155.632 154.502 153.098 156.516 150.565C158.044 148.637 160.095 146.367 162.668 143.754C163.804 142.604 165.298 141.2 167.148 139.543C167.298 139.347 167.395 139.188 167.44 139.064C167.575 138.692 167.649 138.042 167.66 137.113C167.654 135.929 167.661 135.247 167.68 135.067L174.532 135.9C174.382 138.708 174.202 141.28 173.99 143.615C173.686 146.974 173.18 149.756 172.47 151.96C176.376 148.128 180.362 145.575 184.426 144.303C186.008 143.684 187.54 143.266 189.022 143.048C190.173 142.883 191.337 142.878 192.512 143.033C194.059 143.195 194.994 143.303 195.317 143.356C195.941 143.485 196.506 143.625 197.012 143.774ZM217.096 151.936L213.683 156.365L211.696 155.656C207.984 154.333 205.05 153.38 202.892 152.798L203.735 153.822C203.434 154.134 202.655 154.968 201.398 156.324C201.054 156.668 200.662 157.08 200.222 157.561L207.75 159.941L204.566 163.868L197.149 161.504C196.039 162.881 194.728 164.661 193.216 166.844C195.257 167.447 198.309 168.356 202.372 169.571L198.904 173.956C197.883 173.592 196.986 173.273 196.213 172.997L195.22 172.643C192.681 171.738 188.81 170.809 183.607 169.856L183.63 169.794C183.685 169.643 184.407 168.602 185.796 166.671C187.426 164.422 188.81 162.614 189.947 161.246C191.843 158.952 193.887 156.679 196.078 154.428C196.9 153.585 197.791 152.721 198.753 151.836C197.502 151.545 196.316 151.27 195.195 151.011L198.607 146.395C201.059 147.067 203.976 147.897 207.358 148.885C209.371 149.478 212.617 150.495 217.096 151.936ZM239.172 159.829C236.633 162.05 233.806 164.782 230.692 168.026C229.578 169.2 227.714 171.537 225.098 175.036C224.381 175.978 222.986 177.86 220.914 180.683L213.787 179.961C215.55 177.604 217.375 175.269 219.262 172.956C219.444 172.756 219.99 172.111 220.902 171.021L213.931 169.423L212.949 170.705C212.168 171.78 210.712 173.873 208.58 176.986L201.489 176.231C203.237 173.744 205.118 171.211 207.133 168.632C208.691 166.668 210.741 164.398 213.285 161.821C215.247 159.861 218.069 157.291 221.753 154.11L222.397 154.269C223.763 154.585 225.319 155 227.065 155.513C225.067 157.274 222.24 160.006 218.584 163.71C218.502 163.805 218.143 164.214 217.506 164.935L223.745 166.296L223.951 167.723C226.527 164.971 229.817 161.867 233.82 158.411L234.567 158.607C235.905 158.913 237.44 159.321 239.172 159.829ZM247.705 168.633C245.967 168.697 244.872 169.349 244.421 170.588C244.085 171.51 244.444 172.407 245.497 173.281C245.815 173.565 246.374 173.85 247.174 174.135L247.609 174.29C248.336 174.518 249.37 174.677 250.709 174.765L249.714 173.711C250.398 173.115 251.157 172.359 251.989 171.443C252.042 171.384 252.493 170.853 253.342 169.849L251.837 169.359C250.29 168.854 248.913 168.612 247.705 168.633ZM234.985 176.205C236.56 175.647 238.117 175.245 239.656 175.001C238.28 173.344 237.968 171.483 238.72 169.418C238.845 169.074 239.061 168.654 239.367 168.156C240.976 165.449 243.982 164.172 248.385 164.326C250.736 164.418 253.198 164.915 255.77 165.816L262.332 168.085C260.478 169.71 257.918 172.18 254.653 175.495C255.442 175.512 256.017 175.538 256.378 175.573L255.497 181.907C253.567 181.515 251.823 181.103 250.265 180.672L249.219 182.002L248.237 183.285C247.443 184.354 245.986 186.448 243.869 189.565L236.736 188.795C238.498 186.313 240.393 183.785 242.422 181.212L244.411 178.702C239.624 179.39 235.702 180.527 232.646 182.112C230.843 183.04 229.295 184.059 228.002 185.169L227.296 184.987C225.944 184.676 224.395 184.264 222.649 183.75C225.687 180.588 229.799 178.073 234.985 176.205ZM108.819 163.258C106.266 165.473 103.439 168.206 100.338 171.454C99.225 172.628 97.3536 174.962 94.7244 178.457C94.021 179.404 92.6331 181.288 90.5606 184.111L83.4131 183.382C85.1897 181.03 87.0285 178.7 88.9293 176.391C89.0973 176.187 89.6371 175.54 90.5486 174.449L93.5767 171.143C95.2017 169.421 97.0926 167.568 99.2494 165.585C95.5728 164.165 92.7248 163.189 90.7054 162.655L91.5617 163.707C91.3184 163.947 90.7379 164.556 89.82 165.536C88.6652 166.695 87.7762 167.637 87.153 168.364L83.557 172.843L82.6167 174.141C81.808 175.206 80.338 177.294 78.2066 180.407L71.1155 179.652C72.8633 177.165 74.7446 174.632 76.7595 172.053C78.3167 170.089 80.3674 167.819 82.9116 165.242C83.9661 164.187 85.2903 162.949 86.884 161.526C85.2835 161.127 83.9552 160.793 82.899 160.526L86.2748 155.944C88.7208 156.676 91.6196 157.577 94.9712 158.648C96.9644 159.296 101.58 160.833 108.819 163.258ZM130.287 176.929L128.464 177.375C128.446 178.924 128.256 180.193 127.895 181.184C127.635 181.9 127.161 182.859 126.474 184.06C124.325 187.819 121.677 190.468 118.529 192.005C115.052 193.72 111.36 193.881 107.456 192.489C104.268 191.353 102.179 189.364 101.187 186.523C100.287 183.9 100.429 180.965 101.612 177.717C101.868 177.015 102.18 176.286 102.548 175.531C104.208 172.173 106.821 169.707 110.388 168.132C114.038 166.541 117.609 166.368 121.1 167.612C126.343 169.481 129.406 172.587 130.287 176.929ZM120.474 182.621C120.737 182.155 120.921 181.778 121.027 181.488C121.513 180.153 121.484 178.992 120.939 178.005L122.234 177.79C121.992 175.542 120.754 174.02 118.518 173.223C116.256 172.417 114.106 172.475 112.071 173.398C110.13 174.276 108.571 175.796 107.393 177.958C107.115 178.465 106.911 178.898 106.78 179.256C106.149 180.99 106.123 182.645 106.703 184.22C107.294 185.893 108.438 187.031 110.135 187.636C112.164 188.359 114.158 188.169 116.12 187.064C117.85 186.079 119.302 184.598 120.474 182.621ZM134.445 196.139C135.508 196.471 136.301 196.715 136.821 196.869L137.224 198.459L138.223 197.322L141.131 194.09C141.247 193.898 141.571 193.501 142.103 192.897C142.364 192.524 143.085 191.677 144.268 190.356C146.6 187.207 148.443 185.034 149.799 183.837L147.099 182.968C144.88 182.255 143.128 181.693 141.844 181.282L142.992 182.624C142.214 183.389 141.428 184.22 140.633 185.119C139.235 186.689 137.67 188.588 135.939 190.816C134.521 192.613 133.074 194.103 131.598 195.287C132.529 195.557 133.478 195.841 134.445 196.139ZM150.678 178.599C151.664 178.888 154.814 179.871 160.127 181.547C158.158 183.272 155.353 185.988 151.71 189.697C151.615 189.788 151.249 190.194 150.612 190.915L147.044 195.382L146.083 196.672C145.654 197.25 145.034 198.117 144.223 199.275C145.157 199.577 146.145 199.905 147.185 200.26L146.517 201.002L145.806 201.798C144.641 203.156 143.308 204.803 141.807 206.741L134.675 205.971C135.536 204.848 136.39 203.745 137.237 202.662C135.898 202.185 134.672 201.764 133.558 201.398L129.137 200.055C127.934 199.719 126.765 199.396 125.631 199.085L124.8 200.212L123.828 201.661L116.729 200.927C118.148 198.914 120.253 196.196 123.043 192.774C123.112 192.799 123.197 192.821 123.299 192.842C124.429 193.12 125.531 192.876 126.606 192.108C127.291 191.683 127.977 191.19 128.666 190.626C130.059 189.07 131.44 187.502 132.811 185.922C134.776 183.824 136.646 181.94 138.423 180.272L135.667 179.686L138.87 175.323C140.732 175.816 142.058 176.156 142.847 176.344C145.663 177.13 148.188 177.859 150.422 178.531L150.678 178.599ZM172.448 194.01C172.784 193.088 172.418 192.188 171.35 191.31C171.041 191.044 170.487 190.769 169.687 190.484L169.252 190.329C168.525 190.1 167.491 189.942 166.151 189.853L167.168 190.915C166.474 191.492 165.718 192.241 164.899 193.162C164.833 193.217 164.373 193.752 163.519 194.77L165.032 195.239C166.578 195.744 167.949 195.983 169.143 195.958C170.89 195.912 171.991 195.263 172.448 194.01ZM160.519 198.576L159.272 200.137C158.401 201.288 156.703 203.723 154.179 207.442L153.986 207.397C152.011 207.082 149.72 206.825 147.111 206.625C149.034 203.828 151.163 200.979 153.498 198.079C154.945 196.246 156.993 193.983 159.642 191.288C160.168 190.745 160.914 190.023 161.881 189.124C161.324 189.112 160.858 189.086 160.483 189.045L161.384 182.719C164.497 183.331 167.123 184.018 169.262 184.781C169.759 184.958 170.301 185.182 170.888 185.453C172.553 186.187 173.503 186.619 173.736 186.749C174.578 187.22 175.466 187.886 176.399 188.748C178.448 190.613 179.028 192.764 178.141 195.2C178.016 195.544 177.803 195.958 177.502 196.442C175.892 199.149 172.883 200.433 168.476 200.292C166.138 200.205 163.486 199.633 160.519 198.576ZM201.756 196.364L198.343 200.792L196.356 200.084C192.644 198.761 189.71 197.808 187.552 197.225L188.395 198.249C188.094 198.562 187.315 199.396 186.057 200.751C185.714 201.095 185.322 201.508 184.882 201.988L192.41 204.369L189.226 208.296L181.809 205.932C180.699 207.309 179.388 209.089 177.876 211.271C179.917 211.874 182.969 212.783 187.032 213.998L183.564 218.384C182.543 218.02 181.646 217.7 180.873 217.424L179.88 217.07C177.341 216.165 173.47 215.236 168.267 214.284L168.29 214.222C168.345 214.07 169.067 213.029 170.456 211.099C172.086 208.849 173.47 207.041 174.607 205.674C176.503 203.379 178.546 201.106 180.738 198.855C181.56 198.013 182.451 197.149 183.413 196.263C182.162 195.973 180.976 195.698 179.855 195.438L183.266 190.822C185.719 191.494 188.636 192.324 192.017 193.312C194.031 193.905 197.277 194.923 201.756 196.364ZM192.108 216.111C192.098 216.139 193.128 216.521 195.198 217.259C196.735 217.745 198.118 217.973 199.344 217.944C201.097 217.885 202.198 217.235 202.649 215.997C202.99 215.061 202.624 214.16 201.552 213.296C201.248 213.017 200.689 212.732 199.875 212.442L198.707 212.119L201.058 208.105L202.39 208.556C203.95 209.066 205.334 209.31 206.542 209.29C208.275 209.239 209.37 208.587 209.826 207.335C210.162 206.413 209.803 205.515 208.749 204.642C208.441 204.376 207.886 204.101 207.086 203.816L206.631 203.653C205.903 203.425 204.877 203.269 203.551 203.185L203.173 197.032C204.422 197.369 205.585 197.729 206.661 198.112C207.144 198.285 207.679 198.506 208.266 198.778C209.946 199.517 210.895 199.948 211.115 200.073C211.957 200.544 212.844 201.211 213.778 202.072C215.813 203.933 216.386 206.081 215.499 208.517C215.374 208.861 215.167 209.278 214.88 209.766C213.553 211.999 211.361 213.457 208.306 214.141C208.521 215.648 208.538 216.65 208.358 217.145C208.222 217.517 208.009 217.954 207.717 218.456C205.549 222.053 202.209 223.584 197.696 223.048C197.525 223.003 196.007 222.633 193.143 221.938L188.892 220.96C187.988 220.746 187.111 220.542 186.262 220.349L190.27 215.316L192.108 216.111ZM227.172 211.652C226.264 212.261 224.305 213.81 221.294 216.298L218.786 218.367L222.286 219.544L222.868 220.451C224.056 219.242 225.355 216.704 226.764 212.836C226.974 212.258 227.11 211.863 227.172 211.652ZM220.859 223.398L215.546 221.807C213.862 223.135 212.072 225.008 210.178 227.428L203.079 226.693C203.519 226.042 205.045 224.463 207.657 221.957L210.368 219.331C212.951 216.862 216.629 213.997 221.401 210.738C224.022 208.935 226.522 207.401 228.901 206.134C229.905 206.46 231.413 206.92 233.426 207.513L232.766 209.774C232.261 211.46 231.728 213.074 231.167 214.616C230.069 217.63 228.825 220.359 227.436 222.803C227.143 223.181 226.126 224.925 224.384 228.037C223.667 229.32 223.043 230.35 222.511 231.124L215.384 230.403C216.381 229.079 218.206 226.744 220.859 223.398ZM225.107 228.621C226.554 229.012 227.931 228.656 229.238 227.551C229.959 226.984 230.599 226.318 231.158 225.553C231.819 224.809 232.828 223.644 234.185 222.06C236.163 219.966 238.048 218.087 239.838 216.424L237.041 215.823L240.285 211.475C242.12 211.958 243.432 212.293 244.221 212.481C247.037 213.267 249.569 213.999 251.817 214.676L252.093 214.751C253.065 215.035 256.139 215.991 261.314 217.618L261.335 217.626C259.324 219.381 256.497 222.113 252.854 225.822C252.773 225.918 252.414 226.326 251.777 227.048L248.201 231.535L247.24 232.825C246.432 233.89 244.968 235.981 242.851 239.098L235.739 238.336C237.487 235.849 239.375 233.318 241.404 230.745C242.975 228.785 245.032 226.517 247.577 223.941C248.617 222.881 249.93 221.631 251.515 220.19L248.493 219.113C246.288 218.404 244.53 217.84 243.218 217.419L244.386 218.768C243.609 219.533 242.823 220.365 242.028 221.263C240.63 222.833 239.065 224.732 237.333 226.961C236.454 228.047 235.959 228.617 235.846 228.67L235.62 229.033C233.455 231.682 231.271 233.462 229.069 234.372C227.076 234.921 225.088 234.835 223.107 234.112L225.107 228.621ZM253.7 242.825L246.573 242.104C248.355 239.567 250.252 237.032 252.266 234.5C253.794 232.572 255.845 230.302 258.418 227.689C259.554 226.539 261.05 225.128 262.906 223.457C263.959 222.449 265.239 221.311 266.745 220.044L272.86 221.874L268.001 226.16C266.377 227.665 264.48 229.601 262.308 231.968L261.941 232.397C267.991 228.971 273.676 226.223 278.997 224.155L285.082 226.067C283.166 227.048 281.184 228.208 279.138 229.547C278.532 230.311 277.391 231.754 275.713 233.878C274.66 235.057 272.826 237.397 270.21 240.897C269.498 241.825 268.11 243.709 266.046 246.55L258.927 245.809C259.072 245.58 259.38 245.185 259.85 244.621C260.321 244.058 261.265 242.879 262.683 241.082C266.164 237.005 268.34 234.476 269.211 233.496C268.732 233.698 267.785 234.201 266.371 235.003C261.341 237.813 257.487 240.132 254.81 241.961C254.284 242.334 253.914 242.622 253.7 242.825ZM273.085 250.272L280.944 252.001C280.126 253.093 278.831 254.957 277.061 257.591L276.818 257.551C274.455 257.191 271.698 256.885 268.547 256.632C270.076 254.362 271.588 252.243 273.085 250.272ZM296.471 229.917C295.029 232.591 292.031 237.035 287.476 243.249L283.167 248.851L275.649 246.894L284.302 235.4C285.759 233.198 287.399 230.835 289.222 228.313C291.042 228.666 293.458 229.201 296.471 229.917Z" fill="black"/>
<path d="M261.511 271.968C307.608 271.754 395.866 254.991 391.416 184.14" stroke="#E1DED9" stroke-width="6.21695" stroke-linecap="round"/>
</svg>
