<svg width="326" height="267" viewBox="0 0 326 267" fill="none" xmlns="http://www.w3.org/2000/svg">
<path d="M281.473 159.55L22.9769 260.875C21.3973 261.495 17.4639 256.179 16.7076 245.903C15.9513 235.627 26.738 218.683 35.5088 210.673C42.5254 204.265 43.899 199.193 43.7087 197.458C44.2552 193.815 45.6463 170.125 46.2645 172.311C46.8826 174.498 47.3572 176.74 50.6933 182.433C53.3622 186.988 50.7776 199.592 49.1516 205.325C47.8597 208.832 45.9423 215.727 48.6085 215.254C51.2747 214.78 53.2338 210.25 53.8801 208.044C54.6088 203.186 57.6582 185.561 58.161 179.506C58.6637 173.451 74.0129 147.719 84.8221 142.339C93.4695 138.035 101.015 116.085 103.707 105.648C107.255 122.544 100.549 139.317 98.4701 140.561C96.807 141.555 91.025 151.146 88.3419 155.818C81.3236 173.77 83.8994 181.228 86.0646 182.713C87.7908 177.693 96.8179 170.497 104.372 163.393C110.722 158.903 116.357 147.17 119.349 139.234C122.302 152.707 111.121 172.462 105.161 180.656C102.052 196.876 113.256 178.055 115.154 175.31C117.053 172.566 126.631 154.667 134.097 142.74C140.07 133.198 147.729 131.158 150.812 131.33C143.451 137.873 140.283 143.554 139.619 145.576C137.955 159.372 151.361 145.688 152.768 144.422C154.174 143.157 164.807 119.13 152.998 116.758C141.189 114.386 143.779 105.227 142.753 103.058C141.932 101.322 146.45 81.4164 148.811 71.6804C148.978 75.3775 149.337 84.2186 149.442 90.0066C149.573 97.2415 154.098 98.6108 158.443 98.4792C162.788 98.3477 166.9 96.1643 176.961 102.079C185.01 106.81 179.229 123.906 177.931 132.559C176.633 141.211 168.906 148.212 162.459 160.911C154.401 176.785 166.182 164.023 168.104 161.127C170.025 158.231 175.449 149.104 183.377 134.995C189.72 123.708 202.377 116.166 207.912 113.806C202.602 117.487 198.821 125.751 197.595 129.423C194.678 151.568 208.151 140.143 219.046 130.586C227.763 122.941 227.722 109.993 226.613 104.475C223.567 97.1444 217.611 80.6871 218.148 73.5046C218.819 64.5265 227.507 43.5476 236.951 35.5599C244.505 29.1697 255.902 23.6545 260.657 21.6957C230.959 45.7663 243.139 58.2793 252.183 60.1633C261.227 62.0474 261.461 61.384 263.663 69.2362C265.424 75.518 259.286 90.9062 255.996 97.815C264.383 94.5276 269.564 85.1629 271.105 80.8916C273.388 74.5677 274.12 66.804 274.202 60.2473C285.359 64.4464 278.777 82.3135 274.091 90.7222C296.972 78.7529 299.458 45.0612 299.262 32.8511C299.107 23.1537 307.669 9.51346 312.063 3.77538C312.094 3.73264 312.126 3.69123 312.158 3.65118C312.126 3.69212 312.095 3.73359 312.063 3.77538C309.076 7.8177 308.118 23.7441 308.014 31.2781C313.33 65.6822 289.876 105.015 285.328 112.641L285.245 112.781C281.777 118.598 281.285 146.384 281.473 159.55Z" fill="#F71B1B"/>
<path d="M22.9769 260.875L281.473 159.55C281.285 146.384 281.777 118.598 285.245 112.781C289.579 105.51 313.363 65.8989 308.014 31.2781C308.12 23.6644 309.097 7.48 312.158 3.65117C307.794 9.31446 299.106 23.083 299.262 32.8511C299.458 45.0612 296.972 78.7529 274.091 90.7222C278.777 82.3135 285.359 64.4464 274.202 60.2473C274.12 66.804 273.388 74.5677 271.105 80.8916C269.564 85.1629 264.383 94.5276 255.996 97.815C259.286 90.9062 265.424 75.518 263.663 69.2362C261.461 61.384 261.227 62.0474 252.183 60.1633C243.139 58.2793 230.959 45.7663 260.657 21.6957C255.902 23.6545 244.505 29.1697 236.951 35.5599C227.507 43.5476 218.819 64.5265 218.148 73.5046C217.611 80.6871 223.567 97.1444 226.613 104.475C227.722 109.993 227.763 122.941 219.046 130.586C208.151 140.143 194.678 151.568 197.595 129.423C198.821 125.751 202.602 117.487 207.912 113.806C202.377 116.166 189.72 123.708 183.377 134.995C175.449 149.104 170.025 158.231 168.104 161.127C166.182 164.023 154.401 176.785 162.459 160.911C168.906 148.212 176.633 141.211 177.931 132.559C179.229 123.906 185.01 106.81 176.961 102.079C166.9 96.1643 162.788 98.3477 158.443 98.4792C154.098 98.6108 149.573 97.2415 149.442 90.0066C149.337 84.2186 148.978 75.3775 148.811 71.6804C146.45 81.4164 141.932 101.322 142.753 103.058C143.779 105.227 141.189 114.386 152.998 116.758C164.807 119.13 154.174 143.157 152.768 144.422C151.361 145.688 137.955 159.372 139.619 145.576C140.283 143.554 143.451 137.873 150.812 131.33C147.729 131.158 140.07 133.198 134.097 142.74C126.631 154.667 117.053 172.566 115.154 175.31C113.256 178.055 102.052 196.876 105.161 180.656C111.121 172.462 122.302 152.707 119.349 139.234C116.357 147.17 110.722 158.903 104.372 163.393C96.8179 170.497 87.7908 177.693 86.0646 182.713C83.8994 181.228 81.3236 173.77 88.3419 155.818C91.025 151.146 96.807 141.555 98.4701 140.561C100.549 139.317 107.255 122.544 103.707 105.648C101.015 116.085 93.4695 138.035 84.8221 142.339C74.0129 147.719 58.6638 173.451 58.161 179.506C57.6582 185.561 54.6088 203.186 53.8801 208.044C53.2338 210.25 51.2747 214.78 48.6085 215.254C45.9423 215.727 47.8597 208.832 49.1516 205.325C50.7776 199.592 53.3622 186.988 50.6933 182.433C47.3572 176.74 46.8826 174.498 46.2645 172.311C45.6463 170.125 44.2552 193.815 43.7087 197.458C43.899 199.193 42.5254 204.265 35.5088 210.673C26.738 218.683 15.9513 235.627 16.7076 245.903C17.4639 256.179 21.3973 261.495 22.9769 260.875Z" stroke="#F71B1B" stroke-width="1.54252" stroke-linecap="round"/>
<path d="M34.311 256.436L268.106 164.793C267.048 153.825 267.703 127.833 278.789 111.601C292.646 91.3106 302.982 71.2573 303.465 50.9236C300.032 61.7939 293.465 91.6182 280.383 100.975C267.301 110.332 267.535 100.725 269.287 94.7521C270.624 91.8469 273.487 85.6765 274.243 84.237C275.189 82.4376 265.502 92.9495 261.075 103.543C256.647 114.137 253.801 121.396 251.216 122.409C248.631 123.422 244.337 126.82 244.971 116.285C247.473 111.018 252.407 98.9682 252.127 92.906C251.777 85.3282 253.119 79.0875 241.869 77.4969C232.868 76.2244 235.215 64.4844 237.513 58.7735C235.418 61.9284 231.203 69.3051 231.103 73.573C230.979 78.908 234.215 88.4474 234.984 90.0536C236.653 93.5427 241.602 102.699 240.064 109.35C238.526 116.001 232.503 132.001 220.72 142.792C208.937 153.583 196.312 151.121 191.473 148.542C190.163 147.959 189.375 142.706 196.694 126.35C192.338 131.058 183.416 142.242 182.571 149.316C181.515 158.16 178.569 167.887 170.033 175.233C163.204 181.11 154.352 183.951 150.78 184.637C149.02 183.755 144.182 179.604 153.443 170.488C157.018 166.181 164.744 155.343 167.053 146.437C169.94 135.304 174.533 123.607 171.796 114.822C169.606 107.794 164.721 106.118 162.553 106.158C165.089 109.974 167.782 116.35 166.841 122.622C165.133 134.007 157.389 144.186 151.331 154.133C146.581 160.566 139.724 173.284 134.46 170.89C133.193 169.728 130.644 168.725 132.359 162.57C130.683 167.367 126.818 171.52 124.996 176.314C122.763 182.19 116.016 194.549 106.892 196.983C102.375 198.563 94.7025 198.589 100.151 186.052C100.508 183.674 103.408 175.518 112.152 161.918C106.037 167.839 99.185 175.573 95.7943 181.76C94.1549 188.784 89.7581 202.356 85.286 200.452C79.6959 198.071 77.6382 190.162 77.4737 187.655C77.3091 185.148 79.4007 164.898 81.3219 162.002C83.2432 159.105 86.7985 153.426 89.2207 147.19C88.303 148.502 84.243 153.342 75.3447 162.202C72.1774 175.206 63.6733 191.35 62.2387 200.913C61.5182 208.72 59.097 225.461 55.1767 229.97C50.2764 235.605 48.18 240.57 40.5286 235.712C36.8985 229.277 46.1613 215.102 47.3034 206.768C44.2927 211.52 37.8407 219.049 34.923 222.622C30.2316 228.366 28.0416 232.748 28.2062 243.971C28.2784 248.895 29.6006 258.283 34.311 256.436Z" fill="#EACE4F"/>
<path d="M132.359 162.57C130.644 168.725 133.193 169.728 134.46 170.89C139.724 173.284 146.581 160.566 151.331 154.133C157.389 144.186 165.133 134.007 166.841 122.622C167.782 116.35 165.089 109.974 162.553 106.158C164.721 106.118 169.606 107.794 171.796 114.822C174.533 123.607 169.94 135.304 167.053 146.437C164.744 155.343 157.018 166.181 153.443 170.488C144.182 179.604 149.02 183.755 150.78 184.637C154.352 183.951 163.204 181.11 170.033 175.233C178.569 167.887 181.515 158.16 182.571 149.316C183.416 142.242 192.338 131.058 196.694 126.35C189.375 142.706 190.163 147.959 191.473 148.542C196.312 151.121 208.937 153.583 220.72 142.792C232.503 132.001 238.526 116.001 240.064 109.35C241.602 102.699 236.653 93.5427 234.984 90.0536C234.215 88.4474 230.979 78.908 231.103 73.573C231.203 69.3051 235.418 61.9284 237.513 58.7735C235.215 64.4844 232.868 76.2244 241.869 77.4969C253.119 79.0875 251.777 85.3282 252.127 92.906C252.407 98.9682 247.473 111.018 244.971 116.285C244.337 126.82 248.631 123.422 251.216 122.409C253.801 121.396 256.647 114.137 261.075 103.543C265.502 92.9495 275.189 82.4376 274.243 84.237C273.487 85.6765 270.624 91.8469 269.287 94.7521C267.535 100.725 267.301 110.332 280.383 100.975C293.465 91.6182 300.032 61.7939 303.465 50.9236C302.982 71.2573 292.646 91.3106 278.789 111.601C267.703 127.833 267.048 153.825 268.106 164.793L34.311 256.436C29.6006 258.283 28.2784 248.895 28.2062 243.971C28.0416 232.748 30.2316 228.366 34.923 222.622C37.8407 219.049 44.2927 211.52 47.3034 206.768C46.1613 215.102 36.8985 229.277 40.5286 235.712C48.18 240.57 50.2764 235.605 55.1767 229.97C59.097 225.461 61.5182 208.72 62.2387 200.913C63.6733 191.35 72.1774 175.206 75.3447 162.202C84.243 153.342 88.303 148.502 89.2207 147.19C86.7985 153.426 83.2432 159.105 81.3219 162.002C79.4007 164.898 77.3091 185.148 77.4737 187.655C77.6382 190.162 79.6959 198.071 85.286 200.452C89.7581 202.356 94.1549 188.784 95.7943 181.76C99.185 175.573 106.037 167.839 112.152 161.918C103.408 175.518 100.508 183.674 100.151 186.052C94.7025 198.589 102.375 198.563 106.892 196.983C116.016 194.549 122.763 182.19 124.996 176.314C126.818 171.52 130.683 167.367 132.359 162.57ZM132.359 162.57C132.502 162.159 133.228 158.995 133.327 158.618C133.19 159.021 132.466 162.185 132.359 162.57Z" stroke="#EACE4F" stroke-width="1.54252" stroke-linecap="round"/>
<path d="M42.002 237.991C41.396 236.081 39.6999 235.07 36.9134 234.959C36.0683 234.913 34.8195 235.149 33.1671 235.667L32.2465 235.955C32.1049 236 31.8967 236.039 31.6221 236.073C31.3475 236.108 31.163 236.14 31.0686 236.169C30.7617 236.265 30.2599 236.565 29.5632 237.069L29.5507 239.484C29.2914 241.121 29.017 243.242 28.7276 245.848C28.697 246.324 28.6369 247.73 28.5472 250.066L31.5811 249.075C34.6672 248.004 37.1614 246.703 39.0638 245.173C41.8379 242.955 42.8173 240.561 42.002 237.991ZM19.2647 223.381C19.3437 222.812 19.5448 221.401 19.8682 219.148C17.4794 220.208 15.2284 221.212 13.1154 222.159L12.8651 210.571C17.6554 208.654 23.3979 206.426 30.0928 203.886C34.0781 202.377 40.57 200.056 49.5684 196.923L49.576 208.238L45.4687 209.525C37.8441 211.916 31.928 213.966 27.7204 215.674L30.355 216.248C30.2478 217.137 30.0815 218.576 29.856 220.566C29.7736 221.369 29.6905 222.212 29.6069 223.094C29.581 223.258 29.5304 224.285 29.4553 226.175C31.3846 225.466 33.2371 224.924 35.0127 224.549C36.9437 224.254 39.1993 224.247 41.7796 224.527C47.3876 225.024 50.9845 227.772 52.5704 232.771C52.8023 233.502 52.984 234.444 53.1157 235.595C54.1546 244.188 50.7044 250.779 42.7651 255.369C42.426 255.527 39.521 256.801 34.0502 259.19L25.9501 262.741C22.9936 264.057 20.226 265.314 17.6471 266.512C17.2798 259.627 17.1676 252.441 17.3104 244.956C17.3728 240.243 17.8718 234.085 18.8074 226.48C18.9221 225.615 19.0745 224.582 19.2647 223.381ZM70.3293 246.414L57.953 253.912C57.6858 247.669 57.5892 241.27 57.6634 234.713C57.7454 229.736 58.2444 223.577 59.1604 216.238C59.5374 213.009 60.2056 208.897 61.165 203.904C61.5921 200.996 62.2418 197.603 63.114 193.726L75.2342 189.225L72.7528 202.02C71.9817 206.462 71.3211 211.906 70.7708 218.353L70.6713 219.512C76.1813 206.61 81.9426 195.236 87.9552 185.392L100.131 181.068C98.2563 184.975 96.5164 189.267 94.9116 193.944C94.8664 195.928 94.8031 199.656 94.7216 205.126C94.5098 208.304 94.4555 214.31 94.5589 223.144C94.5861 225.521 94.676 230.263 94.8286 237.371L82.4411 244.833C82.3785 244.308 82.3855 243.308 82.4624 241.832C82.5317 240.332 82.5851 237.269 82.6227 232.642C83.176 221.787 83.5583 215.056 83.7694 212.449C83.2471 213.339 82.3288 215.312 81.0145 218.369C76.3996 229.02 73.0786 237.45 71.0517 243.66C70.649 244.927 70.4082 245.845 70.3293 246.414ZM129.319 210.611C128.713 208.701 127.017 207.69 124.23 207.579C123.385 207.533 122.136 207.769 120.484 208.287L119.563 208.575C119.422 208.62 119.214 208.659 118.939 208.693C118.664 208.728 118.48 208.76 118.385 208.789C118.079 208.885 117.577 209.185 116.88 209.689L116.868 212.104C116.608 213.741 116.334 215.862 116.044 218.468C116.014 218.944 115.954 220.35 115.864 222.686L118.898 221.695C121.984 220.624 124.478 219.323 126.381 217.793C129.155 215.575 130.134 213.181 129.319 210.611ZM106.582 196.001C106.661 195.432 106.862 194.021 107.185 191.768C104.796 192.828 102.545 193.832 100.432 194.779L100.182 183.191C104.972 181.274 110.715 179.046 117.41 176.506C121.395 174.997 127.887 172.676 136.885 169.543L136.893 180.858L132.786 182.146C125.161 184.536 119.245 186.586 115.037 188.294L117.672 188.868C117.565 189.757 117.398 191.196 117.173 193.186C117.091 193.989 117.007 194.832 116.924 195.714C116.898 195.878 116.847 196.905 116.772 198.795C118.702 198.086 120.554 197.544 122.33 197.169C124.261 196.874 126.516 196.867 129.097 197.147C134.705 197.644 138.301 200.392 139.887 205.391C140.119 206.122 140.301 207.064 140.433 208.215C141.472 216.808 138.021 223.399 130.082 227.989C129.743 228.147 126.838 229.421 121.367 231.81L113.267 235.361C110.311 236.677 107.543 237.934 104.964 239.132C104.597 232.247 104.484 225.061 104.627 217.576C104.69 212.863 105.189 206.705 106.124 199.1C106.239 198.235 106.391 197.202 106.582 196.001ZM157.646 219.034L145.27 226.532C145.003 220.29 144.906 213.89 144.98 207.333C145.062 202.356 145.561 196.197 146.477 188.858C146.854 185.629 147.523 181.517 148.482 176.524C148.909 173.616 149.559 170.223 150.431 166.346L162.551 161.845L160.07 174.64C159.299 179.082 158.638 184.526 158.088 190.973L157.988 192.132C163.498 179.23 169.26 167.856 175.272 158.012L187.448 153.688C185.573 157.595 183.833 161.887 182.229 166.564C182.183 168.548 182.12 172.276 182.038 177.746C181.827 180.924 181.772 186.93 181.876 195.764C181.903 198.141 181.993 202.883 182.146 209.991L169.758 217.453C169.695 216.928 169.702 215.928 169.779 214.452C169.849 212.952 169.902 209.889 169.94 205.262C170.493 194.407 170.875 187.676 171.086 185.069C170.564 185.959 169.646 187.932 168.331 190.989C163.716 201.64 160.396 210.07 158.369 216.28C157.966 217.547 157.725 218.465 157.646 219.034ZM190.048 191.636C190.062 191.68 191.738 191.179 195.076 190.132C197.495 189.276 199.467 188.242 200.991 187.031C203.15 185.279 203.913 183.402 203.278 181.402C202.799 179.89 201.46 179.1 199.261 179.032C198.605 178.969 197.62 179.144 196.307 179.555L194.514 180.264L193.582 172.931L195.708 172.228C198.179 171.38 200.169 170.365 201.678 169.183C203.822 167.46 204.573 165.587 203.932 163.564C203.459 162.075 202.131 161.282 199.947 161.184C199.298 161.144 198.329 161.325 197.038 161.73L196.304 161.96C195.161 162.368 193.71 163.153 191.95 164.315L185.483 156.885C187.392 156.116 189.214 155.459 190.949 154.915C191.728 154.67 192.621 154.439 193.628 154.221C196.473 153.549 198.095 153.187 198.495 153.135C200.019 152.926 201.791 152.92 203.81 153.118C208.197 153.527 211.014 155.698 212.262 159.632C212.439 160.188 212.583 160.913 212.695 161.806C213.188 165.904 211.833 169.848 208.632 173.638C210.371 175.341 211.367 176.592 211.621 177.393C211.812 177.993 211.966 178.751 212.086 179.666C212.843 186.296 210.105 191.432 203.872 195.072C203.612 195.178 201.331 196.162 197.029 198.025L190.697 200.853C189.344 201.449 188.036 202.03 186.773 202.597L186.947 192.388L190.048 191.636ZM232.556 150.959C230.419 152.705 229.668 154.578 230.302 156.578C230.775 158.067 232.103 158.861 234.287 158.958C234.965 159.014 235.949 158.84 237.24 158.435L237.941 158.215C239.084 157.808 240.546 157.02 242.328 155.85L240.041 155.467C240.328 154.058 240.553 152.374 240.715 150.417C240.724 150.292 240.777 149.188 240.875 147.104L238.493 147.925C236.044 148.766 234.065 149.777 232.556 150.959ZM223.827 172.722C225.278 170.508 226.858 168.509 228.568 166.727C225.213 165.946 223.007 163.888 221.949 160.554C221.773 159.998 221.636 159.259 221.539 158.336C220.941 153.367 223.503 148.873 229.226 144.855C232.292 142.721 235.89 140.994 240.022 139.674L250.537 136.266C249.772 140.099 248.935 145.677 248.029 152.999C249.044 152.265 249.797 151.748 250.289 151.447L255.339 160.311C252.514 161.662 249.906 162.809 247.515 163.755L247.486 166.44L247.492 169.004C247.527 171.119 247.721 175.164 248.075 181.138L238.298 186.99C238.112 182.161 238.05 177.146 238.113 171.945L238.189 166.862C232.799 172.316 228.942 177.509 226.617 182.441C225.238 185.342 224.27 188.114 223.714 190.757L222.644 191.202C220.63 192.103 218.268 193.063 215.558 194.084C216.326 187.172 219.082 180.051 223.827 172.722ZM288.887 124.241C287.835 129.483 286.916 135.649 286.131 142.738C285.864 145.29 285.779 150.033 285.875 156.968C285.884 158.847 285.95 162.566 286.074 168.123L276.352 174.031C276.289 169.359 276.326 164.655 276.463 159.92C276.499 159.493 276.563 158.153 276.655 155.9L266.277 160.548L266.283 163.112C266.34 165.22 266.534 169.265 266.866 175.246L257.156 181.077C256.948 176.254 256.863 171.246 256.904 166.053C256.963 162.075 257.349 157.237 258.061 151.54C258.636 147.181 259.706 141.224 261.273 133.67L262.243 133.256C264.279 132.348 266.652 131.384 269.362 130.364C268.547 134.505 267.628 140.67 266.606 148.86C266.595 149.059 266.538 149.92 266.434 151.444L275.656 147.196L277.304 148.805C277.887 142.855 279.03 135.776 280.732 127.568L281.868 127.102C283.86 126.208 286.2 125.255 288.887 124.241ZM297.216 165.547L309.553 159.89C309.581 162.188 309.767 166.006 310.11 171.343L309.743 171.536C306.198 173.451 302.18 175.839 297.689 178.699C297.398 174.098 297.24 169.714 297.216 165.547ZM307.598 114.457C308.423 119.513 308.986 128.528 309.286 141.501L309.285 153.401L297.169 158.406L296.919 134.178C296.602 129.741 296.364 124.902 296.207 119.662C299.016 118.289 302.813 116.554 307.598 114.457Z" fill="white"/>
</svg>
