<svg width="231" height="190" viewBox="0 0 231 190" fill="none" xmlns="http://www.w3.org/2000/svg">
<path d="M199.572 113.278L17.1005 185.22C15.9854 185.659 13.2089 181.885 12.675 174.589C12.1411 167.293 19.7554 155.263 25.9467 149.576C30.8997 145.026 31.8693 141.425 31.735 140.193C32.1207 137.607 33.1027 120.787 33.5391 122.339C33.9754 123.891 34.3104 125.484 36.6654 129.526C38.5493 132.759 36.7248 141.709 35.5771 145.779C34.6651 148.269 33.3116 153.164 35.1937 152.828C37.0758 152.492 38.4587 149.275 38.9149 147.709C39.4293 144.26 41.5819 131.746 41.9368 127.447C42.2917 123.149 53.1265 104.878 60.7567 101.059C66.8609 98.0027 72.1875 82.4182 74.0878 75.0079C76.5921 87.0046 71.8582 98.9133 70.3908 99.7962C69.2168 100.502 65.1353 107.312 63.2413 110.629C58.2872 123.375 60.1054 128.67 61.6338 129.724C62.8523 126.16 69.2245 121.051 74.5566 116.007C79.0393 112.819 83.0169 104.489 85.1293 98.8544C87.2139 108.42 79.3209 122.446 75.1138 128.264C72.9192 139.78 80.8278 126.417 82.1679 124.469C83.5081 122.52 90.2694 109.812 95.5397 101.343C99.7559 94.5687 105.162 93.1201 107.339 93.2427C102.142 97.8882 99.9061 101.921 99.4375 103.357C98.2628 113.152 107.727 103.436 108.719 102.538C109.712 101.639 117.218 84.5802 108.882 82.8963C100.546 81.2124 102.374 74.7095 101.65 73.1692C101.07 71.937 104.26 57.8037 105.927 50.8912C106.044 53.5161 106.297 59.7933 106.371 63.9028C106.464 69.0396 109.658 70.0118 112.725 69.9183C115.793 69.8249 118.695 68.2747 125.797 72.4739C131.479 75.8332 127.398 87.9715 126.482 94.1147C125.566 100.258 120.111 105.228 115.56 114.245C109.872 125.516 118.189 116.455 119.545 114.398C120.901 112.342 124.73 105.862 130.326 95.8449C134.804 87.831 143.738 82.476 147.645 80.8002C143.897 83.4142 141.228 89.2813 140.362 91.8881C138.304 107.611 147.814 99.4997 155.505 92.7143C161.658 87.2859 161.629 78.0933 160.846 74.1755C158.696 68.9706 154.492 57.2859 154.871 52.1863C155.344 45.8119 161.478 30.9169 168.144 25.2456C173.476 20.7086 181.522 16.7928 184.878 15.402C163.914 32.4921 172.512 41.3763 178.896 42.7141C185.28 44.0518 185.446 43.5807 186.999 49.1558C188.243 53.6159 183.91 64.5415 181.588 69.4468C187.508 67.1127 191.165 60.4638 192.253 57.4311C193.865 52.9411 194.381 47.4289 194.439 42.7737C202.315 45.755 197.668 58.4407 194.361 64.4109C210.513 55.9127 212.267 31.9915 212.129 23.3224C212.019 16.4372 218.063 6.75263 221.165 2.67856C221.187 2.64823 221.21 2.61883 221.232 2.5904C221.21 2.61948 221.187 2.64888 221.165 2.67856C219.057 5.54859 218.381 16.8564 218.307 22.2055C222.059 46.6324 205.503 74.5583 202.293 79.9731L202.234 80.0728C199.786 84.2027 199.439 103.931 199.572 113.278Z" fill="#F71B1B"/>
<path d="M17.1005 185.22L199.572 113.278C199.439 103.931 199.786 84.2027 202.234 80.0728C205.294 74.9103 222.083 46.7863 218.307 22.2055C218.381 16.7998 219.071 5.30886 221.232 2.5904C218.152 6.61133 212.019 16.387 212.129 23.3224C212.267 31.9915 210.513 55.9127 194.361 64.4109C197.668 58.4407 202.315 45.755 194.439 42.7737C194.381 47.4289 193.865 52.9411 192.253 57.4311C191.165 60.4638 187.508 67.1127 181.588 69.4468C183.91 64.5415 188.243 53.6159 186.999 49.1558C185.446 43.5807 185.28 44.0518 178.896 42.7141C172.512 41.3763 163.914 32.4921 184.878 15.402C181.522 16.7928 173.476 20.7086 168.144 25.2456C161.478 30.9169 155.344 45.8119 154.871 52.1863C154.492 57.2859 158.696 68.9706 160.846 74.1755C161.629 78.0933 161.658 87.2859 155.505 92.7143C147.814 99.4997 138.304 107.611 140.362 91.8881C141.228 89.2813 143.897 83.4142 147.645 80.8002C143.738 82.476 134.804 87.831 130.326 95.8449C124.73 105.862 120.901 112.342 119.545 114.398C118.189 116.455 109.872 125.516 115.56 114.245C120.111 105.228 125.566 100.258 126.482 94.1147C127.398 87.9715 131.479 75.8332 125.797 72.4739C118.695 68.2747 115.793 69.8249 112.725 69.9184C109.658 70.0118 106.464 69.0396 106.371 63.9028C106.297 59.7933 106.044 53.5161 105.927 50.8912C104.26 57.8037 101.07 71.937 101.65 73.1692C102.374 74.7095 100.546 81.2124 108.882 82.8963C117.218 84.5802 109.712 101.639 108.719 102.538C107.727 103.436 98.2628 113.152 99.4375 103.357C99.9061 101.921 102.142 97.8882 107.339 93.2427C105.162 93.1201 99.7559 94.5687 95.5397 101.343C90.2694 109.812 83.5081 122.52 82.1679 124.469C80.8278 126.417 72.9192 139.78 75.1138 128.264C79.3209 122.446 87.2139 108.42 85.1293 98.8544C83.0169 104.489 79.0393 112.819 74.5566 116.007C69.2245 121.051 62.8523 126.16 61.6338 129.724C60.1054 128.67 58.2872 123.375 63.2413 110.629C65.1353 107.312 69.2168 100.502 70.3908 99.7962C71.8582 98.9133 76.5921 87.0046 74.0878 75.0079C72.1875 82.4182 66.8609 98.0027 60.7567 101.059C53.1265 104.878 42.2917 123.149 41.9368 127.447C41.5819 131.746 39.4293 144.26 38.9149 147.709C38.4587 149.275 37.0758 152.492 35.1937 152.828C33.3116 153.164 34.6651 148.269 35.5771 145.779C36.7248 141.709 38.5493 132.759 36.6654 129.526C34.3104 125.484 33.9754 123.891 33.5391 122.339C33.1027 120.787 32.1207 137.607 31.735 140.193C31.8693 141.425 30.8997 145.026 25.9467 149.576C19.7554 155.263 12.1411 167.293 12.675 174.589C13.2089 181.885 15.9854 185.659 17.1005 185.22Z" stroke="#F71B1B" stroke-width="1.08967" stroke-linecap="round"/>
<path d="M25.0987 182.066L190.134 116.999C189.387 109.212 189.849 90.7577 197.675 79.2329C207.456 64.8269 214.753 50.589 215.093 36.1521C212.67 43.87 208.034 65.0453 198.8 71.6886C189.565 78.3319 189.73 71.5112 190.967 67.2703C191.911 65.2076 193.932 60.8267 194.466 59.8046C195.133 58.5271 188.296 65.9905 185.17 73.5119C182.045 81.0333 180.036 86.1872 178.211 86.9066C176.386 87.626 173.355 90.0384 173.803 82.5584C175.569 78.8189 179.052 70.2638 178.854 65.9596C178.607 60.5794 179.554 56.1485 171.613 55.0192C165.259 54.1157 166.916 45.7803 168.538 41.7256C167.059 43.9655 164.084 49.203 164.014 52.2332C163.926 56.0211 166.21 62.794 166.753 63.9344C167.931 66.4117 171.425 72.9125 170.339 77.6349C169.253 82.3572 165.002 93.7173 156.684 101.379C148.366 109.04 139.455 107.292 136.039 105.461C135.114 105.048 134.557 101.318 139.724 89.705C136.65 93.0474 130.351 100.988 129.755 106.011C129.009 112.29 126.93 119.196 120.904 124.412C116.084 128.585 109.835 130.602 107.314 131.089C106.071 130.463 102.656 127.515 109.194 121.043C111.717 117.985 117.171 110.29 118.801 103.966C120.839 96.0624 124.081 87.7576 122.149 81.5201C120.603 76.5301 117.155 75.3401 115.624 75.3689C117.414 78.0781 119.315 82.6048 118.651 87.058C117.446 95.1411 111.979 102.368 107.703 109.431C104.35 113.998 99.5092 123.028 95.7935 121.328C94.8988 120.503 93.0998 119.791 94.3102 115.421C93.1271 118.827 90.3989 121.775 89.1128 125.179C87.5365 129.351 82.7738 138.126 76.3334 139.854C73.1447 140.976 67.7289 140.995 71.5753 132.093C71.8271 130.405 73.8739 124.614 80.0464 114.958C75.7302 119.162 70.893 124.653 68.4996 129.046C67.3423 134.033 64.2386 143.669 61.0818 142.317C57.1357 140.627 55.6833 135.012 55.5671 133.232C55.451 131.451 56.9274 117.074 58.2836 115.018C59.6398 112.961 62.1495 108.929 63.8593 104.501C63.2115 105.433 60.3455 108.869 54.0643 115.159C51.8285 124.393 45.8255 135.855 44.8128 142.645C44.3042 148.188 42.5951 160.074 39.8278 163.275C36.3687 167.276 34.8888 170.801 29.4877 167.352C26.9253 162.783 33.4639 152.719 34.27 146.801C32.1448 150.175 27.5904 155.521 25.5307 158.058C22.2192 162.136 20.6733 165.248 20.7894 173.215C20.8404 176.712 21.7737 183.377 25.0987 182.066Z" fill="#EACE4F"/>
<path d="M94.3102 115.421C93.0998 119.791 94.8988 120.503 95.7935 121.328C99.5092 123.028 104.35 113.998 107.703 109.431C111.979 102.368 117.446 95.1411 118.651 87.058C119.315 82.6048 117.414 78.0781 115.624 75.3689C117.155 75.3401 120.603 76.5301 122.149 81.5201C124.081 87.7576 120.839 96.0624 118.801 103.966C117.171 110.29 111.717 117.985 109.194 121.043C102.656 127.515 106.071 130.463 107.314 131.089C109.835 130.602 116.084 128.585 120.904 124.412C126.93 119.196 129.009 112.29 129.755 106.011C130.351 100.988 136.65 93.0474 139.724 89.705C134.557 101.318 135.114 105.048 136.039 105.461C139.455 107.292 148.366 109.04 156.684 101.379C165.002 93.7173 169.253 82.3572 170.339 77.6349C171.425 72.9125 167.931 66.4117 166.753 63.9344C166.21 62.794 163.926 56.0211 164.014 52.2332C164.084 49.203 167.059 43.9655 168.538 41.7256C166.916 45.7803 165.259 54.1157 171.613 55.0192C179.554 56.1485 178.607 60.5794 178.854 65.9596C179.052 70.2638 175.569 78.8189 173.803 82.5584C173.355 90.0384 176.386 87.626 178.211 86.9066C180.036 86.1872 182.045 81.0333 185.17 73.5119C188.296 65.9905 195.133 58.5271 194.466 59.8046C193.932 60.8267 191.911 65.2076 190.967 67.2703C189.73 71.5112 189.565 78.3319 198.8 71.6886C208.034 65.0453 212.67 43.87 215.093 36.1521C214.753 50.589 207.456 64.8269 197.675 79.2329C189.849 90.7577 189.387 109.212 190.134 116.999L25.0987 182.066C21.7737 183.377 20.8404 176.712 20.7894 173.215C20.6733 165.248 22.2192 162.136 25.5307 158.058C27.5904 155.521 32.1448 150.175 34.27 146.801C33.4639 152.719 26.9253 162.783 29.4877 167.352C34.8888 170.801 36.3687 167.276 39.8278 163.275C42.5951 160.074 44.3042 148.188 44.8128 142.645C45.8255 135.855 51.8285 124.393 54.0643 115.159C60.3455 108.869 63.2115 105.433 63.8593 104.501C62.1495 108.929 59.6398 112.961 58.2836 115.018C56.9274 117.074 55.451 131.451 55.5671 133.232C55.6833 135.012 57.1357 140.627 61.0818 142.317C64.2386 143.669 67.3423 134.033 68.4996 129.046C70.893 124.653 75.7302 119.162 80.0464 114.958C73.8739 124.614 71.8271 130.405 71.5753 132.093C67.7289 140.995 73.1447 140.976 76.3334 139.854C82.7738 138.126 87.5365 129.351 89.1128 125.179C90.3989 121.775 93.1271 118.827 94.3102 115.421ZM94.3102 115.421C94.4114 115.129 94.9239 112.883 94.9939 112.615C94.8973 112.902 94.3858 115.148 94.3102 115.421Z" stroke="#EACE4F" stroke-width="1.08967" stroke-linecap="round"/>
<path d="M30.5469 169.005C30.1211 167.655 28.925 166.942 26.9586 166.866C26.3622 166.834 25.4806 167.002 24.3139 167.37L23.6639 167.575C23.5639 167.606 23.417 167.634 23.2232 167.659C23.0293 167.683 22.899 167.706 22.8324 167.727C22.6157 167.796 22.2613 168.008 21.7691 168.365L21.758 170.073C21.5734 171.23 21.3777 172.731 21.1709 174.573C21.1488 174.91 21.1051 175.904 21.0396 177.556L23.1817 176.853C25.3607 176.092 27.1222 175.17 28.4663 174.086C30.4264 172.515 31.1199 170.822 30.5469 169.005ZM14.5141 158.696C14.5704 158.294 14.7137 157.296 14.9441 155.702C13.2572 156.454 11.6676 157.166 10.1754 157.838L10.01 149.644C13.3926 148.284 17.4475 146.703 22.1749 144.9C24.989 143.83 29.5729 142.182 35.9266 139.958L35.921 147.959L33.021 148.874C27.6376 150.572 23.4603 152.026 20.4892 153.238L22.348 153.642C22.2715 154.27 22.1527 155.288 21.9917 156.695C21.9327 157.263 21.8733 157.859 21.8135 158.483C21.795 158.599 21.7583 159.325 21.7035 160.662C23.0658 160.159 24.3737 159.774 25.6272 159.507C26.9903 159.297 28.5822 159.289 30.403 159.485C34.3603 159.831 36.8962 161.771 38.0106 165.304C38.1736 165.821 38.301 166.486 38.3928 167.3C39.1177 173.375 36.6763 178.039 31.0687 181.292C30.8293 181.404 28.7778 182.308 24.9145 184.003L19.1944 186.521C17.1066 187.455 15.1521 188.346 13.3309 189.195C13.0783 184.327 13.006 179.247 13.114 173.953C13.1626 170.621 13.5207 166.266 14.1884 160.888C14.2702 160.276 14.3788 159.545 14.5141 158.696ZM50.5309 174.934L41.7891 180.247C41.6065 175.834 41.5445 171.309 41.6032 166.672C41.6658 163.152 42.024 158.797 42.6775 153.607C42.9467 151.323 43.4223 148.415 44.1042 144.883C44.4084 142.827 44.8702 140.427 45.4895 137.685L54.0477 134.491L52.2841 143.54C51.7356 146.682 51.2641 150.532 50.8695 155.091L50.7982 155.911C54.6993 146.783 58.7764 138.735 63.0293 131.768L71.6269 128.699C70.2997 131.463 69.0676 134.5 67.9306 137.808C67.8967 139.212 67.8484 141.847 67.7856 145.715C67.6331 147.962 67.589 152.209 67.6534 158.456C67.6704 160.137 67.7292 163.49 67.83 168.516L59.0804 173.804C59.0366 173.433 59.0426 172.726 59.0982 171.682C59.1486 170.622 59.1893 168.456 59.2203 165.184C59.6213 157.508 59.8975 152.748 60.049 150.904C59.6796 151.534 59.0296 152.93 58.0991 155.093C54.8318 162.628 52.4799 168.593 51.0433 172.985C50.758 173.882 50.5871 174.531 50.5309 174.934ZM92.1975 149.561C91.7717 148.211 90.5756 147.498 88.6092 147.421C88.0128 147.39 87.1312 147.558 85.9645 147.926L85.3145 148.131C85.2145 148.162 85.0676 148.19 84.8737 148.215C84.6799 148.239 84.5496 148.262 84.483 148.283C84.2663 148.351 83.9119 148.564 83.4197 148.921L83.4086 150.628C83.2239 151.786 83.0283 153.286 82.8215 155.129C82.7994 155.466 82.7556 156.46 82.6901 158.112L84.8323 157.409C87.0113 156.648 88.7728 155.726 90.1169 154.642C92.077 153.071 92.7705 151.377 92.1975 149.561ZM76.1647 139.252C76.221 138.849 76.3643 137.851 76.5947 136.258C74.9078 137.01 73.3182 137.722 71.826 138.394L71.6606 130.2C75.0432 128.84 79.0981 127.259 83.8255 125.456C86.6396 124.385 91.2235 122.738 97.5771 120.514L97.5716 128.515L94.6716 129.429C89.2882 131.127 85.1109 132.582 82.1398 133.794L83.9986 134.197C83.9221 134.826 83.8033 135.844 83.6423 137.251C83.5833 137.819 83.5239 138.415 83.464 139.039C83.4456 139.155 83.4089 139.881 83.3541 141.218C84.7164 140.715 86.0243 140.33 87.2778 140.063C88.6408 139.852 90.2328 139.845 92.0536 140.041C96.0109 140.387 98.5468 142.326 99.6612 145.86C99.8242 146.376 99.9515 147.042 100.043 147.856C100.768 153.931 98.3269 158.595 92.7193 161.848C92.4798 161.96 90.4284 162.863 86.5651 164.558L80.845 167.077C78.7572 168.01 76.8027 168.902 74.9815 169.751C74.7289 164.883 74.6566 159.802 74.7646 154.509C74.8132 151.177 75.1713 146.822 75.839 141.444C75.9208 140.832 76.0293 140.101 76.1647 139.252ZM112.181 155.49L103.44 160.803C103.257 156.389 103.195 151.864 103.254 147.228C103.316 143.708 103.675 139.353 104.328 134.163C104.597 131.879 105.073 128.971 105.755 125.439C106.059 123.382 106.521 120.983 107.14 118.24L115.698 115.046L113.935 124.096C113.386 127.238 112.915 131.088 112.52 135.647L112.449 136.467C116.35 127.338 120.427 119.291 124.68 112.324L133.277 109.255C131.95 112.019 130.718 115.055 129.581 118.364C129.547 119.768 129.499 122.403 129.436 126.271C129.284 128.518 129.24 132.765 129.304 139.012C129.321 140.692 129.38 144.046 129.481 149.072L120.731 154.36C120.687 153.989 120.693 153.282 120.749 152.238C120.799 151.177 120.84 149.011 120.871 145.74C121.272 138.064 121.548 133.304 121.7 131.46C121.33 132.09 120.68 133.486 119.75 135.648C116.482 143.184 114.13 149.148 112.694 153.541C112.409 154.438 112.238 155.087 112.181 155.49ZM135.076 136.085C135.085 136.116 136.269 135.76 138.625 135.017C140.334 134.409 141.726 133.676 142.803 132.819C144.329 131.577 144.869 130.25 144.423 128.836C144.086 127.768 143.141 127.21 141.59 127.164C141.127 127.12 140.432 127.245 139.505 127.537L138.238 128.04L137.588 122.856L139.089 122.357C140.833 121.754 142.239 121.035 143.305 120.198C144.82 118.977 145.352 117.652 144.901 116.222C144.569 115.17 143.633 114.61 142.091 114.543C141.633 114.515 140.949 114.645 140.038 114.932L139.519 115.096C138.712 115.385 137.687 115.941 136.444 116.765L131.887 111.517C133.235 110.971 134.522 110.505 135.747 110.119C136.297 109.945 136.927 109.781 137.639 109.626C139.647 109.148 140.792 108.89 141.074 108.853C142.15 108.704 143.4 108.698 144.826 108.836C147.921 109.121 149.907 110.653 150.784 113.434C150.908 113.827 151.009 114.339 151.087 114.971C151.431 117.868 150.472 120.658 148.209 123.341C149.434 124.543 150.136 125.427 150.315 125.993C150.448 126.417 150.557 126.953 150.64 127.6C151.168 132.288 149.231 135.921 144.829 138.502C144.645 138.577 143.034 139.275 139.996 140.596L135.525 142.602C134.57 143.024 133.646 143.437 132.754 143.839L132.886 136.62L135.076 136.085ZM165.115 107.282C163.605 108.518 163.073 109.843 163.519 111.257C163.851 112.31 164.788 112.869 166.329 112.936C166.807 112.975 167.502 112.851 168.413 112.564L168.908 112.408C169.715 112.118 170.748 111.56 172.007 110.731L170.393 110.462C170.597 109.465 170.757 108.275 170.873 106.891C170.88 106.802 170.919 106.021 170.99 104.548L169.308 105.13C167.579 105.728 166.181 106.445 165.115 107.282ZM158.934 122.679C159.959 121.112 161.077 119.697 162.285 118.435C159.918 117.886 158.363 116.433 157.62 114.076C157.496 113.684 157.4 113.161 157.333 112.509C156.916 108.996 158.728 105.816 162.77 102.969C164.936 101.457 167.478 100.232 170.395 99.2946L177.82 96.8752C177.275 99.586 176.68 103.531 176.033 108.709C176.75 108.19 177.282 107.823 177.63 107.61L181.185 113.873C179.19 114.83 177.348 115.645 175.66 116.315L175.637 118.214L175.638 120.027C175.661 121.523 175.794 124.383 176.038 128.607L169.133 132.754C169.006 129.339 168.967 125.793 169.016 122.116L169.075 118.522C165.266 122.383 162.539 126.059 160.893 129.549C159.917 131.601 159.231 133.562 158.836 135.431L158.081 135.747C156.658 136.386 154.991 137.067 153.077 137.792C153.625 132.903 155.578 127.866 158.934 122.679ZM204.897 88.3353C204.149 92.0431 203.494 96.4037 202.934 101.417C202.743 103.222 202.678 106.576 202.739 111.48C202.744 112.808 202.787 115.437 202.869 119.367L196.002 123.554C195.962 120.25 195.992 116.924 196.094 113.576C196.119 113.274 196.166 112.326 196.233 110.733L188.904 114.029L188.906 115.843C188.944 117.333 189.078 120.193 189.306 124.422L182.448 128.554C182.305 125.145 182.25 121.604 182.284 117.931C182.33 115.118 182.607 111.697 183.115 107.668C183.524 104.585 184.286 100.372 185.399 95.0289L186.084 94.7352C187.522 94.0917 189.197 93.4077 191.111 92.6833C190.532 95.6124 189.877 99.9729 189.148 105.765C189.14 105.906 189.099 106.515 189.024 107.592L195.536 104.579L196.698 105.716C197.115 101.508 197.929 96.5009 199.138 90.6957L199.94 90.3649C201.347 89.7313 202.999 89.0547 204.897 88.3353ZM210.735 117.535L219.447 113.523C219.465 115.148 219.592 117.847 219.829 121.621L219.57 121.757C217.067 123.115 214.228 124.807 211.056 126.834C210.855 123.581 210.748 120.481 210.735 117.535ZM218.111 81.3992C218.689 84.9736 219.077 91.3472 219.277 100.52L219.264 108.935L210.709 112.485L210.556 95.3542C210.336 92.2167 210.173 88.7955 210.067 85.0906C212.051 84.1169 214.732 82.8864 218.111 81.3992Z" fill="white"/>
</svg>
