<svg width="428" height="365" viewBox="0 0 428 365" fill="none" xmlns="http://www.w3.org/2000/svg">
<path d="M370.701 224.062L27.3347 344.309C25.2364 345.044 20.361 337.849 19.895 324.288C19.429 310.727 34.405 288.977 46.2883 278.88C55.795 270.803 57.8506 264.198 57.69 261.905C58.5906 257.138 61.6176 226.033 62.315 228.942C63.0123 231.851 63.519 234.826 67.5938 242.487C70.8536 248.615 66.8298 265.072 64.4104 272.534C62.5414 277.083 59.6815 286.059 63.194 285.571C66.7065 285.083 69.5005 279.221 70.4584 276.351C71.6593 269.995 76.5469 246.955 77.5132 239.013C78.4795 231.071 99.8725 197.985 114.289 191.453C125.822 186.227 136.813 157.724 140.867 144.125C144.648 166.54 135.019 188.273 132.236 189.804C130.009 191.029 121.956 203.357 118.207 209.368C108.11 232.638 111.1 242.582 113.858 244.646C116.372 238.127 128.549 229.115 138.794 220.149C147.331 214.563 155.301 199.407 159.621 189.116C162.798 206.995 147.162 232.426 138.947 242.907C134.053 264.095 149.67 239.894 152.294 236.378C154.918 232.863 168.361 209.794 178.737 194.476C187.038 182.222 197.163 179.925 201.187 180.309C191.223 188.546 186.789 195.861 185.817 198.488C182.937 216.559 201.175 199.23 203.079 197.636C204.984 196.042 220.119 164.962 204.79 161.243C189.46 157.523 193.316 145.602 192.084 142.695C191.098 140.37 198.023 114.403 201.609 101.71C201.638 106.584 201.657 118.237 201.5 125.859C201.303 135.386 207.154 137.417 212.845 137.464C218.537 137.511 224.028 134.846 236.89 143.139C247.18 149.773 238.745 171.978 236.606 183.298C234.467 194.619 224 203.44 214.919 219.825C203.567 240.307 219.632 224.11 222.293 220.396C224.954 216.682 232.516 204.946 243.608 186.781C252.482 172.249 269.425 162.965 276.787 160.139C269.652 164.715 264.285 175.398 262.493 180.168C257.549 209.162 275.759 194.81 290.5 182.785C302.293 173.166 302.9 156.125 301.73 148.808C298.119 139.006 291.164 117.048 292.232 107.623C293.568 95.842 306.004 68.6748 318.766 58.6416C328.976 50.6151 344.168 43.9345 350.489 41.5976C310.407 71.7693 325.706 88.8528 337.442 91.7903C349.179 94.7277 349.519 93.8665 351.999 104.311C353.983 112.667 345.169 132.606 340.513 141.531C351.654 137.63 358.908 125.569 361.143 120.026C364.452 111.82 365.805 101.64 366.247 93.0161C380.629 99.107 371.108 122.286 364.549 133.114C395.095 118.522 400.064 74.311 400.43 58.2331C400.721 45.4639 412.618 27.9476 418.658 20.619C418.702 20.5643 418.746 20.5115 418.79 20.4604C418.746 20.5127 418.703 20.5656 418.658 20.619C414.545 25.7872 412.481 46.6972 411.96 56.6063C417.162 102.15 384.473 152.722 378.135 162.527L378.018 162.708C373.185 170.187 371.126 206.727 370.701 224.062Z" fill="#F71B1B" stroke="#F71B1B" stroke-width="2.02118" stroke-linecap="round"/>
<path d="M42.383 339.042L352.938 230.285C352.113 215.798 354.294 181.627 369.625 160.827C388.788 134.828 403.334 108.962 405 82.2285C399.955 96.3595 389.844 135.274 372.252 146.925C354.659 158.576 355.454 145.945 358.051 138.174C359.948 134.418 364.008 126.444 365.071 124.588C366.4 122.267 353.191 135.61 346.859 149.326C340.526 163.043 336.433 172.451 332.999 173.654C329.565 174.856 323.774 179.11 325.14 165.278C328.682 158.474 335.752 142.867 335.694 134.875C335.623 124.886 337.696 116.741 323.057 114.078C311.347 111.948 315.015 96.6171 318.313 89.2182C315.411 93.2637 309.52 102.758 309.173 108.369C308.738 115.383 312.487 128.101 313.41 130.253C315.416 134.929 321.425 147.229 319.074 155.904C316.722 164.579 308.027 185.329 292.061 198.932C276.095 212.536 259.703 208.657 253.503 205.017C251.819 204.185 251.055 197.232 261.464 176.079C255.526 182.053 243.282 196.319 241.816 205.586C239.984 217.17 235.634 229.821 224.092 239.056C214.858 246.444 203.132 249.735 198.424 250.456C196.166 249.207 190.048 243.499 202.629 231.971C207.525 226.485 218.186 212.613 221.661 201.01C226.004 186.507 232.61 171.347 229.476 159.647C226.969 150.288 220.664 147.835 217.824 147.778C220.948 152.928 224.147 161.454 222.596 169.66C219.782 184.556 209.131 197.559 200.698 210.342C194.156 218.567 184.536 234.956 177.771 231.538C176.172 229.946 172.889 228.496 175.446 220.483C173.009 226.711 167.741 231.981 165.113 238.197C161.892 245.816 152.434 261.74 140.373 264.48C134.383 266.33 124.343 265.976 132.111 249.754C132.699 246.643 136.908 236.056 149.042 218.602C140.74 226.084 131.381 235.915 126.629 243.885C124.127 253.045 117.683 270.683 111.928 267.95C104.736 264.534 102.447 254.023 102.359 250.715C102.272 247.407 106.04 220.865 108.701 217.151C111.362 213.437 116.303 206.143 119.79 198.06C118.522 199.74 112.964 205.903 100.87 217.111C96.064 234.064 84.1151 254.878 81.751 267.39C80.4105 277.628 76.3899 299.535 71.0311 305.27C64.3327 312.438 61.3369 318.865 51.5737 312.084C47.1521 303.432 59.9933 285.248 61.9121 274.338C57.731 280.439 48.9059 290.021 44.9065 294.574C38.4759 301.895 35.3874 307.552 35.0309 322.328C34.8746 328.812 36.1261 341.233 42.383 339.042Z" fill="#EACE4F"/>
<path d="M175.446 220.483C172.889 228.496 176.172 229.946 177.771 231.538C184.536 234.956 194.156 218.567 200.698 210.342C209.131 197.559 219.782 184.556 222.596 169.66C224.147 161.454 220.948 152.928 217.824 147.778C220.664 147.835 226.969 150.288 229.476 159.647C232.61 171.347 226.004 186.507 221.661 201.01C218.186 212.613 207.525 226.485 202.629 231.971C190.048 243.499 196.166 249.207 198.424 250.456C203.132 249.735 214.858 246.444 224.092 239.056C235.634 229.821 239.984 217.17 241.816 205.586C243.282 196.319 255.526 182.053 261.464 176.079C251.055 197.232 251.819 204.185 253.503 205.017C259.703 208.657 276.095 212.536 292.061 198.932C308.027 185.329 316.722 164.579 319.074 155.904C321.425 147.229 315.416 134.929 313.41 130.253C312.487 128.101 308.738 115.383 309.173 108.369C309.52 102.758 315.411 93.2637 318.313 89.2182C315.015 96.6171 311.347 111.948 323.057 114.078C337.696 116.741 335.623 124.886 335.695 134.875C335.752 142.867 328.682 158.474 325.14 165.278C323.774 179.11 329.565 174.856 332.999 173.654C336.433 172.451 340.526 163.043 346.859 149.326C353.191 135.61 366.4 122.267 365.071 124.587C364.008 126.444 359.948 134.418 358.051 138.174C355.454 145.945 354.659 158.576 372.252 146.925C389.844 135.274 399.955 96.3595 405 82.2285C403.334 108.962 388.788 134.828 369.625 160.827C354.294 181.627 352.113 215.798 352.938 230.284L42.383 339.042C36.1261 341.233 34.8746 328.812 35.0309 322.328C35.3874 307.552 38.4759 301.895 44.9065 294.574C48.9059 290.021 57.731 280.439 61.9121 274.338C59.9933 285.248 47.1521 303.432 51.5737 312.084C61.3369 318.865 64.3327 312.438 71.0311 305.27C76.3899 299.535 80.4105 277.628 81.751 267.39C84.1151 254.878 96.064 234.064 100.87 217.111C112.964 205.903 118.522 199.74 119.79 198.06C116.303 206.143 111.362 213.437 108.701 217.151C106.04 220.865 102.272 247.407 102.359 250.715C102.447 254.023 104.736 264.534 111.928 267.95C117.683 270.683 124.127 253.045 126.629 243.885C131.381 235.915 140.74 226.084 149.042 218.602C136.908 236.056 132.699 246.643 132.111 249.754C124.343 265.976 134.383 266.33 140.373 264.48C152.434 261.74 161.892 245.816 165.113 238.197C167.741 231.981 173.009 226.711 175.446 220.483ZM175.446 220.483C175.654 219.95 176.766 215.823 176.915 215.332C176.715 215.856 175.606 219.982 175.446 220.483Z" stroke="#EACE4F" stroke-width="2.02118" stroke-linecap="round"/>
<path d="M53.5991 315.865C52.9068 313.332 50.7411 311.924 47.1018 311.642C45.9986 311.54 44.3527 311.789 42.1639 312.387L40.9444 312.72C40.7568 312.772 40.4825 312.813 40.1214 312.844C39.7604 312.876 39.5173 312.909 39.3922 312.943C38.9857 313.054 38.3136 313.423 37.3757 314.049L37.2325 317.213C36.8073 319.346 36.3369 322.112 35.8215 325.513C35.7564 326.135 35.604 327.975 35.364 331.031L39.3849 329.882C43.4781 328.629 46.8093 327.046 49.3783 325.134C53.1238 322.363 54.5308 319.273 53.5991 315.865ZM24.6227 295.607C24.7559 294.865 25.0932 293.026 25.6345 290.089C22.4539 291.361 19.4566 292.567 16.6426 293.706L16.9239 278.507C23.291 276.229 30.9202 273.589 39.8115 270.587C45.1042 268.804 53.7185 266.08 65.6543 262.414L65.07 277.242L59.6293 278.73C49.5296 281.49 41.6827 283.887 36.0888 285.92L39.5052 286.801C39.3182 287.961 39.0251 289.839 38.6257 292.435C38.4756 293.484 38.3227 294.585 38.167 295.736C38.1245 295.949 38.0044 297.293 37.8068 299.766C40.3679 298.932 42.8197 298.312 45.1621 297.907C47.7036 297.616 50.6547 297.716 54.0155 298.209C61.3255 299.135 65.8864 302.912 67.6984 309.541C67.9634 310.51 68.1517 311.752 68.2635 313.268C69.1712 324.58 64.3116 333.049 53.6847 338.676C53.2328 338.866 49.3657 340.394 42.0835 343.258L31.3008 347.516C27.3641 349.096 23.6776 350.608 20.2412 352.051C20.1223 343.011 20.3528 333.589 20.9329 323.786C21.262 317.613 22.2383 309.567 23.8616 299.646C24.0572 298.518 24.3108 297.171 24.6227 295.607ZM90.2132 328.288L73.6294 337.509C73.6076 329.315 73.8175 320.924 74.2589 312.335C74.6276 305.815 75.6039 297.769 77.1876 288.195C77.8505 283.982 78.9406 278.626 80.4579 272.129C81.1693 268.339 82.1974 263.924 83.5421 258.886L99.6335 253.58L95.7154 270.227C94.4734 276.01 93.3232 283.113 92.2647 291.535L92.0737 293.049C99.9593 276.409 108.093 261.786 116.476 249.178L132.631 244.107C129.973 249.135 127.472 254.674 125.127 260.726C124.963 263.324 124.685 268.206 124.291 275.371C123.847 279.525 123.46 287.393 123.132 298.976C123.042 302.092 122.911 308.311 122.737 317.633L106.14 326.807C106.086 326.116 106.148 324.806 106.326 322.875C106.495 320.913 106.726 316.902 107.018 310.84C108.312 296.641 109.166 287.839 109.579 284.433C108.849 285.573 107.544 288.114 105.664 292.056C99.0678 305.788 94.2806 316.674 91.3029 324.713C90.7096 326.354 90.3464 327.546 90.2132 328.288ZM169.261 284.249C168.569 281.717 166.403 280.309 162.764 280.027C161.661 279.925 160.015 280.173 157.826 280.772L156.607 281.105C156.419 281.156 156.145 281.198 155.784 281.229C155.423 281.261 155.18 281.293 155.055 281.328C154.648 281.439 153.976 281.807 153.038 282.433L152.895 285.598C152.47 287.73 151.999 290.497 151.484 293.897C151.419 294.52 151.266 296.36 151.026 299.416L155.047 298.266C159.14 297.013 162.472 295.431 165.041 293.519C168.786 290.747 170.193 287.658 169.261 284.249ZM140.285 263.992C140.418 263.25 140.755 261.41 141.297 258.473C138.116 259.746 135.119 260.952 132.305 262.09L132.586 246.891C138.953 244.613 146.582 241.973 155.474 238.972C160.767 237.189 169.381 234.465 181.317 230.799L180.732 245.627L175.292 247.114C165.192 249.875 157.345 252.272 151.751 254.305L155.167 255.186C154.981 256.346 154.687 258.224 154.288 260.82C154.138 261.869 153.985 262.969 153.829 264.121C153.787 264.334 153.667 265.678 153.469 268.151C156.03 267.317 158.482 266.697 160.824 266.292C163.366 266 166.317 266.101 169.678 266.594C176.988 267.519 181.549 271.296 183.361 277.925C183.626 278.895 183.814 280.137 183.926 281.652C184.833 292.964 179.974 301.434 169.347 307.06C168.895 307.251 165.028 308.779 157.746 311.643L146.963 315.901C143.026 317.481 139.34 318.993 135.903 320.436C135.785 311.395 136.015 301.973 136.595 292.17C136.924 285.998 137.901 277.951 139.524 268.031C139.719 266.902 139.973 265.556 140.285 263.992ZM205.875 296.672L189.292 305.893C189.27 297.7 189.48 289.308 189.921 280.719C190.29 274.2 191.266 266.154 192.85 256.58C193.513 252.366 194.603 247.011 196.12 240.514C196.832 236.723 197.86 232.309 199.204 227.27L215.296 221.965L211.378 238.611C210.136 244.395 208.986 251.497 207.927 259.919L207.736 261.433C215.622 244.794 223.756 230.171 232.138 217.563L248.294 212.491C245.636 217.519 243.134 223.059 240.789 229.11C240.626 231.709 240.347 236.591 239.953 243.755C239.509 247.909 239.123 255.777 238.794 267.36C238.705 270.476 238.573 276.695 238.399 286.018L221.803 295.192C221.748 294.501 221.81 293.19 221.988 291.26C222.158 289.298 222.388 285.286 222.681 279.225C223.975 265.026 224.828 256.223 225.241 252.817C224.511 253.958 223.206 256.499 221.327 260.44C214.73 274.173 209.943 285.059 206.965 293.098C206.372 294.739 206.009 295.93 205.875 296.672ZM249.701 262.349C249.717 262.408 251.936 261.833 256.357 260.625C259.567 259.621 262.201 258.362 264.258 256.85C267.175 254.659 268.271 252.237 267.546 249.584C266.998 247.58 265.288 246.479 262.415 246.283C261.56 246.168 260.263 246.348 258.524 246.824L256.141 247.665L255.307 238.01L258.125 237.192C261.401 236.201 264.058 234.968 266.094 233.493C268.99 231.34 270.071 228.922 269.338 226.24C268.798 224.265 267.102 223.16 264.251 222.926C263.404 222.841 262.126 223.032 260.416 223.499L259.443 223.765C257.927 224.243 255.987 225.201 253.624 226.639L245.555 216.585C248.092 215.67 250.51 214.898 252.809 214.27C253.841 213.988 255.021 213.729 256.35 213.492C260.107 212.75 262.248 212.355 262.773 212.306C264.778 212.107 267.096 212.186 269.728 212.544C275.445 213.293 279.016 216.277 280.442 221.494C280.643 222.231 280.794 223.187 280.894 224.364C281.323 229.758 279.344 234.861 274.957 239.671C277.143 241.988 278.38 243.677 278.67 244.738C278.888 245.534 279.051 246.534 279.158 247.74C279.801 256.466 275.95 263.062 267.605 267.529C267.259 267.655 264.223 268.833 258.498 271.063L250.066 274.461C248.265 275.175 246.524 275.873 244.841 276.554L245.605 263.184L249.701 262.349ZM307.445 211.119C304.558 213.302 303.476 215.72 304.202 218.373C304.741 220.348 306.437 221.452 309.289 221.686C310.173 221.793 311.47 221.613 313.179 221.145L314.108 220.892C315.624 220.414 317.579 219.452 319.971 218.006L317 217.393C317.449 215.559 317.831 213.364 318.146 210.808C318.165 210.644 318.293 209.2 318.53 206.474L315.371 207.432C312.123 208.415 309.481 209.644 307.445 211.119ZM294.883 239.213C296.897 236.382 299.069 233.84 301.399 231.588C297.052 230.4 294.274 227.596 293.065 223.175C292.864 222.438 292.724 221.463 292.645 220.249C292.125 213.707 295.712 207.944 303.409 202.957C307.532 200.31 312.33 198.222 317.804 196.694L331.739 192.743C330.536 197.728 329.149 204.997 327.579 214.549C328.945 213.637 329.958 212.996 330.617 212.625L336.758 224.489C332.991 226.12 329.519 227.497 326.341 228.619L326.162 232.136L326.035 235.497C325.97 238.271 326.012 243.581 326.161 251.428L313.064 258.619C313.074 252.281 313.257 245.706 313.612 238.893L313.978 232.236C306.641 239.119 301.323 245.736 298.022 252.087C296.065 255.821 294.654 259.406 293.787 262.843L292.365 263.374C289.683 264.456 286.542 265.599 282.944 266.804C284.311 257.783 288.291 248.586 294.883 239.213ZM382.538 178.857C380.886 185.676 379.36 193.711 377.961 202.963C377.478 206.294 377.117 212.506 376.879 221.599C376.792 224.062 376.683 228.939 376.553 236.228L363.525 243.495C363.688 237.369 363.983 231.206 364.411 225.007C364.48 224.45 364.635 222.697 364.874 219.749L351.053 225.333L350.926 228.693C350.89 231.459 350.932 236.769 351.052 244.624L338.044 251.791C338.024 245.461 338.177 238.894 338.503 232.089C338.789 226.879 339.548 220.558 340.779 213.126C341.76 207.441 343.473 199.688 345.92 189.864L347.21 189.369C349.921 188.279 353.076 187.132 356.674 185.927C355.391 191.314 353.866 199.349 352.098 210.032C352.074 210.292 351.954 211.418 351.738 213.409L364.023 208.293L366.095 210.483C367.171 202.713 369.037 193.492 371.695 182.819L373.206 182.263C375.859 181.19 378.969 180.054 382.538 178.857ZM391.263 233.396L407.699 226.585C407.616 229.598 407.658 234.611 407.827 241.622L407.337 241.856C402.599 244.193 397.217 247.126 391.192 250.655C391.052 244.611 391.076 238.858 391.263 233.396ZM407.529 166.949C408.343 173.616 408.605 185.457 408.317 202.473L407.69 218.069L391.578 224.035L392.523 192.272C392.341 186.441 392.285 180.089 392.355 173.214C396.101 171.552 401.159 169.463 407.529 166.949Z" fill="white"/>
</svg>
