<svg width="1630" height="370" viewBox="0 0 1630 370" fill="none" xmlns="http://www.w3.org/2000/svg">
<path d="M65.507 317.757C61.1176 319.409 56.1223 321.604 50.5214 324.341C48.5067 325.333 44.946 327.474 39.8392 330.763C38.4673 331.658 35.7523 333.446 31.6941 336.128L22.7563 331.682C26.2027 329.471 29.7192 327.319 33.3056 325.227C33.6228 325.042 34.6374 324.458 36.3492 323.477L41.8832 320.63C44.8279 319.17 48.1814 317.669 51.9437 316.126C47.8513 312.472 44.6216 309.802 42.2546 308.118L42.8591 309.912C42.427 310.108 41.3778 310.622 39.7115 311.454C37.6502 312.407 36.039 313.206 34.8778 313.853L28.0383 317.959L26.1887 319.198C24.6229 320.196 21.7026 322.211 17.4277 325.243L8.57604 320.79C12.0501 318.389 15.7198 315.993 19.5852 313.603C22.5587 311.793 26.3217 309.824 30.8741 307.695C32.7546 306.83 35.0744 305.856 37.8336 304.773C35.9464 303.468 34.3812 302.382 33.1378 301.516L39.7405 297.169C42.5657 299.322 45.8978 301.918 49.7366 304.957C52.0138 306.779 57.2706 311.046 65.507 317.757Z" fill="white"/>
<path d="M89.5312 326.467L87.0883 327.368C87.3155 329.516 87.2608 331.305 86.9243 332.734C86.6813 333.766 86.1837 335.167 85.4315 336.938C83.0793 342.479 79.8565 346.558 75.7631 349.175C71.2436 352.089 66.1758 352.884 60.5598 351.56C55.9758 350.479 52.7677 348.047 50.9357 344.263C49.2659 340.769 48.9825 336.68 50.0855 331.997C50.3239 330.985 50.6358 329.927 51.0213 328.824C52.764 323.914 55.9681 320.093 60.6335 317.359C65.4122 314.59 70.3118 313.797 75.3325 314.981C82.8734 316.759 87.6063 320.588 89.5312 326.467ZM76.9163 335.873C77.2036 335.186 77.3964 334.635 77.4945 334.218C77.9479 332.293 77.7182 330.689 76.8056 329.405L78.5568 328.907C77.857 325.83 75.8997 323.913 72.6849 323.155C69.4304 322.387 66.4739 322.8 63.8155 324.394C61.2796 325.912 59.3757 328.259 58.1038 331.437C57.8024 332.183 57.591 332.814 57.4695 333.329C56.8806 335.83 57.1148 338.127 58.172 340.219C59.2607 342.445 61.0255 343.846 63.4663 344.421C66.3835 345.109 69.1053 344.536 71.6319 342.702C73.8596 341.07 75.6211 338.793 76.9163 335.873Z" fill="white"/>
<path d="M137.712 321.498L135.706 323.159C136.633 325.11 137.174 326.816 137.331 328.275C137.444 329.329 137.439 330.817 137.317 332.737C136.936 338.745 135.248 343.663 132.255 347.491C128.958 351.741 124.441 354.173 118.704 354.789C114.021 355.292 110.188 354.063 107.205 351.102C104.471 348.361 102.847 344.598 102.334 339.813C102.224 338.78 102.167 337.678 102.165 336.51C102.18 331.3 103.936 326.631 107.43 322.503C111.02 318.304 115.379 315.929 120.508 315.378C128.211 314.551 133.946 316.591 137.712 321.498ZM128.931 334.56C128.974 333.817 128.973 333.232 128.927 332.807C128.717 330.84 127.968 329.403 126.681 328.496L128.168 327.444C126.487 324.774 124.005 323.615 120.721 323.968C117.396 324.325 114.744 325.696 112.765 328.082C110.876 330.356 109.859 333.203 109.713 336.622C109.676 337.426 109.686 338.091 109.742 338.618C110.016 341.173 110.999 343.261 112.69 344.884C114.455 346.623 116.585 347.358 119.078 347.09C122.058 346.77 124.436 345.326 126.211 342.757C127.771 340.477 128.678 337.745 128.931 334.56Z" fill="white"/>
<path d="M166.406 343.083L157.529 347.588C157.514 346.441 157.379 345.311 157.121 344.198C156.643 342.132 155.793 340.268 154.571 338.604C153.114 336.556 151.487 335.405 149.692 335.152L149.519 337.389C149.422 339.232 149.3 342.776 149.154 348.022L140.27 352.497C140.423 348.276 140.715 343.886 141.147 339.329C141.479 335.882 142.152 331.687 143.163 326.744C143.931 323.008 145.268 317.885 147.173 311.374L148.076 311.071C149.912 310.415 152.036 309.735 154.447 309.03C153.469 312.584 152.25 317.9 150.791 324.977C150.772 325.169 150.653 325.919 150.432 327.226C154.61 324.207 158.288 319.933 161.466 314.404C162.869 311.966 163.904 309.612 164.572 307.343L165.565 307.019C167.381 306.368 169.485 305.693 171.876 304.992C170.767 310.963 167.879 316.979 163.213 323.041C160.858 326.16 158.18 328.696 155.179 330.647C157.552 331.227 159.827 332.511 162.002 334.497C164.29 336.604 165.698 338.8 166.226 341.084C166.364 341.68 166.424 342.347 166.406 343.083Z" fill="white"/>
<path d="M204.192 302.47L202.561 304.5C203.86 306.226 204.733 307.787 205.18 309.186C205.502 310.196 205.796 311.654 206.061 313.56C206.894 319.522 206.228 324.679 204.064 329.031C201.687 333.857 197.751 337.148 192.255 338.904C187.768 340.337 183.767 339.903 180.25 337.602C177.022 335.466 174.676 332.106 173.214 327.521C172.898 326.531 172.621 325.463 172.385 324.319C171.354 319.212 172.136 314.285 174.731 309.539C177.404 304.704 181.198 301.501 186.111 299.931C193.492 297.573 199.519 298.42 204.192 302.47ZM198.212 317.03C198.106 316.294 197.988 315.722 197.857 315.314C197.256 313.43 196.234 312.172 194.792 311.542L196.037 310.213C193.855 307.935 191.191 307.298 188.044 308.303C184.859 309.321 182.537 311.198 181.077 313.933C179.683 316.54 179.258 319.533 179.801 322.913C179.926 323.707 180.069 324.357 180.23 324.862C181.011 327.31 182.393 329.159 184.376 330.409C186.454 331.757 188.687 332.049 191.076 331.286C193.931 330.374 195.97 328.481 197.193 325.607C198.264 323.061 198.604 320.202 198.212 317.03Z" fill="white"/>
<path d="M234.986 281.825C234.356 286.465 233.893 291.904 233.598 298.142C233.505 300.386 233.691 304.535 234.155 310.587C234.266 312.228 234.527 315.473 234.94 320.32L226.791 326.039C226.48 321.961 226.254 317.85 226.114 313.706C226.122 313.331 226.104 312.157 226.062 310.183L217.271 314.839L217.417 317.078C217.583 318.917 217.974 322.439 218.591 327.645L210.448 333.295C210.002 329.095 209.654 324.725 209.405 320.186C209.238 316.708 209.309 312.459 209.618 307.441C209.879 303.6 210.486 298.336 211.437 291.647L212.259 291.229C213.984 290.32 216 289.342 218.305 288.294C217.822 291.959 217.36 297.397 216.917 304.61C216.919 304.785 216.917 305.54 216.91 306.877L224.713 302.637L226.238 303.948C226.42 298.717 227.027 292.467 228.061 285.2L229.026 284.727C230.713 283.833 232.699 282.865 234.986 281.825Z" fill="white"/>
<path d="M253.349 286.583C253.509 282.701 253.803 278.392 254.232 273.656L255.147 273.152C256.809 272.172 258.759 271.111 260.995 269.967C260.56 274.639 260.338 280.098 260.329 286.342C260.358 288.581 260.743 292.712 261.484 298.737C261.651 300.38 262.061 303.609 262.715 308.424L254.837 314.511C254.339 310.451 253.925 306.355 253.595 302.221C253.57 301.964 253.544 301.374 253.516 300.451C252.784 300.863 252.008 301.25 251.187 301.613C249.266 302.461 247.062 302.643 244.576 302.159C240.972 301.365 238.327 299.056 236.641 295.232C235.925 293.609 235.402 291.767 235.072 289.706C234.691 287.579 234.393 285.236 234.179 282.679L241.468 278.591C241.712 281.67 242.033 284.292 242.43 286.457C242.661 287.737 243.018 288.928 243.504 290.028C245.01 293.442 246.993 294.605 249.455 293.518C251.525 292.604 252.823 290.292 253.349 286.583Z" fill="white"/>
<path d="M277.587 270.654C277.319 272.147 276.973 275.597 276.551 281.001L276.197 285.499L280.771 283.158L282.245 283.458C282.184 281.105 280.896 277.354 278.38 272.207C278.004 271.437 277.74 270.92 277.587 270.654ZM283.255 288.31L276.507 292.055C276.207 295.016 276.353 298.611 276.944 302.839L269.325 309.189C269.098 308.12 268.993 305.073 269.01 300.048L269.002 294.808C269.028 289.847 269.72 283.414 271.076 275.509C271.807 271.156 272.691 267.183 273.726 263.589C275.026 262.907 276.95 261.852 279.497 260.424L281.127 263.27C282.329 265.405 283.432 267.499 284.434 269.55C286.395 273.562 287.929 277.442 289.035 281.191C289.129 281.848 289.894 284.55 291.328 289.296C291.921 291.253 292.349 292.871 292.611 294.15L284.978 300.541C284.616 298.267 284.041 294.19 283.255 288.31Z" fill="white"/>
<path d="M314.394 242.099C314.331 246.781 314.531 252.236 314.995 258.464C315.175 260.703 315.862 264.799 317.057 270.75C317.366 272.366 318.019 275.555 319.017 280.317L311.622 286.982C310.818 282.972 310.096 278.918 309.454 274.822C309.416 274.449 309.257 273.285 308.975 271.331L300.814 277.019L301.231 279.225C301.618 281.03 302.433 284.478 303.677 289.571L296.28 296.168C295.328 292.053 294.453 287.757 293.655 283.281C293.068 279.849 292.623 275.624 292.321 270.605C292.114 266.761 292.078 261.461 292.211 254.706L292.976 254.192C294.578 253.08 296.46 251.864 298.621 250.545C298.586 254.241 298.787 259.695 299.223 266.909C299.246 267.082 299.335 267.832 299.49 269.16L306.721 264.004L308.393 265.121C307.94 259.906 307.785 253.628 307.929 246.289L308.83 245.703C310.395 244.61 312.25 243.409 314.394 242.099Z" fill="white"/>
<path d="M330.706 274.667L323.573 281.612C322.439 277.456 321.412 273.178 320.491 268.779C319.786 265.434 319.179 261.229 318.671 256.163C318.45 253.929 318.271 251.08 318.133 247.616C317.991 245.596 317.911 243.22 317.895 240.488L325.315 235.608L325.581 244.598C325.747 247.667 326.131 251.412 326.734 255.833L326.867 256.605C328.588 247.113 330.712 238.613 333.24 231.106L340.722 226.331C340.065 229.245 339.542 232.387 339.153 235.759C339.432 237.084 339.963 239.585 340.745 243.262C341.071 245.434 341.945 249.471 343.368 255.372C343.728 256.957 344.512 260.113 345.72 264.841L338.571 271.759C338.456 271.401 338.306 270.721 338.121 269.719C337.936 268.717 337.513 266.661 336.851 263.551C335.58 256.214 334.808 251.645 334.533 249.844C334.323 250.535 334.017 251.99 333.616 254.21C332.143 262.068 331.194 268.237 330.769 272.716C330.7 273.608 330.679 274.258 330.706 274.667Z" fill="white"/>
<path d="M360.437 256.892L353.633 264.159C352.309 260.06 351.085 255.834 349.961 251.482C349.102 248.174 348.302 244.001 347.56 238.963C347.236 236.742 346.926 233.904 346.628 230.45C346.392 228.439 346.203 226.069 346.061 223.341L353.248 218.123L353.928 227.092C354.236 230.15 354.793 233.873 355.599 238.261L355.768 239.026C357.048 229.465 358.778 220.876 360.956 213.259L368.209 208.144C367.687 211.085 367.31 214.248 367.077 217.634C367.417 218.945 368.063 221.419 369.014 225.056C369.44 227.21 370.5 231.202 372.194 237.032C372.627 238.598 373.556 241.715 374.981 246.382L368.16 253.623C368.029 253.271 367.847 252.599 367.616 251.606C367.385 250.613 366.867 248.579 366.062 245.504C364.453 238.233 363.471 233.704 363.113 231.918C362.935 232.617 362.697 234.085 362.399 236.322C361.291 244.239 360.628 250.446 360.41 254.94C360.382 255.833 360.391 256.484 360.437 256.892Z" fill="white"/>
<path d="M410.088 184.777L409.322 187.267C411.166 188.39 412.554 189.52 413.485 190.655C414.157 191.474 414.969 192.721 415.919 194.394C418.894 199.628 420.179 204.667 419.775 209.511C419.349 214.874 416.906 219.387 412.447 223.049C408.807 226.038 404.929 227.113 400.812 226.273C397.023 225.48 393.603 223.223 390.551 219.503C389.892 218.699 389.241 217.809 388.599 216.832C385.755 212.466 384.663 207.598 385.322 202.229C386.021 196.747 388.363 192.37 392.35 189.096C398.337 184.179 404.25 182.739 410.088 184.777ZM409.907 200.519C409.536 199.874 409.215 199.386 408.943 199.054C407.689 197.525 406.275 196.734 404.702 196.681L405.369 194.986C402.5 193.674 399.789 194.067 397.237 196.163C394.653 198.285 393.188 200.887 392.841 203.969C392.508 206.907 393.218 209.846 394.971 212.786C395.38 213.479 395.753 214.03 396.09 214.44C397.719 216.426 399.685 217.634 401.989 218.063C404.418 218.549 406.601 217.996 408.539 216.404C410.855 214.502 412.051 211.989 412.127 208.867C412.181 206.104 411.442 203.322 409.907 200.519Z" fill="white"/>
<path d="M433.562 187.756C432.701 186.67 431.371 186.437 429.573 187.057C429.019 187.211 428.279 187.656 427.353 188.392L426.802 188.829C426.722 188.892 426.604 188.973 426.448 189.071C426.295 189.141 426.194 189.195 426.146 189.233C425.955 189.385 425.707 189.712 425.402 190.214L426.007 191.764C426.213 192.877 426.542 194.308 426.993 196.059C427.087 196.374 427.402 197.296 427.937 198.824L429.619 197.449C431.324 195.991 432.602 194.533 433.451 193.078C434.666 190.967 434.703 189.193 433.562 187.756ZM415.457 183.975C415.372 183.573 415.149 182.618 414.785 181.11C413.539 182.361 412.35 183.552 411.219 184.685L408.24 177.287C410.837 174.886 413.963 172.052 417.618 168.785C419.815 166.831 423.405 163.746 428.388 159.528L431.143 166.791L428.82 168.636C424.541 172.035 421.256 174.8 418.965 176.931L420.824 176.666C420.974 177.25 421.205 178.212 421.514 179.554C421.671 180.081 421.84 180.637 422.019 181.224C422.034 181.342 422.246 182.019 422.655 183.257C423.735 182.321 424.792 181.521 425.826 180.856C426.978 180.176 428.428 179.609 430.178 179.157C433.855 178.085 436.815 178.963 439.058 181.79C439.387 182.206 439.735 182.775 440.102 183.5C442.85 188.737 442.259 193.815 438.328 198.734C438.149 198.902 436.596 200.422 433.668 203.293L429.364 207.611C427.791 209.172 426.323 210.65 424.958 212.047C423.046 207.733 421.224 203.14 419.493 198.266C418.378 195.22 417.192 191.15 415.936 186.055C415.785 185.471 415.626 184.778 415.457 183.975Z" fill="white"/>
<path d="M456.023 164.944C456.305 168.588 457.734 174.075 460.312 181.406L460.125 181.665C458.565 183.381 456.561 185.877 454.115 189.15C453.721 188.27 452.838 184.832 451.468 178.836L449.699 169.815C448.165 168.757 446.18 167.095 443.742 164.829C440.468 161.843 438.531 160.093 437.929 159.578C436.302 158.232 434.935 157.291 433.828 156.754L440.079 151.94C440.955 152.577 442.318 153.78 444.166 155.547L449.953 161.166C449.85 160.061 449.535 156.894 449.01 151.662C448.699 148.582 448.677 146.347 448.946 144.957L454.949 138.867C454.552 141.36 454.682 147.165 455.341 156.282C455.595 160.024 455.823 162.911 456.023 164.944Z" fill="white"/>
<path d="M475.735 138.864C475.033 135.043 474.369 130.775 473.741 126.06L474.521 125.367C475.926 124.044 477.593 122.578 479.522 120.968C480.129 125.621 481.118 130.994 482.489 137.087C483.011 139.264 484.299 143.209 486.353 148.922C486.878 150.486 487.992 153.545 489.692 158.098L483.354 165.775C481.972 161.926 480.663 158.022 479.428 154.063C479.348 153.818 479.192 153.248 478.96 152.353C478.338 152.917 477.666 153.466 476.946 154.001C475.26 155.253 473.151 155.918 470.619 155.994C466.929 156.017 463.84 154.349 461.35 150.992C460.294 149.567 459.377 147.886 458.6 145.948C457.759 143.958 456.951 141.739 456.177 139.291L462.382 133.694C463.301 136.643 464.193 139.13 465.058 141.153C465.566 142.351 466.178 143.433 466.894 144.399C469.117 147.397 471.308 148.093 473.469 146.489C475.286 145.139 476.041 142.598 475.735 138.864Z" fill="white"/>
<path d="M506.6 101.885L508.941 109.292L506.543 110.985C502.062 114.148 498.626 116.723 496.236 118.71L498.081 118.568C498.198 119.159 498.53 120.709 499.077 123.218C499.196 123.883 499.355 124.657 499.554 125.54L508.294 118.883L510.244 125.63L501.611 132.173C502.301 134.531 503.291 137.439 504.581 140.896C506.902 139.058 510.381 136.315 515.019 132.666L517.267 140.101C516.034 140.971 514.952 141.736 514.019 142.394L512.82 143.241C509.755 145.404 505.598 149.062 500.35 154.215L500.297 154.14C500.168 153.957 499.553 152.307 498.453 149.19C497.181 145.545 496.217 142.532 495.561 140.151C494.449 136.168 493.481 132.035 492.656 127.751C492.348 126.147 492.071 124.445 491.826 122.647C490.495 123.836 489.232 124.965 488.039 126.032L485.482 118.478C488.211 116.227 491.492 113.574 495.325 110.518C497.613 108.704 501.371 105.826 506.6 101.885Z" fill="white"/>
<path d="M533.826 83.8765C534.216 88.5429 534.942 93.953 536.005 100.107C536.401 102.318 537.481 106.328 539.244 112.137C539.708 113.715 540.666 116.826 542.119 121.469L535.403 128.819C534.216 124.905 533.105 120.94 532.071 116.924C531.997 116.556 531.726 115.414 531.256 113.497L523.684 119.947L524.312 122.101C524.871 123.86 526.016 127.214 527.746 132.163L521.022 139.445C519.676 135.44 518.39 131.249 517.163 126.871C516.247 123.512 515.396 119.349 514.61 114.383C514.034 110.576 513.485 105.305 512.965 98.5681L513.677 97.9825C515.164 96.7208 516.92 95.3289 518.943 93.8069C519.266 97.4891 519.992 102.899 521.123 110.037C521.163 110.207 521.324 110.945 521.606 112.252L528.305 106.421L530.078 107.371C529.122 102.224 528.362 95.9908 527.796 88.6717L528.636 88.0012C530.089 86.7621 531.819 85.3872 533.826 83.8765Z" fill="white"/>
<path d="M553.639 114.874L546.669 121.983C545.44 117.853 544.313 113.6 543.291 109.224C542.508 105.897 541.804 101.706 541.178 96.6531C540.906 94.4249 540.661 91.5808 540.443 88.1208C540.254 86.105 540.119 83.7317 540.04 81.0009L547.345 75.95L547.819 84.9316C548.056 87.9962 548.527 91.7311 549.232 96.1363L549.383 96.9057C550.884 87.3761 552.81 78.8293 555.163 71.2652L562.533 66.3184C561.943 69.2466 561.493 72.4003 561.182 75.7796C561.492 77.0978 562.081 79.586 562.948 83.2442C563.324 85.4081 564.292 89.4235 565.85 95.2905C566.248 96.8665 567.105 100.004 568.422 104.702L561.435 111.784C561.312 111.429 561.146 110.753 560.938 109.755C560.73 108.757 560.259 106.712 559.525 103.619C558.084 96.3125 557.206 91.7625 556.89 89.9687C556.696 90.6637 556.424 92.1257 556.074 94.3548C554.785 102.245 553.979 108.434 553.657 112.922C553.609 113.815 553.603 114.465 553.639 114.874Z" fill="white"/>
<path d="M580.388 65.3461C578.856 67.2145 578.532 68.9525 579.417 70.56C580.076 71.7568 581.348 72.2079 583.234 71.9135C583.825 71.8443 584.638 71.5243 585.673 70.9535L586.236 70.6435C587.145 70.096 588.262 69.166 589.587 67.8535L587.565 67.9206C587.569 66.6609 587.474 65.1769 587.279 63.4688C587.265 63.3598 587.122 62.4026 586.85 60.5971L584.951 61.7135C582.999 62.8595 581.477 64.0703 580.388 65.3461ZM576.631 85.5398C577.494 83.3878 578.506 81.3987 579.665 79.5725C576.66 79.4827 574.42 78.0981 572.945 75.4189C572.7 74.9723 572.456 74.3614 572.216 73.5861C570.856 69.4236 572.282 65.1224 576.494 60.6824C578.754 58.3194 581.54 56.2137 584.851 54.3654L593.271 49.6204C593.27 53.0432 593.507 57.9762 593.981 64.4194C594.725 63.6139 595.281 63.0394 595.651 62.6961L601.487 69.4315C599.299 71.0798 597.262 72.5166 595.377 73.742L595.811 76.0521L596.254 78.2524C596.645 80.0622 597.502 83.5009 598.825 88.5685L591.455 95.2841C590.471 91.1705 589.561 86.8759 588.727 82.4004L587.924 78.0239C584.242 83.6384 581.827 88.7641 580.679 93.401C579.993 96.1301 579.638 98.6771 579.613 101.042L578.773 101.61C577.203 102.731 575.345 103.965 573.2 105.31C572.676 99.2429 573.82 92.6529 576.631 85.5398Z" fill="white"/>
<path d="M649.972 60.3513C648.284 65.3922 644.889 68.9996 639.787 71.1733C635.66 72.9315 631.814 72.7973 628.248 70.7705C624.947 68.897 622.355 65.7464 620.471 61.3189C620.064 60.3621 619.689 59.325 619.346 58.2077C617.825 53.2267 618.041 48.2923 619.994 43.4046C621.979 38.4366 625.213 34.9976 629.696 33.0875C636.467 30.2025 642.294 30.5902 647.175 34.2504L640.256 42.5172C637.927 40.4289 635.347 39.9881 632.514 41.1949C629.588 42.4416 627.573 44.4748 626.468 47.2946C625.437 49.9726 625.358 52.9647 626.233 56.2708C626.432 57.0504 626.635 57.6841 626.843 58.1719C627.849 60.5358 629.359 62.2635 631.375 63.355C633.513 64.5271 635.661 64.6537 637.818 63.7346C640.181 62.7277 641.847 60.8878 642.815 58.215L649.972 60.3513Z" fill="white"/>
<path d="M699.789 10.2749C698.688 14.8358 697.694 20.2026 696.808 26.3755C696.495 28.6001 696.263 32.7495 696.112 38.8237C696.081 40.462 696.033 43.7135 695.968 48.5783L687.268 53.4776C687.378 49.3834 687.576 45.2646 687.862 41.1211C687.887 40.7544 687.975 39.587 688.126 37.619L688.884 31.4396C689.332 28.1824 689.976 24.5637 690.816 20.5837C685.494 21.9176 681.472 23.0909 678.748 24.1033L680.572 24.6113C680.49 25.0785 680.325 26.2356 680.077 28.0825C679.706 30.3236 679.461 32.1061 679.343 33.4301L678.892 41.3971L678.877 43.6237C678.822 45.4804 678.846 49.0293 678.949 54.2705L670.292 59.0944C670.26 54.8704 670.342 50.4876 670.539 45.9458C670.714 42.4683 671.202 38.2478 672.001 33.2843C672.343 31.2419 672.842 28.7749 673.498 25.8831C671.358 26.7119 669.581 27.3974 668.165 27.9397L668.284 20.0335C671.652 18.9049 675.671 17.6056 680.341 16.1356C683.128 15.2748 689.611 13.3212 699.789 10.2749Z" fill="white"/>
<path d="M723.683 17.4408C723.455 16.0938 722.393 15.2498 720.495 14.9088C719.938 14.7961 719.077 14.8383 717.911 15.0354L717.278 15.1424C716.239 15.3593 714.878 15.8685 713.193 16.6701L715.155 17.269C714.712 18.4399 714.311 19.862 713.952 21.5355C713.909 21.6462 713.72 22.6087 713.385 24.4228L715.541 23.9654C717.763 23.528 719.588 22.8887 721.017 22.0474C723.103 20.8058 723.991 19.2703 723.683 17.4408ZM712.368 31.0772L711.932 33.8184C711.668 35.8068 711.286 39.9138 710.786 46.1396L710.519 46.2157C707.91 47.1735 704.957 48.4171 701.658 49.9464C702.064 45.246 702.684 40.344 703.518 35.2403C704.011 32.0347 704.936 27.8979 706.293 22.83C706.556 21.8137 706.963 20.4318 707.516 18.6841C706.833 19.0477 706.251 19.3322 705.768 19.5378L702.508 11.249C706.702 9.87857 710.357 8.93005 713.473 8.40343C714.197 8.28112 715.007 8.18543 715.906 8.11635C718.429 7.876 719.877 7.7554 720.249 7.75455C721.593 7.75486 723.127 7.96089 724.85 8.37263C728.616 9.24567 730.799 11.4614 731.4 15.0199C731.485 15.5225 731.511 16.1694 731.479 16.9605C731.391 21.3384 728.629 24.938 723.191 27.7593C720.298 29.2408 716.691 30.3467 712.368 31.0772Z" fill="white"/>
<path d="M753.126 12.3976C752.305 13.6731 750.662 16.7246 748.198 21.552L746.143 25.5681L751.266 25.1648L752.512 26.0082C753.36 23.812 753.61 19.8545 753.262 14.1358C753.211 13.2811 753.165 12.7017 753.126 12.3976ZM751.582 30.8752L743.914 31.7396C742.5 34.3584 741.254 37.7329 740.177 41.8632L730.704 44.7982C730.905 43.7239 731.977 40.8705 733.923 36.2381L735.927 31.3978C737.855 26.8276 740.963 21.1543 745.25 14.3777C747.596 10.6401 749.937 7.31127 752.273 4.39136C753.735 4.2616 755.917 4.02687 758.817 3.68717L759.229 6.94056C759.52 9.37404 759.735 11.7305 759.873 14.0098C760.143 18.4667 760.07 22.6382 759.652 26.5241C759.487 27.1674 759.156 29.9553 758.658 34.8878C758.455 36.9224 758.229 38.5804 757.98 39.862L748.478 42.8294C749.016 40.5906 750.051 36.6059 751.582 30.8752Z" fill="white"/>
<path d="M786.434 15.2114C786.487 13.8464 785.619 12.8031 783.83 12.0816C783.288 11.8567 782.426 11.7217 781.244 11.6763L780.633 11.6529C779.572 11.653 778.125 11.8729 776.293 12.3127L778.091 13.2999C777.439 14.3562 776.756 15.6665 776.043 17.2306C775.978 17.3301 775.596 18.2337 774.899 19.9412L777.133 19.9351C779.397 19.9607 781.304 19.7074 782.855 19.1752C785.17 18.3867 786.363 17.0654 786.434 15.2114ZM780.554 29.7071C780.607 28.3217 779.749 27.2788 777.98 26.5784C777.459 26.334 776.608 26.1891 775.426 26.1437L774.723 26.1168C774.621 26.1129 774.479 26.0972 774.296 26.0698C774.135 26.0228 774.024 25.9981 773.963 25.9958C773.718 25.9864 773.317 26.073 772.759 26.2557L772.209 27.8261C771.641 28.804 770.959 30.1041 770.162 31.7262C770.028 32.0272 769.667 32.9315 769.079 34.4392L771.25 34.4919C773.494 34.4963 775.412 34.2231 777.004 33.672C779.3 32.8624 780.483 31.5407 780.554 29.7071ZM787.288 24.8849C788.194 26.7968 788.633 28.1195 788.605 28.8529C788.584 29.403 788.487 30.0726 788.314 30.8617C786.974 36.5438 783.211 39.97 777.024 41.1406C776.779 41.1515 774.611 41.2928 770.52 41.5643L764.442 42.0351C762.232 42.1951 760.155 42.3603 758.21 42.5305C759.567 38.0121 761.174 33.3402 763.032 28.5146C764.168 25.4772 765.918 21.6166 768.281 16.9328C768.745 15.9916 769.426 14.7221 770.324 13.1243C769.602 13.3414 768.973 13.5009 768.439 13.6029L766.939 4.82275C771.324 4.33806 775.095 4.15629 778.253 4.27744C779.007 4.30636 779.831 4.37877 780.724 4.49465C783.223 4.77416 784.655 4.9515 785.019 5.0267C786.335 5.30161 787.794 5.81669 789.397 6.57193C792.906 8.19599 794.591 10.8111 794.453 14.4173C794.433 14.9266 794.337 15.5656 794.165 16.3344C793.337 19.8528 791.044 22.703 787.288 24.8849Z" fill="white"/>
<path d="M814.969 16.1318C813.909 17.2168 811.689 19.877 808.308 24.1125L805.491 27.6354L810.591 28.2673L811.643 29.3435C812.912 27.3616 813.95 23.5344 814.755 17.862C814.875 17.0142 814.946 16.4374 814.969 16.1318ZM809.757 33.9253L802.071 33.2348C800.161 35.517 798.265 38.5735 796.383 42.4042L786.515 43.3805C786.926 42.3681 788.548 39.7876 791.382 35.639L794.314 31.2986C797.119 27.2077 801.299 22.2724 806.856 16.4926C809.903 13.3012 812.864 10.5092 815.736 8.1166C817.195 8.28273 819.379 8.49013 822.289 8.73879L822.041 12.0088C821.839 14.4513 821.577 16.8029 821.256 19.0638C820.629 23.4847 819.721 27.5568 818.534 31.2803C818.243 31.8774 817.361 34.5424 815.886 39.2752C815.279 41.2278 814.726 42.8069 814.225 44.0126L804.322 45.0149C805.298 42.9294 807.109 39.2329 809.757 33.9253Z" fill="white"/>
<path d="M875.055 20.5393L867.296 35.385C867.099 35.7337 866.188 37.4338 864.564 40.4851L861.049 47.2448C859.632 49.9079 858.312 52.5649 857.089 55.2156L844.982 55.3191C846.593 52.5594 848.905 48.8142 851.919 44.0836C852.841 42.6606 854.396 40.15 856.586 36.5517C857.595 34.8776 859.033 32.6944 860.9 30.0021C858.613 30.2016 854.389 33.3594 848.228 39.4758C845.901 41.7519 843.323 45.2268 840.493 49.9003L830.54 49.7484C830.718 49.3945 830.9 48.8626 831.086 48.1527C832.014 44.6229 832.801 39.8229 833.447 33.7525C833.733 31.3821 833.738 30.1606 833.462 30.0879L828.201 36.9894C825.82 40.1155 824.062 43.1948 822.928 46.2275L812.983 46.046C815.125 42.3086 817.427 38.5608 819.89 34.8026C821.759 31.9422 824.307 28.5437 827.534 24.607C828.959 22.8737 830.847 20.7455 833.196 18.2224C833.378 17.9328 833.492 17.6993 833.538 17.5218C833.678 16.9894 833.696 16.0771 833.593 14.785C833.435 13.1411 833.357 12.193 833.36 11.9408L842.947 12.2812C843.098 16.2 843.176 19.7941 843.181 23.0632C843.189 27.7667 842.843 31.6918 842.142 34.8386C847.058 29.0482 852.246 25.0268 857.708 22.7743C859.817 21.727 861.883 20.9636 863.907 20.484C865.479 20.1175 867.088 19.9716 868.733 20.0462C870.894 20.0876 872.201 20.1259 872.656 20.1612C873.535 20.2659 874.334 20.392 875.055 20.5393Z" fill="white"/>
<path d="M868.912 59.3565L859.034 58.134C861.566 54.6487 864.258 51.1705 867.111 47.6992C869.276 45.0566 872.175 41.952 875.807 38.3854C877.41 36.8156 879.519 34.8933 882.133 32.6187C883.619 31.2438 885.421 29.6955 887.541 27.9739L895.988 30.7125L889.146 36.5439C886.857 38.5939 884.179 41.2369 881.11 44.4729L880.591 45.0603C889.068 40.4648 897.023 36.8051 904.458 34.0813L912.862 36.9342C910.179 38.2442 907.402 39.8018 904.53 41.607C903.672 42.6541 902.055 44.6332 899.677 47.5442C898.188 49.1577 895.588 52.3656 891.878 57.168C890.868 58.4409 888.898 61.0275 885.969 64.9279L876.102 63.6767C876.309 63.363 876.745 62.8204 877.411 62.0489C878.076 61.2775 879.414 59.6606 881.423 57.1984C886.348 51.6161 889.427 48.1546 890.659 46.8139C889.989 47.0818 888.663 47.7536 886.681 48.8293C879.634 52.5962 874.231 55.7148 870.473 58.185C869.735 58.6887 869.215 59.0792 868.912 59.3565Z" fill="white"/>
<path d="M939.324 61.8829C939.93 60.6589 939.566 59.3513 938.23 57.9602C937.827 57.5328 937.096 57.0564 936.037 56.5308L935.489 56.2589C934.521 55.8242 933.111 55.432 931.26 55.0822L932.496 56.7199C931.468 57.4162 930.309 58.3319 929.019 59.4669C928.919 59.5311 928.201 60.1991 926.865 61.471L928.906 62.3811C930.96 63.3322 932.804 63.8826 934.436 64.0325C936.871 64.2619 938.5 63.5454 939.324 61.8829ZM928.025 72.6986C928.641 71.4563 928.285 70.1533 926.959 68.7895C926.584 68.3529 925.866 67.8719 924.807 67.3463L924.177 67.0336C924.085 66.9883 923.962 66.9157 923.807 66.8159C923.679 66.7069 923.587 66.6388 923.533 66.6116C923.313 66.5028 922.912 66.4175 922.328 66.3555L921.184 67.563C920.265 68.2225 919.111 69.1291 917.72 70.2826C917.475 70.5023 916.775 71.1794 915.621 72.3139L917.58 73.2516C919.625 74.1754 921.487 74.7121 923.165 74.8618C925.59 75.0639 927.211 74.3428 928.025 72.6986ZM936.142 71.0586C936.186 73.1743 936.045 74.561 935.719 75.2187C935.475 75.7119 935.112 76.2831 934.631 76.9321C931.083 81.5672 926.248 83.1512 920.125 81.6841C919.897 81.5936 917.862 80.834 914.019 79.4052L908.282 77.3441C906.201 76.5846 904.238 75.8841 902.395 75.2424C905.482 71.6758 908.86 68.0718 912.531 64.4304C914.811 62.1249 917.987 59.3195 922.06 56.0143C922.869 55.3459 924.01 54.4668 925.483 53.3768C924.735 53.2789 924.097 53.1669 923.567 53.0409L925.794 44.4155C929.992 45.7701 933.506 47.1498 936.337 48.5544C937.013 48.8897 937.735 49.2932 938.502 49.765C940.667 51.0441 941.901 51.7926 942.202 52.0105C943.29 52.8005 944.41 53.8685 945.564 55.2146C948.099 58.1341 948.565 61.2106 946.963 64.4442C946.737 64.9009 946.388 65.4446 945.916 66.0754C943.72 68.9461 940.462 70.6071 936.142 71.0586Z" fill="white"/>
<path d="M965.153 73.2031C963.773 73.8322 960.742 75.5114 956.061 78.2406L952.163 80.5091L956.691 82.9402L957.283 84.3239C959.182 82.934 961.531 79.7391 964.328 74.7393C964.746 73.992 965.021 73.4799 965.153 73.2031ZM953.871 87.9162L946.954 84.4963C944.35 85.9353 941.479 88.1013 938.341 90.9943L928.787 88.3408C929.536 87.5451 931.98 85.7243 936.119 82.8783L940.42 79.8892C944.511 77.0866 950.19 73.9934 957.457 70.6095C961.451 68.7335 965.218 67.1985 968.76 66.0044C970.061 66.6863 972.022 67.6686 974.646 68.9513L973.235 71.9117C972.164 74.1166 971.072 76.2155 969.957 78.2083C967.777 82.1049 965.461 85.5752 963.01 88.6192C962.524 89.0711 960.739 91.2379 957.656 95.1195C956.386 96.7216 955.3 97.9944 954.398 98.9381L944.802 96.2964C946.464 94.7036 949.487 91.9102 953.871 87.9162Z" fill="white"/>
<path d="M1021.52 96.7278L1009.67 108.562C1009.37 108.836 1008 110.184 1005.53 112.608L1000.15 118.002C998 120.118 995.944 122.256 993.982 124.418L982.404 120.883C984.768 118.734 988.096 115.855 992.39 112.246C993.696 111.165 995.933 109.237 999.101 106.461C1000.57 105.167 1002.59 103.516 1005.18 101.507C1002.94 101.011 997.963 102.756 990.252 106.742C987.35 108.216 983.848 110.757 979.747 114.366L970.3 111.234C970.575 110.95 970.908 110.497 971.299 109.876C973.242 106.787 975.433 102.443 977.87 96.8461C978.853 94.6704 979.224 93.5064 978.983 93.3543L971.895 98.3597C968.686 100.627 966.086 103.038 964.095 105.59L954.663 102.433C957.827 99.5098 961.147 96.6253 964.624 93.7792C967.265 91.6112 970.714 89.1336 974.973 86.3463C976.852 85.1205 979.291 83.6566 982.289 81.9546C982.549 81.7328 982.728 81.5442 982.825 81.3889C983.118 80.923 983.41 80.0582 983.699 78.7945C984.041 77.1787 984.251 76.2509 984.33 76.0112L993.372 79.2131C992.34 82.997 991.336 86.4492 990.361 89.5697C988.957 94.0592 987.45 97.7 985.838 100.492C992.263 96.443 998.419 94.1636 1004.3 93.6539C1006.63 93.2878 1008.83 93.1796 1010.9 93.3292C1012.51 93.4514 1014.09 93.7951 1015.64 94.3602C1017.69 95.0481 1018.92 95.477 1019.35 95.6471C1020.15 96.0108 1020.88 96.3711 1021.52 96.7278Z" fill="white"/>
<path d="M1043.98 127.313C1044.77 126.198 1044.61 124.849 1043.51 123.268C1043.17 122.784 1042.53 122.2 1041.56 121.517L1041.06 121.164C1040.17 120.584 1038.84 119.979 1037.06 119.347L1038.03 121.156C1036.91 121.685 1035.62 122.41 1034.17 123.332C1034.06 123.38 1033.25 123.929 1031.73 124.979L1033.61 126.194C1035.49 127.451 1037.23 128.28 1038.82 128.681C1041.19 129.284 1042.91 128.828 1043.98 127.313ZM1031.14 136.252C1031.95 135.119 1031.8 133.777 1030.7 132.224C1030.39 131.735 1029.76 131.149 1028.79 130.466L1028.22 130.059C1028.14 130 1028.02 129.909 1027.89 129.787C1027.78 129.659 1027.7 129.578 1027.65 129.543C1027.45 129.401 1027.06 129.255 1026.5 129.103L1025.18 130.119C1024.17 130.629 1022.89 131.346 1021.34 132.27C1021.06 132.449 1020.27 133.01 1018.95 133.953L1020.74 135.182C1022.62 136.411 1024.37 137.229 1026.01 137.637C1028.37 138.212 1030.09 137.75 1031.14 136.252ZM1039.42 135.887C1039.13 137.984 1038.78 139.332 1038.36 139.932C1038.04 140.381 1037.59 140.889 1037.02 141.456C1032.79 145.487 1027.77 146.304 1021.95 143.907C1021.74 143.783 1019.85 142.717 1016.27 140.711L1010.92 137.787C1008.98 136.715 1007.15 135.719 1005.43 134.8C1009.03 131.754 1012.93 128.716 1017.12 125.686C1019.73 123.76 1023.3 121.48 1027.83 118.844C1028.73 118.309 1030 117.617 1031.62 116.768C1030.9 116.556 1030.28 116.346 1029.78 116.14L1033.31 107.962C1037.25 109.95 1040.51 111.857 1043.09 113.683C1043.71 114.118 1044.36 114.629 1045.04 115.214C1046.98 116.812 1048.09 117.743 1048.35 118.004C1049.3 118.953 1050.24 120.182 1051.18 121.69C1053.23 124.967 1053.21 128.079 1051.13 131.026C1050.84 131.442 1050.41 131.925 1049.84 132.475C1047.23 134.972 1043.75 136.109 1039.42 135.887Z" fill="white"/>
<path d="M1085.79 161.802L1094.11 156.711C1096.15 155.466 1097.37 154.75 1097.77 154.564L1095.67 153.437C1094.69 152.903 1093.89 152.403 1093.27 151.935C1093.08 151.788 1092.88 151.634 1092.66 151.474L1091.32 150.613C1090.61 150.916 1089.57 151.461 1088.21 152.247L1083.23 155.081C1081.56 156.041 1080.4 156.698 1079.75 157.051C1075.94 159.154 1072.3 161.335 1068.84 163.595C1066.81 164.925 1064.25 166.774 1061.16 169.141C1058.51 171.126 1057.12 172.208 1056.99 172.387L1056.93 172.46C1059.34 173.289 1062.07 174.649 1065.12 176.54L1070.9 172.437C1071.83 171.739 1073.07 170.824 1074.62 169.691L1080.3 165.667C1082.26 164.259 1083.49 163.36 1083.98 162.97C1084.95 162.398 1085.55 162.009 1085.79 161.802ZM1059.87 157.352C1060.7 156.246 1060.6 154.899 1059.55 153.313C1059.24 152.802 1058.61 152.184 1057.65 151.458L1057.14 151.071C1057.06 151.009 1056.95 150.915 1056.81 150.788C1056.69 150.645 1056.6 150.549 1056.53 150.5C1056.36 150.364 1055.99 150.218 1055.45 150.061L1054.05 150.999C1053.06 151.501 1051.76 152.183 1050.17 153.046C1049.9 153.229 1049.09 153.765 1047.73 154.653L1049.5 155.956C1051.34 157.244 1053.06 158.111 1054.67 158.557C1057.03 159.218 1058.76 158.817 1059.87 157.352ZM1054.92 140.961C1055.75 140.511 1056.47 140.135 1057.08 139.831C1057.62 139.552 1058.25 139.223 1058.97 138.847C1060.58 137.996 1064.15 136.349 1069.68 133.905L1070.48 134.36C1072.17 135.378 1074.05 136.586 1076.14 137.985C1072.92 139.437 1069.14 141.318 1064.79 143.628C1064.32 143.912 1063.81 144.208 1063.28 144.516C1063.17 144.56 1062.57 144.941 1061.49 145.659C1062.63 146.447 1063.67 147.264 1064.58 148.112C1065.55 149.07 1066.46 150.333 1067.32 151.903C1069.29 155.21 1069.19 158.303 1067.02 161.184C1066.7 161.607 1066.22 162.08 1065.6 162.604C1061.22 166.577 1056.17 167.281 1050.44 164.715C1050.21 164.572 1048.35 163.441 1044.84 161.324L1039.61 158.252C1037.7 157.119 1035.9 156.067 1034.21 155.094C1037.91 152.162 1041.89 149.242 1046.15 146.332C1046.46 146.129 1046.78 145.925 1047.12 145.718C1046.41 145.438 1045.81 145.215 1045.32 145.051L1048.63 137.121C1051 138.508 1053.1 139.788 1054.92 140.961Z" fill="white"/>
<path d="M1088.24 186.742C1089.48 187.661 1090.42 188.34 1091.03 188.779L1090.85 191.063L1092.67 190.01L1097.93 187.047C1098.17 186.846 1098.77 186.467 1099.74 185.908C1100.25 185.532 1101.57 184.737 1103.71 183.525C1108.18 180.411 1111.57 178.369 1113.88 177.399L1110.72 175.032C1108.12 173.089 1106.07 171.556 1104.57 170.433L1105.48 172.725C1104.12 173.386 1102.72 174.131 1101.27 174.961C1098.74 176.406 1095.84 178.212 1092.57 180.378C1089.91 182.114 1087.34 183.432 1084.88 184.333C1085.98 185.109 1087.1 185.912 1088.24 186.742ZM1117.37 170.869C1118.53 171.695 1122.23 174.415 1128.46 179.027C1125.11 180.419 1120.22 182.746 1113.78 186.008C1113.61 186.085 1112.95 186.457 1111.8 187.123L1105.12 191.421L1103.28 192.694C1102.46 193.265 1101.26 194.132 1099.68 195.296C1100.77 196.117 1101.92 196.997 1103.13 197.935L1101.92 198.615L1100.64 199.347C1098.5 200.617 1096.02 202.195 1093.18 204.08L1084.16 199.847C1085.79 198.749 1087.4 197.676 1089 196.626C1087.45 195.392 1086.03 194.282 1084.73 193.296L1079.52 189.527C1078.09 188.541 1076.7 187.587 1075.35 186.665L1073.75 187.78L1071.83 189.258L1062.84 185.087C1065.6 183.065 1069.57 180.42 1074.76 177.153C1074.84 177.216 1074.94 177.285 1075.07 177.358C1076.43 178.236 1077.98 178.409 1079.74 177.879C1080.82 177.626 1081.95 177.282 1083.1 176.848C1085.62 175.418 1088.14 173.968 1090.64 172.497C1094.15 170.608 1097.45 168.961 1100.53 167.556L1097.17 165.539L1103.32 161.213C1105.54 162.705 1107.13 163.752 1108.09 164.357C1111.44 166.666 1114.43 168.768 1117.06 170.663L1117.37 170.869Z" fill="white"/>
<path d="M1137.18 195.701C1135.75 196.182 1132.56 197.536 1127.62 199.761L1123.5 201.609L1127.75 204.501L1128.2 205.939C1130.23 204.755 1132.9 201.823 1136.2 197.143C1136.7 196.443 1137.02 195.963 1137.18 195.701ZM1124.43 209.155L1117.9 205.03C1115.16 206.189 1112.08 208.043 1108.66 210.593L1099.44 206.955C1100.26 206.242 1102.89 204.687 1107.3 202.289L1111.89 199.765C1116.25 197.406 1122.22 194.923 1129.8 192.317C1133.97 190.869 1137.88 189.736 1141.52 188.919C1142.75 189.733 1144.59 190.915 1147.07 192.465L1145.36 195.261C1144.06 197.342 1142.76 199.316 1141.44 201.181C1138.86 204.828 1136.2 208.038 1133.44 210.809C1132.91 211.208 1130.91 213.176 1127.44 216.714C1126.01 218.175 1124.79 219.327 1123.8 220.172L1114.53 216.541C1116.35 215.131 1119.65 212.669 1124.43 209.155Z" fill="white"/>
<path d="M1144.32 227.372C1145.69 228.095 1146.71 228.629 1147.39 228.972L1147.55 231.257L1149.19 229.946L1153.95 226.236C1154.16 226.002 1154.7 225.537 1155.57 224.842C1156.02 224.394 1157.21 223.412 1159.15 221.895C1163.1 218.154 1166.15 215.632 1168.3 214.329L1164.82 212.458C1161.97 210.921 1159.71 209.709 1158.06 208.821L1159.3 210.953C1158.05 211.809 1156.77 212.754 1155.47 213.788C1153.17 215.594 1150.57 217.81 1147.66 220.436C1145.29 222.547 1142.95 224.231 1140.64 225.487C1141.85 226.091 1143.07 226.719 1144.32 227.372ZM1170.78 207.355C1172.05 208 1176.11 210.14 1182.96 213.777C1179.85 215.651 1175.36 218.678 1169.47 222.858C1169.32 222.959 1168.72 223.424 1167.68 224.256L1161.71 229.495L1160.08 231.026C1159.36 231.712 1158.3 232.748 1156.91 234.134C1158.11 234.784 1159.38 235.483 1160.71 236.232L1159.62 237.083L1158.45 237.998C1156.53 239.57 1154.31 241.499 1151.78 243.784L1142.23 240.935C1143.68 239.608 1145.12 238.308 1146.54 237.033C1144.83 236.042 1143.26 235.155 1141.82 234.373L1136.11 231.418C1134.55 230.655 1133.04 229.918 1131.56 229.206L1130.15 230.545L1128.47 232.292L1118.96 229.501C1121.39 227.091 1124.92 223.887 1129.57 219.887C1129.66 219.938 1129.77 219.99 1129.9 220.044C1131.38 220.711 1132.94 220.651 1134.6 219.867C1135.64 219.455 1136.7 218.949 1137.78 218.348C1140.06 216.561 1142.33 214.754 1144.59 212.928C1147.78 210.539 1150.8 208.421 1153.63 206.576L1150.01 205.079L1155.45 199.889C1157.88 201.034 1159.6 201.835 1160.63 202.291C1164.29 204.078 1167.56 205.713 1170.44 207.197L1170.78 207.355Z" fill="white"/>
<path d="M1184.34 237.147C1181.21 239.036 1176.96 242.78 1171.57 248.378L1171.26 248.328C1169.02 247.704 1165.9 247.035 1161.87 246.319C1162.48 245.572 1165.15 243.238 1169.89 239.319L1177.15 233.683C1177.4 231.837 1177.99 229.316 1178.92 226.119C1180.12 221.851 1180.81 219.332 1181 218.563C1181.47 216.504 1181.69 214.859 1181.67 213.628L1188.78 217.052C1188.61 218.122 1188.15 219.88 1187.4 222.326L1184.98 230.023C1185.92 229.435 1188.61 227.73 1193.04 224.91C1195.65 223.248 1197.64 222.224 1199 221.839L1207.14 224.468C1204.73 225.233 1199.61 227.959 1191.77 232.645C1188.54 234.554 1186.07 236.055 1184.34 237.147Z" fill="white"/>
<path d="M1233.93 235.232L1228.99 241.213L1226.16 240.06C1223.4 238.938 1221 237.994 1218.96 237.228L1220.54 239.191C1217.85 241.466 1213.97 245.709 1208.89 251.92C1207 254.298 1204.53 257.572 1201.47 261.742L1201.18 261.723C1198.93 261.248 1195.76 260.771 1191.66 260.292C1194.57 256.371 1197.68 252.508 1200.99 248.703C1203.04 246.322 1206.01 243.284 1209.91 239.588C1210.86 238.674 1212.32 237.353 1214.29 235.627C1211.2 234.696 1207.65 233.704 1203.65 232.65L1208.6 226.408C1212.14 227.562 1216.14 228.894 1220.61 230.405C1223.37 231.353 1227.81 232.962 1233.93 235.232Z" fill="white"/>
<path d="M1256.73 280.178L1246.8 279.59C1247.36 278.591 1247.82 277.547 1248.15 276.456C1248.78 274.431 1248.99 272.392 1248.77 270.339C1248.54 267.835 1247.72 266.02 1246.3 264.895L1245.02 266.74C1244.01 268.283 1242.12 271.283 1239.35 275.739L1229.42 275.121C1231.68 271.553 1234.14 267.91 1236.81 264.191C1238.84 261.383 1241.53 258.099 1244.9 254.34C1247.44 251.502 1251.18 247.752 1256.1 243.09L1257.04 243.284C1258.95 243.644 1261.13 244.128 1263.57 244.735C1260.93 247.311 1257.2 251.287 1252.37 256.663C1252.26 256.82 1251.78 257.407 1250.93 258.424C1256.06 257.925 1261.39 256.089 1266.92 252.918C1269.36 251.52 1271.44 250.01 1273.16 248.387L1274.18 248.608C1276.08 248.963 1278.23 249.44 1280.65 250.042C1276.69 254.638 1271.16 258.377 1264.08 261.258C1260.47 262.764 1256.88 263.603 1253.31 263.773C1255.06 265.472 1256.38 267.728 1257.26 270.541C1258.17 273.515 1258.28 276.121 1257.59 278.361C1257.4 278.945 1257.12 279.551 1256.73 280.178Z" fill="white"/>
<path d="M1296.92 264.782C1297.26 263.458 1296.63 262.256 1295.03 261.177C1294.57 260.848 1293.76 260.538 1292.62 260.247L1292 260.088C1290.96 259.866 1289.51 259.781 1287.64 259.833L1289.2 261.174C1288.32 262.066 1287.38 263.204 1286.37 264.59C1286.29 264.673 1285.72 265.477 1284.69 267.001L1286.84 267.455C1289.05 267.954 1290.98 268.108 1292.63 267.917C1295.03 267.625 1296.47 266.581 1296.92 264.782ZM1281.07 272.675L1279.56 275.006C1278.51 276.717 1276.5 280.319 1273.53 285.811L1273.26 285.773C1270.48 285.593 1267.28 285.535 1263.64 285.599C1265.92 281.464 1268.46 277.232 1271.29 272.902C1273.04 270.169 1275.55 266.76 1278.84 262.674C1279.49 261.851 1280.43 260.752 1281.64 259.377C1280.87 259.433 1280.22 259.458 1279.69 259.451L1280.06 250.551C1284.45 250.994 1288.18 251.606 1291.24 252.385C1291.95 252.566 1292.73 252.807 1293.58 253.107C1295.99 253.908 1297.36 254.384 1297.7 254.534C1298.93 255.078 1300.25 255.887 1301.66 256.961C1304.75 259.284 1305.85 262.194 1304.96 265.691C1304.84 266.185 1304.6 266.788 1304.25 267.498C1302.4 271.467 1298.42 273.641 1292.3 274.021C1289.06 274.205 1285.31 273.757 1281.07 272.675Z" fill="white"/>
<path d="M1317.56 280.038C1314.99 282.626 1311.76 287.287 1307.89 294.021L1307.57 294.048C1305.25 293.983 1302.05 294.09 1297.98 294.368C1298.39 293.495 1300.42 290.585 1304.07 285.637L1309.75 278.415C1309.55 276.562 1309.51 273.972 1309.64 270.646C1309.77 266.216 1309.83 263.606 1309.83 262.814C1309.79 260.702 1309.61 259.051 1309.3 257.861L1317.02 259.465C1317.11 260.546 1317.09 262.363 1316.95 264.917L1316.47 272.97C1317.24 272.171 1319.43 269.868 1323.06 266.06C1325.19 263.816 1326.87 262.343 1328.1 261.64L1336.63 262.224C1334.48 263.548 1330.16 267.431 1323.68 273.874C1321.01 276.506 1318.97 278.56 1317.56 280.038Z" fill="white"/>
<path d="M1365.12 266.9L1361.63 273.829L1358.62 273.335C1355.68 272.854 1353.13 272.467 1350.97 272.175L1352.94 273.738C1350.83 276.553 1347.99 281.553 1344.41 288.736C1343.1 291.475 1341.41 295.218 1339.36 299.963L1339.07 300.009C1336.77 300.046 1333.57 300.287 1329.47 300.731C1331.44 296.26 1333.61 291.803 1335.99 287.358C1337.46 284.581 1339.68 280.958 1342.67 276.488C1343.38 275.386 1344.52 273.774 1346.06 271.651C1342.83 271.433 1339.15 271.254 1335.02 271.115L1338.46 263.93C1342.17 264.268 1346.37 264.677 1351.06 265.156C1353.96 265.466 1358.65 266.047 1365.12 266.9Z" fill="white"/>
<path d="M1406.6 284.744L1411.13 276.098C1412.24 273.982 1412.92 272.743 1413.16 272.379L1410.78 272.492C1409.67 272.536 1408.73 272.516 1407.96 272.433C1407.71 272.407 1407.46 272.379 1407.2 272.351L1405.6 272.302C1405.14 272.929 1404.53 273.93 1403.77 275.303L1400.96 280.29C1400.02 281.973 1399.36 283.132 1398.98 283.768C1396.79 287.531 1394.79 291.273 1392.97 294.993C1391.92 297.176 1390.67 300.077 1389.24 303.695C1387.98 306.759 1387.34 308.402 1387.32 308.625L1387.31 308.717C1389.81 308.186 1392.85 307.951 1396.43 308.009L1399.28 301.519C1399.73 300.439 1400.32 299.017 1401.07 297.251L1403.88 290.879C1404.83 288.665 1405.42 287.263 1405.65 286.672C1406.19 285.685 1406.5 285.042 1406.6 284.744ZM1382.07 294.247C1382.22 292.869 1381.44 291.769 1379.72 290.948C1379.2 290.666 1378.34 290.461 1377.14 290.331L1376.5 290.263C1376.4 290.252 1376.26 290.226 1376.08 290.186C1375.9 290.126 1375.77 290.091 1375.69 290.083C1375.47 290.059 1375.08 290.119 1374.53 290.265L1373.82 291.787C1373.22 292.728 1372.46 293.979 1371.54 295.54C1371.4 295.833 1370.98 296.71 1370.27 298.172L1372.46 298.378C1374.7 298.537 1376.62 298.396 1378.23 297.954C1380.59 297.307 1381.88 296.072 1382.07 294.247ZM1369.41 282.729C1369.89 281.92 1370.31 281.227 1370.68 280.652C1371 280.133 1371.38 279.527 1371.8 278.835C1372.75 277.276 1374.96 274.029 1378.45 269.094L1379.37 269.071C1381.34 269.078 1383.58 269.145 1386.09 269.272C1384.07 272.172 1381.79 275.73 1379.25 279.946C1378.99 280.431 1378.71 280.944 1378.4 281.485C1378.33 281.58 1378.02 282.213 1377.46 283.383C1378.85 283.471 1380.15 283.643 1381.37 283.898C1382.69 284.225 1384.12 284.841 1385.67 285.745C1389.06 287.568 1390.56 290.273 1390.17 293.861C1390.12 294.388 1389.95 295.037 1389.69 295.808C1387.97 301.467 1383.99 304.667 1377.76 305.41C1377.5 305.401 1375.31 305.391 1371.21 305.379L1365.15 305.432C1362.93 305.439 1360.85 305.46 1358.9 305.496C1360.56 301.082 1362.48 296.531 1364.64 291.843C1364.8 291.512 1364.97 291.171 1365.15 290.821C1364.4 290.945 1363.78 291.062 1363.27 291.172L1362.03 282.671C1364.79 282.64 1367.24 282.66 1369.41 282.729Z" fill="white"/>
<path d="M1440.52 273.144L1437.76 280.404L1434.83 280.242C1429.36 279.939 1425.06 279.824 1421.96 279.898L1423.49 280.932C1423.22 281.468 1422.52 282.889 1421.39 285.196C1421.07 285.791 1420.71 286.496 1420.32 287.311L1431.31 287.521L1428.65 294.02L1417.82 293.789C1416.9 296.066 1415.87 298.96 1414.74 302.471C1417.7 302.471 1422.13 302.481 1428.03 302.501L1425.18 309.725C1423.67 309.642 1422.35 309.569 1421.21 309.506L1419.74 309.425C1416 309.218 1410.47 309.504 1403.16 310.284L1403.16 310.193C1403.17 309.969 1403.72 308.294 1404.79 305.167C1406.05 301.521 1407.16 298.56 1408.13 296.286C1409.72 292.474 1411.53 288.633 1413.54 284.762C1414.29 283.313 1415.13 281.807 1416.06 280.245C1414.27 280.351 1412.58 280.451 1410.99 280.547L1413.67 273.038C1417.2 272.968 1421.42 272.925 1426.32 272.91C1429.24 272.909 1433.98 272.986 1440.52 273.144Z" fill="white"/>
<path d="M1490.24 280.55L1488.1 282.028C1488.85 284.053 1489.24 285.799 1489.26 287.267C1489.28 288.327 1489.15 289.808 1488.86 291.71C1487.95 297.661 1485.84 302.412 1482.52 305.961C1478.86 309.905 1474.15 311.931 1468.38 312.04C1463.67 312.129 1459.96 310.567 1457.25 307.356C1454.77 304.384 1453.48 300.493 1453.39 295.683C1453.37 294.643 1453.41 293.541 1453.51 292.377C1453.98 287.188 1456.14 282.692 1459.99 278.887C1463.93 275.02 1468.48 273.038 1473.64 272.94C1481.39 272.794 1486.92 275.331 1490.24 280.55ZM1480.34 292.788C1480.45 292.052 1480.5 291.47 1480.5 291.042C1480.46 289.064 1479.84 287.567 1478.64 286.55L1480.21 285.633C1478.77 282.826 1476.4 281.453 1473.1 281.515C1469.75 281.578 1466.99 282.711 1464.81 284.914C1462.73 287.013 1461.47 289.759 1461.02 293.153C1460.91 293.95 1460.86 294.614 1460.87 295.144C1460.92 297.712 1461.72 299.879 1463.26 301.645C1464.87 303.531 1466.92 304.451 1469.43 304.404C1472.43 304.347 1474.92 303.117 1476.92 300.714C1478.67 298.581 1479.81 295.939 1480.34 292.788Z" fill="white"/>
<path d="M1512.11 282.893C1513.54 279.282 1515.24 275.311 1517.2 270.981L1518.23 270.807C1520.13 270.43 1522.32 270.071 1524.81 269.729C1522.86 273.996 1520.85 279.076 1518.78 284.968C1518.07 287.091 1517.07 291.118 1515.79 297.05C1515.41 298.656 1514.73 301.839 1513.76 306.601L1504.32 309.749C1505.18 305.752 1506.14 301.749 1507.19 297.737C1507.25 297.487 1507.42 296.921 1507.7 296.04C1506.87 296.188 1506.01 296.298 1505.12 296.369C1503.03 296.537 1500.88 295.982 1498.7 294.704C1495.56 292.767 1493.82 289.715 1493.49 285.549C1493.34 283.781 1493.46 281.869 1493.83 279.815C1494.17 277.681 1494.66 275.371 1495.3 272.886L1503.53 271.431C1502.74 274.418 1502.18 276.999 1501.84 279.174C1501.64 280.458 1501.58 281.7 1501.68 282.899C1501.98 286.619 1503.47 288.371 1506.15 288.156C1508.41 287.976 1510.39 286.222 1512.11 282.893Z" fill="white"/>
<path d="M1547.61 302.306L1538.39 306.07C1538.47 304.925 1538.43 303.788 1538.26 302.658C1537.95 300.56 1537.26 298.632 1536.18 296.875C1534.89 294.714 1533.36 293.434 1531.6 293.035L1531.24 295.251C1530.99 297.08 1530.58 300.602 1530.01 305.818L1520.79 309.552C1521.29 305.357 1521.94 301.006 1522.74 296.499C1523.35 293.091 1524.36 288.965 1525.78 284.121C1526.85 280.461 1528.6 275.464 1531.03 269.131L1531.95 268.903C1533.84 268.399 1536.01 267.895 1538.47 267.389C1537.2 270.852 1535.55 276.05 1533.52 282.984C1533.49 283.174 1533.31 283.912 1532.98 285.196C1537.39 282.529 1541.41 278.57 1545.03 273.32C1546.62 271.004 1547.85 268.743 1548.7 266.536L1549.71 266.294C1551.58 265.794 1553.73 265.293 1556.17 264.79C1554.58 270.65 1551.21 276.41 1546.06 282.07C1543.46 284.987 1540.58 287.295 1537.43 288.994C1539.75 289.766 1541.91 291.231 1543.92 293.389C1546.03 295.676 1547.25 297.979 1547.59 300.299C1547.68 300.904 1547.69 301.573 1547.61 302.306Z" fill="white"/>
<path d="M1564.5 300.054L1555.64 304.604C1555.78 300.298 1556.05 295.907 1556.45 291.431C1556.76 288.027 1557.41 283.829 1558.41 278.836C1558.85 276.636 1559.51 273.86 1560.4 270.508C1560.85 268.535 1561.47 266.24 1562.26 263.624L1570.78 261.133L1568.4 269.806C1567.66 272.788 1566.93 276.481 1566.22 280.884L1566.12 281.662C1570.54 273.091 1575.06 265.588 1579.68 259.151L1588.23 256.779C1586.75 259.372 1585.33 262.223 1583.97 265.332C1583.85 266.681 1583.62 269.227 1583.29 272.972C1582.97 275.144 1582.62 279.26 1582.26 285.319C1582.14 286.939 1581.96 290.186 1581.73 295.06L1572.87 299.579C1572.87 299.204 1572.92 298.509 1573.04 297.497C1573.15 296.485 1573.35 294.395 1573.63 291.228C1574.56 283.841 1575.16 279.246 1575.43 277.445C1575.02 278.043 1574.31 279.345 1573.27 281.35C1569.56 288.431 1566.85 294.05 1565.13 298.208C1564.8 299.039 1564.59 299.655 1564.5 300.054Z" fill="white"/>
</svg>
