<svg width="1494" height="121" viewBox="0 0 1494 121" fill="none" xmlns="http://www.w3.org/2000/svg">
<path d="M63.9011 1.51321C60.4386 7.79219 56.7952 15.2727 52.971 23.9547C51.6015 27.0813 49.5731 33.0631 46.8858 41.9002C46.1623 44.2774 44.754 49.0319 42.6611 56.1636L27.9714 59.7294C29.7801 53.7863 31.731 47.8433 33.824 41.9002C34.0049 41.3576 34.6121 39.6909 35.6457 36.9003L39.289 28.102C41.2786 23.5284 43.7076 18.4897 46.5757 12.9859H46.537C38.1908 12.7792 31.8214 12.8567 27.4287 13.2185L29.8705 14.6913C29.5605 15.3631 28.8499 16.991 27.7388 19.575C26.2918 22.7274 25.1936 25.2467 24.4443 27.133L20.6071 38.6057L19.5994 41.9002C18.7984 44.5875 17.403 49.7942 15.4134 57.5201L0.723694 61.1247C2.40326 54.9233 4.32829 48.5151 6.4988 41.9002C8.17836 36.8874 10.6202 30.9055 13.8243 23.9547C15.1421 21.0607 16.8475 17.637 18.9405 13.6836C15.5297 14.0195 12.6615 14.3037 10.336 14.5363L13.7468 2.98606C19.1214 2.70183 25.5424 2.44343 33.01 2.21088C37.4544 2.08168 47.7514 1.84913 63.9011 1.51321ZM106.459 10.3115L103.707 12.1332C104.611 14.7172 105.063 16.9393 105.063 18.7998C105.063 20.1434 104.857 22.0168 104.443 24.4199C103.151 31.9391 100.36 37.908 96.0711 42.3266C91.3425 47.2361 85.3219 49.6908 78.0094 49.6908C72.0405 49.6908 67.3765 47.6236 64.0173 43.4893C60.9424 39.6651 59.405 34.7039 59.405 28.6058C59.405 27.288 59.4825 25.8927 59.6376 24.4199C60.3611 17.8566 63.2034 12.2107 68.1646 7.48212C73.2549 2.67599 79.0688 0.272922 85.6062 0.272922C95.4251 0.272922 102.376 3.61913 106.459 10.3115ZM93.6293 25.5826C93.7843 24.6524 93.8619 23.916 93.8619 23.3734C93.8619 20.8669 93.1125 18.9548 91.6138 17.637L93.6293 16.513C91.8722 12.9213 88.9007 11.1255 84.7147 11.1255C80.477 11.1255 76.95 12.495 74.1335 15.2339C71.4462 17.8437 69.7795 21.2933 69.1335 25.5826C68.9785 26.5904 68.901 27.4301 68.901 28.102C68.901 31.3577 69.857 34.1226 71.7692 36.3964C73.7588 38.8253 76.3427 40.0398 79.521 40.0398C83.3194 40.0398 86.5105 38.5411 89.0945 35.5437C91.3683 32.8823 92.88 29.5619 93.6293 25.5826ZM103.28 40.0398C105.916 39.8331 107.983 38.4248 109.482 35.815C110.334 34.4455 110.993 32.9598 111.458 31.3577C112.104 29.7299 113.073 27.1976 114.365 23.7609C116.381 19.1099 118.371 14.8722 120.334 11.048L115.334 11.7069L118.086 2.55971C121.42 2.27548 123.797 2.05584 125.218 1.9008C130.36 1.53905 134.998 1.25482 139.133 1.0481L139.636 1.00935C141.419 0.905988 147.091 0.673433 156.652 0.311681H156.69C154.417 4.42015 151.38 10.6345 147.582 18.9548C147.504 19.1615 147.156 20.053 146.535 21.6292L143.318 31.2027L142.505 33.9158C141.807 36.1639 140.644 40.5049 139.016 46.9389L126.768 49.8846C128.164 44.7167 129.766 39.3938 131.574 33.9158C132.996 29.7299 135.037 24.7428 137.698 18.9548C138.784 16.5776 140.205 13.7223 141.962 10.3891H136.303C132.22 10.5182 128.965 10.6216 126.536 10.6991L129.288 12.2495C128.461 13.9807 127.66 15.8282 126.885 17.792C125.515 21.2287 124.068 25.3113 122.544 30.0399C121.743 32.3655 121.265 33.6058 121.11 33.7608L120.954 34.4972C118.965 40.1819 116.42 44.4325 113.319 47.249C110.347 49.342 107.001 50.3755 103.28 50.3497V40.0398ZM174.132 27.0555C171.6 30.9314 168.796 37.5463 165.721 46.9001L165.334 47.0164C162.44 47.5332 158.499 48.4893 153.512 49.8846C153.796 48.696 155.566 44.5617 158.822 37.4817L164.016 27.0555C163.292 24.8074 162.582 21.6034 161.884 17.4432C160.902 11.9136 160.308 8.65781 160.101 7.67591C159.507 5.06613 158.861 3.06358 158.163 1.66825H168.163C168.551 2.98606 168.99 5.24701 169.481 8.4511L170.954 18.5672C171.703 17.3786 173.835 13.9549 177.349 8.29606C179.416 4.96278 181.122 2.70183 182.465 1.51321L193.201 0.0403674C190.876 2.23672 186.522 8.16686 180.14 17.8308C177.504 21.7842 175.501 24.8591 174.132 27.0555ZM215.372 15.6603C217.542 11.2418 220.087 6.39686 223.007 1.12562L224.325 1.00935C226.754 0.725112 229.558 0.492557 232.736 0.311681C229.842 5.5054 226.793 11.7198 223.589 18.9548C222.478 21.5646 220.811 26.5516 218.589 33.9158C217.943 35.9055 216.767 39.8589 215.062 45.7761L202.814 48.7993C204.312 43.8382 205.927 38.877 207.659 33.9158C207.762 33.6058 208.033 32.9081 208.473 31.8228C207.413 31.9262 206.315 31.9779 205.178 31.9779C202.517 31.9779 199.868 31.0606 197.232 29.226C193.46 26.4612 191.574 22.4302 191.574 17.1331C191.574 14.8851 191.91 12.482 192.581 9.92394C193.227 7.26248 194.08 4.39431 195.139 1.31942L205.682 0.311681C204.39 4.00672 203.421 7.2108 202.775 9.92394C202.387 11.526 202.194 13.0893 202.194 14.6138C202.194 19.3424 203.899 21.7067 207.31 21.7067C210.178 21.7067 212.865 19.6912 215.372 15.6603ZM235.294 46.7063L223.046 49.7296C224.467 44.4583 226.082 39.1225 227.891 33.722C229.26 29.6136 231.289 24.6266 233.976 18.761C235.165 16.1771 236.793 12.9472 238.86 9.07124C239.997 6.77153 241.431 4.12299 243.162 1.12562L254.402 0.544236L248.937 10.5441C247.154 14.0066 245.177 18.3476 243.007 23.5672L242.658 24.4974C250.617 15.221 258.381 7.28832 265.952 0.699272L277.192 0.272922C274.609 3.03774 272.025 6.13847 269.441 9.57511C268.898 11.203 267.877 14.2779 266.379 18.7998C265.345 21.3837 263.717 26.3578 261.495 33.722C260.875 35.6858 259.712 39.6393 258.007 45.5823L245.759 48.5668C245.862 48.1017 246.134 47.2619 246.573 46.0474C247.012 44.833 247.865 42.3136 249.131 38.4894C252.438 29.6523 254.518 24.1615 255.371 22.0168C254.699 22.6369 253.433 24.0323 251.573 26.2028C244.932 33.8512 239.945 39.9881 236.612 44.6134C235.966 45.5436 235.526 46.2412 235.294 46.7063ZM330.951 42.1328C326.481 47.1715 320.732 49.6908 313.704 49.6908C308.019 49.6908 303.6 47.6236 300.448 43.4893C297.528 39.6651 296.068 34.7039 296.068 28.6058C296.068 27.288 296.146 25.8927 296.301 24.4199C296.998 17.8566 299.699 12.2107 304.401 7.48212C309.182 2.67599 314.66 0.272922 320.835 0.272922C330.163 0.272922 336.765 3.61913 340.641 10.3115L328.471 16.513C326.791 12.9213 324.001 11.1255 320.099 11.1255C316.068 11.1255 312.709 12.495 310.021 15.2339C307.489 17.8437 305.913 21.2933 305.293 25.5826C305.138 26.5904 305.06 27.4301 305.06 28.102C305.06 31.3577 305.965 34.1226 307.773 36.3964C309.686 38.8253 312.127 40.0398 315.099 40.0398C318.355 40.0398 321.21 38.722 323.665 36.0863L330.951 42.1328ZM370.253 13.7223C370.253 11.9911 369.103 10.712 366.804 9.88518C366.106 9.62679 365.008 9.49759 363.509 9.49759H362.734C361.39 9.54927 359.569 9.8981 357.269 10.5441L359.594 11.7069C358.819 13.0764 358.018 14.7688 357.191 16.7843C357.114 16.9135 356.674 18.0763 355.873 20.2726L358.703 20.1563C361.571 20.0788 363.974 19.6654 365.912 18.9161C368.806 17.805 370.253 16.0737 370.253 13.7223ZM363.509 32.3655C363.509 30.6084 362.372 29.3293 360.098 28.5283C359.426 28.2441 358.341 28.102 356.842 28.102H355.951C355.822 28.102 355.641 28.089 355.408 28.0632C355.202 28.0115 355.06 27.9857 354.982 27.9857C354.672 27.9857 354.168 28.1149 353.47 28.3733L352.85 30.3888C352.178 31.6549 351.377 33.3344 350.447 35.4274C350.292 35.815 349.879 36.9778 349.207 38.9158L351.959 38.877C354.801 38.7736 357.217 38.3344 359.207 37.5592C362.075 36.4223 363.509 34.691 363.509 32.3655ZM371.803 25.9315C373.044 28.3087 373.664 29.9624 373.664 30.8926C373.664 31.5903 373.573 32.443 373.393 33.4507C371.971 40.7116 367.372 45.2335 359.594 47.0164C359.284 47.0423 356.545 47.3265 351.377 47.8691L343.703 48.7606C340.912 49.0706 338.29 49.3807 335.835 49.6908C337.334 43.9028 339.142 37.908 341.261 31.7066C342.553 27.8048 344.582 22.8307 347.346 16.7843C347.889 15.5699 348.69 13.9291 349.75 11.8619C348.845 12.172 348.057 12.4045 347.385 12.5596L345.06 1.51321C350.589 0.686353 355.357 0.272922 359.362 0.272922C360.318 0.272922 361.364 0.324601 362.501 0.427959C365.68 0.660513 367.501 0.81555 367.966 0.893068C369.646 1.1773 371.519 1.75869 373.586 2.63723C378.108 4.52351 380.369 7.75343 380.369 12.327C380.369 12.973 380.279 13.7869 380.098 14.7688C379.219 19.2649 376.455 22.9858 371.803 25.9315ZM425.834 10.3115L423.082 12.1332C423.986 14.7172 424.438 16.9393 424.438 18.7998C424.438 20.1434 424.232 22.0168 423.818 24.4199C422.526 31.9391 419.736 37.908 415.446 42.3266C410.718 47.2361 404.697 49.6908 397.384 49.6908C391.416 49.6908 386.752 47.6236 383.392 43.4893C380.318 39.6651 378.78 34.7039 378.78 28.6058C378.78 27.288 378.858 25.8927 379.013 24.4199C379.736 17.8566 382.579 12.2107 387.54 7.48212C392.63 2.67599 398.444 0.272922 404.981 0.272922C414.8 0.272922 421.751 3.61913 425.834 10.3115ZM413.004 25.5826C413.159 24.6524 413.237 23.916 413.237 23.3734C413.237 20.8669 412.488 18.9548 410.989 17.637L413.004 16.513C411.247 12.9213 408.276 11.1255 404.09 11.1255C399.852 11.1255 396.325 12.495 393.509 15.2339C390.821 17.8437 389.155 21.2933 388.509 25.5826C388.354 26.5904 388.276 27.4301 388.276 28.102C388.276 31.3577 389.232 34.1226 391.144 36.3964C393.134 38.8253 395.718 40.0398 398.896 40.0398C402.694 40.0398 405.886 38.5411 408.47 35.5437C410.743 32.8823 412.255 29.5619 413.004 25.5826ZM433.275 46.7063L421.028 49.7296C422.449 44.4583 424.064 39.1225 425.872 33.722C427.242 29.6136 429.27 24.6266 431.958 18.761C433.146 16.1771 434.774 12.9472 436.841 9.07124C437.978 6.77153 439.412 4.12299 441.144 1.12562L452.384 0.544236L446.919 10.5441C445.136 14.0066 443.159 18.3476 440.989 23.5672L440.64 24.4974C448.598 15.221 456.363 7.28832 463.934 0.699272L475.174 0.272922C472.59 3.03774 470.006 6.13847 467.422 9.57511C466.88 11.203 465.859 14.2779 464.36 18.7998C463.327 21.3837 461.699 26.3578 459.477 33.722C458.856 35.6858 457.694 39.6393 455.988 45.5823L443.74 48.5668C443.844 48.1017 444.115 47.2619 444.554 46.0474C444.994 44.833 445.846 42.3136 447.112 38.4894C450.42 29.6523 452.5 24.1615 453.353 22.0168C452.681 22.6369 451.415 24.0323 449.554 26.2028C442.914 33.8512 437.927 39.9881 434.593 44.6134C433.947 45.5436 433.508 46.2412 433.275 46.7063ZM543.39 0.311681C540.496 5.5054 537.46 11.7198 534.282 18.9548C533.145 21.5646 531.452 26.5516 529.204 33.9158C528.61 35.9055 527.447 39.8589 525.716 45.7761L513.429 48.7993C514.954 43.8382 516.595 38.877 518.352 33.9158C518.507 33.4766 519.011 32.0812 519.863 29.7299L522.886 22.4431C524.54 18.6189 526.556 14.42 528.933 9.84642C521.982 9.66555 516.672 9.73015 513.003 10.0402L515.057 11.2805C514.799 11.8231 514.204 13.1797 513.274 15.3502C512.06 17.96 511.155 20.053 510.561 21.6292L507.305 31.2027L506.53 33.9158C505.832 36.1639 504.657 40.5049 503.003 46.9389L490.794 49.8846C492.189 44.7167 493.778 39.3938 495.561 33.9158C496.957 29.7299 498.985 24.7428 501.646 18.9548C502.758 16.5776 504.205 13.7353 505.988 10.4278C503.094 10.712 500.69 10.9446 498.778 11.1255L501.608 1.51321C506.104 1.28066 511.453 1.06102 517.654 0.854309C521.349 0.750951 529.928 0.570075 543.39 0.311681ZM579.979 0.272922L576.994 9.65263H573.273C566.323 9.65263 560.883 9.80766 556.956 10.1177L558.971 11.3193C558.661 12.0169 557.873 13.8645 556.607 16.8618C556.245 17.637 555.845 18.5543 555.405 19.6137L569.32 19.1099L566.413 27.5206L552.692 27.9857C551.685 30.9314 550.586 34.6652 549.398 39.1871C553.144 38.9804 558.752 38.6832 566.219 38.2956L563.118 47.6366C561.206 47.6366 559.527 47.6366 558.08 47.6366H556.219C551.465 47.6366 544.488 48.3859 535.289 49.8846V49.7683C535.289 49.4841 535.858 47.3265 536.995 43.2955C538.338 38.5928 539.54 34.7685 540.599 31.8228C542.356 26.8875 544.372 21.9005 546.646 16.8618C547.499 14.9755 548.455 13.0118 549.514 10.9704C547.266 11.2288 545.134 11.4743 543.119 11.7069L545.987 2.01708C550.457 1.68117 555.793 1.33234 561.994 0.970586C565.689 0.763871 571.684 0.531316 579.979 0.272922ZM607.963 13.7223C607.963 11.9911 606.813 10.712 604.513 9.88518C603.841 9.62679 602.756 9.49759 601.257 9.49759H600.444C599.1 9.54927 597.291 9.8981 595.017 10.5441L597.343 11.7069C596.542 13.0764 595.741 14.7688 594.94 16.7843C594.862 16.9135 594.423 18.0763 593.622 20.2726L596.413 20.1563C599.281 20.0788 601.697 19.6654 603.661 18.9161C606.529 17.805 607.963 16.0737 607.963 13.7223ZM590.948 28.3733L589.824 31.7066C589.074 34.1355 587.731 39.1871 585.793 46.8614L585.444 46.9001C581.981 47.5461 578.028 48.4763 573.583 49.6908C575.082 43.9028 576.891 37.908 579.01 31.7066C580.302 27.8048 582.33 22.8307 585.095 16.7843C585.638 15.5699 586.439 13.9291 587.498 11.8619C586.568 12.172 585.78 12.4045 585.134 12.5596L582.808 1.51321C588.338 0.686353 593.105 0.272922 597.11 0.272922C598.04 0.272922 599.074 0.324601 600.211 0.427959C603.415 0.660513 605.25 0.81555 605.715 0.893068C607.394 1.1773 609.268 1.75869 611.335 2.63723C615.857 4.52351 618.118 7.75343 618.118 12.327C618.118 12.973 618.014 13.7869 617.808 14.7688C616.774 20.2209 612.562 24.1356 605.172 26.5128C601.245 27.7531 596.503 28.3733 590.948 28.3733ZM647.691 13.7223C647.691 11.9911 646.541 10.712 644.241 9.88518C643.544 9.62679 642.445 9.49759 640.947 9.49759H640.172C638.828 9.54927 637.006 9.8981 634.707 10.5441L637.032 11.7069C636.257 13.0764 635.456 14.7688 634.629 16.7843C634.552 16.9135 634.112 18.0763 633.311 20.2726L636.141 20.1563C639.009 20.0788 641.412 19.6654 643.35 18.9161C646.244 17.805 647.691 16.0737 647.691 13.7223ZM640.947 32.3655C640.947 30.6084 639.81 29.3293 637.536 28.5283C636.864 28.2441 635.779 28.102 634.28 28.102H633.389C633.26 28.102 633.079 28.089 632.846 28.0632C632.639 28.0115 632.497 27.9857 632.42 27.9857C632.11 27.9857 631.606 28.1149 630.908 28.3733L630.288 30.3888C629.616 31.6549 628.815 33.3344 627.885 35.4274C627.73 35.815 627.316 36.9778 626.645 38.9158L629.397 38.877C632.239 38.7736 634.655 38.3344 636.644 37.5592C639.513 36.4223 640.947 34.691 640.947 32.3655ZM649.241 25.9315C650.482 28.3087 651.102 29.9624 651.102 30.8926C651.102 31.5903 651.011 32.443 650.83 33.4507C649.409 40.7116 644.81 45.2335 637.032 47.0164C636.722 47.0423 633.983 47.3265 628.815 47.8691L621.141 48.7606C618.35 49.0706 615.727 49.3807 613.273 49.6908C614.771 43.9028 616.58 37.908 618.699 31.7066C619.991 27.8048 622.019 22.8307 624.784 16.7843C625.327 15.5699 626.128 13.9291 627.187 11.8619C626.283 12.172 625.495 12.4045 624.823 12.5596L622.497 1.51321C628.027 0.686353 632.794 0.272922 636.8 0.272922C637.756 0.272922 638.802 0.324601 639.939 0.427959C643.117 0.660513 644.939 0.81555 645.404 0.893068C647.084 1.1773 648.957 1.75869 651.024 2.63723C655.546 4.52351 657.807 7.75343 657.807 12.327C657.807 12.973 657.717 13.7869 657.536 14.7688C656.657 19.2649 653.892 22.9858 649.241 25.9315ZM711.876 17.0556L716.411 5.54416C717.522 2.72767 718.207 1.07394 718.465 0.582995L715.481 1.0481C714.085 1.25482 712.897 1.35818 711.915 1.35818C711.605 1.35818 711.282 1.35818 710.946 1.35818L708.93 1.51321C708.439 2.36591 707.806 3.70956 707.031 5.54416L704.163 12.2107C703.207 14.4588 702.535 16.0091 702.147 16.8618C699.899 21.9005 697.884 26.8875 696.101 31.8228C695.067 34.7169 693.892 38.5411 692.574 43.2955C691.411 47.3265 690.83 49.4841 690.83 49.7683V49.8846C693.905 48.8769 697.703 48.1663 702.225 47.7528L704.938 39.1871C705.352 37.7659 705.907 35.8925 706.605 33.567L709.279 25.1563C710.183 22.2364 710.739 20.3889 710.946 19.6137C711.488 18.2959 711.798 17.4432 711.876 17.0556ZM682.264 32.3655C682.264 30.6084 681.127 29.3293 678.853 28.5283C678.156 28.2441 677.044 28.102 675.52 28.102H674.706C674.577 28.102 674.396 28.089 674.163 28.0632C673.931 28.0115 673.763 27.9857 673.659 27.9857C673.375 27.9857 672.897 28.1149 672.225 28.3733L671.528 30.3888C670.908 31.6549 670.119 33.3344 669.163 35.4274C669.034 35.815 668.621 36.9778 667.923 38.9158L670.714 38.877C673.556 38.7736 675.959 38.3344 677.923 37.5592C680.817 36.4223 682.264 34.691 682.264 32.3655ZM664.745 19.575C665.236 18.4897 665.675 17.5595 666.063 16.7843C666.399 16.0866 666.786 15.2727 667.225 14.3425C668.207 12.2495 670.559 7.85679 674.28 1.16438L675.442 1.00935C677.923 0.750951 680.752 0.531316 683.931 0.35044C681.786 4.27803 679.396 9.07124 676.76 14.7301C676.502 15.3761 676.218 16.0608 675.907 16.7843C675.83 16.9135 675.52 17.7533 674.977 19.3036C676.734 19.2261 678.401 19.2649 679.977 19.4199C681.683 19.6525 683.569 20.2339 685.636 21.1641C690.158 22.9987 692.419 26.2028 692.419 30.7763C692.419 31.4482 692.303 32.288 692.07 33.2957C690.675 40.6599 686.101 45.2335 678.349 47.0164C678.013 47.0423 675.262 47.3265 670.094 47.8691L662.458 48.7606C659.667 49.0706 657.045 49.3807 654.59 49.6908C656.089 43.9028 657.885 37.908 659.977 31.7066C660.133 31.2673 660.3 30.8151 660.481 30.35C659.551 30.6084 658.776 30.8409 658.156 31.0477L655.443 20.5052C658.905 20.0918 662.006 19.7817 664.745 19.575ZM755.092 0.272922L752.108 9.65263H748.387C741.436 9.65263 735.997 9.80766 732.069 10.1177L734.085 11.3193C733.775 12.0169 732.987 13.8645 731.721 16.8618C731.359 17.637 730.958 18.5543 730.519 19.6137L744.434 19.1099L741.527 27.5206L727.806 27.9857C726.798 30.9314 725.7 34.6652 724.511 39.1871C728.258 38.9804 733.865 38.6832 741.333 38.2956L738.232 47.6366C736.32 47.6366 734.64 47.6366 733.193 47.6366H731.333C726.579 47.6366 719.602 48.3859 710.403 49.8846V49.7683C710.403 49.4841 710.972 47.3265 712.109 43.2955C713.452 38.5928 714.654 34.7685 715.713 31.8228C717.47 26.8875 719.486 21.9005 721.76 16.8618C722.612 14.9755 723.568 13.0118 724.628 10.9704C722.38 11.2288 720.248 11.4743 718.232 11.7069L721.101 2.01708C725.571 1.68117 730.907 1.33234 737.108 0.970586C740.803 0.763871 746.798 0.531316 755.092 0.272922ZM806.758 13.7223C806.758 11.9911 805.608 10.712 803.309 9.88518C802.611 9.62679 801.513 9.49759 800.014 9.49759H799.239C797.895 9.54927 796.074 9.8981 793.774 10.5441L796.1 11.7069C795.324 13.0764 794.523 14.7688 793.696 16.7843C793.619 16.9135 793.18 18.0763 792.379 20.2726L795.208 20.1563C798.076 20.0788 800.479 19.6654 802.417 18.9161C805.311 17.805 806.758 16.0737 806.758 13.7223ZM800.014 32.3655C800.014 30.6084 798.877 29.3293 796.603 28.5283C795.932 28.2441 794.846 28.102 793.348 28.102H792.456C792.327 28.102 792.146 28.089 791.914 28.0632C791.707 28.0115 791.565 27.9857 791.487 27.9857C791.177 27.9857 790.673 28.1149 789.976 28.3733L789.355 30.3888C788.684 31.6549 787.883 33.3344 786.952 35.4274C786.797 35.815 786.384 36.9778 785.712 38.9158L788.464 38.877C791.306 38.7736 793.722 38.3344 795.712 37.5592C798.58 36.4223 800.014 34.691 800.014 32.3655ZM808.309 25.9315C809.549 28.3087 810.169 29.9624 810.169 30.8926C810.169 31.5903 810.079 32.443 809.898 33.4507C808.477 40.7116 803.877 45.2335 796.1 47.0164C795.789 47.0423 793.05 47.3265 787.883 47.8691L780.208 48.7606C777.418 49.0706 774.795 49.3807 772.34 49.6908C773.839 43.9028 775.648 37.908 777.766 31.7066C779.058 27.8048 781.087 22.8307 783.852 16.7843C784.394 15.5699 785.195 13.9291 786.255 11.8619C785.35 12.172 784.562 12.4045 783.89 12.5596L781.565 1.51321C787.094 0.686353 791.862 0.272922 795.867 0.272922C796.823 0.272922 797.87 0.324601 799.006 0.427959C802.185 0.660513 804.006 0.81555 804.472 0.893068C806.151 1.1773 808.024 1.75869 810.092 2.63723C814.613 4.52351 816.874 7.75343 816.874 12.327C816.874 12.973 816.784 13.7869 816.603 14.7688C815.725 19.2649 812.96 22.9858 808.309 25.9315ZM862.339 10.3115L859.587 12.1332C860.491 14.7172 860.944 16.9393 860.944 18.7998C860.944 20.1434 860.737 22.0168 860.323 24.4199C859.031 31.9391 856.241 37.908 851.951 42.3266C847.223 47.2361 841.202 49.6908 833.89 49.6908C827.921 49.6908 823.257 47.6236 819.898 43.4893C816.823 39.6651 815.285 34.7039 815.285 28.6058C815.285 27.288 815.363 25.8927 815.518 24.4199C816.241 17.8566 819.084 12.2107 824.045 7.48212C829.135 2.67599 834.949 0.272922 841.486 0.272922C851.305 0.272922 858.256 3.61913 862.339 10.3115ZM849.51 25.5826C849.665 24.6524 849.742 23.916 849.742 23.3734C849.742 20.8669 848.993 18.9548 847.494 17.637L849.51 16.513C847.753 12.9213 844.781 11.1255 840.595 11.1255C836.357 11.1255 832.83 12.495 830.014 15.2339C827.326 17.8437 825.66 21.2933 825.014 25.5826C824.859 26.5904 824.781 27.4301 824.781 28.102C824.781 31.3577 825.737 34.1226 827.649 36.3964C829.639 38.8253 832.223 40.0398 835.401 40.0398C839.2 40.0398 842.391 38.5411 844.975 35.5437C847.249 32.8823 848.76 29.5619 849.51 25.5826ZM880.827 39.7685C882.791 39.6909 884.251 39.6263 885.207 39.5747L886.835 41.9777L887.804 39.4971L890.672 32.4042C890.749 32.0166 891.046 31.1639 891.563 29.8461C891.77 29.0709 892.455 27.2363 893.617 24.3423C895.581 17.7274 897.325 13.0247 898.85 10.234L893.85 10.3891C889.742 10.5182 886.499 10.6216 884.122 10.6991L886.835 12.2495C886.008 13.9807 885.207 15.8282 884.432 17.792C883.062 21.2287 881.615 25.3113 880.091 30.0399C878.824 33.8642 877.326 37.1974 875.594 40.0398C877.3 39.9364 879.044 39.846 880.827 39.7685ZM897.145 1.00935C898.953 0.905988 904.767 0.673433 914.586 0.311681C912.364 4.34263 909.354 10.5182 905.555 18.8385C905.452 19.0453 905.09 19.9367 904.47 21.5129L901.253 31.0477L900.439 33.7608C900.077 34.9753 899.573 36.784 898.927 39.1871C900.659 39.1354 902.493 39.0966 904.431 39.0708L903.772 40.6987L903.075 42.4428C901.964 45.3885 900.749 48.9156 899.431 53.0241L887.145 55.9698C887.894 53.5925 888.643 51.2541 889.393 48.9544C886.886 48.9544 884.6 48.9802 882.532 49.0319L874.393 49.4195C872.197 49.5745 870.065 49.7296 867.998 49.8846L867.3 52.2489L866.564 55.2333L854.354 58.2178C855.491 54.0318 857.339 48.2696 859.897 40.9312C860.026 40.9312 860.181 40.9183 860.362 40.8925C862.403 40.6858 864.083 39.6263 865.401 37.7142C866.279 36.6031 867.119 35.3758 867.92 34.0321C869.29 30.6213 870.633 27.1976 871.951 23.7609C873.941 19.1099 875.905 14.8722 877.843 11.048L872.92 11.7069L875.594 2.55971C878.979 2.27548 881.383 2.05584 882.804 1.9008C887.946 1.53905 892.571 1.25482 896.679 1.0481L897.145 1.00935ZM917.144 46.7063L904.896 49.7296C906.318 44.4583 907.932 39.1225 909.741 33.722C911.111 29.6136 913.139 24.6266 915.826 18.761C917.015 16.1771 918.643 12.9472 920.71 9.07124C921.847 6.77153 923.281 4.12299 925.012 1.12562L936.252 0.544236L930.787 10.5441C929.005 14.0066 927.028 18.3476 924.857 23.5672L924.508 24.4974C932.467 15.221 940.232 7.28832 947.803 0.699272L959.043 0.272922C956.459 3.03774 953.875 6.13847 951.291 9.57511C950.748 11.203 949.728 14.2779 948.229 18.7998C947.195 21.3837 945.568 26.3578 943.345 33.722C942.725 35.6858 941.562 39.6393 939.857 45.5823L927.609 48.5668C927.713 48.1017 927.984 47.2619 928.423 46.0474C928.862 44.833 929.715 42.3136 930.981 38.4894C934.289 29.6523 936.369 24.1615 937.221 22.0168C936.55 22.6369 935.283 24.0323 933.423 26.2028C926.782 33.8512 921.795 39.9881 918.462 44.6134C917.816 45.5436 917.377 46.2412 917.144 46.7063ZM993.5 0.272922L990.554 9.65263H986.678C982.906 9.65263 979.637 9.69139 976.872 9.76891L979.663 11.3193C977.596 15.2727 975.063 22.1072 972.066 31.8228C970.981 35.5179 969.637 40.5436 968.035 46.9001L967.686 47.0164C964.818 47.5332 960.865 48.4893 955.826 49.8846C957.376 43.8898 959.185 37.8693 961.252 31.8228C962.518 28.0503 964.56 23.0633 967.376 16.8618C968.048 15.3373 969.133 13.0893 970.632 10.1177C966.549 10.5053 961.911 11.035 956.717 11.7069L959.547 2.01708C964.25 1.68117 969.585 1.33234 975.554 0.970586C979.249 0.763871 985.231 0.531316 993.5 0.272922ZM1031.75 0.272922L1028.77 9.65263H1025.05C1018.1 9.65263 1012.66 9.80766 1008.73 10.1177L1010.75 11.3193C1010.44 12.0169 1009.65 13.8645 1008.38 16.8618C1008.02 17.637 1007.62 18.5543 1007.18 19.6137L1021.1 19.1099L1018.19 27.5206L1004.47 27.9857C1003.46 30.9314 1002.36 34.6652 1001.17 39.1871C1004.92 38.9804 1010.53 38.6832 1018 38.2956L1014.89 47.6366C1012.98 47.6366 1011.3 47.6366 1009.86 47.6366H1008C1003.24 47.6366 996.265 48.3859 987.066 49.8846V49.7683C987.066 49.4841 987.634 47.3265 988.771 43.2955C990.115 38.5928 991.316 34.7685 992.376 31.8228C994.133 26.8875 996.148 21.9005 998.422 16.8618C999.275 14.9755 1000.23 13.0118 1001.29 10.9704C999.042 11.2288 996.911 11.4743 994.895 11.7069L997.763 2.01708C1002.23 1.68117 1007.57 1.33234 1013.77 0.970586C1017.47 0.763871 1023.46 0.531316 1031.75 0.272922ZM1023.73 40.0398C1026.37 39.8331 1028.43 38.4248 1029.93 35.815C1030.79 34.4455 1031.44 32.9598 1031.91 31.3577C1032.56 29.7299 1033.52 27.1976 1034.82 23.7609C1036.83 19.1099 1038.82 14.8722 1040.79 11.048L1035.79 11.7069L1038.54 2.55971C1041.87 2.27548 1044.25 2.05584 1045.67 1.9008C1050.81 1.53905 1055.45 1.25482 1059.58 1.0481L1060.09 1.00935C1061.87 0.905988 1067.54 0.673433 1077.1 0.311681H1077.14C1074.87 4.42015 1071.83 10.6345 1068.03 18.9548C1067.96 19.1615 1067.61 20.053 1066.99 21.6292L1063.77 31.2027L1062.96 33.9158C1062.26 36.1639 1061.1 40.5049 1059.47 46.9389L1047.22 49.8846C1048.62 44.7167 1050.22 39.3938 1052.03 33.9158C1053.45 29.7299 1055.49 24.7428 1058.15 18.9548C1059.24 16.5776 1060.66 13.7223 1062.41 10.3891H1056.75C1052.67 10.5182 1049.42 10.6216 1046.99 10.6991L1049.74 12.2495C1048.91 13.9807 1048.11 15.8282 1047.34 17.792C1045.97 21.2287 1044.52 25.3113 1043 30.0399C1042.19 32.3655 1041.72 33.6058 1041.56 33.7608L1041.41 34.4972C1039.42 40.1819 1036.87 44.4325 1033.77 47.249C1030.8 49.342 1027.45 50.3755 1023.73 50.3497V40.0398ZM1098.38 32.3655C1098.38 30.6084 1097.24 29.3293 1094.97 28.5283C1094.3 28.2441 1093.2 28.102 1091.68 28.102H1090.82C1090.69 28.102 1090.51 28.089 1090.28 28.0632C1090.07 28.0115 1089.92 27.9857 1089.82 27.9857C1089.51 27.9857 1089.01 28.1149 1088.34 28.3733L1087.68 30.3888C1087.04 31.6549 1086.24 33.3344 1085.28 35.4274C1085.15 35.815 1084.75 36.9778 1084.08 38.9158L1086.83 38.877C1089.67 38.7736 1092.09 38.3344 1094.08 37.5592C1096.95 36.4223 1098.38 34.691 1098.38 32.3655ZM1080.86 19.575C1081.38 18.4897 1081.83 17.5595 1082.22 16.7843C1082.53 16.0866 1082.9 15.2727 1083.34 14.3425C1084.33 12.2495 1086.68 7.85679 1090.4 1.16438L1091.6 1.00935C1094.05 0.750951 1096.88 0.531316 1100.09 0.35044C1097.92 4.27803 1095.51 9.07124 1092.88 14.7301C1092.62 15.3761 1092.35 16.0608 1092.06 16.7843C1091.99 16.9135 1091.66 17.7533 1091.1 19.3036C1092.88 19.2261 1094.56 19.2649 1096.13 19.4199C1097.81 19.6525 1099.69 20.2339 1101.75 21.1641C1106.28 22.9987 1108.54 26.2028 1108.54 30.7763C1108.54 31.4482 1108.43 32.288 1108.23 33.2957C1106.83 40.6599 1102.24 45.2335 1094.47 47.0164C1094.16 47.0423 1091.42 47.3265 1086.25 47.8691L1078.58 48.7606C1075.79 49.0706 1073.16 49.3807 1070.71 49.6908C1072.21 43.9028 1074.02 37.908 1076.13 31.7066C1076.26 31.2673 1076.42 30.8151 1076.6 30.35C1075.67 30.6084 1074.89 30.8409 1074.27 31.0477L1071.56 20.5052C1075.02 20.0918 1078.12 19.7817 1080.86 19.575ZM1148.3 42.1328C1143.83 47.1715 1138.08 49.6908 1131.06 49.6908C1125.37 49.6908 1120.95 47.6236 1117.8 43.4893C1114.88 39.6651 1113.42 34.7039 1113.42 28.6058C1113.42 27.288 1113.5 25.8927 1113.65 24.4199C1114.35 17.8566 1117.05 12.2107 1121.75 7.48212C1126.53 2.67599 1132.01 0.272922 1138.19 0.272922C1147.52 0.272922 1154.12 3.61913 1157.99 10.3115L1145.82 16.513C1144.14 12.9213 1141.35 11.1255 1137.45 11.1255C1133.42 11.1255 1130.06 12.495 1127.37 15.2339C1124.84 17.8437 1123.27 21.2933 1122.64 25.5826C1122.49 26.5904 1122.41 27.4301 1122.41 28.102C1122.41 31.3577 1123.32 34.1226 1125.13 36.3964C1127.04 38.8253 1129.48 40.0398 1132.45 40.0398C1135.71 40.0398 1138.56 38.722 1141.02 36.0863L1148.3 42.1328ZM1186.52 45.7374L1174.27 48.7606C1174.58 47.3394 1174.74 45.9053 1174.74 44.4583C1174.74 41.771 1174.22 39.2258 1173.19 36.8228C1171.97 33.8771 1170.29 31.9908 1168.15 31.1639L1167.3 33.8771C1166.65 36.1251 1165.49 40.4661 1163.81 46.9001L1151.56 49.8846C1152.95 44.7167 1154.57 39.3809 1156.4 33.8771C1157.8 29.7169 1159.83 24.7299 1162.49 18.9161C1164.5 14.5234 1167.62 8.58029 1171.83 1.08686L1173.03 0.970586C1175.49 0.686353 1178.3 0.453798 1181.48 0.272922C1179.26 4.38139 1176.24 10.5958 1172.41 18.9161C1172.33 19.1486 1171.97 20.0401 1171.33 21.5904C1177.35 19.0582 1183.11 14.8334 1188.61 8.9162C1191.04 6.30642 1192.99 3.69664 1194.47 1.08686L1195.78 0.970586C1198.21 0.686353 1201 0.453798 1204.16 0.272922C1201.08 7.32708 1195.8 13.9291 1188.3 20.0788C1184.5 23.2571 1180.47 25.6214 1176.21 27.1717C1178.98 28.5671 1181.42 30.8022 1183.54 33.8771C1185.76 37.1328 1186.87 40.2465 1186.87 43.218C1186.87 43.9932 1186.75 44.833 1186.52 45.7374ZM1205.12 46.7063L1192.88 49.7296C1194.3 44.4583 1195.91 39.1225 1197.72 33.722C1199.09 29.6136 1201.12 24.6266 1203.81 18.761C1205 16.1771 1206.62 12.9472 1208.69 9.07124C1209.83 6.77153 1211.26 4.12299 1212.99 1.12562L1224.23 0.544236L1218.77 10.5441C1216.98 14.0066 1215.01 18.3476 1212.84 23.5672L1212.49 24.4974C1220.45 15.221 1228.21 7.28832 1235.78 0.699272L1247.02 0.272922C1244.44 3.03774 1241.86 6.13847 1239.27 9.57511C1238.73 11.203 1237.71 14.2779 1236.21 18.7998C1235.18 21.3837 1233.55 26.3578 1231.33 33.722C1230.71 35.6858 1229.54 39.6393 1227.84 45.5823L1215.59 48.5668C1215.69 48.1017 1215.96 47.2619 1216.4 46.0474C1216.84 44.833 1217.7 42.3136 1218.96 38.4894C1222.27 29.6523 1224.35 24.1615 1225.2 22.0168C1224.53 22.6369 1223.26 24.0323 1221.4 26.2028C1214.76 33.8512 1209.78 39.9881 1206.44 44.6134C1205.8 45.5436 1205.36 46.2412 1205.12 46.7063ZM1280.43 0.272922L1277.45 9.65263H1273.73C1266.78 9.65263 1261.34 9.80766 1257.41 10.1177L1259.43 11.3193C1259.12 12.0169 1258.33 13.8645 1257.06 16.8618C1256.7 17.637 1256.3 18.5543 1255.86 19.6137L1269.77 19.1099L1266.87 27.5206L1253.15 27.9857C1252.14 30.9314 1251.04 34.6652 1249.85 39.1871C1253.6 38.9804 1259.21 38.6832 1266.67 38.2956L1263.57 47.6366C1261.66 47.6366 1259.98 47.6366 1258.53 47.6366H1256.67C1251.92 47.6366 1244.94 48.3859 1235.74 49.8846V49.7683C1235.74 49.4841 1236.31 47.3265 1237.45 43.2955C1238.79 38.5928 1239.99 34.7685 1241.05 31.8228C1242.81 26.8875 1244.83 21.9005 1247.1 16.8618C1247.95 14.9755 1248.91 13.0118 1249.97 10.9704C1247.72 11.2288 1245.59 11.4743 1243.57 11.7069L1246.44 2.01708C1250.91 1.68117 1256.25 1.33234 1262.45 0.970586C1266.14 0.763871 1272.14 0.531316 1280.43 0.272922ZM1351.91 0.311681C1349.01 5.5054 1345.98 11.7198 1342.8 18.9548C1341.66 21.5646 1339.97 26.5516 1337.72 33.9158C1337.13 35.9055 1335.96 39.8589 1334.23 45.7761L1321.94 48.7993C1323.47 43.8382 1325.11 38.877 1326.87 33.9158C1327.02 33.4766 1327.53 32.0812 1328.38 29.7299L1331.4 22.4431C1333.06 18.6189 1335.07 14.42 1337.45 9.84642C1330.5 9.66555 1325.19 9.73015 1321.52 10.0402L1323.57 11.2805C1323.31 11.8231 1322.72 13.1797 1321.79 15.3502C1320.57 17.96 1319.67 20.053 1319.08 21.6292L1315.82 31.2027L1315.05 33.9158C1314.35 36.1639 1313.17 40.5049 1311.52 46.9389L1299.31 49.8846C1300.7 44.7167 1302.29 39.3938 1304.08 33.9158C1305.47 29.7299 1307.5 24.7428 1310.16 18.9548C1311.27 16.5776 1312.72 13.7353 1314.5 10.4278C1311.61 10.712 1309.21 10.9446 1307.29 11.1255L1310.12 1.51321C1314.62 1.28066 1319.97 1.06102 1326.17 0.854309C1329.86 0.750951 1338.44 0.570075 1351.91 0.311681ZM1379.81 13.7223C1379.81 11.9911 1378.66 10.712 1376.36 9.88518C1375.69 9.62679 1374.61 9.49759 1373.11 9.49759H1372.29C1370.95 9.54927 1369.14 9.8981 1366.87 10.5441L1369.19 11.7069C1368.39 13.0764 1367.59 14.7688 1366.79 16.7843C1366.71 16.9135 1366.27 18.0763 1365.47 20.2726L1368.26 20.1563C1371.13 20.0788 1373.55 19.6654 1375.51 18.9161C1378.38 17.805 1379.81 16.0737 1379.81 13.7223ZM1362.8 28.3733L1361.67 31.7066C1360.92 34.1355 1359.58 39.1871 1357.64 46.8614L1357.29 46.9001C1353.83 47.5461 1349.88 48.4763 1345.43 49.6908C1346.93 43.9028 1348.74 37.908 1350.86 31.7066C1352.15 27.8048 1354.18 22.8307 1356.94 16.7843C1357.49 15.5699 1358.29 13.9291 1359.35 11.8619C1358.42 12.172 1357.63 12.4045 1356.98 12.5596L1354.66 1.51321C1360.19 0.686353 1364.95 0.272922 1368.96 0.272922C1369.89 0.272922 1370.92 0.324601 1372.06 0.427959C1375.26 0.660513 1377.1 0.81555 1377.56 0.893068C1379.24 1.1773 1381.12 1.75869 1383.18 2.63723C1387.71 4.52351 1389.97 7.75343 1389.97 12.327C1389.97 12.973 1389.86 13.7869 1389.66 14.7688C1388.62 20.2209 1384.41 24.1356 1377.02 26.5128C1373.09 27.7531 1368.35 28.3733 1362.8 28.3733ZM1412.8 10.6216C1411.66 12.172 1409.35 15.9058 1405.86 21.823L1402.95 26.7454L1409.46 26.6291L1410.97 27.7919C1412.21 25.0788 1412.83 20.0918 1412.83 12.8309C1412.83 11.7456 1412.82 11.0092 1412.8 10.6216ZM1409.42 33.8771L1399.66 34.3809C1397.67 37.585 1395.83 41.7581 1394.15 46.9001L1381.94 49.8846C1382.28 48.5409 1383.86 45.0139 1386.67 39.3034L1389.58 33.3344C1392.37 27.7015 1396.74 20.7636 1402.68 12.5208C1405.94 7.97307 1409.15 3.94212 1412.33 0.427959C1414.19 0.37628 1416.97 0.247083 1420.66 0.0403674L1420.94 4.18759C1421.12 7.28832 1421.21 10.2857 1421.21 13.1797C1421.21 18.8385 1420.79 24.1098 1419.97 28.9934C1419.71 29.7944 1419.07 33.2957 1418.07 39.4971C1417.65 42.0552 1417.24 44.1353 1416.83 45.7374L1404.58 48.7606C1405.43 45.9699 1407.05 41.0088 1409.42 33.8771ZM1454.04 13.7223C1454.04 11.9911 1452.89 10.712 1450.59 9.88518C1449.89 9.62679 1448.79 9.49759 1447.29 9.49759H1446.52C1445.17 9.54927 1443.35 9.8981 1441.05 10.5441L1443.38 11.7069C1442.6 13.0764 1441.8 14.7688 1440.97 16.7843C1440.9 16.9135 1440.46 18.0763 1439.66 20.2726L1442.49 20.1563C1445.35 20.0788 1447.76 19.6654 1449.69 18.9161C1452.59 17.805 1454.04 16.0737 1454.04 13.7223ZM1447.29 32.3655C1447.29 30.6084 1446.15 29.3293 1443.88 28.5283C1443.21 28.2441 1442.12 28.102 1440.62 28.102H1439.73C1439.6 28.102 1439.42 28.089 1439.19 28.0632C1438.98 28.0115 1438.84 27.9857 1438.76 27.9857C1438.45 27.9857 1437.95 28.1149 1437.25 28.3733L1436.63 30.3888C1435.96 31.6549 1435.16 33.3344 1434.23 35.4274C1434.07 35.815 1433.66 36.9778 1432.99 38.9158L1435.74 38.877C1438.58 38.7736 1441 38.3344 1442.99 37.5592C1445.86 36.4223 1447.29 34.691 1447.29 32.3655ZM1455.59 25.9315C1456.83 28.3087 1457.45 29.9624 1457.45 30.8926C1457.45 31.5903 1457.36 32.443 1457.18 33.4507C1455.75 40.7116 1451.15 45.2335 1443.38 47.0164C1443.07 47.0423 1440.33 47.3265 1435.16 47.8691L1427.49 48.7606C1424.69 49.0706 1422.07 49.3807 1419.62 49.6908C1421.12 43.9028 1422.92 37.908 1425.04 31.7066C1426.34 27.8048 1428.36 22.8307 1431.13 16.7843C1431.67 15.5699 1432.47 13.9291 1433.53 11.8619C1432.63 12.172 1431.84 12.4045 1431.17 12.5596L1428.84 1.51321C1434.37 0.686353 1439.14 0.272922 1443.14 0.272922C1444.1 0.272922 1445.15 0.324601 1446.28 0.427959C1449.46 0.660513 1451.28 0.81555 1451.75 0.893068C1453.43 1.1773 1455.3 1.75869 1457.37 2.63723C1461.89 4.52351 1464.15 7.75343 1464.15 12.327C1464.15 12.973 1464.06 13.7869 1463.88 14.7688C1463 19.2649 1460.24 22.9858 1455.59 25.9315ZM1485.35 10.6216C1484.22 12.172 1481.9 15.9058 1478.41 21.823L1475.51 26.7454L1482.02 26.6291L1483.53 27.7919C1484.77 25.0788 1485.39 20.0918 1485.39 12.8309C1485.39 11.7456 1485.38 11.0092 1485.35 10.6216ZM1481.98 33.8771L1472.21 34.3809C1470.22 37.585 1468.39 41.7581 1466.71 46.9001L1454.5 49.8846C1454.84 48.5409 1456.41 45.0139 1459.23 39.3034L1462.14 33.3344C1464.93 27.7015 1469.29 20.7636 1475.24 12.5208C1478.49 7.97307 1481.71 3.94212 1484.89 0.427959C1486.75 0.37628 1489.53 0.247083 1493.22 0.0403674L1493.49 4.18759C1493.67 7.28832 1493.76 10.2857 1493.76 13.1797C1493.76 18.8385 1493.35 24.1098 1492.52 28.9934C1492.26 29.7944 1491.63 33.2957 1490.62 39.4971C1490.21 42.0552 1489.8 44.1353 1489.38 45.7374L1477.14 48.7606C1477.99 45.9699 1479.6 41.0088 1481.98 33.8771ZM266.805 83.7223C266.805 81.9911 265.655 80.712 263.355 79.8852C262.658 79.6268 261.56 79.4976 260.061 79.4976H259.286C257.942 79.5493 256.12 79.8981 253.821 80.5441L256.146 81.7069C255.371 83.0764 254.57 84.7688 253.743 86.7843C253.666 86.9135 253.226 88.0763 252.425 90.2726L255.255 90.1563C258.123 90.0788 260.526 89.6654 262.464 88.9161C265.358 87.805 266.805 86.0737 266.805 83.7223ZM260.061 102.365C260.061 100.608 258.924 99.3293 256.65 98.5283C255.978 98.2441 254.893 98.102 253.394 98.102H252.503C252.374 98.102 252.193 98.089 251.96 98.0632C251.754 98.0115 251.611 97.9857 251.534 97.9857C251.224 97.9857 250.72 98.1149 250.022 98.3733L249.402 100.389C248.73 101.655 247.929 103.334 246.999 105.427C246.844 105.815 246.431 106.978 245.759 108.916L248.511 108.877C251.353 108.774 253.769 108.334 255.759 107.559C258.627 106.422 260.061 104.691 260.061 102.365ZM268.355 95.9315C269.596 98.3087 270.216 99.9624 270.216 100.893C270.216 101.59 270.125 102.443 269.944 103.451C268.523 110.712 263.924 115.233 256.146 117.016C255.836 117.042 253.097 117.326 247.929 117.869L240.255 118.761C237.464 119.071 234.842 119.381 232.387 119.691C233.886 113.903 235.694 107.908 237.813 101.707C239.105 97.8048 241.134 92.8307 243.898 86.7843C244.441 85.5699 245.242 83.9291 246.301 81.8619C245.397 82.172 244.609 82.4045 243.937 82.5596L241.612 71.5132C247.141 70.6864 251.909 70.2729 255.914 70.2729C256.87 70.2729 257.916 70.3246 259.053 70.428C262.231 70.6605 264.053 70.8155 264.518 70.8931C266.198 71.1773 268.071 71.7587 270.138 72.6372C274.66 74.5235 276.921 77.7534 276.921 82.327C276.921 82.973 276.831 83.7869 276.65 84.7688C275.771 89.2649 273.006 92.9858 268.355 95.9315ZM336.688 68.6063L331.959 89.3036C331.83 89.7946 331.261 92.1718 330.254 96.4353L328.122 105.854C327.243 109.575 326.481 113.257 325.835 116.9L311.029 120.931C312.114 117.029 313.742 111.693 315.913 104.924C316.585 102.882 317.683 99.3035 319.207 94.1873C319.905 91.8101 320.964 88.6706 322.386 84.7688C319.647 85.7507 315.486 90.9832 309.905 100.466C307.786 104.006 305.745 109.097 303.781 115.737L291.533 118.761C291.637 118.27 291.688 117.559 291.688 116.629C291.688 112.004 291.107 105.867 289.944 98.2182C289.531 95.2209 289.143 93.7222 288.781 93.7222L284.557 103.877C282.645 108.476 281.482 112.818 281.068 116.9L268.82 119.885C270.242 114.613 271.857 109.278 273.665 103.877C275.035 99.7686 277.063 94.7816 279.751 88.9161C280.939 86.3321 282.567 83.1151 284.634 79.265C284.763 78.8516 284.828 78.5286 284.828 78.2961C284.828 77.5984 284.557 76.4744 284.014 74.924C283.291 72.9602 282.89 71.8233 282.813 71.5132L294.673 68.8388C296.12 73.5933 297.373 77.9731 298.432 81.9782C299.957 87.7404 300.797 92.6628 300.952 96.7454C305.112 88.0634 310.176 81.4614 316.145 76.9395C318.393 74.9757 320.68 73.3737 323.006 72.1334C324.814 71.1773 326.74 70.4796 328.781 70.0404C331.442 69.3944 333.057 69.0197 333.626 68.9164C334.737 68.7613 335.757 68.658 336.688 68.6063ZM374.904 70.2729L371.92 79.6526H368.199C361.248 79.6526 355.809 79.8077 351.881 80.1177L353.897 81.3193C353.587 82.0169 352.799 83.8645 351.532 86.8618C351.171 87.637 350.77 88.5543 350.331 89.6137L364.245 89.1099L361.338 97.5206L347.618 97.9857C346.61 100.931 345.512 104.665 344.323 109.187C348.07 108.98 353.677 108.683 361.145 108.296L358.044 117.637C356.132 117.637 354.452 117.637 353.005 117.637H351.145C346.39 117.637 339.414 118.386 330.215 119.885V119.768C330.215 119.484 330.783 117.326 331.92 113.296C333.264 108.593 334.465 104.769 335.525 101.823C337.282 96.8875 339.297 91.9005 341.571 86.8618C342.424 84.9755 343.38 83.0118 344.439 80.9704C342.191 81.2288 340.06 81.4743 338.044 81.7069L340.912 72.0171C345.383 71.6812 350.718 71.3323 356.92 70.9706C360.615 70.7639 366.61 70.5313 374.904 70.2729ZM406.648 112.133C402.178 117.171 396.428 119.691 389.4 119.691C383.715 119.691 379.297 117.624 376.144 113.489C373.225 109.665 371.765 104.704 371.765 98.6058C371.765 97.288 371.842 95.8927 371.997 94.4199C372.695 87.8566 375.395 82.2107 380.098 77.4821C384.878 72.676 390.356 70.2729 396.532 70.2729C405.86 70.2729 412.462 73.6191 416.338 80.3115L404.167 86.513C402.488 82.9213 399.697 81.1255 395.795 81.1255C391.764 81.1255 388.405 82.495 385.718 85.2339C383.186 87.8437 381.609 91.2933 380.989 95.5826C380.834 96.5904 380.757 97.4301 380.757 98.102C380.757 101.358 381.661 104.123 383.47 106.396C385.382 108.825 387.824 110.04 390.795 110.04C394.051 110.04 396.906 108.722 399.361 106.086L406.648 112.133ZM457.267 70.2729L454.322 79.6526H450.446C446.673 79.6526 443.404 79.6914 440.64 79.7689L443.43 81.3193C441.363 85.2727 438.831 92.1072 435.834 101.823C434.748 105.518 433.405 110.544 431.803 116.9L431.454 117.016C428.586 117.533 424.632 118.489 419.593 119.885C421.144 113.89 422.953 107.869 425.02 101.823C426.286 98.0503 428.327 93.0633 431.144 86.8618C431.815 85.3373 432.901 83.0893 434.399 80.1177C430.317 80.5053 425.679 81.035 420.485 81.7069L423.314 72.0171C428.017 71.6812 433.353 71.3323 439.322 70.9706C443.017 70.7639 448.999 70.5313 457.267 70.2729ZM495.523 70.2729L492.538 79.6526H488.817C481.866 79.6526 476.427 79.8077 472.5 80.1177L474.515 81.3193C474.205 82.0169 473.417 83.8645 472.151 86.8618C471.789 87.637 471.389 88.5543 470.949 89.6137L484.864 89.1099L481.957 97.5206L468.236 97.9857C467.228 100.931 466.13 104.665 464.942 109.187C468.688 108.98 474.295 108.683 481.763 108.296L478.662 117.637C476.75 117.637 475.071 117.637 473.624 117.637H471.763C467.009 117.637 460.032 118.386 450.833 119.885V119.768C450.833 119.484 451.402 117.326 452.539 113.296C453.882 108.593 455.084 104.769 456.143 101.823C457.9 96.8875 459.916 91.9005 462.19 86.8618C463.042 84.9755 463.998 83.0118 465.058 80.9704C462.81 81.2288 460.678 81.4743 458.663 81.7069L461.531 72.0171C466.001 71.6812 471.337 71.3323 477.538 70.9706C481.233 70.7639 487.228 70.5313 495.523 70.2729ZM552.537 112.133C548.067 117.171 542.318 119.691 535.289 119.691C529.605 119.691 525.186 117.624 522.034 113.489C519.114 109.665 517.654 104.704 517.654 98.6058C517.654 97.288 517.731 95.8927 517.887 94.4199C518.584 87.8566 521.284 82.2107 525.987 77.4821C530.767 72.676 536.245 70.2729 542.421 70.2729C551.749 70.2729 558.351 73.6191 562.227 80.3115L550.057 86.513C548.377 82.9213 545.586 81.1255 541.685 81.1255C537.654 81.1255 534.295 82.495 531.607 85.2339C529.075 87.8437 527.499 91.2933 526.879 95.5826C526.724 96.5904 526.646 97.4301 526.646 98.102C526.646 101.358 527.55 104.123 529.359 106.396C531.271 108.825 533.713 110.04 536.685 110.04C539.94 110.04 542.796 108.722 545.25 106.086L552.537 112.133ZM632.071 70.3117C629.203 75.5054 626.167 81.7198 622.962 88.9548C621.826 91.5646 620.146 96.5516 617.924 103.916C617.304 105.905 616.128 109.859 614.397 115.776L602.149 118.799C603.648 113.838 605.262 108.877 606.994 103.916C607.175 103.477 607.691 102.081 608.544 99.7299L596.025 101.203L595.172 103.916C594.526 106.164 593.376 110.505 591.723 116.939L579.514 119.885C580.909 114.717 582.498 109.394 584.281 103.916C585.676 99.7299 587.705 94.7428 590.366 88.9548C592.433 84.5363 595.56 78.5932 599.746 71.1256L600.909 71.0093C603.363 70.7251 606.193 70.4926 609.397 70.3117C607.149 74.4201 604.113 80.6345 600.288 88.9548C600.211 89.1615 599.862 90.053 599.242 91.6292L610.405 90.1951L611.606 92.4431C614.216 86.345 617.795 79.2392 622.342 71.1256L623.699 71.0093C626.102 70.7251 628.893 70.4926 632.071 70.3117ZM648.427 80.6216C647.29 82.172 644.978 85.9058 641.489 91.823L638.582 96.7454L645.094 96.6291L646.606 97.7919C647.846 95.0788 648.466 90.0918 648.466 82.8309C648.466 81.7456 648.453 81.0092 648.427 80.6216ZM645.055 103.877L635.288 104.381C633.298 107.585 631.464 111.758 629.784 116.9L617.575 119.885C617.911 118.541 619.487 115.014 622.304 109.303L625.211 103.334C628.001 97.7015 632.368 90.7636 638.311 82.5208C641.567 77.9731 644.784 73.9421 647.962 70.428C649.823 70.3763 652.6 70.2471 656.295 70.0404L656.567 74.1876C656.748 77.2883 656.838 80.2857 656.838 83.1797C656.838 88.8385 656.425 94.1098 655.598 98.9934C655.339 99.7944 654.706 103.296 653.698 109.497C653.285 112.055 652.872 114.135 652.458 115.737L640.21 118.761C641.063 115.97 642.678 111.009 645.055 103.877ZM675.093 110.544C676.282 107.004 677.354 104.045 678.311 101.668C680.248 96.7066 682.445 91.7196 684.9 86.7068C685.287 85.8541 686.024 84.2908 687.109 82.0169L690.248 75.3891C691.049 73.5545 691.734 72.2109 692.303 71.3582L694.357 71.1644C694.641 71.1644 694.951 71.1644 695.287 71.1644C696.243 71.1644 697.419 71.0739 698.814 70.8931L701.876 70.428C701.618 70.8931 700.868 72.5468 699.628 75.3891L694.628 86.9006C694.525 87.2882 694.189 88.1409 693.62 89.4587C693.362 90.2339 692.729 92.0685 691.721 94.9625L688.737 103.412C688.013 105.479 687.251 107.856 686.45 110.544C689.266 110.544 690.881 110.479 691.295 110.35L692.458 112.869C693.414 109.923 694.421 106.965 695.481 103.993C695.61 103.554 696.101 102.172 696.954 99.8461L700.016 92.5207C702.651 86.4484 706.243 79.3426 710.791 71.2031L712.108 71.0869C714.537 70.8285 717.341 70.5959 720.519 70.3892C717.599 75.6346 714.563 81.8748 711.411 89.1099C710.274 91.668 708.581 96.6291 706.333 103.993C705.972 105.156 705.403 107.055 704.628 109.691L701.992 118.993L695.054 119.264L690.675 119.419C686.954 119.523 674.603 119.704 653.621 119.962C655.275 114.82 656.993 109.497 658.776 103.993C660.171 99.8332 662.2 94.872 664.861 89.1099C666.902 84.6655 670.029 78.6966 674.241 71.2031L675.404 71.0869C677.858 70.8285 680.688 70.5959 683.892 70.3892C681.644 74.4977 678.608 80.7379 674.783 89.1099C674.706 89.2907 674.357 90.1563 673.737 91.7067L670.52 101.28L669.667 103.993C669.254 105.363 668.672 107.52 667.923 110.466C670.533 110.492 672.923 110.518 675.093 110.544ZM757.147 70.2729L754.162 79.6526H750.441C743.49 79.6526 738.051 79.8077 734.124 80.1177L736.139 81.3193C735.829 82.0169 735.041 83.8645 733.775 86.8618C733.413 87.637 733.013 88.5543 732.573 89.6137L746.488 89.1099L743.581 97.5206L729.86 97.9857C728.852 100.931 727.754 104.665 726.566 109.187C730.312 108.98 735.92 108.683 743.387 108.296L740.286 117.637C738.374 117.637 736.695 117.637 735.248 117.637H733.387C728.633 117.637 721.656 118.386 712.457 119.885V119.768C712.457 119.484 713.026 117.326 714.163 113.296C715.506 108.593 716.708 104.769 717.767 101.823C719.524 96.8875 721.54 91.9005 723.814 86.8618C724.666 84.9755 725.623 83.0118 726.682 80.9704C724.434 81.2288 722.302 81.4743 720.287 81.7069L723.155 72.0171C727.625 71.6812 732.961 71.3323 739.162 70.9706C742.857 70.7639 748.852 70.5313 757.147 70.2729ZM759.743 116.706L747.496 119.73C748.917 114.458 750.532 109.122 752.34 103.722C753.71 99.6136 755.738 94.6266 758.426 88.761C759.614 86.1771 761.242 82.9472 763.309 79.0712C764.446 76.7715 765.88 74.123 767.611 71.1256L778.852 70.5442L773.387 80.5441C771.604 84.0066 769.627 88.3476 767.456 93.5672L767.108 94.4974C775.066 85.221 782.831 77.2883 790.402 70.6993L801.642 70.2729C799.058 73.0377 796.474 76.1385 793.89 79.5751C793.348 81.203 792.327 84.2779 790.828 88.7998C789.795 91.3837 788.167 96.3578 785.945 103.722C785.324 105.686 784.162 109.639 782.456 115.582L770.208 118.567C770.312 118.102 770.583 117.262 771.022 116.047C771.462 114.833 772.314 112.314 773.58 108.489C776.888 99.6523 778.968 94.1615 779.821 92.0168C779.149 92.6369 777.883 94.0323 776.022 96.2028C769.381 103.851 764.394 109.988 761.061 114.613C760.415 115.544 759.976 116.241 759.743 116.706ZM778.774 62.4823C785.182 59.9759 790.841 58.1155 795.751 56.901L796.332 57.5987C795.402 60.8028 794.601 63.3738 793.929 65.3118C788.864 65.9319 783.425 66.8104 777.611 67.9474L776.565 68.0249C777.237 66.1645 777.973 64.3169 778.774 62.4823ZM843.308 80.6216C842.171 82.172 839.859 85.9058 836.37 91.823L833.463 96.7454L839.975 96.6291L841.486 97.7919C842.727 95.0788 843.347 90.0918 843.347 82.8309C843.347 81.7456 843.334 81.0092 843.308 80.6216ZM839.936 103.877L830.169 104.381C828.179 107.585 826.345 111.758 824.665 116.9L812.456 119.885C812.792 118.541 814.368 115.014 817.184 109.303L820.091 103.334C822.882 97.7015 827.249 90.7636 833.192 82.5208C836.448 77.9731 839.665 73.9421 842.843 70.428C844.703 70.3763 847.481 70.2471 851.176 70.0404L851.448 74.1876C851.628 77.2883 851.719 80.2857 851.719 83.1797C851.719 88.8385 851.305 94.1098 850.479 98.9934C850.22 99.7944 849.587 103.296 848.579 109.497C848.166 112.055 847.752 114.135 847.339 115.737L835.091 118.761C835.944 115.97 837.559 111.009 839.936 103.877ZM884.548 83.7223C884.548 81.9911 883.398 80.712 881.098 79.8852C880.401 79.6268 879.302 79.4976 877.804 79.4976H877.029C875.685 79.5493 873.863 79.8981 871.563 80.5441L873.889 81.7069C873.114 83.0764 872.313 84.7688 871.486 86.7843C871.408 86.9135 870.969 88.0763 870.168 90.2726L872.998 90.1563C875.866 90.0788 878.269 89.6654 880.207 88.9161C883.101 87.805 884.548 86.0737 884.548 83.7223ZM877.804 102.365C877.804 100.608 876.667 99.3293 874.393 98.5283C873.721 98.2441 872.636 98.102 871.137 98.102H870.246C870.116 98.102 869.936 98.089 869.703 98.0632C869.496 98.0115 869.354 97.9857 869.277 97.9857C868.967 97.9857 868.463 98.1149 867.765 98.3733L867.145 100.389C866.473 101.655 865.672 103.334 864.742 105.427C864.587 105.815 864.173 106.978 863.502 108.916L866.253 108.877C869.096 108.774 871.512 108.334 873.501 107.559C876.37 106.422 877.804 104.691 877.804 102.365ZM886.098 95.9315C887.338 98.3087 887.959 99.9624 887.959 100.893C887.959 101.59 887.868 102.443 887.687 103.451C886.266 110.712 881.667 115.233 873.889 117.016C873.579 117.042 870.84 117.326 865.672 117.869L857.998 118.761C855.207 119.071 852.584 119.381 850.13 119.691C851.628 113.903 853.437 107.908 855.556 101.707C856.848 97.8048 858.876 92.8307 861.641 86.7843C862.184 85.5699 862.985 83.9291 864.044 81.8619C863.14 82.172 862.352 82.4045 861.68 82.5596L859.354 71.5132C864.884 70.6864 869.651 70.2729 873.656 70.2729C874.613 70.2729 875.659 70.3246 876.796 70.428C879.974 70.6605 881.796 70.8155 882.261 70.8931C883.941 71.1773 885.814 71.7587 887.881 72.6372C892.403 74.5235 894.664 77.7534 894.664 82.327C894.664 82.973 894.573 83.7869 894.393 84.7688C893.514 89.2649 890.749 92.9858 886.098 95.9315ZM933.927 70.2729L930.981 79.6526H927.105C923.333 79.6526 920.064 79.6914 917.299 79.7689L920.09 81.3193C918.023 85.2727 915.491 92.1072 912.493 101.823C911.408 105.518 910.064 110.544 908.462 116.9L908.113 117.016C905.245 117.533 901.292 118.489 896.253 119.885C897.803 113.89 899.612 107.869 901.679 101.823C902.946 98.0503 904.987 93.0633 907.803 86.8618C908.475 85.3373 909.56 83.0893 911.059 80.1177C906.976 80.5053 902.338 81.035 897.145 81.7069L899.974 72.0171C904.677 71.6812 910.013 71.3323 915.981 70.9706C919.677 70.7639 925.658 70.5313 933.927 70.2729ZM979.43 80.3115L976.678 82.1332C977.583 84.7172 978.035 86.9393 978.035 88.7998C978.035 90.1434 977.828 92.0168 977.415 94.4199C976.123 101.939 973.332 107.908 969.043 112.327C964.314 117.236 958.293 119.691 950.981 119.691C945.012 119.691 940.348 117.624 936.989 113.489C933.914 109.665 932.376 104.704 932.376 98.6058C932.376 97.288 932.454 95.8927 932.609 94.4199C933.333 87.8566 936.175 82.2107 941.136 77.4821C946.226 72.676 952.04 70.2729 958.578 70.2729C968.397 70.2729 975.347 73.6191 979.43 80.3115ZM966.601 95.5826C966.756 94.6524 966.833 93.916 966.833 93.3734C966.833 90.8669 966.084 88.9548 964.585 87.637L966.601 86.513C964.844 82.9213 961.872 81.1255 957.686 81.1255C953.449 81.1255 949.921 82.495 947.105 85.2339C944.418 87.8437 942.751 91.2933 942.105 95.5826C941.95 96.5904 941.872 97.4301 941.872 98.102C941.872 101.358 942.829 104.123 944.741 106.396C946.73 108.825 949.314 110.04 952.492 110.04C956.291 110.04 959.482 108.541 962.066 105.544C964.34 102.882 965.851 99.5619 966.601 95.5826ZM996.096 110.544C997.285 107.004 998.357 104.045 999.313 101.668C1001.25 96.7066 1003.45 91.7196 1005.9 86.7068C1006.29 85.8541 1007.03 84.2908 1008.11 82.0169L1011.25 75.3891C1012.05 73.5545 1012.74 72.2109 1013.31 71.3582L1015.36 71.1644C1015.64 71.1644 1015.95 71.1644 1016.29 71.1644C1017.25 71.1644 1018.42 71.0739 1019.82 70.8931L1022.88 70.428C1022.62 70.8931 1021.87 72.5468 1020.63 75.3891L1015.63 86.9006C1015.53 87.2882 1015.19 88.1409 1014.62 89.4587C1014.36 90.2339 1013.73 92.0685 1012.72 94.9625L1009.74 103.412C1009.02 105.479 1008.25 107.856 1007.45 110.544C1010.27 110.544 1011.88 110.479 1012.3 110.35L1013.46 112.869C1014.42 109.923 1015.42 106.965 1016.48 103.993C1016.61 103.554 1017.1 102.172 1017.96 99.8461L1021.02 92.5207C1023.65 86.4484 1027.25 79.3426 1031.79 71.2031L1033.11 71.0869C1035.54 70.8285 1038.34 70.5959 1041.52 70.3892C1038.6 75.6346 1035.57 81.8748 1032.41 89.1099C1031.28 91.668 1029.58 96.6291 1027.34 103.993C1026.97 105.156 1026.41 107.055 1025.63 109.691L1023 118.993L1016.06 119.264L1011.68 119.419C1007.96 119.523 995.605 119.704 974.624 119.962C976.278 114.82 977.996 109.497 979.779 103.993C981.174 99.8332 983.203 94.872 985.864 89.1099C987.905 84.6655 991.032 78.6966 995.244 71.2031L996.406 71.0869C998.861 70.8285 1001.69 70.5959 1004.89 70.3892C1002.65 74.4977 999.611 80.7379 995.786 89.1099C995.709 89.2907 995.36 90.1563 994.74 91.7067L991.523 101.28L990.67 103.993C990.257 105.363 989.675 107.52 988.926 110.466C991.536 110.492 993.926 110.518 996.096 110.544ZM1066.79 115.737L1054.55 118.761C1054.86 117.339 1055.01 115.905 1055.01 114.458C1055.01 111.771 1054.49 109.226 1053.46 106.823C1052.25 103.877 1050.57 101.991 1048.42 101.164L1047.57 103.877C1046.92 106.125 1045.76 110.466 1044.08 116.9L1031.83 119.885C1033.23 114.717 1034.84 109.381 1036.68 103.877C1038.07 99.7169 1040.1 94.7299 1042.76 88.9161C1044.78 84.5234 1047.89 78.5803 1052.1 71.0869L1053.3 70.9706C1055.76 70.6864 1058.58 70.4538 1061.75 70.2729C1059.53 74.3814 1056.51 80.5958 1052.68 88.9161C1052.61 89.1486 1052.25 90.0401 1051.6 91.5904C1057.62 89.0582 1063.38 84.8334 1068.89 78.9162C1071.31 76.3064 1073.27 73.6966 1074.74 71.0869L1076.06 70.9706C1078.49 70.6864 1081.28 70.4538 1084.43 70.2729C1081.35 77.3271 1076.07 83.9291 1068.58 90.0788C1064.78 93.2571 1060.75 95.6214 1056.48 97.1717C1059.25 98.5671 1061.69 100.802 1063.81 103.877C1066.03 107.133 1067.14 110.246 1067.14 113.218C1067.14 113.993 1067.03 114.833 1066.79 115.737ZM1126.71 80.3115L1123.96 82.1332C1124.87 84.7172 1125.32 86.9393 1125.32 88.7998C1125.32 90.1434 1125.11 92.0168 1124.7 94.4199C1123.41 101.939 1120.62 107.908 1116.33 112.327C1111.6 117.236 1105.58 119.691 1098.27 119.691C1092.3 119.691 1087.63 117.624 1084.27 113.489C1081.2 109.665 1079.66 104.704 1079.66 98.6058C1079.66 97.288 1079.74 95.8927 1079.89 94.4199C1080.62 87.8566 1083.46 82.2107 1088.42 77.4821C1093.51 72.676 1099.32 70.2729 1105.86 70.2729C1115.68 70.2729 1122.63 73.6191 1126.71 80.3115ZM1113.89 95.5826C1114.04 94.6524 1114.12 93.916 1114.12 93.3734C1114.12 90.8669 1113.37 88.9548 1111.87 87.637L1113.89 86.513C1112.13 82.9213 1109.16 81.1255 1104.97 81.1255C1100.73 81.1255 1097.21 82.495 1094.39 85.2339C1091.7 87.8437 1090.04 91.2933 1089.39 95.5826C1089.23 96.5904 1089.16 97.4301 1089.16 98.102C1089.16 101.358 1090.11 104.123 1092.03 106.396C1094.01 108.825 1096.6 110.04 1099.78 110.04C1103.58 110.04 1106.77 108.541 1109.35 105.544C1111.62 102.882 1113.14 99.5619 1113.89 95.5826ZM1123.54 110.04C1126.17 109.833 1128.24 108.425 1129.74 105.815C1130.59 104.446 1131.25 102.96 1131.71 101.358C1132.36 99.7299 1133.33 97.1976 1134.62 93.7609C1136.64 89.1099 1138.63 84.8722 1140.59 81.048L1135.59 81.7069L1138.34 72.5597C1141.68 72.2755 1144.05 72.0558 1145.47 71.9008C1150.62 71.5391 1155.25 71.2548 1159.39 71.0481L1159.89 71.0093C1161.68 70.906 1167.35 70.6734 1176.91 70.3117H1176.95C1174.67 74.4201 1171.64 80.6345 1167.84 88.9548C1167.76 89.1615 1167.41 90.053 1166.79 91.6292L1163.57 101.203L1162.76 103.916C1162.06 106.164 1160.9 110.505 1159.27 116.939L1147.02 119.885C1148.42 114.717 1150.02 109.394 1151.83 103.916C1153.25 99.7299 1155.29 94.7428 1157.95 88.9548C1159.04 86.5776 1160.46 83.7223 1162.22 80.3891H1156.56C1152.48 80.5182 1149.22 80.6216 1146.79 80.6991L1149.54 82.2495C1148.72 83.9807 1147.92 85.8282 1147.14 87.792C1145.77 91.2287 1144.32 95.3113 1142.8 100.04C1142 102.365 1141.52 103.606 1141.37 103.761L1141.21 104.497C1139.22 110.182 1136.68 114.432 1133.58 117.249C1130.6 119.342 1127.26 120.376 1123.54 120.35V110.04ZM1220.82 80.3115L1218.07 82.1332C1218.97 84.7172 1219.43 86.9393 1219.43 88.7998C1219.43 90.1434 1219.22 92.0168 1218.81 94.4199C1217.51 101.939 1214.72 107.908 1210.43 112.327C1205.71 117.236 1199.69 119.691 1192.37 119.691C1186.4 119.691 1181.74 117.624 1178.38 113.489C1175.31 109.665 1173.77 104.704 1173.77 98.6058C1173.77 97.288 1173.85 95.8927 1174 94.4199C1174.72 87.8566 1177.57 82.2107 1182.53 77.4821C1187.62 72.676 1193.43 70.2729 1199.97 70.2729C1209.79 70.2729 1216.74 73.6191 1220.82 80.3115ZM1207.99 95.5826C1208.15 94.6524 1208.23 93.916 1208.23 93.3734C1208.23 90.8669 1207.48 88.9548 1205.98 87.637L1207.99 86.513C1206.24 82.9213 1203.26 81.1255 1199.08 81.1255C1194.84 81.1255 1191.31 82.495 1188.5 85.2339C1185.81 87.8437 1184.14 91.2933 1183.5 95.5826C1183.34 96.5904 1183.26 97.4301 1183.26 98.102C1183.26 101.358 1184.22 104.123 1186.13 106.396C1188.12 108.825 1190.71 110.04 1193.88 110.04C1197.68 110.04 1200.87 108.541 1203.46 105.544C1205.73 102.882 1207.24 99.5619 1207.99 95.5826ZM1228.26 116.706L1216.02 119.73C1217.44 114.458 1219.05 109.122 1220.86 103.722C1222.23 99.6136 1224.26 94.6266 1226.95 88.761C1228.13 86.1771 1229.76 82.9472 1231.83 79.0712C1232.97 76.7715 1234.4 74.123 1236.13 71.1256L1247.37 70.5442L1241.91 80.5441C1240.12 84.0066 1238.15 88.3476 1235.98 93.5672L1235.63 94.4974C1243.59 85.221 1251.35 77.2883 1258.92 70.6993L1270.16 70.2729C1267.58 73.0377 1264.99 76.1385 1262.41 79.5751C1261.87 81.203 1260.85 84.2779 1259.35 88.7998C1258.31 91.3837 1256.69 96.3578 1254.46 103.722C1253.84 105.686 1252.68 109.639 1250.98 115.582L1238.73 118.567C1238.83 118.102 1239.1 117.262 1239.54 116.047C1239.98 114.833 1240.83 112.314 1242.1 108.489C1245.41 99.6523 1247.49 94.1615 1248.34 92.0168C1247.67 92.6369 1246.4 94.0323 1244.54 96.2028C1237.9 103.851 1232.91 109.988 1229.58 114.613C1228.94 115.544 1228.5 116.241 1228.26 116.706ZM1247.29 62.4823C1253.7 59.9759 1259.36 58.1155 1264.27 56.901L1264.85 57.5987C1263.92 60.8028 1263.12 63.3738 1262.45 65.3118C1257.38 65.9319 1251.95 66.8104 1246.13 67.9474L1245.09 68.0249C1245.76 66.1645 1246.49 64.3169 1247.29 62.4823Z" fill="white"/>
</svg>
