<svg width="375" height="375" viewBox="0 0 375 375" fill="none" xmlns="http://www.w3.org/2000/svg">
<path d="M229.474 54.2806C232.33 51.8245 236.773 53.3811 237.472 57.0823L281.514 290.263C282.213 293.964 278.643 297.035 275.088 295.789L51.127 217.34C47.5721 216.095 46.6982 211.468 49.5541 209.012L229.474 54.2806Z" fill="#F71B1B"/>
<path d="M218.434 96.0431C219.006 95.5519 219.894 95.8632 220.034 96.6034L250.863 259.83C251.003 260.57 250.289 261.184 249.578 260.935L92.8051 206.021C92.0941 205.772 91.9194 204.846 92.4905 204.355L218.434 96.0431Z" fill="white"/>
<path d="M163.615 164.416C160.086 168.804 151.819 209.074 170.858 224.384C193.14 242.302 223.58 230.44 227.109 226.052C230.637 221.664 197.214 214.205 186.179 205.332C175.144 196.458 169.189 165.981 163.615 164.416Z" fill="#EACE4F"/>
<path d="M167.827 154.665C168.048 154.337 167.929 153.883 167.575 153.704L160.673 150.221C160.256 150.011 159.767 150.296 159.741 150.764L158.932 165.249C158.908 165.675 159.285 166.014 159.698 165.939L160.032 165.879C160.202 165.849 160.353 165.751 160.45 165.607L167.827 154.665Z" fill="#917776"/>
<path d="M226.83 219.015C227.09 218.683 227.597 218.679 227.864 219.007L232.142 224.258C232.478 224.67 232.2 225.282 231.665 225.308L223.305 225.721C222.996 225.736 222.718 225.537 222.636 225.243L222.546 224.921C222.492 224.725 222.533 224.516 222.658 224.356L226.83 219.015Z" fill="#917776"/>
</svg>
