<svg width="980" height="304" viewBox="0 0 980 304" fill="none" xmlns="http://www.w3.org/2000/svg">
<path d="M20.8047 287.932C145.685 95.3458 236.193 65.8568 434.302 153.633C574.9 230.053 641.141 230.685 723.153 110.343C816.436 15.6506 929.671 -0.344344 978.886 81.3186" stroke="black" stroke-width="0.921054"/>
<path d="M23.8438 244.609C25.5364 248.508 27.7305 252.929 30.4259 257.872C31.402 259.65 33.457 262.772 36.591 267.237C37.4429 268.436 39.1428 270.808 41.6907 274.354L38.482 282.697C36.3746 279.683 34.3133 276.602 32.2979 273.455C32.1192 273.176 31.5563 272.285 30.6089 270.782L27.8239 265.906C26.3888 263.308 24.8921 260.342 23.3339 257.006C20.4854 260.91 18.4202 263.98 17.1381 266.216L18.6283 265.574C18.8226 265.956 19.3286 266.882 20.1464 268.352C21.0918 270.174 21.8775 271.595 22.5035 272.616L26.4459 278.612L27.6215 280.227C28.5737 281.597 30.4802 284.144 33.3411 287.868L30.1207 296.133C27.8493 293.104 25.5699 289.896 23.2824 286.511C21.5475 283.905 19.6253 280.591 17.516 276.569C16.6568 274.906 15.6763 272.851 14.5747 270.402C13.5851 272.183 12.7616 273.66 12.104 274.833L7.9718 269.064C9.62332 266.388 11.6192 263.229 13.9595 259.587C15.3647 257.426 18.6595 252.433 23.8438 244.609Z" fill="white"/>
<path d="M48.2326 222.635L48.0406 224.993C49.7822 225.664 51.1436 226.423 52.1248 227.268C52.8334 227.879 53.7348 228.845 54.829 230.167C58.2535 234.303 60.2325 238.567 60.7661 242.961C61.3746 247.821 60.1472 252.285 57.084 256.351C54.5837 259.67 51.5397 261.324 47.9522 261.313C44.6472 261.285 41.3867 259.886 38.1705 257.114C37.4755 256.515 36.7721 255.838 36.0603 255.082C32.9019 251.697 31.1149 247.551 30.6992 242.643C30.2968 237.628 31.4648 233.303 34.2033 229.668C38.3164 224.208 42.9928 221.864 48.2326 222.635ZM50.9124 236.709C50.4868 236.2 50.1309 235.822 49.8447 235.576C48.5228 234.437 47.2005 233.984 45.8777 234.219L46.1291 232.587C43.4988 231.932 41.307 232.768 39.5535 235.096C37.7783 237.452 37.0231 240.036 37.2879 242.847C37.5386 245.527 38.6597 248.022 40.6513 250.33C41.1179 250.875 41.5283 251.299 41.8826 251.605C43.5997 253.084 45.4584 253.809 47.4586 253.779C49.573 253.777 51.2959 252.892 52.6273 251.125C54.2184 249.012 54.7647 246.557 54.2663 243.758C53.8152 241.284 52.6972 238.934 50.9124 236.709Z" fill="white"/>
<path d="M71.9743 180.326L79.9843 193.001C80.1665 193.311 81.0749 194.78 82.7094 197.408L86.3636 203.166C87.7905 205.459 89.2518 207.673 90.7473 209.807L85.9379 219.547C84.5168 217.056 82.6394 213.574 80.3056 209.101C79.6098 207.744 78.3535 205.405 76.5366 202.086C75.6875 200.549 74.6295 198.447 73.3625 195.78C72.589 197.698 73.254 202.455 75.3576 210.051C76.1267 212.905 77.6937 216.483 80.0589 220.784L75.9274 228.688C75.7333 228.392 75.4076 228.014 74.9501 227.556C72.6754 225.277 69.3905 222.557 65.0956 219.397C63.4318 218.137 62.5169 217.601 62.351 217.791L65.4073 225.007C66.7922 228.275 68.3937 231.023 70.2119 233.251L66.0614 241.136C64.1209 237.795 62.2375 234.32 60.4112 230.711C59.0189 227.969 57.4967 224.45 55.8447 220.152C55.1191 218.256 54.2837 215.818 53.3385 212.839C53.1944 212.567 53.0652 212.374 52.9508 212.26C52.6077 211.916 51.9305 211.504 50.9191 211.024C49.6214 210.436 48.8785 210.085 48.6905 209.973L52.8157 202.444C55.8177 204.029 58.5466 205.531 61.0023 206.949C64.5355 208.99 67.3416 210.976 69.4206 212.907C67.0591 206.45 66.1354 200.544 66.6495 195.19C66.7149 193.045 66.976 191.058 67.4328 189.229C67.7923 187.811 68.3322 186.459 69.0526 185.173C69.9557 183.461 70.5123 182.431 70.7222 182.082C71.1557 181.424 71.573 180.838 71.9743 180.326Z" fill="white"/>
<path d="M101.868 160.581L101.307 162.88C102.92 163.818 104.143 164.783 104.978 165.773C105.581 166.488 106.319 167.585 107.19 169.064C109.917 173.69 111.198 178.216 111.032 182.64C110.866 187.539 108.951 191.755 105.287 195.29C102.296 198.175 99.0314 199.329 95.4927 198.752C92.2356 198.203 89.2386 196.306 86.5017 193.06C85.9103 192.359 85.3229 191.579 84.7395 190.72C82.1564 186.877 81.0466 182.499 81.4102 177.584C81.8038 172.566 83.6384 168.477 86.9141 165.317C91.834 160.571 96.8186 158.992 101.868 160.581ZM102.294 174.909C101.954 174.339 101.662 173.91 101.418 173.621C100.294 172.287 99.0599 171.632 97.7175 171.655L98.2229 170.082C95.7305 169.02 93.4356 169.5 91.3381 171.524C89.2148 173.572 88.0621 176.006 87.8802 178.825C87.705 181.513 88.4181 184.154 90.0195 186.749C90.3941 187.36 90.7322 187.845 91.0337 188.202C92.4949 189.935 94.2149 190.945 96.1935 191.231C98.2806 191.562 100.12 190.959 101.713 189.423C103.616 187.587 104.542 185.247 104.492 182.403C104.437 179.887 103.704 177.389 102.294 174.909Z" fill="white"/>
<path d="M123.675 150.447C123.579 149.945 123.505 149.427 123.453 148.894C123.025 145.47 122.647 140.697 122.319 134.576L122.984 134.013C124.268 132.876 125.791 131.615 127.555 130.231C127.762 133.568 128.282 138.471 129.117 144.94C129.157 145.109 129.281 145.777 129.489 146.946C131.993 143.052 133.743 138.25 134.738 132.54C135.178 130.021 135.346 127.693 135.24 125.555L135.972 124.945C137.241 123.819 138.749 122.568 140.498 121.194C141.286 126.622 140.657 132.656 138.61 139.297C137.594 142.7 136.151 145.711 134.279 148.332C136.364 148.059 138.568 148.414 140.893 149.397C143.342 150.446 145.106 151.854 146.184 153.62C146.465 154.08 146.703 154.626 146.898 155.256L141.003 161.934C140.665 160.965 140.233 160.051 139.708 159.192C138.734 157.595 137.523 156.283 136.076 155.256C134.314 153.99 132.664 153.543 131.125 153.917L131.645 155.854C132.076 157.457 132.98 160.506 134.355 164.999L128.467 171.638C127.39 168.011 126.369 164.201 125.405 160.21C125.22 159.354 125.022 158.462 124.814 157.535C122.355 161.398 120.63 166.172 119.639 171.856C119.209 174.39 119.046 176.726 119.152 178.864L118.42 179.474C117.127 180.595 115.614 181.838 113.88 183.202C113.086 177.8 113.711 171.758 115.754 165.076C116.764 161.699 118.212 158.695 120.098 156.064C118.014 156.337 115.802 155.987 113.463 155.014C110.999 153.976 109.232 152.581 108.164 150.83C107.873 150.354 107.641 149.783 107.466 149.117L113.389 142.485C113.703 143.449 114.123 144.36 114.647 145.22C115.622 146.817 116.833 148.129 118.28 149.155C119.984 150.396 121.782 150.827 123.675 150.447Z" fill="white"/>
<path d="M163.439 107.681L164.372 114.577L162.087 115.798C157.82 118.08 154.526 119.963 152.206 121.448L153.798 121.544C153.813 122.086 153.874 123.51 153.98 125.816C153.986 126.423 154.011 127.133 154.053 127.946L162.448 123.061L163.142 129.32L154.856 134.117C155.105 136.305 155.532 139.021 156.135 142.263C158.374 140.903 161.729 138.875 166.2 136.179L167.049 143.088C165.875 143.716 164.844 144.267 163.956 144.742L162.814 145.353C159.895 146.914 155.832 149.676 150.626 153.641L150.592 153.568C150.508 153.388 150.221 151.841 149.731 148.925C149.17 145.518 148.78 142.712 148.562 140.506C148.186 136.817 147.953 133.01 147.864 129.085C147.832 127.616 147.84 126.063 147.889 124.428C146.584 125.329 145.348 126.184 144.179 126.992L143.084 119.939C145.729 118.26 148.902 116.288 152.603 114.025C154.811 112.681 158.423 110.567 163.439 107.681Z" fill="white"/>
<path d="M204.559 90.56L204.74 105.443C204.733 105.799 204.736 107.513 204.751 110.585L204.846 117.354C204.86 120.035 204.945 122.668 205.102 125.254L195.814 130.706C195.91 127.865 196.138 123.953 196.498 118.97C196.618 117.464 196.775 114.839 196.969 111.095C197.052 109.357 197.255 107.037 197.576 104.133C195.896 105.302 193.951 109.61 191.741 117.057C190.892 119.843 190.347 123.665 190.105 128.523L182.371 132.822C182.361 132.471 182.28 131.98 182.129 131.35C181.38 128.219 179.994 124.171 177.974 119.206C177.21 117.253 176.707 116.309 176.464 116.376L175.273 124.028C174.735 127.494 174.658 130.647 175.042 133.487L167.302 137.76C167.402 133.93 167.621 130.02 167.96 126.031C168.214 122.998 168.767 119.248 169.621 114.783C170 112.815 170.572 110.337 171.335 107.35C171.355 107.047 171.346 106.816 171.308 106.659C171.195 106.186 170.831 105.475 170.215 104.525C169.411 103.329 168.958 102.633 168.855 102.437L176.386 98.4448C178.128 101.398 179.68 104.133 181.04 106.649C182.998 110.27 184.36 113.449 185.126 116.184C186.512 109.541 188.842 104.14 192.117 99.9802C193.308 98.2372 194.584 96.7319 195.944 95.4644C197.004 94.4845 198.183 93.6581 199.483 92.9852C201.165 92.0583 202.189 91.5077 202.554 91.3331C203.275 91.0238 203.943 90.7661 204.559 90.56Z" fill="white"/>
<path d="M243.897 94.5783C243.854 93.3738 243.022 92.5167 241.402 92.0072C240.928 91.8466 240.17 91.7877 239.128 91.8305L238.561 91.8537C237.628 91.9281 236.379 92.2225 234.813 92.7369L236.46 93.4794C235.937 94.4551 235.422 95.6556 234.915 97.0807C234.864 97.1728 234.588 97.9944 234.085 99.5454L236.024 99.3847C238.017 99.2489 239.687 98.8922 241.035 98.3147C243.002 97.4598 243.956 96.2143 243.897 94.5783ZM232.427 105.258L231.729 107.609C231.268 109.32 230.46 112.873 229.303 118.268L229.062 118.305C226.669 118.853 223.943 119.614 220.881 120.586C221.779 116.516 222.888 112.293 224.207 107.918C225.008 105.166 226.295 101.648 228.067 97.362C228.414 96.5015 228.93 95.337 229.615 93.8686C228.976 94.1109 228.434 94.2952 227.988 94.4215L226.095 86.8024C229.92 86.0692 233.226 85.6453 236.012 85.5309C236.659 85.5043 237.38 85.5108 238.173 85.5502C240.408 85.6205 241.688 85.6759 242.013 85.7166C243.189 85.8663 244.506 86.2173 245.966 86.7695C249.159 87.9527 250.812 90.1353 250.927 93.3174C250.943 93.7668 250.891 94.3361 250.772 95.0251C250.189 98.848 247.357 101.692 242.276 103.557C239.575 104.532 236.292 105.099 232.427 105.258Z" fill="white"/>
<path d="M282.211 85.7525L279.715 92.1147L277.132 91.9226C272.306 91.5636 268.522 91.3905 265.782 91.4031L267.127 92.3419C266.88 92.8106 266.249 94.0534 265.235 96.0704C264.949 96.5902 264.629 97.2068 264.276 97.9202L273.96 98.2887L271.561 103.982L262.014 103.596C261.182 105.591 260.251 108.128 259.221 111.208C261.832 111.258 265.738 111.341 270.94 111.457L268.365 117.787C267.038 117.688 265.872 117.601 264.867 117.527L263.575 117.431C260.275 117.185 255.397 117.345 248.943 117.911L248.948 117.831C248.961 117.633 249.453 116.164 250.424 113.422C251.57 110.224 252.577 107.629 253.445 105.638C254.888 102.3 256.513 98.9391 258.319 95.556C258.996 94.2896 259.749 92.9746 260.576 91.6112C259.004 91.6746 257.513 91.735 256.103 91.7925L258.532 85.2089C261.651 85.2063 265.371 85.2395 269.693 85.3085C272.268 85.3557 276.44 85.5037 282.211 85.7525Z" fill="white"/>
<path d="M287.947 113.348C289.208 111.098 290.316 109.229 291.27 107.741C293.223 104.628 295.356 101.534 297.667 98.4598C298.04 97.9325 298.741 96.9696 299.77 95.5711L302.754 91.4914C303.534 90.3522 304.171 89.5321 304.667 89.0311L306.091 89.197C306.284 89.2383 306.495 89.2834 306.724 89.3322C307.375 89.4711 308.187 89.5801 309.16 89.659L311.304 89.7857C311.069 90.0665 310.348 91.0893 309.14 92.8544L304.266 100.006C304.146 100.256 303.809 100.791 303.253 101.61C302.978 102.103 302.313 103.267 301.257 105.101L298.147 110.45C297.39 111.76 296.567 113.276 295.679 114.999C297.597 115.408 298.704 115.598 299.002 115.57L299.472 117.463C300.499 115.586 301.563 113.708 302.664 111.828C302.808 111.546 303.319 110.671 304.196 109.204L307.217 104.635C309.787 100.863 313.139 96.5213 317.275 91.6116L318.187 91.7236C319.874 91.8997 321.812 92.1479 324.003 92.4683C321.345 95.6339 318.481 99.4634 315.411 103.957C314.31 105.542 312.524 108.692 310.053 113.405C309.658 114.148 309.029 115.366 308.165 117.057L305.182 123.04L300.424 122.217L297.422 121.687C294.875 121.217 286.443 119.546 272.124 116.674C273.907 113.395 275.756 110.002 277.673 106.494C279.154 103.85 281.169 100.749 283.717 97.1925C285.674 94.4475 288.565 90.8168 292.39 86.3004L293.196 86.3898C294.9 86.5696 296.857 86.8216 299.065 87.1458C297.009 89.6309 294.145 93.4604 290.473 98.6344C290.397 98.7469 290.049 99.2886 289.428 100.26L286.016 106.344L285.089 108.077C284.632 108.954 283.961 110.346 283.075 112.253C284.848 112.65 286.472 113.015 287.947 113.348Z" fill="white"/>
<path d="M320.648 124.17L311.942 123.827C313.797 120.547 315.793 117.261 317.929 113.97C319.55 111.464 321.762 108.494 324.565 105.059C325.803 103.547 327.446 101.685 329.493 99.4717C330.648 98.1413 332.061 96.6334 333.733 94.9479L341.346 96.7425L335.976 102.426C334.19 104.415 332.123 106.96 329.777 110.059L329.384 110.619C336.296 105.908 342.848 102.067 349.04 99.0943L356.627 100.994C354.425 102.356 352.166 103.946 349.848 105.762C349.206 106.754 347.996 108.63 346.218 111.39C345.084 112.932 343.141 115.971 340.392 120.508C339.64 121.712 338.184 124.153 336.024 127.831L327.324 127.462C327.473 127.168 327.799 126.654 328.301 125.92C328.803 125.186 329.806 123.652 331.308 121.319C335.036 116 337.369 112.7 338.308 111.419C337.752 111.706 336.666 112.401 335.05 113.504C329.298 117.372 324.911 120.542 321.889 123.015C321.297 123.517 320.884 123.902 320.648 124.17Z" fill="white"/>
<path d="M379.708 108.584L375.876 114.162L373.327 113.278C370.845 112.417 368.687 111.698 366.853 111.119L368.375 112.788C366.217 114.951 363.171 118.927 359.238 124.716C357.778 126.931 355.879 129.973 353.541 133.842L353.288 133.84C351.297 133.53 348.504 133.266 344.908 133.046C347.138 129.406 349.544 125.807 352.125 122.25C353.719 120.025 356.069 117.168 359.174 113.679C359.924 112.816 361.092 111.566 362.678 109.928C359.914 109.255 356.756 108.55 353.204 107.813L357.022 102.002C360.183 102.851 363.764 103.836 367.763 104.956C370.235 105.661 374.217 106.87 379.708 108.584Z" fill="white"/>
<path d="M387.935 135.295C388.332 134.138 387.884 133.007 386.591 131.901C386.22 131.543 385.54 131.17 384.552 130.783L384 130.566C383.916 130.533 383.801 130.479 383.657 130.403C383.534 130.316 383.44 130.259 383.373 130.233C383.172 130.154 382.824 130.115 382.331 130.114L381.448 131.274C380.744 131.943 379.845 132.846 378.753 133.981C378.582 134.204 378.06 134.868 377.187 135.973L378.979 136.647C380.844 137.302 382.51 137.626 383.974 137.622C386.09 137.602 387.41 136.827 387.935 135.295ZM379.469 122.418C380.049 121.835 380.552 121.337 380.978 120.925C381.337 120.545 381.764 120.104 382.258 119.603C383.367 118.474 385.883 116.179 389.806 112.718L390.62 112.921C392.269 113.375 394.153 113.95 396.27 114.645C393.976 116.68 391.337 119.225 388.351 122.282C388.037 122.642 387.707 123.024 387.359 123.428C387.28 123.493 386.881 123.964 386.162 124.841C387.335 125.243 388.415 125.695 389.402 126.198C390.438 126.778 391.521 127.638 392.65 128.776C395.167 131.133 395.909 133.818 394.876 136.83C394.724 137.273 394.467 137.799 394.106 138.41C391.539 142.906 387.533 144.752 382.09 143.948C381.883 143.887 380.044 143.378 376.572 142.421L371.396 141.057C369.518 140.552 367.748 140.089 366.087 139.67C368.365 136.239 370.891 132.751 373.665 129.205C373.848 128.949 374.05 128.691 374.273 128.43C373.611 128.364 373.056 128.32 372.608 128.299L373.23 120.666C375.568 121.274 377.647 121.858 379.469 122.418Z" fill="white"/>
<path d="M438.412 142.169C438.926 141.079 438.602 139.893 437.438 138.612C437.088 138.218 436.453 137.774 435.535 137.278L435.06 137.022C434.222 136.61 433.002 136.227 431.402 135.873L432.481 137.374C431.599 137.98 430.605 138.781 429.5 139.776C429.414 139.832 428.799 140.419 427.656 141.537L429.424 142.399C431.204 143.299 432.799 143.834 434.209 144.003C436.312 144.26 437.713 143.649 438.412 142.169ZM428.74 151.676C429.262 150.57 428.946 149.388 427.791 148.132C427.464 147.731 426.841 147.282 425.923 146.787L425.377 146.492C425.298 146.449 425.191 146.381 425.056 146.288C424.945 146.187 424.865 146.124 424.818 146.098C424.628 145.996 424.281 145.91 423.777 145.842L422.798 146.906C422.01 147.481 421.02 148.274 419.829 149.284C419.618 149.476 419.02 150.072 418.032 151.07L419.73 151.955C421.502 152.83 423.112 153.353 424.561 153.523C426.656 153.756 428.049 153.14 428.74 151.676ZM435.733 150.368C435.787 152.275 435.675 153.521 435.399 154.107C435.192 154.546 434.883 155.053 434.473 155.628C431.445 159.729 427.283 161.055 421.989 159.605C421.791 159.519 420.029 158.792 416.701 157.425L411.735 155.448C409.933 154.72 408.234 154.048 406.639 153.431C409.277 150.283 412.166 147.106 415.307 143.903C417.258 141.874 419.978 139.413 423.469 136.52C424.162 135.935 425.14 135.167 426.403 134.216C425.757 134.112 425.205 133.998 424.748 133.873L426.605 126.149C430.239 127.458 433.282 128.774 435.736 130.099C436.321 130.415 436.947 130.794 437.613 131.235C439.491 132.432 440.561 133.132 440.823 133.335C441.767 134.069 442.742 135.055 443.747 136.292C445.957 138.975 446.383 141.756 445.024 144.636C444.832 145.043 444.534 145.525 444.132 146.084C442.258 148.624 439.458 150.052 435.733 150.368Z" fill="white"/>
<path d="M458.745 150.554C457.602 151.182 455.112 152.829 451.275 155.496L448.081 157.712L452.156 159.69L452.766 160.906C454.302 159.571 456.095 156.592 458.146 151.972C458.452 151.281 458.652 150.808 458.745 150.554ZM450.086 164.29L443.88 161.533C441.74 162.945 439.423 165.023 436.928 167.766L428.506 165.818C429.094 165.069 431.068 163.321 434.429 160.574L437.919 157.692C441.242 154.987 445.912 151.948 451.929 148.575C455.234 146.707 458.369 145.155 461.335 143.92C462.504 144.473 464.265 145.267 466.618 146.299L465.615 149.024C464.852 151.054 464.062 152.99 463.245 154.832C461.647 158.433 459.902 161.657 458.009 164.504C457.623 164.933 456.241 166.961 453.865 170.59C452.886 172.088 452.042 173.281 451.333 174.17L442.875 172.235C444.193 170.728 446.596 168.08 450.086 164.29Z" fill="white"/>
<path d="M507.254 164.271L499.214 176.497C499.013 176.782 498.073 178.179 496.395 180.689L492.749 186.257C491.286 188.447 489.906 190.644 488.61 192.847L478.145 191.453C479.785 189.201 482.12 186.161 485.149 182.331C486.074 181.181 487.644 179.144 489.859 176.219C490.882 174.856 492.321 173.095 494.176 170.934C492.183 170.831 488.25 173.116 482.377 177.789C480.163 179.524 477.622 182.292 474.756 186.093L466.175 184.737C466.36 184.445 466.565 183.995 466.79 183.387C467.909 180.368 469.022 176.204 470.128 170.895C470.588 168.826 470.702 167.743 470.471 167.644L465.305 173.125C462.966 175.607 461.171 178.125 459.918 180.678L451.345 179.297C453.532 176.242 455.858 173.198 458.324 170.164C460.197 167.855 462.704 165.151 465.846 162.052C467.233 160.689 469.055 159.031 471.311 157.08C471.494 156.845 471.614 156.652 471.67 156.5C471.839 156.044 471.937 155.237 471.965 154.077C471.976 152.599 471.995 151.748 472.02 151.524L480.269 153.002C480.046 156.499 479.789 159.699 479.499 162.602C479.081 166.777 478.428 170.219 477.539 172.926C482.307 168.389 487.151 165.456 492.071 164.127C493.987 163.456 495.84 163.032 497.631 162.855C499.022 162.722 500.425 162.79 501.839 163.058C503.701 163.36 504.827 163.554 505.217 163.641C505.966 163.842 506.645 164.052 507.254 164.271Z" fill="white"/>
<path d="M531.624 182.404C530.595 183.225 528.401 185.285 525.041 188.585L522.243 191.329L526.61 192.536L527.417 193.618C528.717 192.034 530 188.795 531.265 183.901C531.454 183.17 531.574 182.671 531.624 182.404ZM525.321 197.414L518.713 195.826C516.826 197.592 514.874 200.043 512.857 203.178L504.186 202.779C504.644 201.94 506.311 199.874 509.186 196.58L512.167 193.131C515.012 189.885 519.136 186.07 524.54 181.688C527.506 179.265 530.356 177.183 533.09 175.442C534.341 175.774 536.218 176.235 538.721 176.825L538.179 179.674C537.76 181.8 537.298 183.838 536.794 185.789C535.808 189.603 534.614 193.075 533.211 196.203C532.899 196.692 531.866 198.927 530.113 202.908C529.391 204.551 528.753 205.871 528.197 206.87L519.494 206.49C520.549 204.777 522.492 201.752 525.321 197.414Z" fill="white"/>
<path d="M559.163 191.695C559.333 190.502 558.668 189.492 557.169 188.665C556.715 188.408 555.973 188.197 554.944 188.029L554.411 187.942C553.483 187.827 552.197 187.864 550.553 188.052L552.037 189.114C551.37 189.971 550.653 191.048 549.887 192.344C549.822 192.425 549.406 193.177 548.64 194.601L550.595 194.838C552.574 195.105 554.266 195.089 555.671 194.789C557.768 194.347 558.933 193.316 559.163 191.695ZM552.7 203.791C552.872 202.579 552.217 201.571 550.733 200.764C550.299 200.493 549.567 200.274 548.537 200.106L547.925 200.006C547.836 199.992 547.713 199.963 547.556 199.919C547.419 199.86 547.324 199.826 547.27 199.818C547.057 199.783 546.698 199.816 546.194 199.916L545.57 201.236C544.984 202.033 544.269 203.101 543.424 204.44C543.28 204.689 542.881 205.445 542.23 206.705L544.124 206.986C546.088 207.233 547.791 207.201 549.234 206.889C551.317 206.426 552.472 205.393 552.7 203.791ZM559.031 200.284C559.65 202.061 559.914 203.27 559.822 203.912C559.754 204.392 559.608 204.97 559.385 205.644C557.696 210.49 554.092 213.092 548.573 213.451C548.357 213.434 546.447 213.323 542.843 213.119L537.482 212.875C535.534 212.776 533.701 212.697 531.984 212.636C533.582 208.814 535.413 204.884 537.477 200.847C538.748 198.302 540.63 195.101 543.123 191.243C543.615 190.467 544.326 189.425 545.257 188.119C544.605 188.231 544.041 188.304 543.564 188.335L543.049 180.461C546.93 180.51 550.247 180.759 552.999 181.207C553.656 181.314 554.37 181.466 555.141 181.665C557.302 182.181 558.539 182.491 558.851 182.597C559.977 182.981 561.207 183.591 562.541 184.428C565.463 186.234 566.7 188.713 566.251 191.865C566.188 192.311 566.046 192.862 565.825 193.518C564.781 196.519 562.516 198.774 559.031 200.284Z" fill="white"/>
<path d="M578.874 192.093C578.083 193.173 576.474 195.773 574.046 199.893L572.023 203.32L576.556 203.238L577.609 204.047C578.472 202.158 578.903 198.686 578.902 193.631C578.901 192.876 578.892 192.363 578.874 192.093ZM576.53 208.284L569.731 208.637C568.346 210.868 567.069 213.774 565.901 217.354L557.401 219.434C557.635 218.498 558.732 216.042 560.692 212.066L562.715 207.91C564.656 203.988 567.696 199.157 571.832 193.417C574.098 190.251 576.337 187.444 578.549 184.996C579.844 184.96 581.778 184.87 584.35 184.725L584.54 187.612C584.666 189.771 584.73 191.858 584.73 193.873C584.731 197.812 584.444 201.482 583.869 204.882C583.69 205.44 583.249 207.878 582.549 212.195C582.261 213.976 581.974 215.425 581.686 216.54L573.16 218.647C573.753 216.704 574.877 213.25 576.53 208.284Z" fill="white"/>
<path d="M606.722 192.521C606.463 191.344 605.496 190.67 603.819 190.498C603.327 190.436 602.575 190.532 601.563 190.787L601.014 190.925C600.114 191.188 598.945 191.732 597.506 192.557L599.25 192.953C598.914 194.021 598.626 195.307 598.386 196.814C598.353 196.915 598.23 197.78 598.018 199.409L599.884 198.857C601.809 198.317 603.379 197.626 604.593 196.783C606.363 195.541 607.073 194.12 606.722 192.521ZM597.422 205.371L597.161 207.829C597.018 209.608 596.866 213.271 596.704 218.818L596.474 218.903C594.233 219.93 591.703 221.234 588.883 222.814C589.03 218.624 589.356 214.24 589.86 209.664C590.149 206.792 590.776 203.065 591.739 198.485C591.924 197.567 592.22 196.315 592.626 194.73C592.044 195.098 591.547 195.39 591.134 195.605L587.913 188.489C591.523 186.988 594.68 185.898 597.385 185.218C598.013 185.06 598.718 184.92 599.501 184.797C601.7 184.412 602.961 184.206 603.287 184.179C604.464 184.088 605.815 184.165 607.342 184.412C610.677 184.927 612.686 186.739 613.37 189.849C613.466 190.289 613.518 190.86 613.525 191.562C613.642 195.445 611.383 198.822 606.749 201.692C604.282 203.202 601.173 204.429 597.422 205.371Z" fill="white"/>
<path d="M626.096 213.612L619.5 219.577C618.799 215.789 618.197 211.896 617.695 207.899C617.308 204.859 617.063 201.049 616.96 196.467C616.917 194.447 616.951 191.875 617.061 188.751C617.072 186.927 617.16 184.785 617.326 182.324L624.033 178.23L623.668 186.335C623.609 189.105 623.693 192.491 623.92 196.495L623.984 197.196C626.091 188.72 628.479 181.154 631.149 174.497L637.902 170.5C637.145 173.097 636.487 175.905 635.93 178.924C636.083 180.128 636.375 182.401 636.805 185.743C636.943 187.712 637.429 191.382 638.264 196.752C638.469 198.193 638.936 201.066 639.663 205.371L633.056 211.312C632.981 210.985 632.897 210.366 632.803 209.456C632.71 208.547 632.481 206.679 632.116 203.853C631.507 197.196 631.144 193.051 631.026 191.419C630.8 192.032 630.441 193.33 629.949 195.312C628.164 202.327 626.941 207.843 626.279 211.858C626.161 212.658 626.1 213.243 626.096 213.612Z" fill="white"/>
<path d="M654.513 199.194L649.205 206.356C647.803 202.757 646.478 199.035 645.23 195.191C644.277 192.269 643.316 188.559 642.347 184.061C641.923 182.077 641.469 179.534 640.984 176.432C640.649 174.631 640.33 172.502 640.026 170.044L645.797 164.705L646.977 172.767C647.443 175.51 648.167 178.834 649.147 182.738L649.342 183.417C649.793 174.65 650.691 166.725 652.037 159.642L657.872 154.39C657.624 157.098 657.514 159.994 657.542 163.08C657.919 164.238 658.635 166.423 659.688 169.635C660.195 171.549 661.365 175.073 663.197 180.207C663.671 181.588 664.671 184.331 666.196 188.435L660.872 195.575C660.736 195.267 660.537 194.674 660.274 193.795C660.01 192.916 659.433 191.118 658.542 188.402C656.686 181.956 655.546 177.939 655.122 176.353C655.017 177.001 654.912 178.351 654.808 180.401C654.394 187.665 654.245 193.341 654.359 197.429C654.396 198.241 654.447 198.829 654.513 199.194ZM642.45 160.204C644.848 155.937 647.11 152.367 649.237 149.495L649.834 149.628C650.651 151.845 651.277 153.649 651.713 155.039C649.259 157.646 646.711 160.565 644.069 163.797L643.541 164.307C643.138 162.961 642.774 161.593 642.45 160.204Z" fill="white"/>
<path d="M675.613 136.662C676.725 140.76 678.243 145.463 680.167 150.769C680.87 152.673 682.448 156.061 684.9 160.932C685.553 162.259 686.877 164.865 688.873 168.752L684.498 176.524C682.847 173.241 681.251 169.899 679.711 166.498C679.587 166.183 679.168 165.211 678.453 163.583L673.211 170.706L674.098 172.518C674.862 173.989 676.383 176.779 678.662 180.888L674.269 188.602C672.47 185.266 670.69 181.754 668.928 178.064C667.597 175.228 666.185 171.662 664.692 167.367C663.569 164.071 662.224 159.46 660.655 153.536L661.151 152.885C662.181 151.491 663.414 149.932 664.849 148.208C665.738 151.44 667.256 156.142 669.403 162.315C669.464 162.459 669.723 163.089 670.179 164.206L674.796 157.793L676.437 158.323C674.772 153.897 673.087 148.466 671.382 142.03L671.971 141.28C672.977 139.912 674.191 138.373 675.613 136.662Z" fill="white"/>
<path d="M705.372 118.2L701.055 110.529C699.999 108.651 699.393 107.53 699.235 107.166L698.265 109.055C697.806 109.934 697.376 110.65 696.974 111.203C696.848 111.378 696.716 111.56 696.578 111.75L695.838 112.955C696.095 113.61 696.556 114.564 697.223 115.816L699.624 120.395C700.438 121.933 700.994 123.001 701.293 123.598C703.075 127.104 704.925 130.456 706.841 133.654C707.97 135.523 709.539 137.885 711.549 140.741C713.234 143.187 714.153 144.474 714.306 144.6L714.368 144.652C715.084 142.47 716.255 140.014 717.881 137.281L714.399 131.945C713.806 131.081 713.029 129.935 712.067 128.508L708.652 123.264C707.457 121.456 706.694 120.322 706.363 119.861C705.878 118.97 705.548 118.416 705.372 118.2ZM701.479 141.696C700.537 140.915 699.387 140.987 698.029 141.913C697.591 142.18 697.061 142.744 696.438 143.603L696.106 144.062C696.053 144.135 695.972 144.231 695.863 144.35C695.741 144.459 695.658 144.542 695.616 144.6C695.5 144.76 695.374 145.087 695.238 145.581L696.033 146.869C696.458 147.782 697.036 148.972 697.767 150.441C697.922 150.686 698.377 151.436 699.13 152.69L700.25 151.1C701.356 149.452 702.102 147.902 702.489 146.451C703.062 144.314 702.725 142.729 701.479 141.696ZM687.466 145.888C687.085 145.129 686.766 144.468 686.509 143.905C686.272 143.406 685.994 142.826 685.675 142.165C684.954 140.681 683.561 137.404 681.494 132.332L681.886 131.608C682.761 130.095 683.799 128.402 685.001 126.53C686.23 129.485 687.822 132.962 689.778 136.962C690.019 137.395 690.27 137.859 690.531 138.355C690.568 138.457 690.892 139.005 691.501 139.999C692.177 138.974 692.879 138.052 693.606 137.232C694.428 136.374 695.51 135.569 696.853 134.818C699.684 133.084 702.325 133.233 704.776 135.265C705.136 135.564 705.539 136.002 705.984 136.581C709.361 140.64 709.943 145.25 707.732 150.412C707.608 150.613 706.636 152.291 704.816 155.445L702.174 160.146C701.2 161.856 700.295 163.473 699.458 164.994C696.968 161.577 694.489 157.901 692.02 153.966C691.848 153.683 691.674 153.388 691.499 153.079C691.257 153.718 691.065 154.259 690.923 154.7L684.164 151.545C685.357 149.409 686.458 147.524 687.466 145.888Z" fill="white"/>
<path d="M720.002 82.7276L722.671 89.181L720.793 90.9661C717.287 94.3007 714.612 96.9932 712.768 99.0434L714.32 98.7198C714.474 99.242 714.898 100.609 715.593 102.821C715.756 103.41 715.962 104.093 716.212 104.871L723.008 97.9259L725.284 103.823L718.569 110.655C719.372 112.715 720.479 115.241 721.892 118.232C723.69 116.324 726.387 113.475 729.982 109.685L732.575 116.173C731.61 117.091 730.763 117.897 730.033 118.591L729.094 119.483C726.695 121.764 723.509 125.512 719.535 130.728L719.483 130.666C719.357 130.513 718.684 129.086 717.463 126.382C716.048 123.22 714.952 120.596 714.176 118.511C712.866 115.025 711.663 111.389 710.568 107.6C710.159 106.181 709.767 104.671 709.393 103.07C708.374 104.287 707.408 105.441 706.494 106.532L703.629 99.9688C705.735 97.6444 708.271 94.8978 711.239 91.729C713.011 89.8456 715.932 86.8452 720.002 82.7276Z" fill="white"/>
<path d="M767.183 82.0786C766.517 86.8644 764.196 90.683 760.219 93.5345C757.003 95.8408 753.739 96.4141 750.427 95.2543C747.36 94.1831 744.7 91.849 742.445 88.2519C741.958 87.4745 741.485 86.62 741.029 85.6883C738.996 81.5338 738.436 77.1079 739.348 72.4107C740.276 67.6362 742.486 63.9963 745.98 61.4908C751.258 57.7063 756.23 57.0017 760.898 59.3768L756.305 67.9726C754.027 66.5353 751.784 66.6082 749.577 68.1912C747.296 69.8266 745.902 71.9972 745.394 74.7031C744.927 77.27 745.311 79.9442 746.546 82.726C746.831 83.3834 747.098 83.9102 747.346 84.3065C748.55 86.227 750.084 87.4909 751.948 88.0984C753.928 88.7554 755.759 88.4811 757.44 87.2755C759.282 85.9546 760.41 84.0189 760.824 81.4683L767.183 82.0786Z" fill="white"/>
<path d="M776.772 77.5719L770.297 83.6719C769.523 79.8967 768.847 76.0145 768.267 72.0253C767.823 68.9927 767.505 65.1857 767.313 60.6042C767.232 58.5843 767.216 56.0105 767.265 52.8828C767.241 51.0578 767.288 48.9131 767.407 46.4487L774.029 42.2178L773.821 50.3327C773.815 53.1048 773.964 56.4913 774.268 60.4923L774.345 61.1922C776.287 52.6702 778.527 45.0526 781.067 38.3393L787.737 34.205C787.03 36.8179 786.427 39.6402 785.929 42.6719C786.105 43.8735 786.44 46.1417 786.935 49.4765C787.11 51.443 787.666 55.1042 788.604 60.4599C788.837 61.8976 789.359 64.7623 790.169 69.0542L783.682 75.13C783.6 74.8045 783.504 74.1876 783.393 73.2793C783.283 72.3711 783.018 70.507 782.599 67.6872C781.862 61.0398 781.419 56.9009 781.27 55.2704C781.056 55.8882 780.722 57.1939 780.269 59.1873C778.62 66.2409 777.504 71.783 776.921 75.8136C776.818 76.6158 776.768 77.2019 776.772 77.5719Z" fill="white"/>
<path d="M812.821 22.2414L813.205 29.1649L810.721 30.2193C808.304 31.2457 806.218 32.1602 804.465 32.963L806.629 33.2157C806.262 36.3585 806.295 41.5083 806.728 48.6651C806.927 51.3721 807.283 55.018 807.797 59.6027L807.601 59.7735C805.888 60.8911 803.586 62.5907 800.695 64.8722C800.237 60.5377 799.938 56.1159 799.798 51.6071C799.695 48.8003 799.795 44.9899 800.098 40.176C800.159 38.9982 800.31 37.2356 800.551 34.8884C798.028 36.2521 795.184 37.8596 792.019 39.7111L791.485 32.6169C794.417 31.1182 797.752 29.4389 801.49 27.5789C803.808 26.4387 807.585 24.6595 812.821 22.2414Z" fill="white"/>
<path d="M832.302 34.5668C831.265 37.6707 830.511 42.6762 830.04 49.5833L829.8 49.7363C827.951 50.6416 825.476 52.0446 822.376 53.9455C822.365 53.0882 822.848 49.9564 823.826 44.5499L825.533 36.5114C824.668 35.1326 823.649 33.1057 822.477 30.4307C820.882 26.8857 819.932 24.8016 819.627 24.1783C818.787 22.5304 818.015 21.3023 817.312 20.4943L824.003 18.572C824.486 19.3873 825.163 20.8296 826.035 22.8987L828.736 29.4463C829.036 28.4996 829.882 25.778 831.274 21.2815C832.092 18.6334 832.849 16.7789 833.547 15.718L840.481 12.6597C839.297 14.5898 837.39 19.4309 834.758 27.1832C833.665 30.3593 832.846 32.8205 832.302 34.5668Z" fill="white"/>
<path d="M856.747 16.4756C856.09 17.6535 854.799 20.4507 852.876 24.8672L851.273 28.5417L855.756 27.8539L856.894 28.5168C857.528 26.5253 857.548 23.0195 856.955 17.9994C856.866 17.2491 856.797 16.7411 856.747 16.4756ZM856.321 32.8686L849.624 34.1281C848.513 36.5289 847.588 39.5853 846.85 43.2971L838.67 46.4993C838.792 45.539 839.591 42.9534 841.068 38.7425L842.586 34.3446C844.051 30.1897 846.496 24.9856 849.923 18.7323C851.798 15.2844 853.688 12.1973 855.593 9.47123C856.873 9.26196 858.779 8.91353 861.311 8.42593L861.837 11.268C862.215 13.3949 862.523 15.4588 862.759 17.4597C863.221 21.3721 863.367 25.0551 863.196 28.5087C863.083 29.0867 862.932 31.5664 862.744 35.948C862.667 37.7552 862.552 39.2319 862.398 40.3781L854.195 43.6108C854.555 41.6018 855.264 38.0211 856.321 32.8686Z" fill="white"/>
<path d="M879.42 39.8975C876.854 39.7105 870.901 39.2354 861.56 38.4722C863.021 35.0219 864.537 31.4508 866.109 27.7588C867.331 24.9714 869.04 21.6639 871.238 17.8362C872.923 14.9149 875.453 11.0122 878.828 6.12833L879.643 6.10221C881.359 6.09485 883.332 6.14061 885.563 6.23947C883.754 8.9313 881.27 13.0284 878.111 18.5308C878.045 18.6687 877.749 19.2625 877.223 20.3122L874.41 26.6993L873.653 28.5212C873.281 29.4599 872.747 30.9065 872.051 32.8611C876.944 33.4821 879.737 33.7553 880.43 33.6807L881.054 35.5066C881.918 33.4966 882.807 31.5073 883.721 29.5387C883.836 29.261 884.261 28.3367 884.995 26.7657L887.563 21.9267C889.762 17.8822 892.685 13.2058 896.332 7.89738L897.255 7.88211C898.953 7.87295 900.899 7.91599 903.094 8.01123C900.77 11.4284 898.286 15.5255 895.643 20.3026C894.713 22.0347 893.236 25.3657 891.211 30.2957C890.906 31.0964 890.396 32.3737 889.681 34.1275C891.23 34.1756 892.51 34.1965 893.522 34.1903L890.971 40.6852C890.217 40.6271 889.113 40.5517 887.659 40.4589L889.785 41.8399L887.778 46.166L887.531 46.1953C885.059 46.3794 882.175 46.7297 878.879 47.2464C879.988 44.9177 881.191 42.5443 882.488 40.1261C881.466 40.041 880.443 39.9647 879.42 39.8975Z" fill="white"/>
<path d="M900.638 37.6166L892.01 36.5383C894.107 33.4178 896.344 30.3034 898.722 27.195C900.526 24.8286 902.954 22.048 906.006 18.8532C907.354 17.447 909.13 15.7248 911.336 13.6868C912.587 12.4551 914.108 11.0679 915.9 9.52513L923.329 11.9613L917.553 17.1863C915.623 19.023 913.373 21.3904 910.801 24.2888L910.367 24.8149C917.602 20.6926 924.411 17.408 930.796 14.9611L938.19 17.4996C935.896 18.6751 933.528 20.0721 931.084 21.6907C930.369 22.6284 929.021 24.4005 927.041 27.0073C925.794 28.4524 923.629 31.3249 920.545 35.6249C919.705 36.7647 918.07 39.0807 915.638 42.573L907.019 41.469C907.19 41.1882 907.553 40.7023 908.109 40.0114C908.665 39.3206 909.78 37.8727 911.454 35.6679C915.57 30.6686 918.144 27.5686 919.176 26.3678C918.601 26.6084 917.468 27.2111 915.776 28.1761C909.76 31.5552 905.154 34.352 901.96 36.5667C901.333 37.0182 900.892 37.3682 900.638 37.6166Z" fill="white"/>
<path d="M926.78 44.9058L918.879 41.3818C921.732 38.9648 924.717 36.594 927.833 34.2694C930.2 32.498 933.274 30.5051 937.055 28.2906C938.723 27.3172 940.886 26.1613 943.544 24.8232C945.072 23.9907 946.9 23.0856 949.028 22.1077L955.416 26.6013L948.486 29.9971C946.147 31.2199 943.355 32.864 940.112 34.9295L939.555 35.3139C947.566 33.4045 954.942 32.1835 961.684 31.651L968.01 36.2336C965.507 36.7117 962.87 37.3827 960.102 38.2466C959.164 38.9485 957.395 40.2761 954.794 42.2294C953.211 43.2694 950.362 45.4269 946.246 48.7019C945.134 49.5633 942.941 51.3344 939.667 54.0151L931.782 50.4688C932.022 50.2461 932.501 49.8803 933.219 49.3715C933.938 48.8627 935.397 47.7821 937.595 46.1296C942.885 42.4749 946.186 40.2148 947.497 39.3493C946.885 39.4169 945.642 39.6745 943.768 40.122C937.12 41.6625 931.972 43.0451 928.326 44.2698C927.606 44.5266 927.09 44.7386 926.78 44.9058Z" fill="white"/>
</svg>
